<?xml version="1.0" encoding="UTF-8"?>
<svg id="_图层_1" data-name="图层_1" xmlns="http://www.w3.org/2000/svg" version="1.1" viewBox="0 0 512 512">
  <!-- Generator: Adobe Illustrator 30.3.0, SVG Export Plug-In . SVG Version: 2.1.3 Build 182)  -->
  <defs>
    <style>
      .st0 {
        fill: #e1bc27;
      }

      .st1 {
        fill: #aca19d;
      }

      .st2 {
        fill: #71a7a9;
      }

      .st3 {
        fill: #339492;
      }

      .st4 {
        fill: #422d3d;
      }

      .st5 {
        fill: #d5d3cf;
      }

      .st6 {
        fill: #d9c2aa;
      }

      .st7 {
        fill: #274141;
      }

      .st8 {
        fill: #60493d;
      }

      .st9 {
        fill: #3b2e1f;
      }

      .st10 {
        fill: #eadacc;
      }

      .st11 {
        fill: #272322;
      }

      .st12 {
        fill: #419aad;
      }

      .st13 {
        fill: #78a45f;
      }

      .st14 {
        fill: #f8efe7;
      }

      .st15 {
        fill: #5d4b3e;
      }

      .st16 {
        fill: #413027;
      }

      .st17 {
        fill: #cc5e77;
      }

      .st18 {
        fill: #e37c3c;
      }

      .st19 {
        fill: #799451;
      }

      .st20 {
        fill: #e4e2de;
      }

      .st21 {
        fill: #433024;
      }

      .st22 {
        fill: #f9be54;
      }

      .st23 {
        fill: #434214;
      }

      .st24 {
        fill: #92ac65;
      }

      .st25 {
        fill: #c05211;
      }

      .st26 {
        fill: #3a2920;
      }

      .st27 {
        fill: #c44a37;
      }

      .st28 {
        fill: #5e2910;
      }

      .st29 {
        fill: #b6ac45;
      }

      .st30 {
        fill: #e1c81d;
      }

      .st31 {
        fill: #512310;
      }

      .st32 {
        fill: #689fa0;
      }

      .st33 {
        fill: #b44163;
      }

      .st34 {
        fill: #595363;
      }

      .st35 {
        fill: #431e19;
      }

      .st36 {
        fill: #6d3556;
      }

      .st37 {
        fill: #e6cf21;
      }

      .st38 {
        fill: #20adc9;
      }

      .st39 {
        fill: #b04331;
      }

      .st40 {
        fill: #e0e6e2;
      }

      .st41 {
        fill: #97100c;
      }

      .st42 {
        fill: #2b4560;
      }

      .st43 {
        fill: #b7d2c1;
      }

      .st44 {
        fill: #ede3d7;
      }

      .st45 {
        fill: #4f2f0f;
      }

      .st46 {
        fill: #a3af79;
      }

      .st47 {
        fill: #dad5ce;
      }

      .st48 {
        fill: #30a2aa;
      }

      .st49 {
        fill: #8c457d;
      }

      .st50 {
        fill: #a5d3ca;
      }

      .st51 {
        fill: #a61208;
      }

      .st52 {
        fill: #f2c02c;
      }

      .st53 {
        fill: #78667f;
      }

      .st54 {
        fill: #abba87;
      }

      .st55 {
        fill: #1e251c;
      }

      .st56 {
        fill: #92b264;
      }

      .st57 {
        fill: #a1938a;
      }

      .st58 {
        fill: #a4cfca;
      }

      .st59 {
        fill: #789653;
      }

      .st60 {
        fill: #503b15;
      }

      .st61 {
        fill: #a1425c;
      }

      .st62 {
        fill: #a1c3c0;
      }

      .st63 {
        fill: #573f32;
      }

      .st64 {
        fill: #cad0ca;
      }

      .st65 {
        fill: #a5b780;
      }

      .st66 {
        fill: #755374;
      }

      .st67 {
        fill: #e16660;
      }

      .st68 {
        fill: #de7532;
      }

      .st69 {
        fill: #dad6cd;
      }

      .st70 {
        fill: #c76057;
      }

      .st71 {
        fill: #aec196;
      }

      .st72 {
        fill: #e3d0be;
      }

      .st73 {
        fill: #3e1c06;
      }

      .st74 {
        fill: #ac3e59;
      }

      .st75 {
        fill: #9d7a29;
      }

      .st76 {
        fill: #b65013;
      }

      .st77 {
        fill: #43270f;
      }

      .st78 {
        fill: #5c564f;
      }

      .st79 {
        fill: #6f933f;
      }

      .st80 {
        fill: #af5975;
      }

      .st81 {
        fill: #946915;
      }

      .st82 {
        fill: #cea883;
      }

      .st83 {
        fill: #7d9852;
      }

      .st84 {
        fill: #a5e5e9;
      }

      .st85 {
        fill: #e6dbd3;
      }

      .st86 {
        fill: #a1978f;
      }

      .st87 {
        fill: #4f3527;
      }

      .st88 {
        fill: #8f6579;
      }

      .st89 {
        fill: #d4b39c;
      }

      .st90 {
        fill: #4f3e1f;
      }

      .st91 {
        fill: #839f5b;
      }

      .st92 {
        fill: #964c6b;
      }

      .st93 {
        fill: #cb6d39;
      }

      .st94 {
        fill: #eb7123;
      }

      .st95 {
        fill: #d6c2b3;
      }

      .st96 {
        fill: #97b369;
      }

      .st97 {
        fill: #f2d028;
      }

      .st98 {
        fill: #2e2f19;
      }

      .st99 {
        fill: #b79b92;
      }

      .st100 {
        fill: #b1dad9;
      }

      .st101 {
        fill: #237c92;
      }

      .st102 {
        fill: #1da9cd;
      }

      .st103 {
        fill: #7992aa;
      }

      .st104 {
        fill: #b69a8a;
      }

      .st105 {
        fill: #88475f;
      }

      .st106 {
        fill: #675246;
      }

      .st107 {
        fill: #5d503d;
      }

      .st108 {
        fill: #c27e62;
      }

      .st109 {
        fill: #84bacc;
      }

      .st110 {
        fill: #534e49;
      }

      .st111 {
        fill: #c22e26;
      }

      .st112 {
        fill: #584033;
      }

      .st113 {
        fill: #734c66;
      }

      .st114 {
        fill: #9a938a;
      }

      .st115 {
        fill: #e8be9e;
      }

      .st116 {
        fill: #73c0dd;
      }

      .st117 {
        fill: #bbc99f;
      }

      .st118 {
        fill: #f0dcd3;
      }

      .st119 {
        fill: #5f4b3f;
      }

      .st120 {
        fill: #a3927a;
      }

      .st121 {
        fill: #663336;
      }

      .st122 {
        fill: #acb67d;
      }

      .st123 {
        fill: #e8d1c4;
      }

      .st124 {
        fill: #644b3b;
      }

      .st125 {
        fill: #7a495d;
      }

      .st126 {
        fill: #4a463f;
      }

      .st127 {
        fill: #bb8a1e;
      }

      .st128 {
        fill: #f2d5cf;
      }

      .st129 {
        fill: #7f9a59;
      }

      .st130 {
        fill: #cc4c3a;
      }

      .st131 {
        fill: #564032;
      }

      .st132 {
        fill: #483931;
      }

      .st133 {
        fill: #61acc7;
      }

      .st134 {
        fill: #dc5d7d;
      }

      .st135 {
        fill: #9eb77b;
      }

      .st136 {
        fill: #4d200e;
      }

      .st137 {
        fill: #6b8889;
      }

      .st138 {
        fill: #3d2a20;
      }

      .st139 {
        fill: #879392;
      }

      .st140 {
        fill: #a5b786;
      }

      .st141 {
        fill: #319498;
      }

      .st142 {
        fill: #a13b2a;
      }

      .st143 {
        fill: #d2dfdd;
      }

      .st144 {
        fill: #54220f;
      }

      .st145 {
        fill: #36260b;
      }

      .st146 {
        fill: #469f8c;
      }

      .st147 {
        fill: #4a9aa4;
      }

      .st148 {
        fill: #614f43;
      }

      .st149 {
        fill: #7a9a4f;
      }

      .st150 {
        fill: #e5d6cc;
      }

      .st151 {
        fill: #8a5771;
      }

      .st152 {
        fill: #c1d5bc;
      }

      .st153 {
        fill: #332820;
      }

      .st154 {
        fill: #2a3723;
      }

      .st155 {
        fill: #6d968f;
      }

      .st156 {
        fill: #c33d2f;
      }

      .st157 {
        fill: #76a8a8;
      }

      .st158 {
        fill: #d0b8ac;
      }

      .st159 {
        fill: #857356;
      }

      .st160 {
        fill: #f4f2ed;
      }

      .st161 {
        fill: #875828;
      }

      .st162 {
        fill: #a25d76;
      }

      .st163 {
        fill: #3a2419;
      }

      .st164 {
        fill: #20506e;
      }

      .st165 {
        fill: #cf665b;
      }

      .st166 {
        fill: #84a15e;
      }

      .st167 {
        fill: #7d9957;
      }

      .st168 {
        fill: #354955;
      }

      .st169 {
        fill: #d6c936;
      }

      .st170 {
        fill: #c2d6d6;
      }

      .st171 {
        fill: #79b8be;
      }

      .st172 {
        fill: #4e382a;
      }

      .st173 {
        fill: #ad9b91;
      }

      .st174 {
        fill: #344543;
      }

      .st175 {
        fill: #919466;
      }

      .st176 {
        fill: #2e8690;
      }

      .st177 {
        fill: #a6a29d;
      }

      .st178 {
        fill: #85c2c5;
      }

      .st179 {
        fill: #adbaa0;
      }

      .st180 {
        fill: #c64f37;
      }

      .st181 {
        fill: #2594a6;
      }

      .st182 {
        fill: #89431f;
      }

      .st183 {
        fill: #85bebc;
      }

      .st184 {
        fill: #414a4b;
      }

      .st185 {
        fill: #39433f;
      }

      .st186 {
        fill: #7bad78;
      }

      .st187 {
        fill: #ac7524;
      }

      .st188 {
        fill: #f1b859;
      }

      .st189 {
        fill: #abb67d;
      }

      .st190 {
        fill: #4e392d;
      }

      .st191 {
        fill: #f9c34f;
      }

      .st192 {
        fill: #b3afaa;
      }

      .st193 {
        fill: #c77458;
      }

      .st194 {
        fill: #b0c8c8;
      }

      .st195 {
        fill: #c9bbb3;
      }

      .st196 {
        fill: #bbc8a0;
      }

      .st197 {
        fill: #cb5a16;
      }

      .st198 {
        fill: #88bdba;
      }

      .st199 {
        fill: #b7a397;
      }

      .st200 {
        fill: #a35d98;
      }

      .st201 {
        fill: #6b361e;
      }

      .st202 {
        fill: #47a5af;
      }

      .st203 {
        fill: #f2a99a;
      }

      .st204 {
        fill: #9ab26c;
      }

      .st205 {
        fill: #bfcda1;
      }

      .st206 {
        fill: #c0c4bd;
      }

      .st207 {
        fill: #61493c;
      }

      .st208 {
        fill: #908b84;
      }

      .st209 {
        fill: #ac5d5e;
      }

      .st210 {
        fill: #acbc82;
      }

      .st211 {
        fill: #d26958;
      }

      .st212 {
        fill: #d3d1ce;
      }

      .st213 {
        fill: #dae4c1;
      }

      .st214 {
        fill: #839f57;
      }

      .st215 {
        fill: #9f5832;
      }

      .st216 {
        fill: #f06f1c;
      }

      .st217 {
        fill: #b66133;
      }

      .st218 {
        fill: #b4b0a9;
      }

      .st219 {
        fill: #54a6bd;
      }

      .st220 {
        fill: #b0a89a;
      }

      .st221 {
        fill: #473c29;
      }

      .st222 {
        fill: #f6ca2e;
      }

      .st223 {
        fill: #c19e83;
      }

      .st224 {
        fill: #219eb8;
      }

      .st225 {
        fill: #7d6a5b;
      }

      .st226 {
        fill: #2c6983;
      }

      .st227 {
        fill: #8698b4;
      }

      .st228 {
        fill: #4c6463;
      }

      .st229 {
        fill: #1b2d2e;
      }

      .st230 {
        fill: #8aa55f;
      }

      .st231 {
        fill: #d9e3c2;
      }

      .st232 {
        fill: #4e3322;
      }

      .st233 {
        fill: #845234;
      }

      .st234 {
        fill: #e6ddd3;
      }

      .st235 {
        fill: #9da973;
      }

      .st236 {
        fill: #d9ccc3;
      }

      .st237 {
        fill: #9e536f;
      }

      .st238 {
        fill: #6fa9ac;
      }

      .st239 {
        fill: #63acc9;
      }

      .st240 {
        fill: #c32e20;
      }

      .st241 {
        fill: #ebebea;
      }
    </style>
  </defs>
  <path class="st24" d="M43.74,372.42c.69.77,1.07,1.68.81,2.71-1.31,5.1-15.61,28.26-19.12,33.49-.28.42-1.26.37-2.44.19-1.57-.3-3.61,2.26-6.11,7.66-5.32,2.95-10.14,6.55-14.46,10.78-1.01-11.59-1.81-23.22-2.41-34.89v-25.9l.6-1.14c13.89.1,27.7-.18,41.43-.84l2.12-4c-1.11-1.69-1.39-2.81.71-3.09,3.8,2.17,3.1,13.46-1.12,15.02Z"/>
  <path class="st117" d="M510,511.89c.57-1.74,1.24-1.71,2,0v1.99H0l-.03-2.79c1.23-1.39,1.89-1.1,2.03.8l1.4-3.98c167.99.08,336.03.08,504.13,0l2.47,3.98Z"/>
  <path class="st210" d="M22.98,408.81c1.47,2.88.5,6.76-2.9,11.66-6.91,1.52-11.25,4.96-13.02,10.31,3.57,11.02,7.9,21.88,13.01,32.58l-1.68,2.14c2.17,14.96-9.89.72-11.84-8.59,1.43,8.73-.03,14.69-4.36,17.89,6.02-.66,5.44,12.41-.41,13.29,5.81,3.53,6.68,21.08.22,23.8l-2.03-.8.03-118.73c.88-.08,1.87.72,1.89,2.02l.48,30.65c6.76-7.71,16.11-7.78,18.07-18.44.41-.64,2.71.9,2.55,2.22Z"/>
  <path class="st135" d="M512,511.89h-2l-4-1.85c0-47.02,0-94.07,0-141.12l4-2.4c.52-1.75,1.19-1.75,2.01-.05v145.43Z"/>
  <path class="st205" d="M512,364.47v1.99l-2.01.05c-6.86,5.98-17.86,5.93-25.04.27l-2.98,3.64c-3.89-2.17-8.12-1.86-12.68.92-14.17-.93-28.33-1.21-42.49-.83l-2.76-4.04c-1.35-.66-1.29-1.34.11-2.02l5.84.02c7.84-1.64,16.14-1.64,24-.02l47.66-.53c3.82-.04,7.45-2.57,10.34.54Z"/>
  <path class="st231" d="M42.03,364.48c-.58,1.09-1.72,2.11-3.85,2.1l-38.17-.12v-1.99c6.11-3.47,13.12-.75,20.48-.57l21.55.58Z"/>
  <path class="st126" d="M329.99,185.17c5.3.67,5.06,2.49-.03,3.96-1.48.67-3.45,1.32-5.89,1.95,6.97,2.74,3.81,9.67.47,14.68,4.65-.54,3.94,10.9-.61,11.28l4.01,2.72c.04,8.84.08,17.67.12,26.51l-3.99,2.75c1.38.26,2.47.54,2.51.93.4,4.05,1.16,28.5.09,29.53-.68.65-1.63,1.02-2.67,1.31,3.13,2.1,3.4,12.92-.03,13.95,25.93.69,51.95,1.36,78.03,1.99,3.89-3.53,17.07-3.11,22.1-.7l75.11-.38c3.44-4.11,5.71-3.75,6.8,1.07,1.33.59,1.3,1.26,0,1.99-26.4,1.68-56.93,1.68-84,.01-3.29,1.76-7.6,2.1-12.93,1.01l-1.28,2.96c-1.92-3.07-3.86-3.74-5.82-1.99-4.2,1.71-11.56,1.56-15.98.02-22-.75-44.23-1.13-66.68-1.14-.8-37.83-.57-75.31.69-112.44,2.19-.05,4.11-1,6.03-1.9,1.27-1.35,2.96-1.71,3.96-.08Z"/>
  <path class="st136" d="M259.97,145.16c1.6-2.65,5.01-3.82,10.24-3.5,1.15-3.23,4.22-6.1,9.2-8.61,1.46-6.51,4.02-12.13,7.68-16.87l4.96,1.44c2.06-4.25,6.74-5.17,9.93-1.57,7.14-3.77,10.3-11.36,9.5-22.8,1.2-3.14,4.19-4.49,8.97-4.06,3.65-6.05,1.4-11.19-6.75-15.41-3.61,2.37-4.6.96-1.79-2.45,4.36-2.81,9.42-2.85,14.03.92s5.49,5.86,4.84,13.12c-.27,3.05,1.47,6.37-.82,9.22-3.33,4.16-13.33-.31-17.82,24.68l-20.06,6.08c-1.18,8.47-5.51,14.61-10.95,18.54-6.35,4.57-15.02,4.98-21.17,1.28Z"/>
  <path class="st78" d="M398,185.17h80c7.86-1.62,16.11-1.39,24,0,1.75.56,1.73,1.24.02,2.03,2.62,2.82,1.5,3.84-2.01,1.96-16.21,1.28-33.18,1.68-50.91,1.18-7.88,1.77-16.62,1.88-26.22.34-30.92,5.17-62.93,2.11-92.91-1.54l.03-3.96c21.67-1.77,45.74-1.7,68.01,0Z"/>
  <path class="st144" d="M88.1,37.61c-2.8,7.76-2.13,14.25,2.02,19.46,8.94,4.02,14.24,9.4,15.91,16.15-3.15,18.31.36,20.46,15.85,28.81,3.92.34,4.12,1.95.4,3.24,5.21,1.43,4.61,2.56-.61,3.33-2.05,2.35-4,1.5-5.79-1.03-12.36-9.19-22.13-13.88-17.37-29.79,1.21-5.53-1.65-9.59-8.57-12.2-18.01-9.99-5.86-24.26-9.75-31.91-3.62-3.74-3.65-5.76-.07-6.06,5.96-6.03,13.28,4.12,7.97,10.01Z"/>
  <path class="st4" d="M227.85,227.24c1.76.39,1.72,1.01,0,1.82.03,5.19,2.12,9.01,3.69,14.31l6.79,22.98c4.39,14.86,9.83,28.67,14.46,43.61,1.85,5.97,3.37,12.76,7.22,16.92,2.23,3.21.69,4.27-2.39,1.76-3.72.64-11.68-9.42-7.52-12.73-4.92-2.01-8.21-7.39-3.59-11.36l-4.53-.94c-4.85-14-8.69-28.31-11.51-42.92-5.42-6.77-9.18-15.14-11.27-25.11l2.87-4.02c-3.97-1.37-1.81-5.43,2-4.28.24-5.32,2.14-5.05,3.78-.03Z"/>
  <path class="st7" d="M138.13,163.37c4.49,3.54,1.96,4.49-7.59,2.83l-8.59.95-1.23,4.16c-7.99.64-15.76,1.79-23.32,3.45,6.56,6.34,8.12,11.78,4.67,16.31,2.67,2.74-3.02,7.48-6.1,8.98-1.37-.92-1.96-2.53-1.75-4.83l3.28-5.31c-5.39-8.33-11.97-14.49-19.52-21.37,1.8-4.34,6.86-2.71,9.77-3.74,8.2-.28,16.29-.76,24.25-1.44,6.8-.05,14.16-.23,20-4.11,2.28-.86,4.32.52,6.12,4.13Z"/>
  <path class="st121" d="M56.55,288.98c2.07,4.73.74,10.48-4,17.23-.97,6.17-3.38,10.17-7.23,12.01,5.06,5,9.03,21.93,2.56,26.01l4.2,3.68c1.53,2.45,3.04,31.67-5.9,28.63-2.12.86-2.94-.51-2.44-4.12,1.64-5.2,1.63-10.04,1.12-15.02l-1.59-.77c.03-12.33-1.31-24.23-4.04-35.69-.53-4.77-.16-4.95,2.46-10.77,3.49-7.76,6.93-18.94,11.71-25.52,3.75-1.09,3.99,1.07,3.15,4.33Z"/>
  <path class="st208" d="M320,187.16v111.53s63.9.06,63.9.06c1.4,0,2.22,1.17,2.09,1.99-10.82,1.91-24.27,1.34-35.92.59-5.94.1-12.83.28-20.22-.59-2.51-.3-9.33,2.85-11.59-.68l-.29-111.01c-1.12-1.2-.42-4.47,2.03-1.89Z"/>
  <path class="st31" d="M123.72,29.65c4.85,3.16,3.32,5.38-2.33,3.94-3.29-1.31-6.54-3.85-9.78-7.63l-17.34-1.52c-4.07-10.87-8.51-12.96-13.33-6.25.63,3.6.36,6.73-.81,9.41-.08,1.67-.66,4.61.07,6.06-3.92-2.4-9.95-7.93-9.71-13.53.26-5.91,7.17-11.77,11.28-13.74,11.85-5.66,14.9,9.21,20.45,12.03,7.12,3.62,19.31.58,21.49,11.22Z"/>
  <path class="st16" d="M121.68,108.59c3.69-.55,5.18,2.29,4.47,8.51,11.76,5.56,10.79,25.16,9.33,36.3,2.49,2.03,5.01,5.22,2.4,7.71l.25,2.26c-2.8-.31-4.59-2.02-6.12-4.13-7.72-10.65-.17-25.13-12.09-30.01-5.59-4.98-3.77-15.49-4.02-21.68.96-.66,2.18-1.07,3.04-.93,1.18.2,2.09,1.09,2.74,1.96Z"/>
  <path class="st132" d="M235.94,35.4c2.74,2.73,1.72,3.89-1.94,2.37l-1.37,1.96s-19.71-4.05-59.13-12.16c1.54,2.45-.31,3.16-5.54,2.12,3.61,4.89-8.02,10.95-11.67,6.39-2.26,2.82-4.76.61-2.26-2.4.82-4.06,7.53-6.95,11.97-8.02,5.8-6.06,15.43-3.86,23.79-1.78l46.16,11.51Z"/>
  <path class="st55" d="M281.81,364.56c4.07.37,6.09,1.71,6.07,4.03,5.59.52,13.55,8.93,16.11,13.89,3.87,3.65,2.53,4.82-2.28,2.64-.74.72-1.51,1.33-2.37,1.53-1.84.42-26.46-21-29.34-23.6-.36-.33-.17-1.26.18-2.37-8.5,2.91-9.8-9.02-5.92-13.92-4.96-2.56-6.29-12.87-6.62-18.13.91-.81,1.54-1.29,2.39-1.76,6.76,7.3,11.08,15.9,10.04,27.55l11.75,10.14Z"/>
  <path class="st35" d="M81.53,233.38c1.92.89.87,6.92.18,9.29-2.13,7.25-4.87,15.59-11.76,17.87,3.6,6.2.92,12.5-6.15,14,.67,5.94,1.23,14.98-7.24,14.42-1.81-1.05-2.53-2.58-3.15-4.33,6.79-19.67,17.23-37.29,25.73-56.06,2.75-.81,3.55.79,2.4,4.8Z"/>
  <path class="st28" d="M311.92,71.34c.12,1.04,1.01,2.3,1.79,2.45,1.5.62,2.87,1.65,2.87,3.15.03,10.33-15.55,9.79-22.01,3.79-8.38,3.39-16.62.46-24.73-8.8-5,1.74-5.98-1.03-1.7-4.18,6.19-.72,11.97.09,18.15,4.26,10.96-4.86,17,4.91,25.63-.67Z"/>
  <path class="st196" d="M402,364.47c1.31.64,1.26,1.31-.06,2.02-1.63,4.41-6.94,5.36-15.92,2.85-10.45,1.54-23.66,2.22-34.7,1.44-.64-.04-1.19-1.29-1.72-2.88l-45.53-.82c-1.91,4.73-5.93,4.56-12.05-.5,1.57,4.03-.48,3.61-4.13,2.01-1.98-1.35-4.13-2.36-6.07-4.03l120.19-.1Z"/>
  <path class="st177" d="M506,300.71c-1.75-.57-1.72-1.23,0-1.99v-1.99c-4.08-.07-4.74-1.54-1.99-4.42v-100.6s-1.99-4.51-1.99-4.51l-.02-2.03c1.27,0,5.92-1.09,5.92,1.91l.1,111.47c0,1.49-1.27,2.3-2.02,2.17Z"/>
  <path class="st153" d="M252.22,163c-6.3,5.91-10.11,16.02-18.99,21.22-5.66,3.32-10.69,5.73-13.29,10.35,4.85,10.97-7.13,6.87-3.59-1.45l.24-3.87c4.68-4.48,9.96-8.66,15.83-12.52-2.27-2.88-.2-5.85,6.21-8.92,1.96-7.04,5.01-9.46,9.15-7.28,3.35-4.47,5.73-2.9,4.43,2.47Z"/>
  <path class="st26" d="M268.14,67.75l1.7,4.18c2.89,5.87-1.93,9.26-5.83,3.6-1.33.78-3.24,1.85-4.21,1.13-3.5-2.63-15.27-16.9-11.54-20.96-5.47,2.55-10.96-5.89-7.67-10.42-2.86-1.05-6.88-4.45-6.61-7.5l1.94-2.37c4.38,1.09,6.59,5.19,9.35,9.12l12.27,17.5c2.86,4.08,6.42,6.2,10.59,5.72Z"/>
  <path class="st201" d="M145.82,31.91c3.14.36,5.87.95,8.2,1.77l2.26,2.4c3.95,3.6,2.66,5-2.38,3.34-.71,2.46-5.32,1.12-7.19-.33l-7.46-2.88c-9.01,1.98-14.96,1.1-17.86-2.63,1.25-1.05,2.02-2.34,2.33-3.94,7.01-1.77,15.45-.79,22.1,2.27Z"/>
  <path class="st110" d="M506,298.72v1.99s-2,0-2,0c-24.21,1.74-49.69,1.75-74,0h-4c-1.93,3.26-3.22,3.94-3.99.04-1.75-.57-1.72-1.25,0-2.02h84Z"/>
  <path class="st63" d="M270.21,141.66c-3.13.5-7.23,2.11-10.24,3.5-6.83,3.15,1.3,9.35-7.75,17.84l-4.43-2.47c-1.66-5.95-1.72-18.19,4.16-21.31,4.44-4.34,15.2-2.98,18.27,2.45Z"/>
  <path class="st114" d="M426,300.72c-4.83,8.86.2,22.65-.59,34-.72,10.41-.74,20.04-1.25,29.74-.61,1.74-1.34,1.72-2.16,0-1.27-.18-2.26-.38-2.26-.6-.64-19.34-.44-40.86.26-60.22.05-1.41.68-2.36,2.01-2.89l3.99-.04Z"/>
  <path class="st174" d="M219.94,194.57c6.28,10.35,15.59,14.33,19.8,21.21,1.46,2.66.43,3.32-1.43,1.06-1.43,1.06-3.1,2.16-4.94,2.01-5.59-.47-14.65-12.46-17.65-17.29-5.24.19-5.42-2.37-2.02-6.01-3.41-4.09-1.9-5.12,2.65-2.43-.75,1.31-.46,2.82.39,4.08.55.81,2.01,2.33,2.52.73.42-1.29.22-2.29.67-3.36Z"/>
  <path class="st11" d="M95.98,200.05c1.96,1.89,1.38,4.23-1.41,4.54,3.38,3.95-1.37,19.74-7.53,18.03.49,3.74-1.84,10.52-5.51,10.76-.96-1.06-1.42-2.73-2.4-4.8l15.11-33.37c.49-.39,3.06.11,3.12.98.07,1.05-1.07,3.02-1.37,3.85Z"/>
  <path class="st229" d="M227.85,229.06v-1.82s-.25-5.1-.25-5.1c5.03-2.13,8.6-3.9,10.7-5.3-.33-.77.56-1.64,1.43-1.06,3.93,1.19,7.7,2.84,11.3,7.95l-15.73,4.84c-3.08.95-5.21,2.29-7.46.48Z"/>
  <path class="st5" d="M504,300.71c-.23,1.34-1.7,2.08-3.91,2.08h-66.18c-2.2,0-3.67-.72-3.91-2.08h74Z"/>
  <path class="st218" d="M398,185.17h-68.01c-1.09,0-2.95-.39-3.96.09.2-1.43,1.68-2.17,3.88-2.17h64.19c2.19,0,3.67.72,3.9,2.08Z"/>
  <path class="st86" d="M404,364.46c-.57,1.74-1.23,1.71-2,0v-61.76c-1.76-.53-1.74-1.2-.04-1.99.59-1.1,1.27-1.09,2.03-.04,1.71,20.77,1.73,43.29,0,63.79Z"/>
  <path class="st212" d="M385.98,300.74l15.98-.02.04,1.99-49.91-.03c-1.39,0-2.22-1.17-2.03-1.35l35.92-.59Z"/>
  <path class="st99" d="M44.85,357.39l-.71,3.09c-4.47-2.65-1.58-9.6-2.03-13.68l-2.89-25.86c4.14.63,2.43,5.23,2.64,7.33l2.99,29.13Z"/>
  <path class="st195" d="M165.98,25.67l-11.97,8.02c-3.33.98-5.54-.55-8.2-1.77,9.24,1.87,11.1-8.14,20.17-6.25Z"/>
  <path class="st192" d="M502,185.17h-24c6.3-3.24,18-2.62,24,0Z"/>
  <path class="st213" d="M454,364.45l-24,.02c5.43-3.15,18.57-3.15,24-.02Z"/>
  <path class="st139" d="M112.01,163.36c-.23,1.23-1.72,2-3.85,1.99l-20.4-.55c8.08-2.88,16.03-1.38,24.25-1.44Z"/>
  <path class="st158" d="M98.52,77.77c.88-6.35-5.67-6.66-8.57-12.2,2.8.41,5.96,1.39,8.01,2.96,3.87,2.96,1.52,6.01.56,9.24Z"/>
  <path class="st77" d="M46.18,376.54c4.98,5.27-1.51,17.05-8.71,17.41,1.75,2.67-2.87,8.49-5.9,7.48l-.73,9.28c-1.11,7.37-4.1,11.84-8.98,13.4-1.91,2.55-4.37,4.44-7.37,5.67,2.96,10.21,15.51,46.27,22.78,51.19,1.61,1.09,36.41-.96,38.54-1.53-2.6-4.75-3.1-8.63-1.5-11.62-3.27-.33-7.55-1.77-10.3-3.79-5.08-1.43-11.54-2.73-15.43,1.31-4.35-4.61-10.85-16.74-4.48-20.74-1.32-8.57,4.87-11.87,18.56-9.91l.66-4.52c14.09-3.67,26.22-9.56,36.4-17.67,5.54-10.5,13.64-19.34,24.3-26.54-.44-5.48,3.03-5.85,6.16-1.8,7.01,3.39,7.83,15.26,6.88,22.59,7.27-1.47,10.48,15.55,5.24,19.12,2.44,10.03-1.73,10.01-4.53.49l-4.53-1.06c.86-2.65,1.26-5.23,1.19-7.74l-2.29-.42-5.03-19.62-4.05-.43c-6.6,9.85-13.68,18.86-21.25,27.03,2.52,3.03.55,6.22-5.93,9.55-28.4,9.66-42.59,14.48-42.59,14.48l2.48,5.42c14.08-.07,29.19,8.7,30.65,22.65,5.81.66,1.71,14.3-.76,16.33-2.17,1.78-46.36,2.04-50.79.92-3.65-.93-9.09-5.22-6.81-9.24-4.18-3.28-7.23-7.66-9.17-13.13-1.1.34-1.26-1.54-.49-5.63l-11.67-26.02c-1.52-3.4-3.63-7.98-2.1-11.16,1.16-2.43,4.77-6.07,7.83-7.12,7.7-2.65,7.84-7.12,10.53-12.39l9.96-19.54c3.21-6.29,8.85-10.71,10.8-16.85,1.77.69,2.45,2.4,2.44,4.12Z"/>
  <path class="st56" d="M204,366.45l4.23,1.12,5.75,35.88c5.08-1.26,10.18-3.93,15.3-8.01,4.28-11.22,11.22-16.97,20.82-17.25-5.85-2.37-7.95-5.53-6.31-9.46-3.2-1.25-3.15-1.95.28-2.44,2.7-1.71,5.89-.72,9.58,2.97,4.19,1.03,8.52.07,12.98-2.88,4.03,2.33,5.31,4.74,3.84,7.23,8.52,8.91,17.71,17.16,27.57,24.75l53.74,43.38c7.23,7.87,14.9,14.5,23.02,19.87l3.04-.89c9.11,9.28,19.04,17.65,30.17,24.32l-.25,2.53c2,6.2,7.53,8.52,16.6,6.94l17.81-2.31.9-2.93c10.11-4.04,19.54-9.3,28.31-15.76l2.92,1.46,7.16-8.8c2.24-5.45,4.96-9.54,8.17-12.27l-.41-4.03c10.39-19.99,0-37.69-19.41-46.14.33,2.11-.29,3.46-1.85,2.92-19.98-6.85-29.61-8.14-48.97,3.22-14.7,8.63-24.82,19.17-35.12,32.21-5.34,2.54-14.27,0-13.87-6.13-4.67,2.98-11.89-7.31-12.51-11.06-10.49-11.27-26.94-24.97-37.6-30.42-4.55,1.12-14.33-7.38-15.88-11.97-5.6-4.22-10.24-9.88-16.11-13.89,1.27-.73,2.84-1.92,4.13-2.01,6.59,2.56,12.63,6.2,18.12,10.94l10.57-5.56c-8.39.87-13.93-.76-16.64-4.88l97.87-.59c3.14,17.63,1.33,22.81-13.8,9.69l.25,9.53c18.16.69,36.46.86,54.91.49l2.89,4.01,12.75,1.38c-2.26-8.38,8.54-24.68,15.2-15.35,2.35-1,4.92-1.56,7.73-1.68-3.65-4.56-2.61-7.15,3.1-7.78,8.3-.3,16.69-.04,25.04-.27v145.38s-507.99,0-507.99,0l-.22-23.8c2-3.75,5.72-3.37,11.16,1.14,19.91,4.19,40.3,6.09,61.16,5.71,28.3,8.9,52.22,7.78,80.24-.14,28.08,1.54,56.61,1.93,85.6,1.16l6.05-2.01c-1.67-.48-1.62-1.14,0-1.98-.73-1.03-.04-1.69,2.06-1.97,2.4-.7,5.09-1.4,8.08-2.09-2.23-.74-2.61-3.22-1.15-7.41-2.84-6.27-4.26-9.4-4.26-9.4-4.15-3.25-6.29-6.45-6.42-9.61-13.04-5.82-22.16-6.16-34.92,2.19-6.84,1.35-20.21-1.43-17.8-8.9,12.47-29.63,14.78-54.68,6.34-85.59l2.19-2.71c.49-1.72,2.98-1.6,3.87-.03Z"/>
  <path class="st129" d="M152.73,467.03c2.46,4.65,1.83,14.12-1.67,19.19,2.48-.47,2.77.09.85,1.7,1.94.17,2.62.87,2.04,2.09,4.78,2.3,13.03,2.96,24.75,1.98l1.3,1.97c21.53-1.66,44.69-1.63,65.99-.02-.58,2.47-2.57,4.01-5.96,4.02l-79.87.31c-13.84.05-41.9,12.76-65.41,5.07-31.95-10.45-61.04-.82-85.13-11.17-2.64-1.14-4.8-4.82-7.85-4.09l.41-13.29c4.54-11.22,17.56-6.71,20.55,3.83l5.31,5.64,7.9,5.54,47.45.24,3-13.78c-1.59-3.21-2.52-6.36-2.79-9.46,16.42-3.58,45.04-8.06,61.34-4.36,3.03.69,5.57,2.47,7.79,4.6Z"/>
  <path class="st204" d="M18.39,465.5l9.66,18.76c-5.59-.83-8.89-5.69-10.65-12.11-5.98-.79-10.44,1.81-15.21,2.64l.7-35.54,14.18,31.09c1.51-2.23,1.06-3.75,1.32-4.85Z"/>
  <path class="st19" d="M406.11,384.49l1.9-6.03c4.21-5.55,8.45.2,9.28,5.41,2.5-5.31,3.31-11.37,2.43-18.17l2.27-1.25h2.16s-.11,2.01-.11,2.01c3.57-.05,4.28.56,4.4,3.65l23.66.67c18.5,1.82,6.03,24.8-5.93,19.42l-56.02-.45c-5.17-.04-12.09-1.4-16.24-3.39-3.18-1.53-.31-7.5,3.19-6.01,1.98.84,4.32,2.18,7.87,4.68,2.05-4.73-2.12-8.76-2.42-12.56,9.1-1.89,12.94,2.65,17.8,9.78,3.16-5.45,1.41-10.73,1.57-15.79l.06-2.02h2c.62,6.53,1.33,13.21,2.11,20.03Z"/>
  <path class="st230" d="M484.96,366.78l-3.1,7.78-2.54.97c-2.65-2.13-4.38-1.89-5.19.71-4.35-.89-12.6,6.57-11.79,11.25,2.01,4.69,8.58,7.61,8.53,13.9-13.91-9.93-24.89-4.66-24.69-11.17,4.85-1.99,10.04-6.08,13.22-12.18-9.27-6.91-32.21-4.87-32.52-3.63-.55,2.19.83,5.11-2.08,8.36l-.75-16.29,45.2.88,15.71-.57Z"/>
  <path class="st47" d="M372.09,240.92c3.12-2.44,5.16-5.93,6.11-10.48,8.25-7.64,17.83,2.55,11.62,10.22,2.47,1.76,5.1,2.9,6.25-.61,5.42,3.59,9.64,3.14,12.64-1.38l4.73,2.45c4.18-3.72,4.05-9.92-.4-18.61l2.99-8.55c-2.88-2.71-5.58-5.56-8.1-8.54-5.96-.39-6.17-3.93-3.81-8.85,4.13-8.62,34.23-5.5,43.02-4.49,3.89,2.7,8.84,3.06,14.84,1.07,11.86-1.01,24.12-1.33,36.79-.96l.22,101.31c-56.32.84-112.68.93-169.09.26-3.45-.02-4.5-.34-1.96-3.03l2.07-3.97c-.17-6.48,2.58-8.22,8.24-5.23,6.8-1.36,9.98-1.98,16.49.34,4.74-3.5,6.55-3.56,5.43-.18l17.42.24c-.49-3.71,1.23-4.07,5.16-1.08,5.45-2.9,9.54-2.99,12.27-.29,8,.94,15.28.27,21.83-2,3.3,1.68,7.92,1.68,13.87-.02,4.3,4.33,15.94,3.26,11.47-2.78-5.82-1.45-3.37-10.85,2.35-10.75-3.53-6.76-1.93-8.57,5.15-5.78,1.04,1.4,3.41,2.61,7.1,3.61.54,5.36,1.6,10.02,3.2,13.98,2.15-3.59,3.15-1.78,4.01,1.93.54-1.59,1.2-1.54,1.99.02,1.28-7.48,3.36-20.32-2.04-25.88-.05,3.31-.71,3.51-2.33.58.35,3.99-3.95,5.5-12.88,4.54-2.87,2.33-5.78,2.21-8.74-.37l-7.96,2.16c-2.57,6.14-5.81,4.48-9.73-4.98-8.36-3.71-26.91-6.01-34.36-1.94,1.83.81,1.8,1.52-.11,2.12,1.01.6,1.8,1.2,1.81,1.82.38,15.01-10.12,20.15-11.67,2.18-3.74.1-5.86-1.24-6.38-4.04l-1.46,22.16c2.14-1.99,3.5-1.51,4.08,1.44-.11-7.09,5.82-2.41,7.33,2.07.64,1.89-21.84.83-24.66.37,1.49-2.86,2.69-5.79,3.59-8.79,4,1.23,2.41-1.84.46-4.81,3.87-7.16.75-10.77-9.38-10.82-1.66.67-3.47-.21-5.43-2.65l-5.29-1.96c-5.64.85-9.57.02-11.77-2.49-1.57,2.09-3.23,1.94-5-.47l-.14-31.98c3.71-2.94,5.78-9.38.61-11.28.26-4.7-1.19-9.85-.47-14.68,8-2.4,47.62-2.57,35.28,11.71-19.56,3.44-17,53.61,5.83,32.86,4.79-.88,8.07-.05,6.91,5.27Z"/>
  <path class="st69" d="M329.96,189.13l170.04.02c2.22-1.64,3.76-.95,3.99,1.71v102.09c.37,2.83-1.51,3.25-4,1.67-4.53-.73-5.49-2.13-.99-2.96.69-33.64.26-66.8-1.29-99.48-13.31-.38-25.22-.06-35.72.95-2.77,2.94-22.06,2.06-28.83.28-18.14-4.77-26.56,5.56-26.47,6.66.16,1.86.79,3.71,1.24,5.34-4.95,3.61-6.45,9.4-4.49,17.36,11.64-6.15,16.77,12.88,10,18.34-9.19,4.22-23.18,4.1-23.63-.46l1.99-4.91c-5.24-31.92-9.56-33.93-12.95-6.04-1.18,5.83-3.44,9.56-6.77,11.22-1.98-1.02-4.19-2.24-6.43-1.32-1.35.56-2.94,3.45-4.48,4.25-5.97,3.1-11.4-.11-15.08-3.77-6.32-6.27-5.82-40.63,12.66-40.57-3.18-6.27-8.67-8.16-14.58-8.21l-20.11-.23c.43-2.88,3.95-1.95,5.89-1.95Z"/>
  <path class="st160" d="M500,294.63c-24.52,1.33-49.82,1.79-75.9,1.41l-22.1.7c-25.97-.66-51.99-1.32-78.03-1.99l.03-13.95c4.51-8.93,6.63,4.44,3.97,9.94-.06.7.26,2.05,2.16,2.05h167.89s.01-99.57.01-99.57l-36.03-.06-13.01.43-1.1-2.04,52.13-.36-.02,103.46Z"/>
  <path class="st110" d="M506.01,296.73l-81.91-.69,75.9-1.41c.77.23,2.01-.59,2.01-2.04v-101.29c0-1.46-1.23-2.27-2-2.15l2.01-1.96c.66-.57,3.97.15,3.97,2.12l.02,107.42Z"/>
  <path class="st69" d="M329.07,249.49c4.83.81,5.43,3.51,1.8,8.1-1.29,9.19-.27,17.49,3.05,24.92l-3.89,4.25c.03,1.69-.32,3.37-2.07,3.97.19-2.17.12-4.07.16-6.87.03-1.83-1.13-3.96-4.13-3.07l.07-31.77c.62-.77,1.82-1.77,2.88-1.58.99.17,1.74,1.51,2.12,2.05Z"/>
  <path class="st107" d="M422,298.73v2.02c-.65,2.96-1.69,4.73-4.02,1.97-3.95,3.31-4.94,3.05-5.83-2.01l-2.4,2.31c-.81,22.4-1.17,44.83-1.06,67.28,5.65,1.58,4.48,6.22-.68,8.16.38,2.18.72,5.31-1.9,6.03-.73-27.93-1.44-55.87-2.12-83.82l-2.03.04c-.01-.72.37-2,1.98-2h18.05Z"/>
  <path class="st110" d="M402,296.73l-75.99.03c-1.76,0-2.04-1.35-2.04-2.03h75.91c1.42,0,2.25,1.21,2.12,1.99Z"/>
  <path class="st69" d="M323.93,217.04l.61-11.28c1.75-.49,2.16-2.45,4.76-4.9,1.72,5.81,1,11.23.79,18.3-2.69-1.25-4.2-1.91-6.16-2.12Z"/>
  <path class="st94" d="M313.71,73.79c5.33-1.5,10.12.35,11.61,5.69,1.25,4.47,1.85,11.46-3.66,13.48-3.13,1.14-7.24.34-10.18.3-.04,5.02-.99,9.15-2.85,12.39-5.96,2.53-12.3,4.37-19.03,5.54l-10.37-3.53-3.74,2.55-15.4-8.33c-5.6.17-5.23-2.87.03-4.29-1.57-5.53-1.51-11.95.16-19.27l3.72-2.79c2.96.68,4.23-2.86,5.83-3.6,9.84-4.6,13.56,14.74,24.11,4.09l12.18,5.83c3.49,1.67,6.2-5.62,7.58-8.05Z"/>
  <path class="st76" d="M279.24,107.66c9.76.98,14.03,4.31,12.82,9.97-11.76,6.06-.57,20.66-21.85,24.04-6.23.14-12.33-.56-18.27-2.45-5.72-.02-5.14-4.51.4-5.41.31-2.69.33-5.03-2.59-6.29-.38-1.64,4.76-27.26,10.35-25.63.07-1.15,1.57-4.49,2.87-4.23.94.18,2.29,2.77,3.47,3.38l12.8,6.64Z"/>
  <path class="st197" d="M308.64,105.64c3.24,3.81-1.9,9.1-6.65,10.41-2.19,1.55-7.68,3.32-9.93,1.57l-12.82-9.97c9.3-.22,19.95-.05,27.81-7.86,1.27,1.65,1.17,3.64,1.59,5.84Z"/>
  <path class="st93" d="M301.99,116.05c3.9-2.76,5.6-6.37,6.65-10.41s.86-8.51,2.85-12.39l.24,13.88c-.12,5.8-4.71,9.1-9.73,8.92Z"/>
  <path class="st89" d="M180.44,56.92l1.83,4.17c-10.51,25.59-19.44,51.94-26.78,79.06.68,6.89-.54,11.99-3.65,15.31-5.02-.28-7.16-4.38-6.4-12.29-3.49.67-4.71,3.47-3.66,8.38l-4.05,2.37c-.06,2.54-.81,2.37-2.25-.52l-6.5-31.06c-.91-.93-4.03-.55-6.49,1.1l-.82-14.85.61-3.33,3.29-3.27,15.82,3.6c3.54-11.11,8.63-20.4,15.26-27.89l3.17.31c1.51-1.98.98-3.38-1.69-4.52,3.28-12.98,1.87-24.33-4.23-34.07l2.38-3.34,11.67-6.39c2.7-.71,9.74,1.29,11.41,2.95,2.23,2.24,7.98,23.44,1.08,24.27Z"/>
  <path class="st25" d="M154.41,73.27c3.97-7.09,8.95-2.2,5.4,4.75-7.37,8.71-10.31,20.6-15.86,31.51-8.19.53-14.99-2.72-21.67-4.26l-.4-3.24c-9.55-4.16-15.1-9.48-16.64-15.97,3.56-17.2-1.69-21.3-15.79-29.58-1.53-1.61-2.89-3.12-1.12-4.81.21-2.41.76-4.36,1.65-5.85,4.1-6.68,21.36,4.47,26.72,8.73,7.31,10.89,19.16,15.71,35.53,14.45l2.19,4.27Z"/>
  <path class="st68" d="M121.38,33.59c5.13,7.66,18.3-5.7,25.32,5.51,0,1.25-.95,1.51-2.84.79-10.92,5.03-27.51,2.69-34.74-8.69l-12.37-.43c-.18,8.17-2.44,13.18-6.78,15.05-.31,1.93.69,4.78-1.65,5.85-2.29-3.6-2.36-8.29-.22-14.05.21-5.12-3.52-7.87-7.97-10.01-3.05-3.1-4.37-8.07-2.64-11.33,2.37-4.49,6.95-6.65,10.65-5.74,4.68,1.16,6.34,5.32,7.78,9.17,3.32,8.9,13.01-4.72,25.47,13.88Z"/>
  <path class="st217" d="M88.32,51.66c1.86,9.68,25.8,9.2,18.86,29.24-2.2,6.36.06,12.63,6.98,14.5,3.82,1.03,7.3,3.31,7.72,6.62-5.11-2.44-14.75-4.4-17.63-11.02l-.72-22.94-14.32-9.88c-5.89-4.06-4.16-15.04-1.1-20.57-.19,4.46-.62,9.62.22,14.05Z"/>
  <path class="st200" d="M246.52,304.53c-3.21,11.68-21.2,6.11-22.04-3.52-4.33-1.55-4.23-3.98-.69-6.82-3.86-6.36,2.92-13.07,8.06-17-4.29-2.41-6-6.92-5.12-13.55-8.08.65-14.3-1.07-18.67-5.17-1.6-.79-1.42-1.3.43-1.55-3.2-2.78-4.07-7.28-2.61-13.53,2.19-.45,3.68-2.65,4.45-6.61,2.22-3.5,8.31-7.4,11.75-5.24l24.45,72.99Z"/>
  <path class="st198" d="M238.31,216.84c4.86,5.86-4.24,3.72-10.46,10.4l-3.78.03c-3.44,3.71-4.89,2.48-5.79-2.24-8.14,5.66-7.44-11.21-3.53-15.17-3.17-3.61-4.52-6.64.96-8.3,7.71,5.21,14.31,11.62,22.59,15.28Z"/>
  <path class="st113" d="M246.52,304.53c1.23,3.75,3.97,6.72,3.59,11.36-.39,1.83-.92,1.77-1.59-.07-3.55,3.06-10.09,4.72-14.33,2.41-.54,1.76-1.23,1.75-2.07.05-6.05-3.9-10.06-8.3-12.03-13.18-5.27-4.96-.49-9.52,4.4-4.11l10.46,7.33c3.92-1.91,7.4-2.93,11.58-3.8Z"/>
  <path class="st143" d="M250.11,315.89c-.44,5.38,4.47,9.27,7.52,12.73,4.45,5.05,6.16,11.78,6.62,18.13.37,10.6-8.05.15-8.07-6.52-5.3-.67-5.06-2.45.04-3.87-3.24-2.74-18.86-17.99-11.92-20.46,1.38-.49,2.81-.46,4.21-.08.33.19,1.04.12,1.59.07Z"/>
  <path class="st34" d="M224.07,227.27l-2,4.28c-3.24,2.13-7.69,4.7-11.75,5.24-2.1-.18-1.45-2.91.45-3.58-2.95-3.08-1.79-4.38,1.96-2.21-.29-4.32,1.19-5.92,5.56-5.97,2.2,0,4.3.7,5.79,2.24Z"/>
  <path class="st32" d="M165.4,191.35c6.68,5.03,12.81,10.54,18.39,16.55l-.07,2.73c9.3,5.17,2.27,12.39-6.68,12.91l-.96,3.28c3.34,6.24-9.92,4.27-11.71.47-.58-1.59-.96-3.22-.96-4.91.05-16.09-7.51-23.36-21.14-31.42,1.43-1.83-.06-3.26-4.46-4.27l1.21-4.83c-.58-3.74-1.9-7.2-3.94-10.37-7,.95-11.38-.48-13.13-4.31,5.58-4.42,15.29.56,16.18-3.78.12-.58-.02-1.79-.25-2.26,1.11-.78,2.08-1.33,2.53-1.05,4,2.47,26.42,25.95,26.08,28.53-.12.95-.56,1.86-1.1,2.75Z"/>
  <path class="st171" d="M121.95,167.15l12.07.11c4.3.04,5.52,3.53,6.81,6.12,1.43,2.89,2.16,5.99-1.81,8.45-9.66,3.19-19.58,6.21-29.77,9.07,2.55,6.17-6.65,4.47-7.17.17-2.58-7.82-6.95-14.49-14.62-19.77l34.49-4.15Z"/>
  <path class="st147" d="M109.25,190.9c9.29.12,15.65,3.34,19.08,9.67,4.79,1.34,7.54,3.24,4.12,7.92-.41,5.81-5.29,7.26-8.43,2.34l-3.85-1.74c-4.96.89-7.93-.41-8.91-3.93-2.78-1-5.13-2.91-7.07-5.74-1,3.59-3.03,5.48-6.08,5.67-1,5.22-2.76,4.71-3.56-.49.84-1.11.99-3.36,1.41-4.54,2.31-2.89,4.09-5.76,6.1-8.98,2.21,2.14,5.52.1,7.17-.17Z"/>
  <path class="st134" d="M127.73,310.46l14.78,8.09c12.66,6.91-2.42,22.15-9.6,10.28-3.83-.19-7.79-1.07-11.88-2.64-9.21,1.41-12.46,8.39-9.74,20.94l-4.51,1.58-7.64,2.61c-16.98-8.96-33.93-18.03-50.84-27.2l-2.98-5.92c.77-10.26,6.56-19.94,11.23-29.23l7.24-14.42c6.47,5.16,11.58,5.34,15.32.55l4.97-.49c-.73-7.73,2.84-6.18,8.51-3.07,8.68,11.41,17.59,22.38,26.71,32.9,4.62,1.22,7.42,3.22,8.42,6.01Z"/>
  <path class="st33" d="M106.79,348.72c1.74.64,1.69,1.35-.04,2.11-4.35,2.93-8.66,6.09-12.93,9.49-3.41,7.13.28,12.3,5.45,17.26,1.13,6.96-3.32,11.45-13.35,13.48l-6,5.02c-1.87,4.33-2.46,8.95-1.77,13.85-5.3,9.94-23.67,8.31-19.3-3.5-.77.42-1.38.72-1.48.6-1.63-2.05-10.54-17.4-10.13-18.39,5.3-3.41,7.6-8.43,6.88-15.05,23.67-3.07,22.05-28.8-3.27-22.5l-2.98-6.86c-.26-8.43-3.23-17.15-2.56-26.01l20.86,10.31c10.83,5.38,26.47,19.4,40.61,20.19Z"/>
  <path class="st92" d="M58.85,406.43c3.35,4.78,2.73,5.34-2.87,3.87-1.78-2.2-3.17-5.58-4.19-10.14-2.99,2.72-4.06,1.58-2.08-2.1l-4.69-2.38c-4.09.67-6.61.09-7.55-1.73,3.85-4.88,5.97-11.83,8.71-17.41,4.9-9.97,2.04-21.36,1.7-32.31,3.2,5.02,7.09,2.79,11.92,2.06,10.22-1.56,15.08,7.2,14.71,15.15-.42,9.03-6.88,14.78-18.2,14,2.89,6.92.69,11.69-6.12,14.47l8.66,16.53Z"/>
  <path class="st220" d="M152.4,160.74l5.17,2.01c5.46,11.63,14.64,20.8,24.17,29.2l.36,5.61c-3.68,5.05-9.25,2.98-16.7-6.21l-27.52-30.24c-1.19-2.29-1.86-5.14-2.4-7.71.72.04,1.77.25,2.25.52,3.45-3.62,11.62,3.84,11.75,5.88.04.6,1.6.85,2.91.93Z"/>
  <path class="st72" d="M173.49,27.58c18.82,3.07,37.58,6.82,56.26,11.26,4.04,1.53,7.66,3.67,10.85,6.44,3.21,3.29,4.97,7.08,7.67,10.42,2.51,3.33,1.97,5.01-1.75,6.59,0,0-19.58-.68-58.74-2.05l-7.34-3.32c.22-8.68-4.65-24.17-5.73-24.56l-6.76-2.66c1.68-.92,4.03-1.24,5.54-2.12Z"/>
  <path class="st10" d="M234,37.77c4.01.84,4.74,5.59,6.61,7.5-1.59,4.75-2.17-3.33-16.42-5.86-14.25-2.53-27.41-7-41.95-8.43-3.66-.36-6.88-.6-8.74-3.41,2.83-1.65,5.4-1.37,9.3-.55l51.2,10.75Z"/>
  <path class="st206" d="M270.17,360.68l31.54,24.45,1.38-1.13,61.74,49.93c1.09,4.4-4.41,6.04-6.71,2.72-2.21,4.18-6.89,1.31-6.01-2.93l-2.97.43c-28-22.73-55.72-45.05-83.15-66.95l.3-4.7c-2.09-5.73-.65-5.6,3.89-1.83Z"/>
  <path class="st98" d="M319.87,394.45c.59-.4,1.18-.71,1.74-.68,2.31.12,31.82,25.47,35.87,29,.34.3.23,1.12-.02,2.1,4.24,3.43,9.23,6.72,12.51,11.06,2.48,2.99,1.39,4.1-1.97,2.07.11,5.43-2.15,6.24-5.8,2.25-2.2,5.23-8.49-.05-4.09-3.6,1.67,1.11,3.68.14,3.94-2.01l-60.35-49.51,2.28-2.64,15.88,11.97Z"/>
  <path class="st155" d="M264.25,346.76c.38,5.31,1.78,10.71,5.92,13.92-1.84-.18-2.69.86-3.89,1.83,3.07,5.25-10.07,10.34-11.93,4.77,1.12-3.81.88-6.98-.69-9.52,2.7-2.74,2.91-5.09.65-7.04l1.97-4.24c-4.63-3.12-6.08-4.49-.09-6.23l3.52,6.83c.79,1.55,3.59.53,4.55-.31Z"/>
  <path class="st237" d="M88.83,225.8c2.25,2.59,2.11,6.76-.41,12.52,3.9,11,9.67,21.82,17.29,32.46,1.89,5.53,3.12,10.82,3.67,15.86,3.81,5.39,8.31,9.99,13.49,13.82l22.36,8.52.73,5.59c.57,1.61-.25,1.64-2.48.07-3.24,6.6-11.87-.19-15.75-4.18-4.77-1.27-12.61-2.59-15.98-7.31-10.25-14.4-23.48-36.5-27.67-28.53l-4.14-1.61c-1.58-5.45-4.92-9.6-10-12.46l11.58-27.16,5.51-10.76c4.78-2.37,5.45-.64,1.79,3.17Z"/>
  <path class="st188" d="M84.09,274.62c-2.07,3.95-5.26,7.48-9.46,8.06-5.75.79-11.01-2.21-10.83-8.13,2.29-4.57,4.17-9.35,6.15-14,1.46-1.09,3.39-1.58,4.64-1.19,3.75,1.18,9.51,8.57,9.5,15.26Z"/>
  <path class="st166" d="M304.06,367.08l47.15,1.99c-.99,4.66-3.03,8.29-5.81,10.24-5.64,3.94-8.4-.99-12.66-3.55-6.5-3.91-16.81,2.52-22.44,6.31-7.75-4.38-13.99-9.15-18.3-15.48,3.98-.3,8.1.33,12.05.5Z"/>
  <path class="st20" d="M248.27,55.7l15.74,19.83.81,7.47-4.69,14.59c-4.27,3.22-5.7,1.53-4.21-3.38-8.33-8.41-12.17-9.99-11.52-4.75,2.05,4.23-.68,9.22-8.2,14.95-1.71,4.29-3.69,7.93-5.93,10.91.71,2.92-1.85,3.09-7.68.5-4.35.5-7.32-.08-8.91-1.73-3.69-3.73-5.56-9.36-5.62-16.89-3.41-6.82-4.12-12.56-2.13-17.23-2.57-6.39-9.24-8.56-19.99-6.53l1.86,3.88c-19.35,13.71-11.5,38.39,4.3,51.19,2.9-2.08,5.48-2.39,7.74-.92,2.65,12.14,3.5,34.48-11.98,15.2-6.14-6.17-13.83-7.76-22.01-9.42-7.66,8.95-5.36,15.23-.13,24.44,15.32,26.96,34.24,34.03,63.73,17.66l2.97,1.26c-5.23,5.51-10.39,11.19-16.07,16.39l-2.65,2.43c.42,8.63-10,10.1-15.73,4.93l-8.21-1.19c-2.69,4.89-6.16,3.5-7.67-1.73-12.08-10.45-24.09-21.84-29.7-36.82-5.63-.63-5.72-2.99-.56-5.27-1.97-11.78,1.24-21.62,5.03-33.27l16.59-51c1.76-5.41,3.33-9.89,6.99-14.28,19.85-2.24,40.77-1.19,61.66,2.41,2.49.43,4.83-2.12,6.17-3.64Z"/>
  <path class="st118" d="M252.34,133.8l-.4,5.41c-.49,6.65.68,16.22-4.16,21.31l-15.36,16.2c-11.68,7.76-26.89,10.71-42.21,8.86-9.97-1.2-15.47-11.51-21.31-19.06s-12.18-15.88-9.94-25.94c.86-3.85,4.09-7.03,6.9-7.22,1.74.52,1.65,1.15-.11,1.89,1.73.95,1.64,1.65-.27,2.1-.34,10.33,4.48,20.02,14.46,29.08,12.48,12.98,28.41,14.59,47.81,4.83-3.61-3.7-1.94-4.92,2.46-2.16,5.51-2.88,9.74-6.25,3.2-10.97-7.93-.17-9.63-1.97-5.1-5.38-1.26-2.44,1.32-5.04,7.73-7.81-4.59-3-3.11-4.93,2.12-3.15.65-3.35,1.91-5.55,3.76-6.59,1.48-7.44,12.37-13.29,10.43-1.39Z"/>
  <path class="st18" d="M153.89,39.42c8.08,4.13,8.54,13.13,8.25,22.2-.22,6.59,1.42,11.96-2.32,16.39.89-1.53.86-3.59-1.02-3.95-1.45-.28-2.96-.63-4.38-.8-1.68.1-2.96-.46-3.75-1.85,5.52-16.21,3.51-25.11-6.05-26.72l-.75-4.81,2.84-.79c1.94-.47,5.46-.55,7.19.33Z"/>
  <path class="st221" d="M422,300.75v63.71s0,19.62,0,19.62c-2.2.74-3.6.26-4.7-.2l-3.96-5.08.49-58.19c-1.23-8.38.16-14.34,4.15-17.89,1.07-1.06,2.53-1.96,4.02-1.97Z"/>
  <path class="st157" d="M215.72,201.56c-.96,3.84,2.9,5.9,5.34,9.81-3.92,1.65-7.12,3.33-7.22,6.52-.08,2.72,2.27,5.7,4.44,7.15-.12,3.35-2.39,5.73-5.56,5.97-8.63.31-7.86-9.27-6.01-15.95-4.34-2.69-6.12-7.18-6.64-11.47-6.54-.1-9.98-1.53-10.32-4.29,8.39.49,17.79,1.89,23.94-3.74.85,1.7,2.46,4.22,2.02,6.01Z"/>
  <path class="st1" d="M98.13,205.09c10.63-2.85,11.28,15.39,5.77,21.29-3.34,3.58-7.29,5.53-9.78.44-2.96,4.41-4.29,3.97-5.29-1.01l-1.79-3.17c2.89-5.64,3.35-12.5,7.53-18.03l3.56.49Z"/>
  <path class="st9" d="M406.11,384.49c-.82.22-2.21-.36-2.2-1.96l.08-18.07v-63.79c.67-.02,2.04.36,2.04,2.07l.07,81.75Z"/>
  <path class="st96" d="M134.41,417.6c1.45,2.91,2.35,5.61,3.34,8.8.34,2.47,1.52,3.71,3.54,3.7.75,9.86,3.39,18.96,7.92,27.32,6.24,4.49,7.42,7.69,3.52,9.61-22.83-2.16-45.04-.86-67.08,1.8,1.79,3.91,1.15,5.59.75,7.43-9.79-11.47-16.74-19.73-33.6-18.56-2.3-4.7-3.62-8.09-4.52-13.72,5.9.54,10.18-1.78,15.17-4.24,9.86-4.87,20.17-6.54,30.69-9.57l7.65-6.01c8.02-8.84,15.69-18.48,23.02-28.92,3.74,7.45,6.49,15.81,8.25,25.08-.8-2.1-.35-3.01,1.35-2.72Z"/>
  <path class="st61" d="M124.01,386l-29.67,36.56-31.69,12.17-13.94-.28-7.27,9.85c-6.96,2.32-15.94-12.44-11.99-18.06l.71-4.89c6.13-1.69,12.79-2.68,19.97-2.97-1.81-1.72,3.36-8.65,5.84-8.07.91-1.26,2.16-2.06,2.87-3.87,1.88,3.59,5.36,6.56,8.35,6.14,11.76-1.63,6.21-11.42,12.71-16.5l3.77,2.46c-2.46,12.93,13.31,17.66,12.69,3.16l3.03-3.53c.63-4.68,5.19-7.76,13.67-9.25,4.58-5.33,8.22-6.3,10.93-2.91Z"/>
  <path class="st39" d="M21.85,424.12c1.45.7,3.05,1.8,2.9,3.16-1.09,9.57,9.88,35.96,17.32,42.44,1.03.9,12.08-1.05,10.55-2.56,1.06-2.22,3.79-2.93,8.19-2.14l13.5,2.83c3.33,3.8,5.95,9.23,7.31,15.47l-45.98,1.04c-7.04-7.08-11.55-15.82-14.52-25.51-4.7-15.34-15.18-25.57-9.44-31.82,2.45-2.67,6.66-3.4,10.18-2.9Z"/>
  <path class="st74" d="M144.42,367.54c2.87,8.69-5.52,20.23-14.26,16.66-1.51,1.17-4.34,1.49-6.16,1.8-4.11.71-5.65,5.17-9.71,6.7l-14.89,5.46c-2.62.67-5.61.16-8.97-1.55-4.26,1.7-7.77,1.52-10.52-.54,3.04-11.2,15.31-10.51,16.05-14.99.69-4.13-9.19-12.57-2.16-20.77.39,4.68,1.83,8.75,4.31,12.23,1.95-.8,2.56-.2,1.85,1.79,11.6,4.98,18.7-4.8,15.44-15.97l2.52-1.33c6.16-4.6,14.84-.63,19.18,5.95,4.3-.07,6.73,1.45,7.3,4.56Z"/>
  <path class="st180" d="M29.46,426.24c3.79,6.09,7.06,12.88,11.99,18.06.71-3.56,2.12-3.33,2.65.34,1.67,5.55,2.37,11.63,6.06,17.54,5.21-.39,10.88-1.1,13.85,1.89-4.72.3-8.52,1.33-11.39,3.1,1.02.75,1.63,2.82,1.16,3.72-.21.4-8.63,4.4-13.75,2.46-1.22-.46-18.13-25.51-20.26-43.23-.33-2.75,1.66-4.51,2.09-5.98,2.67-6.05,8.79-4.56,7.61,2.12Z"/>
  <path class="st161" d="M156.2,382.12c4.15,4.27-1.09,10.12-6.43,10.41-1.71,1.97-3.76,3.84-6.16,5.61.23,6.58-1.96,9.46-6.57,8.65-3.89-7.07-5.77-14.04-6.88-22.59l7.61-5.91c4.17-3.24,6.74-6.11,6.65-10.75.93-1.52,1.44-1.29,1.54.57,2.99.53,4.24,2.69,3.76,6.49,4.6,1.54,6.77,4.05,6.49,7.52Z"/>
  <path class="st187" d="M149.77,392.53c5.71-.42,5.9,4.12.6,6.02-1.24,2.93.26,6.01,4.5,9.24-.09,7.72-2.67,23.69-10.88,24.77-2.13.58-2.7-1.63-1.71-6.64-1.62-6.07-2.24-13.67-5.24-19.12l5.71-11.87c1.19-2.71,4.93-2.92,7.03-2.39Z"/>
  <path class="st60" d="M142.28,425.91c.56,2.1,2.17,4.16,1.71,6.64,5.33-.33,5.82,2.67,1.7,5.89,3.09,1.63,4.85,5.12,5.26,10.48,3.22,4.29,5.58,8.59,7.06,12.9,1.72.66,1.66,1.35-.09,2.05-2.44,6.01-1.8,10.7,1.94,14.07l-3.61,3.92c2.12,3.69-1.48,5.05-5.19,4.36l1.67-19.19c.49-5.68-3.62-5.62-5.99-9.68-5.5-9.41-5.99-21.27-8.99-30.95,1.24,1.78.63,2.14,1.21,3.09.5.83,3.47.97,3.64-.28.11-.85-.56-2.53-.32-3.3Z"/>
  <path class="st105" d="M50.13,418.38c-1.94,2.68-9.08,1.29-20.67,7.86-1.29-2.08-5.54-1.83-7.61-2.12,2.89-8,5.18-15.6,9.72-22.68l2.63,1.08c-.83,10.09,4.11,17.53,14.66,14.13l1.29,1.73Z"/>
  <path class="st189" d="M134.41,417.6c-.22.88-.2,1.94-.26,3.57-.03.77-1.36,1.59-2.24.17-3.64-5.93-2.75-15.46-7.25-23.88l-18.54,25.26c-.51.7-1.23,1.86-2.05,2.35-.65.39-1.68-.26-2.28-.9,8.57-10.79,14.26-23.77,25.57-33.28,3.82,10.7,3.3,19.17,7.05,26.72Z"/>
  <path class="st53" d="M49.7,398.06c-.61,1.55-1.6,3.05-3.18,3.24-14.82,1.79-3.24,17.63,1.53,7.76-1.1-4.99.14-7.95,3.73-8.89,3.33,2.26,4.58,6.2,4.19,10.14l-5.84,8.07c-3.98.09-10.35,1.14-13.65-2.45-3.6-3.92-3.56-9.96-4.92-14.49,1.79-2.8,3.93-4.99,5.9-7.48,4.87-.33,10.65-.45,12.24,4.11Z"/>
  <path class="st125" d="M62.65,434.73c-12.43,4.77-18.94,4.97-18.56,9.91-.57.11-2.08.01-2.65-.34.09-4.67,1.67-14.42,8.41-13.84,4.48.38,8.72,5.26,12.79,4.27Z"/>
  <path class="st108" d="M64,464.06c3.82.1,7.68.79,10.3,3.79-.96,4.8-8.53-5.02-21.69-.69-.81-.59-2.54-.75-2.59-3.48l13.99.38Z"/>
  <path class="st145" d="M469.79,403.7c19.2,9.36,29.56,24.13,19.77,45.13-.2.43-1.11.53-2.23.54.33,9.63-6.49,18.67-13.05,25.57-10.88,5.62-20.24,13.66-32.12,17.24-11.84,3.09-23.24,3.15-34.2.18l-.22-4.81-16.06-11.19c-6.48-4.51-11.36-10.12-16.9-14.77-9.99-6.02-19.61-16.15-26.54-24.95-2.92-4.87-.9-6.05,3.86-2.93,1.27,1.53,4.28,2.14,6.01,2.93-.11,2.58,2.66,3.1,4.09,3.6,3.76-.08,11.93,6.02,9.58,10.14l6.47,1.17c31.54,42.96,83.06,46.44,101.47-9.52l4.67-2.57c-2.9-3.04-3.81-7.51-2.73-13.39-6.44-7.04-13.43-13.7-20.96-19.97-3.04,2.43-7.13,2.76-12.27.98-22.2,3.02-41.32,14.45-57.35,34.29l-3.35.37c-.83,9.32-25.28,5.73-19.73-3.74l1.97-2.07c1.97,2.61,4.18,5.22,7.46,5.62,3.58.43,6.59-1.77,8.94-5.05l8.35-11.66c21.27-17.47,33.75-26.7,60.32-25.3,5.46.29,10.31,5.52,14.74,4.15Z"/>
  <path class="st91" d="M243.78,368.72c4.06,3.71,9.25,6.92,14.46,8.32-5.12,6.9-13.9,5.7-18.33,7.07-2.18,4.92-4.11,12.27-10.35,16.05l-18.37,11.13-7.19-44.84c.18-.63.38-1.12.6-1.13,8.12-.44,32.31-1.6,38.34,1.61.47.25.69.96.85,1.8Z"/>
  <path class="st154" d="M230.72,346.63c5.21,1,5.15,2.47-.18,4.41,5.07,1.88,16.88,7.1,20.99,10.27.63.49.72,1.67.65,3.06,2.58-1.24,3.26.4,2.18,2.9,4.25,1.58,8.53-2.02,11.93-4.77l36.59,31.07c7.3,6.15,14.89,11.14,21.96,17.82,8.85,8.35,19.96,13.52,27.27,22.33-1.54.77-2.73,1.6-3.86,2.93l-1.79.76-48.42-39.07c-9.84-7.58-19.03-15.83-27.57-24.75l-4.54-4.23c-1.08-1.01-4.19,2.59-6.3,2.87-6.02.82-11.02-3.46-15.57-5.95-3.15.09-7.73-.99-9.84-3.25-7.35.45-14.39-7.04-7.66-12.53-5.35-.12-5.12-2.02-.12-3.75-.08-1.78.34-1.69,1.19.05,1.61-1.9,2.64-1.95,3.09-.15Z"/>
  <path class="st23" d="M203.72,338.9c1.82,1.74,1.23,2.96-1.75,3.66,5.22,4.51,1.5,16.4-1.9,21.89,1.64.63,1.66,1.3.06,2.03,6.93,35.65,10.42,51.61-8.53,88.29-1.57.28-2.08-1.12-1.53-4.21l-1.85-5.8c1.58-8.77,6.51-24.88,12.98-30.18-4.71-2.03-5.87-12.88-.65-14.76l-4.22-3.04c-.85-5.02-.73-10.68.36-16.98-5.29-7.24-7.79-14.92-7.49-23.02,3.1-9.07,3.41-17.63.93-25.66-5.19-2.16-6.53-4.23-4.02-6.2.28-1.68.94-1.69,1.94-.18,4.78-4.36,18.45,8.77,15.68,14.17Z"/>
  <path class="st167" d="M407.75,487.55c9.73,6.78,22.68,4.31,34.41,4.63-10.84,3.27-20.66,6.25-31.22,5.15l-45.59-4.76c-2.37-.25-3.52-2.15-3.35-3.37.16-1.11,2.01-3.35,3.89-3.59l26.09-3.3,15.24,8.7.54-3.46Z"/>
  <path class="st73" d="M256.13,487.91c-34.18,1.82-70.14,1.77-104.22.01.24-.48.33-1.5-.85-1.7,1.59-1.79,3.13-3.54,5.19-4.36l3.58-1.82c29.54.9,59.15,1.11,88.83.65-1.03-3.3-1.2-6.36-.51-9.16-4.94,2.59-7.13-.1-5.95-5.06-3.58-.29-3.99-1.59-.52-2.83-5.12-3.35-2.83-5.32,2.63-2.15,7.54,6.29,15.91,15.92,11.82,26.43Z"/>
  <path class="st214" d="M504.28,398.95c-9.09-1.18-14.9-4.54-23.57-8.28,4.16-3.44,9.04-3.21,9.44-5.5l2.13-12.19c5.37-1.36,12.83,4.84,15.7,9.02-4.51,4.6-5.8,7.63-3.7,16.95Z"/>
  <path class="st59" d="M474.15,494.47c-9.82.56-18.25,2.58-28.8.91,17.59-6.72,20.62-17.46,45.08-8.89-3.13,6.01-9.72,8.02-16.28,7.97Z"/>
  <path class="st45" d="M191.6,454.77c3.85,7.32,16.54,7.03,23.99,3.23,11.18-5.7,20.39-3.46,28.72,3.48-1.68,0-2.88.82-2.63,2.15-4.93-.29-10.12-.74-15.58-1.35l-15.94,4.84c-5.5,10.19-23.47-.9-27.34-8.4l4.61-2.53c-5.14-2.55-2.92-6.65,2.63-5.64,1.59.69,1.32,3.17,1.53,4.21Z"/>
  <path class="st54" d="M348.25,436.64c9.48,7.49,17.26,17.16,26.54,24.95-2.53.51-5.51-.27-7.48-2.75-8.52-10.72-19.28-17.72-29.64-26.19l-24.24-19.82c-5.76-4.71-11.97-8.61-15.4-14.5,4.11-.29,6.38,3.67,9.56,6.19l40.65,32.11Z"/>
  <path class="st175" d="M248.05,490l-2.06,1.97c-21.72.66-43.71,1.32-65.99,1.99l-22.23.18c-1.67.01-2.87-.68-3.38-1.43-.45-.66-.41-1.99-.45-2.7,29.34-1.77,63.82-1.79,94.11,0Z"/>
  <path class="st90" d="M256.13,487.91c-1.21,3.11-5.64,2.09-8.08,2.09h-94.11c-.37-.68-1.41-1.51-2.04-2.08h104.22Z"/>
  <path class="st149" d="M282.73,482.59c-5.92,3.6-11.43,6.36-19.55,8.29-1.78-4.39-1.76-7.72-1.45-13.4,7.37.6,13.05-.38,21,5.11Z"/>
  <path class="st65" d="M357.47,424.87l-37.6-30.42c-.22-1.97,1.95-2.92,3.35-1.63,11.42,10.55,22.87,19.9,35.63,28.91,1.63,1.15.8,3.02-1.38,3.13Z"/>
  <path class="st46" d="M245.99,491.97c.05.62.14,1.38,0,1.98l-65.99.02c-.12-.79.71-1.98,2.11-1.98h63.88Z"/>
  <path class="st122" d="M489.61,453.87c-2.66,3.08-3.42,1.58-2.28-4.5l3.46-10.36c3.23-9.69-.94-19.07-8.42-25.02l-12.59-10.29c2.99-.92,5.51-.72,8.59,2.62,11.79,12.75,24.11,17.71,11.23,47.55Z"/>
  <path class="st71" d="M234.22,363.03c2.82-1.19,7.44,1.94,9.84,3.25l-.28,2.44c-1.75-1.48-6.51-2.23-9.6-2.24l-30.18-.04-3.87.03c-.13-.65-.16-1.38-.06-2.03.36-.97.76-1.91,1.32-2.76,1.68-2.55,28.71-2.67,32.84,1.35Z"/>
  <path class="st140" d="M298.03,398.34c-4.22.27-6.37-3.75-9.55-6.42-6.93-5.84-14.71-10.27-18.02-18.33,8.74,8.15,22.69,16.37,27.57,24.75Z"/>
  <path class="st235" d="M489.61,453.87c-3.62,8.38-7.68,17.12-15.33,21.07,5.17-8.33,9.99-16.41,13.05-25.57.24,2.01.93,3.93,2.28,4.5Z"/>
  <path class="st83" d="M481.86,374.56c-.51,1.04.22,4.4-.92,5.83-.9,1.13-3.35-1.31-6.81-4.16-1.2-1.18-1.93-3.04-1.06-4.02,1.6-1.79,4.4-2.32,5.61-1.59s2.27,2.49,3.18,3.93Z"/>
  <path class="st159" d="M417.98,302.72l-.69,81.16-9.28-5.41c-.48-2.73.62-5.59.68-8.16l.54-61.56c-.49-4.41.48-7.09,2.92-8.04,2,.06,4,.88,5.83,2.01Z"/>
  <path class="st234" d="M351.57,256.59c5.69-.55,5.97,3.9.69,5.86-.5,2.84-.72,3.56-2.78,1.25-4.92-3.26-9.97-6.23-15.15-8.89-1.96,7.97-2.13,16.18-.5,24.63,2.88-3.44,9.47-5.27,13.89-4.68,2.01.37,3.6,1.99,4.76,4.87,3.53,1.36,5.33-1.79,5.4-9.44l2.34.54c1.71-.2,1.73.33.27,1.5l-.32,8.55c6.45-.54,11.3-.56,18.34.65.22-3.56-2.59-3.69-4.28-2.85-1.13-.27-2.02-.57-2.06-.95-.1-.99.28-19.47,1.21-19.82,1.67-.61,3.43.36,4.71,1.55,2.6,13.3,5.36,16.38,8.29,9.25.88-5.06,2.6-8.22,5.17-9.48.46-3.5,1.39-3.3,2.79.61,3.85,2.34,4.54,6.92,2.08,13.75l3.54,3.14c3.3-.7,5.27.03,5.9,2.18,1.25-3.96,3.07-3.92,3.95.17,1.84-2.53,2.78-6.76,2.83-12.69,9.56.64,8.67-9.6-.21-8.26l-2.34-3.99-1.47,2.62c-5.7-3.73-10.85-3.94-15.45-.63-1.49-1.15-3.23-2.19-5.21-3.11-1.94-.21-1.85-1.24-1.03-2.1.73-.78,1.8-1.88,3.16-1.82l27.15,1.25c5.43.25,8.78,5.7,11.15,10.87,4.14-5.64,8.16-6.29,14.44-4.7s13.49-1.59,18.8-2.9c2.54,2.28,2.56,11.98-1.9,11.4-1.65.58-2.82-.34-3.51-2.76-3.89.09-6.07-.87-6.53-2.88-3.07-.02-4.49,2.78-5.15,5.78l-4.14.86c-6.58-10.24-10.05,14.46,1.79,9.89,2.39-.95,3.65.6,3.96,1.99.23,1.03-1.27,4.75-3.08,4.76l-103.15.14c-4.73,0-8.06.48-9.9,4.1l-.96-37.28c7.62-1.53,17.8.27,22.5,7.1Z"/>
  <path class="st112" d="M407.94,205.42c4.96-.26,8.66,2.02,11.09,5.66,2.85,4.26-1.35,8.47-2.12,11.58,1.41,5.68,3.95,11.76,1.96,17.91-.59,1.19-4.36.86-5.41.55l-.71-10.93c-.15-2.15-1.64-3.74-2.76-4.27-1.2-.57-3.91-.75-4.3.39-.84,2.49-.11,7.62.21,13.51.08,1.43-5.12,2.1-5.61.85l-1.61-34.4c3.96-1.41,6.5-.71,9.27-.85Z"/>
  <path class="st87" d="M389.82,240.66c-.22-2.27-1.11-4.47-1.85-6.55s-5.5-4.02-6.68-1.42l-3.33,7.32c-.68,1.49-4.42,1.66-5.88.91l8.29-35c2.73-.56,4.68-.8,7.42-.56,3.67,12,6.01,22.93,8.05,35.58-2.55.43-4.3-.04-6.02-.28Z"/>
  <path class="st207" d="M431.68,239.36c.12-2.7-1.63-5.17-.95-6.36,2.55-4.51,8.4,4.54,12.05,1.8.95-.71,1.19-3.58,1-4.76-.91-5.58-6.6-5.25-6.57-8.02.02-1.74,2.04-3.11,3.91-3.75,3.15-1.07,3.31-3.59,2.06-5.42-1.16-1.7-3.79-2.5-5.52-.17-2.34,3.15-5.71,2.14-7.49,2.96-3.22-1.63-1.45-6.16.75-8.56,9.95-10.81,24.9,1.13,19.75,14.64,8.39,15.46-7.28,30.82-18.99,17.62Z"/>
  <path class="st85" d="M431.68,239.36c4.02,5.37,13.72,3.09,17.11-.7,4.88-5.46,3.06-13-3.08-17.41,3.31-3.41,4.89-7.03,3.58-10.3-1.12-2.8-3.9-4.91-7.59-5.71-3.97-.86-7.42-.15-9.85,2.66-1.4,1.62-2.11,4.46-1.68,7.76-1.63.75-2,1.06-3.28-.59-1.9-2.45,4.54-15.91,15.57-13.58,5.36,1.13,11.44,6.77,10.58,13.41-1.53,11.85,7.53,24.43-7.03,30.25-4.45,1.78-14.67,1.36-14.34-5.79Z"/>
  <path class="st8" d="M387.85,255.01c5.63-2.98,10.5-1.4,3.7,4.1l-4.43,16.87c-.41,1.55-1.57,2.55-2.3,2.88-1.44.65-3.91.37-4.62-2.02l-5.48-18.27-.49,19.99c-1.41,1.37-4.87-.06-4.08-1.44l1.46-22.16,8.08.03c2.31,5.01,2.22,9.45,3.25,14.24,4.12-5.1,3.37-9.97,4.91-14.23Z"/>
  <path class="st131" d="M360.48,272.22c-.21-.45-.26-1.02-.27-1.5-2.26,1.43-3.07,1.29-2.42-.44-3.12,21.25-11.2,3.07-5.54-7.84l-.69-5.86c2.55-3.89,8.86-3.92,12.43-.82,3.25,2.82,2.95,6.75.85,12.27-.95,2.48,3.79,7.93-.49,11.43-2.9-1.65-2.97-5.33-3.87-7.25Z"/>
  <path class="st225" d="M483.66,260.57c-1.91,15.46-6.88,30.23-13.85,24.53,8.14-7.67.39-13.65.26-25.58,5.08-.09,5.48,3.26,6.29,7.84,2.68-2.22,2.33-4.5,2.48-6.49s4.99-1.63,4.82-.3Z"/>
  <path class="st148" d="M444.55,265.03l-2.35,10.75c-.26,1.65-2.99,5.76-6.16,4.22-7.47-3.62-7.91-17.14.1-20.78,3.9-1.77,7.15,3.62,8.4,5.8Z"/>
  <path class="st106" d="M459.74,264.89c3.44.41,3.23,10.41.26,11.95-8.19,6.69,1.04-10.66-7.88-14.26l-1.95,17.78c-4.09-7.7-2.35-14.81-.47-21.12l6.85.05c1.85.01,3.4,2.99,3.19,5.59Z"/>
  <path class="st163" d="M490.44,252.89c2.2,6.29,2.14,20.25-1.38,25.93-1.13.31-3.06-.37-3.08-1.88l-.32-20.22c-.03-1.68.7-3.23,1.47-3.66.67-.38,2.06-.17,3.31-.16Z"/>
  <rect class="st21" x="462.68" y="223.87" width="11.96" height="6.18" transform="translate(-2.72 5.71) rotate(-.7)"/>
  <path class="st199" d="M464,254.89c1.77,7.32,1.69,16.9,0,23.88l-4.01-1.93-.26-11.95c3.07-3.02,2.81-7.58,1.9-11.4l2.33-.58c1.76.53,1.74,1.2.04,1.99Z"/>
  <path class="st225" d="M466,278.79c-.59-7.77-1.26-15.74-2-23.9l-.04-1.99c.73-.18,2.98-.28,3.79.37l.54,21.33c.04,1.74,1.85,3.93.9,4.1-.66.12-2.94.16-3.2.09Z"/>
  <path class="st14" d="M492.87,280.37l-1.88-1.76c-.43-9.41.39-17.99,2.47-25.72.82,8.95,1.36,17.71-.59,27.48Z"/>
  <path class="st57" d="M492.87,280.37c-1.34-1.7-2.82-1.83-3.8-1.56l1.38-25.93h3.02s-.59,27.48-.59,27.48Z"/>
  <path class="st172" d="M466,278.79c-.54.08-1.51.21-1.99-.02v-23.88c1.33.21,2.11,1.7,2.1,3.83l-.1,20.06Z"/>
  <path class="st173" d="M410.09,254.01c6.3.26,4.9,13.66,1.58,16.67.8,4.02.18,6.78-1.86,8.27-1.09-.42-2.81-.14-3.95-.17-5.72-.5-5.22-2.47-.03-4.15-2.58-1.9-2.23-4.89,1.05-8.97-3.56-2.62-3.78-4.91-.67-6.87-3.73-3.5-7.02-1.92-11.87.92l-2.79-.61c.36-1.38.82-3.25-.56-4.16-.6-.39-2.53-.07-3.14.06.22-.6.18-1.48.11-2.12,7.53-1.22,14.62,1.05,22.13,1.12Z"/>
  <path class="st138" d="M370.15,277.13l-.21-18.39c0-1.93.67-3.45,1.67-3.77.03,7.26,2.4,15.5-1.46,22.16Z"/>
  <path class="st232" d="M372.18,221.35c-2.92,3.22-8.01,3.68-11.66,6.62-2.66,2.14-1.81,9.05-.98,12.42-2.23,1.27-3.86.95-5.5.66-.94-4.58-2.29-33.24-1-34.39,6.22-5.53,25,3.92,19.14,14.68Z"/>
  <path class="st124" d="M372.18,221.35c.08-4.25-1.63-8.9-4.19-11.52-3.52-3.6-8.73-3.56-13.96-2.26v33.49c-1.18-.42-2.16-1.79-2.15-3.92l.16-31.69c5.7-.7,11.7-1.43,16.23,1.07,6.07,3.36,7.79,10.56,3.9,14.83Z"/>
  <path class="st47" d="M399.83,197.43c-.12,3.81-3.5,5.11-6.71,7.19-6.85-5.72-13.01-1.85-16.02-5.64-5.06-6.36,6.05-4.87,22.73-1.55Z"/>
  <path class="st47" d="M371.62,198.14c-1.62,1.33-1.83,2.22-1.63,4,.15,1.31-3.14-.35-4.16-.92-3.15.06-6.11-.29-6.59-3.12-.44-2.6,2.1-4.02,4.75-6.29,2.97.79,5.03,4.15,7.63,6.33Z"/>
  <path class="st120" d="M412.16,300.71c-2.04,4.84-2.11,9.93-2.25,15.94l-1.21,53.66-.53-69.05c.31-.82,3.88-.88,4-.54Z"/>
  <path class="st109" d="M255.92,94.2c1.5.62,3.13,2.09,4.21,3.38l-.03,4.29-7.76,31.92c-.36-1.05.17-2.57-1.35-4.57-2.34,3.28-5.19,5.94-9.07,5.95-2.5-.65-5.85-8.81-2.34-9.8.34-2.67,1.63-5.18,3.87-7.51.41-4.82-2.67-5.59-9.25-2.32-.95,5.24-2.75,4.9-3.92-.24-2.81-12.24,6.63-16.21,14.12-25.86,2.57-3.7,6.41-2.12,11.52,4.75Z"/>
  <path class="st223" d="M151.84,155.46l.56,5.27c-.35,5.27-7.2.99-14.67-6.82.33-3.11-.82-8.34,1.34-11.47,1.99-2.88,7.36-4.12,10.97-3.03-.43,6.02-.98,11.86,1.8,16.05Z"/>
  <path class="st216" d="M143.87,39.89c2.32,1.85,6.04,1.45,9.3,3.28,3.02,1.69,4.74,8.65,4.18,11.96l-2.93,18.13-21.57-2.53c-7.98-.94-13.37-4.11-16.65-11.3-.74-1.63-17.3-12.03-26.23-13.62l3.1-19.16,18.87.66c9.85,18.14,24.11,6.33,31.93,12.58Z"/>
  <path class="st169" d="M208.48,256.92l-.43,1.55c7.09,8.28,4.64,29.84-4,36.36-2.66,2.14-5.15,1.39-7.46-2.25-4.07-2.04-11.94-6.53-14.46-10.14-7.63-10.93-6.69-13.48.76-23.83-.62-3.56-1.56-6.79-2.84-9.68-2.91-.79-4.36-2.05-4.37-3.76-6.91-2.67-2.71-10.24,2.7-12.59,2.1-7.99,21.8-1.98,24.11,4.27-1.52,10.14-1.56,13.67,5.99,20.06Z"/>
  <path class="st36" d="M231.84,277.19c-2.3,5.09-6.82,7.14-13.58,6.17.06,4.66,2.55,7.59,5.52,10.83.96,1.83,2.32,4.75.69,6.82-2.2-.25-4.15,1.37-4.4,4.11-2.24,5.76-18.12-2.73-16.52-8.64-1.53-.7-1.3-1.24.49-1.63,3.27-11.78,4.46-24.18,4-36.36,6.87-.33,14.12.36,21.19,2.55,1.75,6.16,2.8,11.14,2.6,16.17Z"/>
  <path class="st186" d="M210.77,233.21l-.45,3.58c-.84,6.67-.04,13.65-1.84,20.13-3.38.49-6.92-.6-8.67-2.98-5.45-7.4,1.39-14.8-1.1-19.45-6.74-2-14.23-3.58-20.33-1.91-5.22-1.48-5.67-2.84-.81-5.5-.39-2.83,5.73-6.85,7.71-7.08,1.47-.17,24.84,10.7,25.5,13.2Z"/>
  <path class="st49" d="M223.79,294.19c-1.3.75-4.71.97-6.15-.98-2.98-4.04-3.98-9-3.06-14.67,6.24.86,12.23,1.45,17.27-1.35-.26,6.44-5.34,11.64-8.06,17Z"/>
  <path class="st241" d="M220.08,305.12c6.45,3.25,14.07,9.33,12.03,13.18-2.39,5.24-6.27,4.01-6.26-1.65-9.3,1.81-10.75,10.77-11.65,19.3,1.37,5.63-.07,7.37-4.33,5.24-1.36,3.83-6.46,1.05-6.16-2.28l-15.68-14.17c-3.49,0-3.66-1.51-.09-2.51-.95-5.31,1.73-10.65,8.04-16.01,2.48-3.04,3.45-6.15,2.88-9.32l4.7-.41,16.52,8.64Z"/>
  <path class="st228" d="M232.12,318.29l2.07-.05,4.36-.79,17.68,18.92-.04,3.87c-.02,1.85-.94,4.68.09,6.23-4.98,3.14-10.54,1.28-16.69-5.57l-5.16.1c-1.24.38-2.29.58-2.67.18-.64-.69-9.74-14.86-10.11-15.72-.61-1.44-.25-3.49.37-4.96-2.18-4.39-.7-6.1,3.84-3.85l6.26,1.65Z"/>
  <path class="st194" d="M248.52,315.83c-7.46,3.35,7.81,11.55,7.71,20.54-6.82-.95-16.93-10.8-22.04-18.13,3.72-3.53,9.79-5.12,14.33-2.41Z"/>
  <path class="st183" d="M200.09,203.58c2.15,4.38,7.17,6.37,11.63,9.63-2.93,6.34-3.03,13.07,1.02,17.79-.75.2-1.86,1.4-1.96,2.21-1.41-.89-2.6-.04-2.79,1.11-.23,1.35-.32,2.42-.4,5.19,3.02,2.06-.71,5.9-2.43,2.08,3.85-17.03-13.02-7.6-19.77-18.6-1.95,3.26-4.77,4.69-7.82,4.1-.52,1.7-1.02,1.54-1.49-.29-1.52-.55-3.74-1.96-4.09-3.35-1.25-5.01,10.32-2.59,11.67-5.96.69-1.72.3-5.22.06-6.88.97-3.88,2.45-3.5,2.73.64l1.76-1.96c5.45.71,7.46-.62,6.01-3.96-3.08-3.9,2.76-4.15,5.87-1.76Z"/>
  <path class="st178" d="M139.02,181.83c5.36,7.27,13.5,11.17,21.57,17.06,4.02,14.2,13.29,19.18,3.78,28.38-.43.84-.9,1.55-1.55,1.78-3.67,1.3-27.21-8.46-20.87-16.84-8.34-1.51-9.16-10.66-6.75-17.87-8.48,1.03-17.13-.12-25.96-3.44,11.06-7.63,24.93-15.63,29.77-9.07Z"/>
  <path class="st88" d="M141.96,212.21c7.12,9.23,10.91,14.12,22.42,15.06,3.25.27,8.27,4.4,11.71-.47l1.49.29c.22,1.72.94,4.13.81,5.5-1.7,3.54-2.52,4.31-4.33.62-7.13,1.63-13.84,1.58-20.13-.14,2.82,11.75,8.31,15.72,16.47,11.91,1.43-5.48,3.78-5.19,5.29.2,2.19.08,3.08,2.34,4.37,3.76-2.88.72-6.33,1.38-10.35,1.97l-11.41,9.72-1.71-1.98c-4.92-.51-7.66-3.94-3.92-8.23l-4.53-1.47c.41-6.7-1.24-12.68-4.97-17.93-3.98-2.9-5.52-5.6-4.62-8.11-5.29-1.69-5.64-7.48-.75-10.03-.36-5.61,1.02-5.83,4.16-.65Z"/>
  <path class="st137" d="M182.1,197.56c2.35.19,5.5.82,7.67,1.73,6.37,2.67,8.17-.11,10.32,4.29-2.2-.4-4.47.04-5.87,1.76-.57,3.92-3.82,6.39-7.77,5.92-.61-.49-2.05-.63-2.73-.64-9.39-2.41-12.54-12.88-18.32-19.27,5.39,3.47,10.6,5.73,16.7,6.21Z"/>
  <path class="st102" d="M124.03,210.83c1.57,3.52,2.41,7.63,2.52,12.33,2.47,1.96,5,3.89,7.59,5.79,7.67-7.35,15.14,10.91,14.12,18.28-4.74,1.24-8.85,3.7-12.33,7.38-1.31,9.82-5.13,12.68-11.47,8.56-1.58-5.57-3.11-11.13-4.58-16.69-9.89-2.78-13.08-13.64-14.01-23.02-.43-4.4-.43-19.67,5.41-18.3,4.4-.1,7.91-.34,12.6.25.53,2.29.3,3.89.15,5.42Z"/>
  <path class="st181" d="M111.27,205.16c-4.34,13.02-.66,30.94,8.6,41.31.69,1.04.9,1.8-.16,2.62-4.85.74-13.94.55-17.87-2.07-8.84,4.77-18.1-16.9-7.72-20.21,4.52.03,9.33-4.49,10.18-8.88.99-5.16-2.89-9-6.17-12.84.19-2.56,2.02-9.49,5.95-9.47s8.26,6.37,7.2,9.54Z"/>
  <path class="st238" d="M141.96,212.21c-1.11-.72-2.94.5-4.16.65-4.1,6.02-10.72.74-5.34-4.37-.5-3.57-5.57-3.69-8.21-5.34-1.79-8.03-8.24-10.28-15-12.25,11.04.92,20.88.23,32.26-1.39-5.21,10.51-4.35,16.47.45,22.7Z"/>
  <path class="st100" d="M132.46,208.49c-.21,2.42,3.32,4.39,5.34,4.37.84,3.52,1.05,6.66.75,10.03,3.96,4.9,1.44,6.97-4.4,6.06-4.37,1.53-9.17.87-11.46-4.72-1.91-4.65-.9-9.71,1.35-13.4,2.61-.88,5.27-1.48,8.43-2.34Z"/>
  <path class="st17" d="M143.48,314.64c6.25,1.89,12.52,3.47,18.81,4.73v3.04c-.22,2.75-.96,9.77-4.05,10.32-4.21,2.63-7.63,5.81-10.26,9.55,1.66,4.42,3.19,8.78,4.58,13.08,2.63,4.12-1.97,11.87-6.59,12.74l-1.54-.57-9.11-.07c-4.3-7.22-10.21-9.93-17.37-10.44-3.41,2.99-6.85-1.51-3.79-4.5,2.01-2.92,5.55-4.14,10.62-3.66l4.29-2.6s1.28-5.81,3.85-17.43c2.51,1.2,4.73,1.14,6.69.52,2.58-.82,5.3-3.69,4.16-6.48-7.56-1.25-13.88-5.35-16.03-12.41l15.75,4.18Z"/>
  <path class="st165" d="M132.91,328.83c4.11,6.92,4.05,17.69-3.81,22.49-4.5,2.74-11.03,2.11-14.95,1.21.05,4.81-5.55.95-7.4-1.7l.04-2.11c2.87-6.8-5.2-17.68,7.49-24.79,6.28-3.52,14.87-1.45,18.63,4.9Z"/>
  <path class="st211" d="M97.7,315.6c-1.21,7.06-5.97,11.43-11.41,12.41-6.35,1.14-11.26-2.6-14.09-6.83-3.78-5.67-2.49-11.72,1.29-16.77,4.99-6.68,10.05-8.86,16.1-6.23,7.78,3.37,9.8,7.53,8.11,17.43Z"/>
  <path class="st151" d="M106.74,350.83l7.4,1.7c.31,1.24,2.29,4.4,3.79,4.5,1.2,8.86-1,16.86-7.44,18.98-3.96,1.3-8.21,1.28-10.52-1.68l.94-2.54c10.21,3.74,14.6-4.35,11.12-13.53-3.26,2.08-4.11.83-1.48-2.09-8.4-3.34-16.13,6.39-10.89,14.08l-1.53,2.29c-4.85-1.79-4.93-7.48-4.31-12.23,3.43-4,7.32-10.77,12.93-9.49Z"/>
  <path class="st239" d="M49.7,398.06c.29.82,1.38,1.63,2.08,2.1l.26,8.1c.17,4.7-3.56,7.73-7.16,8.08-4.64.46-8.42-2.69-9.07-8.09-.54-4.44.64-8.54,4.23-10.44,2.49-1.32,6.3-.88,9.65.25Z"/>
  <path class="st227" d="M53.15,366.25c-3.03-5.94.87-14.25,5.91-16.69,5.92-2.86,10.29,2,11.88,5.24,2.58,5.23,1.52,11.15-1.92,13.84-4.03,3.15-12.87,3.49-15.87-2.4Z"/>
  <path class="st233" d="M368.01,438c1.85,6.07,15.95,9.43,19.73,3.74,3.94-.6,4.38,1.63,2.02,4.37,2.98,8.43-12.3,8.24-17.96,4.27-2.89-3.04-8.85-5.38-9.58-10.14,1.85-1.15,3.79-1.83,5.8-2.25Z"/>
  <path class="st170" d="M256.28,346.47l5.58,8.33c-8.35,4.12-2.6,10.14-7.5,12.47-1.41-.52-2.29-1.33-2.18-2.9-4.3-5.82-14.24-11.24-21.64-13.33l.18-4.41c.08-3.08.27-6.64,3.7-5.64,1.13-1.75,2.81-3.02,4.26-6.76,5.09,5.83,10.75,9.81,17.59,12.23Z"/>
  <path class="st226" d="M94.12,226.81c-3.69,7.58,2.31,15.94,7.72,20.21,3.04,1.4,4.66,5.06,4.87,10.96,3.47,1.84,6.14,4.09,8.01,6.75,1.83,1.1,2.8,2.62,2.69,4.65-5.8,5.22-4.29,11.76,4.55,19.62,4.7,2.86,8.69,5.99,11.96,9.37,3.85-.2,3.91,1.29.21,2.72-7.08,7.62-19.57-7.74-24.76-14.47-6.43-14.14-15.39-27.41-23.68-41.5-3.89-6.63,1.31-13.64,3.14-19.33,1.64-.9,3.85.94,5.29,1.01Z"/>
  <path class="st66" d="M134.13,301.1c1.18-6.21,11.29-1.91,14.01,1.98,7.71,2.65,15.56,5.56,23.57,8.72l.18,5.04c-.16,5.49-2.38,5.47-4.41.31-5.6,3.17-16.09.79-21.52-2.58-10.64-9.67-26.61-6.02-36.58-27.94,11.76,8.97,11.37,13.87,24.76,14.47Z"/>
  <path class="st162" d="M167.47,317.15c3.64,5.5.61,7.67-5.21,5.26-4.93-3.46-12.57.13-18.79-7.77l2.48-.07c7.36-.21,14.46.65,21.52,2.58Z"/>
  <path class="st52" d="M70.34,278.43c-1.73-2.99-.15-12.2,3.25-12.98,4.39-1.01,6.28,4.33,6.23,6.67-.07,3.6-1.91,9.28-9.48,6.32Z"/>
  <path class="st116" d="M205.94,79.96c5.01,9.72,8.46,22.41,7.75,34.12-3.43,3.31-6.5,7.19-9.2,11.63-.54,1.47-1.58,1.01-2.5-.32-.37,1.61-1.08,2.34-2.13,2.19l-6.1,6.2c-12.33-5.18-16.55-16.21-20.11-27.84-2.95-9.62-2.57-16.24,4.85-24.35l7.46-8.16c7.87-1.41,14.49-.36,19.86,3.17l.13,3.36Z"/>
  <path class="st128" d="M202.04,127.4c2.2,3.55,5.48,13.27,1.56,15.72l5.55,10.28-1.87,2.86-11.25,1.07c-3.38,1.55-4.34.41-1.83-2.29-7.31-5.44-14.59-10.97-21.83-16.61-1.84,2.21-4.04,1.15-6.6-3.17l.11-1.89c11.98-.81,21.24,4.46,30.55,15.32,3.57-7.44,3-14.42,3.44-21.11.07-1.06,1.11-2.03,2.13-2.19,1.76.53,1.75,1.2.05,2.01Z"/>
  <path class="st209" d="M230.27,115.31l3.92.24c4.51,1.06,9.13,5.53,5.38,9.83l2.34,9.8c-.63,2.52-2.17,4.65-3.76,6.59-3.61-3.58-5.5-8.58-5.66-15-5.23,2.39-7.31-1.81-4.09-6.22l-7.21-.87c-5.81,3.06-11.38,5.06-16.71,6.01.27-4.62,4.72-11.96,9.2-11.63l16.59,1.23Z"/>
  <path class="st168" d="M205.94,79.96c-7.31-6.1-16.24-1.36-19.99-6.53,3.92-4.28,20.05-5.08,21.17-.48.45,1.85-.57,4.74-1.18,7.01Z"/>
  <path class="st184" d="M255.92,94.2l-11.52-4.75c-1.29-.53-3.96-1.6-3.69-2.86.41-1.94,1.3-3.7,3.6-6.66,5.14,2.8,9.47,8.33,11.61,14.27Z"/>
  <path class="st240" d="M177.95,149.23c2.44,2.82,2.61,3.62.5,2.41l22.32,17.4c9.25-1.4,18.1-1.65,26.55-.74l.42,2.96c-1.52,5.42-8.19,6.7-12.9,8.25-19.44,6.36-33.22-1.98-43.54-17.96-4.87-7.53-11.46-15.37-5.83-24.2,6.47-1.03,17.39,5.16,12.47,11.89Z"/>
  <path class="st111" d="M228.4,120.56c-6.95,7.73-6.48,8.42,4.09,6.22,5.34,1.45,7.2,8.76,5.66,15-.6.74-1.86,2.23-2.12,3.15-15.82,12.65-31.32.15-34-17.54l-.05-2.01c.56-.09,1.49-.21,2.5.32,5.68-7.87,17.44-13.11,23.92-5.15Z"/>
  <path class="st51" d="M185.72,153.66c13.92,8.21,29.58,10.83,46.96,7.87,1.12,1.34.58,2.84-.74,3.89,3.42,1.38,1.43,2.74-1.72,3.68l-2.46,2.16c-8.56-3.31-18.29-.85-27.8,2.51l-18.69-17.91c-1.18-1.13-4.24-1.98-4.89-3.76-.32-.87.45-2.23,1.58-2.87,3.19-4.96,9.37-.99,7.77,4.42Z"/>
  <path class="st41" d="M236.04,144.94c-1.09,3.82-5.05,5.68-7.73,7.81-.76,3.68-4.44,4.8-11.05,3.36-7.33.48-11.88-3.84-13.66-12.99-1.59-5.09-1.42-10.4-1.56-15.72,5.35-.38,3.49,6.26,5.02,9,4.22,7.5,18.64,13.12,28.98,8.54Z"/>
  <path class="st203" d="M228.32,152.75c.45,3.45,3.69,4.4,7.05,5.26,3.53.9,4.2,4.95,2.66,7.86-1.23,2.35-4.35,3.78-7.81,3.23l1.72-3.68c.03-4.57-5.35-5.63-16.15-3.18-8.82.94-15.41-.7-19.77-4.91,1.74-2.26,5.28-2.73,9.3-2.92.73-4.55-.68-7.93-1.73-11.28,5.05,9.8,14.22,12.57,24.72,9.63Z"/>
  <path class="st130" d="M194.19,155.03c-1.51,2.1-4.34,1.64-8.47-1.38l-7.77-4.42-6.27-8.53c-2.3,3.75-1.48,6.22-1.74,12.14-5.01-5.74.96-13.93-4.46-15.5.28-.48.19-1.51.27-2.1,12.35-.46,23.58,8.91,28.44,19.78Z"/>
  <path class="st115" d="M99.41,398.16c2.02,4.22,1.34,11.35-2.86,14.53-4.06,3.08-9.87,1.69-13.07-.96-3.52-2.92-4.42-9.04-3.57-15.65,1.77-1.73,6.84-3.02,9.32-3.35,3.58-.47,8.2,1.33,10.17,5.44Z"/>
  <path class="st103" d="M110.55,356.17c-8.15,7.66-9.12,11.15-2.9,10.48-.21-4.21,1.25-7,4.38-8.39,3.14,3.35,3,9.77.11,13.35s-8.14,3.38-12.17,2.72c-.48-.61-1.14-1.53-1.85-1.79-2.32-4.93-3.39-10.07.61-14.28,3.13-3.3,8.73-6.45,11.82-2.09Z"/>
  <path class="st81" d="M162.08,382.52c-2.11,5.67-4.49,5.56-5.87-.4-2.54-1.33-6.63-2.22-9.19-4.66s-1.09-6.96-1.05-9.35c3.94-3.24,9.13-4.01,15.55-2.31l9.13-.69c-.68-7.92,15.94-9.49,16.04-.86l-15.53,12.96c-2.57,6.11-5.59,7.88-9.07,5.31Z"/>
  <path class="st79" d="M162.08,382.52c5.21-3.31,7.28,4.28,7.78,9.14.79,7.64-2.52,14.31-10.19,10.66-2.25,6.83-11.14,3.14-9.3-3.78l-.6-6.02c.91-4.25,4.15-6.88,6.43-10.41,1.55.81,4.21.39,5.87.4Z"/>
  <path class="st127" d="M150.37,398.54c2.37,2.44,5.6,3.98,9.3,3.78l3.67,2.6c-3.44,9.73-4.32,18.7-2.63,26.88l-3.39,2.78c6.01.76,5.04,5.2-1.06,5.22-3.18,4.31-9.41,4.57-10.57-1.36-.35-1.58-2.03-4.09-1.7-5.89l8.21-21.8c-2.11-3.14-7.54-6.95-7.09-11.13.17-1.36,4.18-1.75,5.25-1.08Z"/>
  <path class="st27" d="M187.43,456.19c-.96,1.66-1.21,3.33-.08,3.85,12.35,5.73,10.14,8.52,22.81,7.07,11.85-5.88,22.53-6.1,32.04-.65,2.8.71,4.09,3.35,5.95,5.06,1.66,2.56,3.27,5.37.81,7.58-14,1.83-87.48,3.78-90.64.53s-1.6-11.63-.4-15.76l.09-2.05c-.63-2.53.43-3.7,3.05-3.46,1.82-2.3,5.02-3.06,9.6-2.27,6.86-3.56,12.45-3.52,16.76.12Z"/>
  <path class="st142" d="M248.16,471.52c3.29,3.03,6.09,6.82,4.1,13.17l-90.38-.55c-2.77-.02-4.77-.58-5.62-2.28-.53-6-2.13-13.03,1.67-17.99l-.18,12.06,15.8.61c12.34.47,23.91,1.53,36.45,1.03l35.92-1.44c2.56-.1,2.96-3.49,2.23-4.59Z"/>
  <path class="st75" d="M156.26,439.8c4.81,2.45,5.97,7.18,1.52,10.71,3.2,2.24,4.29,4.85,3.29,7.84.17.72.11,1.67-.24,2.27-.53.9-1.78,1.32-2.81,1.19-9.14-4.41-13.57-14.08-12.32-23.38,3.4.82,7.19-.51,10.57,1.36Z"/>
  <path class="st182" d="M461.67,422.39c3.1.99,5.69.83,7.79-.48,7.49,5.05,12.47,10.9,14.94,17.55-4,20.76-18.54,39.8-40.13,46.79-30.78,9.96-51.46-13.74-72.48-35.87,5.64-2.61,13.75.03,17.96-4.27,3.02-11.37,20.51-22.13,31.52-26.95,6.09-4.03,10.35-4.13,12.75-.32,7.55-5.36,22.5-3.49,27.65,3.55Z"/>
  <path class="st6" d="M460.71,406.1c8.27,4.53,17.15,22.43,2.68,15.9-8.79-5.55-19.82-9-29.37-3.16-13.01,2.51-34.54,17.34-44.27,27.27-.5-.13-1.35-.74-1.56-1.36-.26-.77-.24-2.08-.46-3.01,8.38-12.6,18.75-21.23,32.21-29.75,12.81-8.11,26.65-12.16,40.76-5.9Z"/>
  <path class="st215" d="M484.4,439.47c-8.52-3.33-13.93-14.66-22.73-17.08-.05-2,.54-2.09,1.72-.39,1.1.24,2.47.76,4.65-.13l-7.33-15.77c8.77,3.89,20.15,8.33,24.76,18.88.99,4.27-.31,10.53-1.07,14.49Z"/>
  <path class="st40" d="M227.63,346.79l-1.19-.05c-2.73,5.47-16.93-.17-16.57-5.57,1.22-2.08,2.67-3.82,4.33-5.24,1.61,4.13,1.74,2.46.42-4.99.41-3.42.8-6.23,4.46-4.73,3.23-3.1,10.76,8.63,11.93,12.34,1.25,3.94.74,7.06-3.39,8.23Z"/>
  <path class="st185" d="M209.88,341.17c5.47,2.03,10.36,5.33,16.57,5.57l.12,3.75c-6.49,4.68-14.92-1.84-24.59-7.94-1.09-.47-1.15-1.57-.64-1.94l2.39-1.72,6.16,2.28Z"/>
  <path class="st62" d="M252.18,364.37c-7.85-2.88-15.48-7.75-21.64-13.33,2.65-2.02,5.65-2.15,8.28.42,9.08,8.89,20.5,5.58,13.36,12.91Z"/>
  <path class="st185" d="M234.42,341c-1.12,1.73-1.37,4.51-3.7,5.64l-3.09.15c5.12-5.2-.34-14.46-8.54-20.57-4.09-1.22-1.29-7.75,2.93-5.72,3.66,9.22,9.31,13.82,12.41,20.5Z"/>
  <path class="st30" d="M196.68,379.79l3.86,20.02c-.86,1.47-2.21,2.74-3.99,2.6-10.96-.87-14.81,2.46-6.88,11.68,5.32-2.71,9.16-2.55,11.52.48-3.39,12-5.82,24.59-11.13,35.98l-2.63,5.64c-8.61,1.83-17.43,2.1-26.36,2.16-4.11-.54-2.6-5.39-3.29-7.84l4.76-1.68c12.49,7.26,17.28-12.51,4.63-12.85l-3.27-3.41c-7.31-4.06-4.64-14.53-1.56-22.52,7.42-9.14,10.26-16.53,4.28-27.93,3.7-4.13,18.57-18.8,22.1-18.36s8.01,19.7,5.92,24.69c-.02-3.65.65-6.53,2.04-8.65Z"/>
  <path class="st37" d="M190.12,331.11c15.86,8.49-5.28,20.49,6.56,48.68-.47,2.25.42,5.63-2.04,8.65-1.37-7.24-.08-15.22-6.25-21.34-7.24,3.6-13.5,8.35-17.92,13.86-.55.69,2.47,9.5,2.49,20.9-6.03,7.21-10.77,14.58-11.56,24.85l9.13,2.84c-3.77.95-5.18,1.13-6.62,3.02.67,5.75-3.47,6.8-6.59,2.02-1.52-4.61-.85-9.5-.05-15.18l2.4-17.08c2.37-2.2,7.81-4.62,7.99-8.96.16-3.92-3.21-7.41-5.58-10.84l22.47-19.6c-5.68-.85-10.06.65-13.91,2.19-12.82,3.04-17.98.26-15.47-8.35,10.17-4.66,13.2-11.91,8.66-22.32-6.71-2.08-2.08-11.74,3.48-13.33,1.21-.35,21.03,7.65,22.82,10Z"/>
  <path class="st176" d="M166.08,299.07c2.91-3.14,6.22-2.13,9.93,3.05,3.25-1.69,6.51-2.73,9.77-3.13,10.33-3.39,5.59,10.43-1.2,12.14,4.45.61,5.58,4.31,3.37,11.09l.09,2.51c-.64.22-1.41.23-1.94.18-3.05,4.49-19.6-1.51-14.22-8.07-3.38-4.29-18-3.17-23.75-13.75-5.14-2.16-3.84-4.68,1.77-4.21-2.01-2.97-.96-4.19,2.23-2.64,3.86-1.08,13.55-2.1,13.94,2.83Z"/>
  <path class="st3" d="M200.54,399.81c1.02,5.29,2.14,9.49.65,14.76l-9.53,3.21c-4.63,1.75-8.98-4.32-9.7-8.53-.78-4.62.85-8.88,6.43-11.29,3.14-1.36,7.85-.26,12.14,1.85Z"/>
  <path class="st29" d="M171.89,316.84c3.49,4.43,8.49,7.49,14.22,8.07l4.02,6.2-18.42-4.35c-3.08-.73-6.2-3.6-8.81-.39-1.35,1.66-.04,5.76.93,8.07l-.15,2.2c-4.13,3.83-6.77,1.11-5.43-3.91.39-3.86,1.88-7.28,4.03-10.32,2.32-1.09,4.31-2.84,5.21-5.26,1.28.35,3.42-.23,4.41-.31Z"/>
  <path class="st193" d="M241.68,463.62l.52,2.83c-5.9.88-13.22-2.97-19.84-.25-5.09,2.09-9.23.56-12.21.9,12.38-8.97,19.6-10.97,31.52-3.49Z"/>
  <path class="st15" d="M349.48,263.69c2.65,2.97,2.55,10.73-1.76,11.06-1.93,4.89-9.95,7.07-13.89,4.68-1.62-8.39-1.46-16.6.5-24.63,3.29-1.26,8.19-1.14,11.11.86,1.92,1.32,3.06,4.08,4.04,8.02Z"/>
  <path class="st119" d="M409.81,278.95l.28-24.94c4.42.04,13.07-.57,12.88,7.25-.12,5.03-2.07,11.81,1.09,17.03-1.1,1.32-4.37,1.09-4.87.39-1.71-2.38-.22-8.55-2.53-9.34-1.54-.52-4.23.27-3.26,3.54.5,1.67.38,3.19.17,4.64-.23,1.59-1.82,2.18-3.76,1.43Z"/>
  <path class="st190" d="M406.22,258.8c-2.24,1.25-2.02,3.42.66,6.49-2.35,4.5-2.69,7.61-1.05,9.34l.03,4.15-11.88-.26.36-18.81c.02-.85-.94-2.83-.22-3.77,1.03-1.35,3.48-1.53,5.86-1.26l4.57.52c1.66.19,1.17,2.6,1.67,3.59Z"/>
  <path class="st47" d="M360.21,270.72c-4.34,1.01-1.38,7.38-2.91,9.27-3.07,3.17-9.43-.77-9.59-5.24,1.29-3.28,2.8-6.89,1.76-11.06l2.78-1.25.29,16.02c.02,1.11,3.51.58,3.49-.73-.07-4.55-.63-7.73.94-8.86,1.09-.78,3.22.1,3.24,1.86Z"/>
  <path class="st69" d="M333.83,279.44c-2.96-7.88-3.33-22.69.5-24.63l-.5,24.63Z"/>
  <path class="st150" d="M406.3,211.67c2.63-1.86,5.65-.45,6.63,1.33,1.1,2,.23,4.12-.8,5.31-1.8,2.09-3.94,2.42-5.33,1.71-2.22-1.14-2.15-7.19-.5-8.35Z"/>
  <rect class="st104" x="382" y="213.06" width="4" height="11.95"/>
  <path class="st95" d="M359.72,222.32c-1.3-3.23-1.85-7.41-.45-10.94,1.08-2.72,7.65-.44,8,3.14.23,2.31-.45,6.14-7.55,7.79Z"/>
  <path class="st42" d="M239.58,125.39c-1.94-3.06-6.04-5.42-5.38-9.83.49-2.96,2.4-5.88,4.93-6.14,3-.31,5.82.83,7.45,3.53,1.86,3.08,1.12,6.46-.99,9.04-1.23,1.5-3.39,2.84-6.01,3.41Z"/>
  <path class="st202" d="M180.05,248.94c3.71,4.09,6.52,10.53,1.53,15.56-1.69,1.71-3.87,3.25-3.98,5.44-.2,4.07,16.16,18.28,26.45,24.89,0,.59-.25,1.25-.49,1.63l-15.62,25.74c-2.82-2.57-2.56-7.22-3.37-11.09,10.84-8.27,11.41-13.85,1.69-16.75-3-4.96-6.68-6.72-11.03-5.3l-1.6-2.28c1.76-4.42,1.48-7.46-.82-9.13l1.33-4.36c-3.79-5.11-2.44-10.67,4.03-16.66-3.96-3.39-8.11-1.6-12.44,5.36-3.33.73-6.49,1.64-9.48,2.73-5.71-.43-5.22-4.99.31-6.09,7.82-.45,8.01-12.5,23.47-9.7Z"/>
  <path class="st70" d="M178.38,232.59c-1.13,4.4-2.57,8.34-2.7,12.59l-5.29-.2c-19.99,7.25-13.88-15.08,3.66-11.77,1.39.03,2.92-.23,4.33-.62Z"/>
  <path class="st64" d="M225.86,316.64c-1.12,1.16-2.36,3.06-3.84,3.85-2.15,1.16-1.94,4.44-2.93,5.72-3.48,3.34-4.19,10.19-.64,16.27-4.57-.77-3.42-4.72-4.24-6.55-1.96-4.39-1.84-7.66.37-12.76l5.06-11.69c2.38,3.66,3.83,4.52,6.22,5.15Z"/>
  <path class="st2" d="M194.21,205.34c2.18,1.52,5.09,1.24,7.91,4.84-4.77,1.9-11.41,4.5-15.67,1.08.93-3.84,4.06-6.11,7.77-5.92Z"/>
  <path class="st152" d="M152.66,250.41c.7,2.28,4.2,4.31,3.92,8.23l-.31,6.09c.64,6.12-9.55,10.14-14.24,4.11-14.01-7.3,2.37-30.77,10.63-18.43Z"/>
  <path class="st80" d="M174.04,233.21c-6.85,4.65-13.83,3.35-11.77,11.6l8.11.17c-3.09,2.49-6.47,4.42-11.14,5.31-5.37-8.19-11.49-15.15-11.33-25.51,12.36,10.54,22.24,3.35,26.12,8.43Z"/>
  <path class="st12" d="M152.66,250.41c-5.1-1.19-11.47-1.17-14,4.01-2.15,4.42-.53,10.73,3.36,14.42.84,1.56.03,1.7-2.46.44-10.57,1.61-7.72-7.74-3.64-14.67,5.8-8.69,10.19-8.32,10.14-12.56-.05-3.82-5.53-15.34-11.93-13.1l4.4-6.06c8.11,6.43,11.63,17.99,14.12,27.52Z"/>
  <path class="st224" d="M135.93,254.6c-1.45,5.85-.46,10.77,3.64,14.67,4.71,1.14,8.79,2.5,12.25,4.06-.13,5.84,5.31,20.34,12.65,13.52,3.8-1.06,5.31.7,3.62,4.34,2.01.99,1.38,2.94-1.91,5.86,1.71.66,1.65,1.33-.1,2-4.13-.9-10.23,1.11-13.94-2.83-4.31-4.96-9.27-8.04-14.87-9.25l-.89-2.82c-10.34,7.84-22.24-17.47-15.95-25.29-6.46-1.44-6.67-7.28-.72-9.79l.16-2.62c3.5,3.92,5.02,6.47,5.83,13.39.22,1.87,5.89,1.24,7.12-.6l3.11-4.66Z"/>
  <path class="st43" d="M119.71,249.09c-.03,3.06-.36,6.88.72,9.79,1.38,4.82-1.17,6.36-5.71,5.85-5.02.38-9.23-1.53-11.29-4.52-2.96-4.31-1.36-9.65-1.59-13.18,6.07-3.98,13.28-3.07,17.87,2.07Z"/>
  <path class="st141" d="M158.24,332.74c1.98.59,3.81,2.64,5.43,3.91,2.97,2.89,2.8,8.62.95,12.4-1.65,3.36-10.33,12.2-12.07,6.33-6.07-3.28-10.26-9.5-8.04-15.32s8.19-8.96,13.73-7.31Z"/>
  <path class="st0" d="M170.64,365.11c-7.72,3.1-16.98,6.25-24.68,2.99.06-4.11,2.89-10.24,6.59-12.74,2.81-1.9,8.39-1.95,10.39-5.37,2.63-4.49.45-9.24.73-13.35l.15-2.2c5.57,5.2,5.03,13.17-1.34,18.63-1.66,1.43-3.43,3.22-4.21,4.71s.16,5.39,2.18,5.65l10.19,1.67Z"/>
  <path class="st191" d="M129.15,346.37c-7.11,5.71-14.47,2.19-17.71-4.19-2.97-5.84-1.23-13.24,6.94-15.66,5.17-1.54,9.41,1.77,11.77,5.05,2.77,3.84,3.56,11.14-1,14.81Z"/>
  <path class="st22" d="M94.77,316.14c-.51,6.31-8.11,9.48-12.99,8.14-3.59-.99-8.65-5.87-9.16-10.44s3.62-9.97,8.32-12.1c3.85-1.74,7.27-.13,9.28,1.74,3.01,2.82,5.07,6.22,4.55,12.66Z"/>
  <path class="st219" d="M110.55,356.17l1.48,2.09c.16,3.4.41,7.43-1.02,10.31-1.16,2.33-5.73,3.25-8.51,1.41-4.02-2.65-3.35-7.83-.72-10.64,2.21-2.36,5.47-3.3,8.77-3.17Z"/>
  <path class="st133" d="M68.4,359.39c.29,5.92-1.75,8.9-5.38,9.29-5.04.55-7.54-2.63-7.43-8.23.1-4.72,1.94-6.79,5.82-7.73,3.6-.87,6.69.82,6.98,6.67Z"/>
  <path class="st101" d="M136.38,284.17c4.41,3.45,2.79,5.68-2.51,4.17,3.59,3.26,3.78,6.22.05,10.04-8.98,2.67-24.72-14.09-25.7-26.78,2.55-2.09,7.07-3.17,6.51-6.87-.38-2.5,3.34-4.92,5.71-5.85,4.15,11.17,4.47,22.9,15.95,25.29Z"/>
  <path class="st179" d="M149.91,298.87c-.95.95-1.35,2.94-1.77,4.21-4.64,2.31-9.84-1.79-14.01-1.98l-.21-2.72c-1.86-3.11-1.93-6.86-.05-10.04,7.12-3.63,16.88,3.12,16.05,10.53Z"/>
  <path class="st164" d="M189.91,112.01c-5.88-2.78-4.16-13.11,1.24-15.12,5.93-2.21,9.52,3.41,9.69,7.68.19,4.94-4.4,10.53-10.93,7.44Z"/>
  <path class="st156" d="M194.19,155.03c.32.72.16,2.19,1.83,2.29l32.3,1.92c1.6.1,5.24-2.06,6.11.63.27.84.27,2.89-.04,3.98-.25.87-1.18,1.33-2.44,1.56.39-1.01-.4-1.95-1.16-1.99-6.23-.29-25.99,10.67-45.06-9.77,3-.02,5.69.55,8.47,1.38Z"/>
  <path class="st67" d="M228.4,120.56c1.45,1.78,3.19,4.55,4.09,6.22-1.44,2.82-3.84,5.98-6.06,5.92-3.5-.09-7.04-4.2-7.15-6.92-.14-3.68,5.32-5.65,9.11-5.23Z"/>
  <path class="st13" d="M157.78,450.51c-1.04-3.67-2.4-6.85-1.52-10.71.32-1.39,1.55-3.73,1.06-5.22l6.59-2.02c5.84-1.77,12.96.54,14,6.66.9,5.36.29,11.91-5.35,14.23-4.56,1.87-10.71.23-14.76-2.95Z"/>
  <path class="st123" d="M423.02,471.16c1.18-4.35,4.19-4.4,6.59-5.37l.58-23.99c-5.37.35-6.41,4.33-10.14,6.8,1.33-6.84,6.55-11.26,9.78-16.14l5.85.34c1.96,10.65,2.09,19.78,2.25,31.32,3.02,1.02,6.79.22,8.79,4.99l-23.69,2.04Z"/>
  <path class="st82" d="M463.39,422.01c-.47-.1-1.05-.03-1.72.39-8.65-2.37-18.86-5.24-27.65-3.55,5.21-10.71,27.98-5.11,29.37,3.16Z"/>
  <path class="st58" d="M186.18,297.09c1.59.9,1.43,1.52-.4,1.89-.96,4.07-4.66,6.17-9.21,6.97-3.89.68-6.69-6.06-10.5-6.88l.1-2c5.61-9.01,16.83-13.44,20,.03Z"/>
  <path class="st48" d="M184.57,311.12c-.54-2.58,3.52-6.2,3.46-9.35-.02-1-1.03-2.29-2.26-2.79l.4-1.89c-.9-1.08-1.21-1.85.08-2.73,3.19-2.53,7.58-1.53,10.03,1.22,4.53,5.1-6.42,16.14-7.27,16.25-1.23.16-3.12-.4-4.45-.72Z"/>
  <path class="st50" d="M152.14,296.24c-.28,1.49-1.53,1.94-2.23,2.64l-10.25-8.81c-1.17.18-3.58.8-4.47.51-.79-.26-1.57-1.11-1.33-2.23l2.51-4.17c3.29.68,7.16-.39,10.7,2.38,2.6,2.04,5.25,5.72,5.06,9.69Z"/>
  <rect class="st44" x="340" y="258.88" width="4" height="14.94"/>
  <path class="st236" d="M406.22,258.8c2.36,3.84,3.6,11.94-.39,15.84-1.41-.16-3.35-.58-4.71-.06-2.75,1.05-3.82-4-1.82-5.28,1.57-1,7.15-.33,6.05-4.72-1.72.07-7.6.05-7.17-4.22.21-2.12,6.02-2.19,8.04-1.56Z"/>
  <path class="st38" d="M174.16,273.3c1.97,2.18,6.01,5.35,6.25,9.69-1.16,1.5-5.36,2.68-6.76,3.8,3.55,2.47-2.6,6.43-5.55,4.42-.66-4.69-3.77,3.96-10.59,1.37-1.32-.5-10.2-11.11-9.3-14.09.49-1.63,2.04-3.73,3.62-5.15-.78-.88-1.37-1.58-1.3-1.65,3.61-3.67,13.54-12.32,17.42-11.21,3.45.98,6.58,9.33,6.21,12.82Z"/>
  <path class="st48" d="M174.16,273.3l-10.01-11.07-12.33,11.11c-5.35.56-8.86-.84-12.25-4.06l2.46-.44c2.62,1.07,5.43,1.57,8.01,1.21,3.34-.48,4.44-4.06,6.23-5.32,12.67-8.87,12.84-17.31,21.65-12.88,11.76,5.91-5.61,12.23-3.76,21.46Z"/>
  <path class="st84" d="M186.27,294.37l-.08,2.73c-2.25-1.21-5.54-8.05-8.65-6.31l-11.35,6.28c.11-1.72.51-4.75,1.91-5.86l5.55-4.42c2.67-.97,7.04-.98,9.98,1.04,1.66,1.14,2.73,3.83,2.64,6.54Z"/>
  <ellipse class="st97" cx="120.81" cy="338.24" rx="7.59" ry="7.56"/>
  <ellipse class="st222" cx="84.68" cy="312.88" rx="7.73" ry="7.7"/>
  <ellipse class="st146" cx="167.66" cy="443.21" rx="7.16" ry="7.13"/>
</svg>