<?xml version="1.0" encoding="UTF-8"?>
<svg id="_图层_1" data-name="图层 1" xmlns="http://www.w3.org/2000/svg" xmlns:xlink="http://www.w3.org/1999/xlink" viewBox="0 0 377.36 512.02">
  <defs>
    <style>
      .cls-1 {
        fill: #f7cf8c;
      }

      .cls-2 {
        fill: #9f6c97;
      }

      .cls-3 {
        fill: #bd8a72;
      }

      .cls-4 {
        fill: #604c3a;
      }

      .cls-5 {
        fill: #f0d689;
      }

      .cls-6 {
        fill: #d2a787;
      }

      .cls-7 {
        fill: #c19b91;
      }

      .cls-8 {
        fill: #eddea2;
      }

      .cls-9 {
        fill: #be937f;
      }

      .cls-10 {
        fill: #cdc59f;
      }

      .cls-11 {
        fill: #c197a6;
      }

      .cls-12 {
        fill: #f2c57f;
      }

      .cls-13 {
        fill: #513e29;
      }

      .cls-14 {
        fill: #efce66;
      }

      .cls-15 {
        fill: #43331d;
      }

      .cls-16 {
        fill: #d7d5d3;
      }

      .cls-17 {
        fill: #a57c8a;
      }

      .cls-18 {
        fill: url(#_未命名的渐变_5);
      }

      .cls-19 {
        fill: #433f3a;
      }

      .cls-20 {
        fill: #718aa1;
      }

      .cls-21 {
        fill: #c49d70;
      }

      .cls-22 {
        fill: #5e5c5a;
      }

      .cls-23 {
        fill: #8d697c;
      }

      .cls-24 {
        fill: #eecc84;
      }

      .cls-25 {
        fill: #936961;
      }

      .cls-26 {
        fill: #c4d3dd;
      }

      .cls-27 {
        fill: #414041;
      }

      .cls-28 {
        fill: #a37d6c;
      }

      .cls-29 {
        fill: #e4bf89;
      }

      .cls-30 {
        fill: #be9270;
      }

      .cls-31 {
        fill: #2c2012;
      }

      .cls-32 {
        fill: #a37a9d;
      }

      .cls-33 {
        fill: #e7c16d;
      }

      .cls-34 {
        fill: #ac81a2;
      }

      .cls-35 {
        fill: #5b464f;
      }

      .cls-36 {
        fill: #d2ad85;
      }

      .cls-37 {
        fill: #e4bb77;
      }

      .cls-38 {
        fill: #a8a6a2;
      }

      .cls-39 {
        fill: #a6a194;
      }

      .cls-40 {
        fill: #eace96;
      }

      .cls-41 {
        fill: #f0d77d;
      }

      .cls-42 {
        fill: #869bb3;
      }

      .cls-43 {
        fill: #bd89ad;
      }

      .cls-44 {
        fill: #3e2c1a;
      }

      .cls-45 {
        fill: #9a6c57;
      }

      .cls-46 {
        fill: #3c281e;
      }

      .cls-47 {
        fill: #acc3db;
      }

      .cls-48 {
        fill: #8f608d;
      }

      .cls-49 {
        fill: #f5f6f3;
      }

      .cls-50 {
        fill: #b78e6d;
      }

      .cls-51 {
        fill: #d7d7d3;
      }

      .cls-52 {
        fill: #412c20;
      }

      .cls-53 {
        fill: #6b4d44;
      }

      .cls-54 {
        fill: #422d31;
      }

      .cls-55 {
        fill: #d0b28f;
      }

      .cls-56 {
        fill: #b28c4c;
      }

      .cls-57 {
        fill: #ac8a98;
      }

      .cls-58 {
        fill: #b4a9af;
      }

      .cls-59 {
        fill: #44311e;
      }

      .cls-60 {
        fill: #724c78;
      }

      .cls-61 {
        fill: #d7b069;
      }

      .cls-62 {
        fill: #807267;
      }

      .cls-63 {
        fill: #8f5b96;
      }

      .cls-64 {
        fill: #3a2529;
      }

      .cls-65 {
        fill: #342f2a;
      }

      .cls-66 {
        fill: #4f3a34;
      }

      .cls-67 {
        fill: #404449;
      }

      .cls-68 {
        fill: #423019;
      }

      .cls-69 {
        fill: #574535;
      }

      .cls-70 {
        fill: url(#_未命名的渐变_6);
      }

      .cls-71 {
        fill: #b18581;
      }

      .cls-72 {
        fill: #706e68;
      }

      .cls-73 {
        fill: #9e65a6;
      }

      .cls-74 {
        fill: #8a5e46;
      }

      .cls-75 {
        fill: #ae8497;
      }

      .cls-76 {
        fill: #dabd84;
      }

      .cls-77 {
        fill: #d4b162;
      }

      .cls-78 {
        fill: #be9159;
      }

      .cls-79 {
        fill: #453030;
      }

      .cls-80 {
        fill: #a9866d;
      }

      .cls-81 {
        fill: #956c77;
      }

      .cls-82 {
        fill: #784f66;
      }

      .cls-83 {
        fill: #aa7b83;
      }

      .cls-84 {
        fill: #62472f;
      }

      .cls-85 {
        fill: #3d4348;
      }

      .cls-86 {
        fill: #4d3b3f;
      }

      .cls-87 {
        fill: #ebca80;
      }

      .cls-88 {
        fill: #7d96a5;
      }

      .cls-89 {
        fill: #caa266;
      }

      .cls-90 {
        fill: #a3808c;
      }

      .cls-91 {
        fill: #c49e8f;
      }

      .cls-92 {
        fill: #8d5f7a;
      }

      .cls-93 {
        fill: #996697;
      }

      .cls-94 {
        fill: #e1ba81;
      }

      .cls-95 {
        fill: #6b4930;
      }

      .cls-96 {
        fill: #372817;
      }

      .cls-97 {
        fill: #352017;
      }

      .cls-98 {
        fill: #c09e89;
      }

      .cls-99 {
        fill: #cda550;
      }

      .cls-100 {
        fill: #dad9d7;
      }

      .cls-101 {
        fill: #a98454;
      }

      .cls-102 {
        fill: #c3ac9c;
      }

      .cls-103 {
        fill: #4a4546;
      }

      .cls-104 {
        fill: #a36c85;
      }

      .cls-105 {
        fill: #d5c9b8;
      }

      .cls-106 {
        fill: #c6935c;
      }

      .cls-107 {
        fill: #997394;
      }

      .cls-108 {
        fill: #d9af8e;
      }

      .cls-109 {
        fill: #4b3430;
      }

      .cls-110 {
        fill: #bab4b2;
      }

      .cls-111 {
        fill: #f1ddbc;
      }

      .cls-112 {
        fill: #402e36;
      }

      .cls-113 {
        fill: #535159;
      }

      .cls-114 {
        fill: #644531;
      }

      .cls-115 {
        fill: #e5b884;
      }

      .cls-116 {
        fill: #6e553d;
      }

      .cls-117 {
        fill: #a5858d;
      }

      .cls-118 {
        fill: #a98369;
      }

      .cls-119 {
        fill: #291723;
      }

      .cls-120 {
        fill: #43301a;
      }

      .cls-121 {
        fill: #dad9d6;
      }

      .cls-122 {
        fill: #9c7443;
      }

      .cls-123 {
        fill: #e0b57f;
      }

      .cls-124 {
        fill: #36222c;
      }

      .cls-125 {
        fill: #936c92;
      }

      .cls-126 {
        fill: #48453f;
      }

      .cls-127 {
        fill: #98725c;
      }

      .cls-128 {
        fill: #b6b6ba;
      }

      .cls-129 {
        fill: #5b5955;
      }

      .cls-130 {
        fill: #cfa656;
      }

      .cls-131 {
        fill: #b08b62;
      }

      .cls-132 {
        fill: #1f0d0f;
      }

      .cls-133 {
        fill: #433d39;
      }

      .cls-134 {
        fill: #f2d87b;
      }

      .cls-135 {
        fill: #5b4422;
      }

      .cls-136 {
        fill: #412727;
      }

      .cls-137 {
        fill: #b6b0b3;
      }

      .cls-138 {
        fill: #65543f;
      }

      .cls-139 {
        fill: #b0817b;
      }

      .cls-140 {
        fill: #301d2a;
      }

      .cls-141 {
        fill: #301d0b;
      }

      .cls-142 {
        fill: #d6d6d3;
      }

      .cls-143 {
        fill: #433536;
      }

      .cls-144 {
        fill: #fada9a;
      }

      .cls-145 {
        fill: #ae8682;
      }
    </style>
    <linearGradient id="_未命名的渐变_5" data-name="未命名的渐变 5" x1="35.29" y1="117.33" x2="56.52" y2="123.08" gradientTransform="translate(65.54) scale(2)" gradientUnits="userSpaceOnUse">
      <stop offset="0" stop-color="#bda9c8"/>
      <stop offset="1" stop-color="#aa86a0"/>
    </linearGradient>
    <linearGradient id="_未命名的渐变_6" data-name="未命名的渐变 6" x1="17.57" y1="118.52" x2="34.98" y2="173.85" gradientTransform="translate(65.54) scale(2)" gradientUnits="userSpaceOnUse">
      <stop offset="0" stop-color="#bfa8a0"/>
      <stop offset=".19" stop-color="#b48c9b"/>
      <stop offset=".33" stop-color="#bb8f76"/>
      <stop offset="1" stop-color="#cca84e"/>
    </linearGradient>
  </defs>
  <path class="cls-100" d="M180.73,481.05c1.71,2.23,2.58,5.61,2.61,10.14l2.85,5.53c17.29.07,34.17-.66,50.64-2.18,3.39-.58,6.61-1.59,9.66-3.03,12.18-1.48,24.39,2.08,36,5.51l-88.04,14.97-63.99.02c-4.95-3.22-15.64-1.34-32.32-4.03-3.63-.58-9.4,1.72-11.69-1.99,5.2-2.1,13.99-1.4,20-.02-.36-1.92.03-2.88,1.59-2.93,9.39,1.11,15.49,0,18.29-3.32-.79-3.7-.73-6.86.18-9.49-.63-8.13,6.4-12.01,21.09-11.63l26.54-.55,4.88-2.91c3.3-1.63,2.71,3.01,1.7,5.91Z"/>
  <path class="cls-96" d="M154.46,0c3.03,5.9,9.28,8.75,14.78,13.26l15.3,12.55c1.56,2.82.69,3.83-2.19,2.15-.43,1.74-.98,1.68-1.66-.07l-5.87-.29-18.85-14.25-1.62-5.73-4.53,2.66c-19.11,5.53-38.22,10.72-57.34,15.56l-1.95-1.82c-3.31,1.27-5.04,1.83-3.36-1.68,2.98-4.22,7.96-5.05,13.28-6.44l19.11-5.01c9.01-2.36,16.66-6.98,26.34-7.52,2.13-.12,3.97-2.25,4.55-3.38h4Z"/>
  <path class="cls-65" d="M266.92,308.49c3.1,2.6-2.3,19.36-4.87,22.83-.37.5-1.23.65-2.22.69,1.39,1.36,2.79.7,4.45-.15-2.78-1.82-1.39-5.08,1.95-3.98,2.74-.67,4,2.69,3.78,10.08-.18,8.01-6.33,15.93-7.7,23.26-2,10.7-5.35,19.71-8.38,30.22-1.65,5.73-3.06,11.92-8.54,12.7-4.05.58-14.88-2.13-12.99-8.03l30.08-94.07c5.19-8.06,5.9-.54,4.44,6.43Z"/>
  <path class="cls-47" d="M296.07,106.52l3.05-.36c4.82,4.42,9.47,9.08,13.95,13.97l3.57-2.47c5.29.58,11.94,8.84,9.31,14.65,1.82-.33,1.83.21.28,1.49-.49,3.64-3.59,5.06-9.32,4.26l-1.69,2.15c-6.34-1.69-12.59-4.15-18.73-7.37.06,4.22-7.07,4.57-8.49,1.02-5.49,6.34-16.86-5.02-20.86-11.32l.27-4.58c-3.64-3.15-7.78-11.25-4.96-15.55.87-3.06,5.85-5.19,7.71-2.42,3.54-.17,4.63,1.19,5.71,4.04,3.2-3.94,6.79-6.74,10.76-8.4,5.81-1.85,12.54,5.51,9.43,10.89Z"/>
  <path class="cls-46" d="M278.05,266.58c1.34-.43,1.72.82,1.16,3.73-3.98,7.93-6.17,8.77-6.59,2.55l-2.54.86-43.97,23.64c-3.95,2.12-8.04,1.61-12.06,5.21-9.93-9.06-26.72-22.95-29.44-22.7-1.36,22.99-1.66,46.3-.91,69.95,1.11,1.97,2.65,5.72,3.22,8.17,1.07,5.69-.75,5.99-4.41,1.78-.15,1.87-.69,1.84-1.57.07-4.8-3.96-5.96-10.24-3.47-18.85-1.46-22.62-1.02-44.83,1.3-66.63-3.57-3.69-3.41-4.29,1.72-4.39,2.23-7.15,6.55-4.7,8.13,1.67,6.62,2.89,9.6,6.54,8.92,10.94,4.87,1.95,10.82,5,12.73,9.78l9.61-.26,48.08-28.24c4.05.32,7.42,1.23,10.09,2.73Z"/>
  <path class="cls-126" d="M336.31,444.05c2.57,2.23,1.48,10.44.09,13.83,17.34,17.25,34.78,6.66,31.7-16.7-1.88-3.43-.36-4.11,2.37-1.15,5.88,11.03,5.4,23.79-5.75,32.5-8.11,6.34-.53,16.09-8.06,25.21,6.63,5.45-9.33,7.78-7.84.99-2.95-5.51-2.34-11.29-3.05-16.73,6.36-9.12,7.52,2.8,5.42,8.94,1.72-6.37.92-10.72-4.94-13.45-14.49-9.64-20.34-22.58-12.4-37.77,4.94-4.35,5.54-.9,2.47,4.32Z"/>
  <path class="cls-27" d="M318.36,145.24c1.24.47,2.2.87,2.17,1-7,25.95-15.4,53.46-23.76,79.03-.15.45-1.11.62-2.3.73-.6,1.67-1.29,1.71-2.09.13-4.43,0-4.68-2.27-3.76-6.09,7.92-22.91,14.71-46.01,21.87-70.78-6.88-4.44-14.32-7.35-21.98-9.45-3.16-1.7-3.88-2.49-.17-3.3,8.31-6.02,24.08,1.26,30.02,8.73Z"/>
  <path class="cls-59" d="M148.5,196c-.1,3.86-1.6,3.8-2.78,0-5.64-3.19-3.92-5.87,5.16-8.04-1-1.93-.86-2.72.71-3.12,8.41-2.15,16.92-4.32,25.37-6.34v-2.79c3.28-1.35,7.91-1.79,13.89-1.31-1.53-1.47-1.71-4.53-.55-9.19-1.79-13.26-3.04-26.59-3.75-39.99l2.31-1.13c-.2-3.29.37-5.97,1.7-8.03,6.52,1.44,2.89,9.53,3.83,13.58,2.49,10.84,1.27,19.23,1.52,29.24.14,5.47,6.36,17.12-1.74,20.7-14.72,6.51-31.72,9.1-45.66,16.41Z"/>
  <path class="cls-103" d="M330.56,143.93l-26.07,83.93c-1.88,1.39-3.86.85-5.94-1.6l-1.81-.91c8.43-27.52,16.63-55.12,24.59-82.78l2.94-.51c2.57-5.18,6.45-3.82,6.29,1.87Z"/>
  <path class="cls-54" d="M212.31,459.95l-2.38,2.5c1.85,4.18,1.12,6.01-2.17,5.5-1.17.08-2.09.1-2.15-.12-4.26-15.46-8.36-33.34-11.42-49.11-.25-1.28.38-2.41,1.27-3.28-1.54.19-3.47.3-4.3-.84-1.6-2.19-12.32-50.58-10.95-52.93.47-.81,1.33-1.39,2.3-1.9l4.41-1.78,11.17,48.35,7.45,24.49c2.93,9.63,3.62,20.42,6.77,29.11Z"/>
  <path class="cls-67" d="M332.38,133.45c-3.16,1.11-4.48-1.53-3.94-7.92l-2.24.61c-10.13-12.44-20.79-24.44-31.98-36-9.69,2.37-19.38,5.51-29.06,9.43l-2.7,2.84c2.18,5.02,5.29,9.92,4.96,15.55-3.08.39-5.05-1.2-6.48-4.45l-6.89-15.61,34.3-15.54c9.14-4.14,12.64,2.1,17.46,8.21l30.27,38.41-3.7,4.46Z"/>
  <path class="cls-133" d="M290.38,274.13l-8.68,23.34-7.41,24.34c-1.9,6.25-4.15,10.28-4.29,16.16-2.54-2.53-1.91-6.58-3.78-10.08-1.27-.58-2.25-1.07-2.19-1.3,2.61-9.82,16.76-59.12,21.15-63.56.61-.62,2.91,1.53,3.7,3.26,5.04,1.56,5.87,4.56,1.5,7.83Z"/>
  <path class="cls-4" d="M246.5,491.52c.9,1.05,1.02,5.33-.32,5.86l-59.99-.65c.26-1.05.53-1.88.85-1.9,41.8-2.33,47,2.42.49,0-.45-.02-.85-.84-1.24-1.89l.89-2.69c14.78-1.89,29.92-1.33,45.43,1.71l.88-2.21c-9.11-3.01-12.2-6.99-9.25-11.94-1.95-.92-1.96-1.58.13-2.27l22.12,15.98Z"/>
  <path class="cls-120" d="M230.62,253.99c5.89-2.55,7.95-1.94,6.18,1.81-.55,7-14.13,8.76-16.39,2.07-10.23-8.59-20.01-22-24.13-34.01-6.17,1.52-9.33-2.82-5.28-7.95-2.77-2.53-1.62-3.31,1.83-1.58,14.47,11.8,23.48,40.19,37.78,39.66Z"/>
  <path class="cls-86" d="M192.84,214.33l-1.83,1.58c-1.01,4.13-3.14,3.68-4.38-.51-.56,1.46-1.58,3.6-2.67,3.45-7.51-1.06-26.37-5.87-33.54-8.54l-1.73-4.57c-4.72.96-6.15.3-4.29-1.99-4.12-3.73-3.75-5.57,1.33-7.75h2.78c-.11,2.28.9,5.33,3.93,5.95l25.24,5.18c5.2,1.07,11.35,4.07,15.17,7.19Z"/>
  <path class="cls-13" d="M314.44,247.95c.4,9.18-7.1,13.62-7.55,22.17-4.01,5.04-11.54,4.19-16.5,4.01-.83-2.29-2.03-5.28-1.5-7.83.38-.96.91-.85,1.56.12,1.93-1.98,5.05-3.42,9.35-4.32l4.06-6.7c.59-5.54,2.62-8.65,6.1-9.34,2.85-4.86,5.25-3.52,4.47,1.91Z"/>
  <path class="cls-19" d="M279.21,270.31c1.05.52,1.86.98,1.8,1.22-2.79,10.99-7.32,25.87-11.35,36.45-.17.45-1.32.54-2.74.51-.3-1.5-.32-3.08-.95-5.02-.34-1.05-1.87-1.95-3.49-1.42,2.65-8.28,4.81-16.76,8.59-25.61,1.97-.58,1.34-2.9-.98-2.73.13-.58.14-1.92.46-2.76.51-1.31,1.93-1.19,2.43-.63.87.95,1.62,1.61,2.52,4.23,2.6-1.75-.41-4.01,3.72-4.25Z"/>
  <path class="cls-141" d="M190.55,116.06c.56,3.25-.9,5.4-1.7,8.03l-2.43-2s-1.71-10.46-5.13-31.39l3.84-4.63c-6.95-.93-4.38-6.19-.23-9.96-1.83-.3-1.92-1-.36-2.09.89-3.42,1.61-5.1,4.27-2.03,1.34,3.95,2.23,7.54.03,12.5-1.8,4.07,2.57,8.83,2.64,11.83.17,7.41-2.02,13.4-.92,19.74Z"/>
  <path class="cls-135" d="M272.17,237.68c5.5,1.12,5.05,3.85-.36,4.88,1.71,4.67,1.39,5.03-3.54,4.17-.91,4.74-6.77,6.92-9.69,2.45-3.74,4.88-16.67,12.97-21.78,6.61-1.53-1.87-4.08-1.89-6.18-1.81,3.75-3.14,8.94-4.56,13.74-6.06,4.35-2.23,9.37-3.12,14.21-3.38,6.46-1.74,9.56-5.71,11.66-12.8,2.95.01,3.59,1.99,1.95,5.94Z"/>
  <path class="cls-121" d="M348.82,498.74c1.34.29,3.14,2.73,4.3,2.56,1.59-.23,2.6-2.55,3.54-3.55l20.69.52c-13.87,7.8-29.09,7.44-44.35,2.22,5.11-4.38,11.11-2.77,15.81-1.74Z"/>
  <path class="cls-68" d="M292.37,226.14c-.5,4.12-4.3,6.16-11.38,6.13-2.21,4.87-5.15,6.67-8.81,5.41-1.42-1.53-1.79-3.65-1.95-5.94,3.74-12.62,17.11-8.03,18.38-11.7,2.88.12,4.11,3.13,3.76,6.09Z"/>
  <path class="cls-62" d="M183.71,349.83l-1.55-67.82c-.04-1.93,1.76-2.06,2.45-2.13l-.91,69.95Z"/>
  <path class="cls-35" d="M186.58,28.01c1.09,5.7,2.23,12.94-.12,17.99-1.57,8.13-1.54,16.56.09,25.27l-2.01,2.75c-3.75-.01-3.65-5.25-2.39-8.23-1.73-21.31-2.6-31.96-2.6-31.96l2.8-5.87,2.19-2.15,2.04,2.2Z"/>
  <path class="cls-85" d="M288,133.87c1,1.03,1.11,1.91.33,2.65l.17,3.3c-11.43-3.14-21.9-8.29-21.36-17.28,6.25-1.08,6.56,10.65,20.86,11.32Z"/>
  <path class="cls-22" d="M370.48,440.03l-2.37,1.15c-.12,1.91-.68,1.88-1.62.08-3.37.61-7.09-.28-11.17-2.67-4.92.43-8.48-.56-10.69-2.96-4.21.31-3.33-1.25-.42-3.88,5.3-3.47,21.07-1.49,26.28,8.27Z"/>
  <path class="cls-31" d="M212.31,459.95c-.99,1.17-1.89,3.06-1.05,4.14.7.91,11.04,9.95,13.11,11.45l-.13,2.27c-4.4,5.15-15.42-1.52-13.65-7.8-2.53-.06-3.47-.74-2.84-2.06l1.26-6.57c.09-1.09,1.67-2.19,3.3-1.43Z"/>
  <path class="cls-44" d="M304.49,227.86c3.31,1.08,7.21,2.08,9.98,4.37,4.79,12.5-3.07,16.72-3.91,1.43-6.02,7.67-24.69-3.3-12.01-7.4,1.26-1.18,1.7-2.75,3.27-4.37.41,2.67,1.22,5.5,2.66,5.97Z"/>
  <path class="cls-113" d="M332.38,133.45c2.7,3.47-.7,6.94-1.82,10.49l-6.29-1.87c-4.64-2.9-3.15-6.95,1.96-8.25.05-.47-.13-1.04-.28-1.49-.25-3.95.57-6.22,2.48-6.8,1.8,2.24,2.25,5.75,3.94,7.92Z"/>
  <path class="cls-116" d="M314.44,247.95l-4.47-1.91c-6-.38-5.15-11.59.6-12.38,2.27,1.44,1.83,5.68,2.69,8.38,2.23-3.71,1.23-7.1,1.22-9.81,4.79,3.95,4.28,11.51-.03,15.72Z"/>
  <path class="cls-39" d="M345.77,482.01c-.18-1.39.26-3.05.48-4.51,1.59-1.41,7.57-3.58,8.1.34.73,5.45-1.26,10.95-2.72,14.62-2.2-3.44-1.54-5.55-1.35-7.35.29-2.8-1.61-4.54-4.5-3.1Z"/>
  <path class="cls-132" d="M186.42,54.02c-.03,5.91.46,12.3,2.39,17.97-1.57.84-2.88,1.95-4.27,2.03l-.18-24.17c-.02-2.13.76-3.63,2.1-3.85,1.14,1.68,1.13,4.36-.04,8.02Z"/>
  <path class="cls-129" d="M344.62,435.63c2.27,3.06-5.28,7.51-8.3,8.42.17-1.61-.3-3.36-2.47-4.32,2.38-4.55,6.17-5.24,10.35-7.98l.42,3.88Z"/>
  <path class="cls-137" d="M186.42,54.02l.04-8.02.12-17.99c2.98,3.22,3.17,18.82-.16,26.01Z"/>
  <path class="cls-105" d="M258.57,244.55c-4.26,1.15-8.8,4.95-14.21,3.38,2.48-5.16,9.01-4.53,14.21-3.38Z"/>
  <path class="cls-52" d="M66.86,351.39c2.92,2.42,2.73,6.35-.55,11.79,6.54,1.87,10.07,4.74,10.58,8.6,1.6.13,3.99.36,4.34,1.53,2.43,8.27,5.31,25.44,6.14,34.17,2.28,5.95,1.82,10.92-1.38,14.91,4.22.92,6.33,5.77.31,7.25.69,4.76,2.52,7.6,5.48,8.51.12,2.83-.55,6.25-2,10.26,1.55.04,3.79.18,4.16,1.31,1.59,4.84,3.93,22.23-1.44,24.2,3.01,2.23,3.92,3.27-.21,4.05,5.6,3.14.58,16.47-5.82,13.93-.5,1.77-1.17,1.77-2.01.08-1.78.14-1.86-1.2-.24-4,5.33-7.75,2.61-16.01,1.47-25.18-2.31-18.55-4.24-36.35-8.03-54.48-4.41-21.06-.63-33.15-12.46-35.2-5.43-.94-10.14-7.06-8.03-12.26l3.55-8.74c-3.21-6.67,3.52-4.08,6.14-.74Z"/>
  <path class="cls-124" d="M42.21,40.16l3.52,2.74c-1.82,2.1-3.71,4.63-5.66,7.58,3.05,2.24,2.92,5.53-.39,9.88.22,9.03-2.21,14.82-7.29,17.38-.25,9.11-1.76,17.99-4.52,26.66,3.1-.09,5.18,2.18,6.23,6.82l9.71,12.24-1.47,4.56c5.2-2.62,6.44-1.04,3.83,4.18,6.62,0,11.11,8.03,8.07,13.81,1.55,5.14-.09,5.86-3.86,2.08l-30.11-42.13c4.24-23.11,9.95-44.55,16.31-65.96,2.33-2.22,5.22-3.59,5.63.17Z"/>
  <path class="cls-112" d="M8.23,308.15c3.97-1.71,5.43.97,2.19,3.85,6.09.53,19.55,7.8,19.64,14.26l5.52-1.4c13.85,6.89,24.52,14.22,32,21.98,5,2.29,4.72,3.79-.73,4.56-1.25-1.08-5.51-.8-6.14.74-1.83-3.13-5.93-3.44-8.9-5.4L0,312.4c2.79-4.19,4.6-7.22,6.01-10.64,2.44.18,3.18,2.31,2.22,6.39Z"/>
  <path class="cls-15" d="M36.37,239.88c5.29,3.51,2.69,12.62-3.87,12.1-4.68,16.3-10.94,32.34-18.79,48.12-.59,5.76-2.42,8.44-5.48,8.05-1.12-1.96-2.06-3.73-2.22-6.39l26.26-63.82c2.71-4.93,5.05-3.43,4.09,1.95Z"/>
  <path class="cls-97" d="M60.06,153.9c5.75-.48,7.42,1.85,4.15,6.76,8.83,10.17,15.08,25.64,16.52,39.01.32,4.85,1.12,8.81,2.41,11.88l-2.69,1.14c.82,5.47-6.57,7.76-9.75,3.5-4.86,2.39-5.14,1.14-1.76-2.89,2.82-1.28,5.49-4.07,8.26-7.58-6.15-21.04-14.66-40.65-26.82-57.66l3.86-2.08c5.31-2.94,9.9,3.01,5.82,7.9Z"/>
  <path class="cls-16" d="M82.45,490.01c.06,5.95.07,11.24.03,15.85l-46.24-6.5c4.21-6.53,10.5-1.33,14.86-2.3l31.35-7.05Z"/>
  <path class="cls-143" d="M68.93,213.32l1.76,2.89c2.87,6.26-8.54,8.57-12.38,6.14l-1.38,5.17c-6.37,3.25-12.48,6.76-18.34,10.53,2.09,3.29.86,4.27-2.24,1.84l-4.09-1.95c2.5-6.07,5.84-10.62,12.55-13.67l24.11-10.95Z"/>
  <path class="cls-79" d="M87.17,22.35c.04,1.37,2.06,2.07,3.36,1.68.27,2.01-.43,2.41-2.09,1.21,1.48,5.71-1.8,6.77-5.49,2.5-6.03,7.36-21.63,12.09-30.43,8.24-2.18.04-3.54-.53-4.09-1.71,2.7-4.73,9.09-4.28,14.47-5.75,8.68-2.38,15.96-6.74,24.27-6.18Z"/>
  <path class="cls-119" d="M48.43,34.28c1.69.19,3.25,0,4.09,1.71-.33,2.69-2.99,4.23-7.97,4.63-.4,3.88-1.94,3.56-2.34-.46l-5.63-.17c1.38-4.66,7.51-6.19,11.85-5.7Z"/>
  <path class="cls-80" d="M84.46,492c.41,9.16,7.65,12.57,21.74,10.22,2.28.39,2.13,1.73.26,3.76l-20,.02-3.98-.15c-2.92-4.71-2.95-11-.03-15.85.48-.8,1.29-1.47,1.78-2.01l.24,4Z"/>
  <path class="cls-69" d="M126.52,490.23c2.2,4.09,1.96,9.63.95,14.88l-21.01.87c.05-.89-.7-1.8-2.05-1.84l-21.81-.6c2.57-4.64,2.05-8.19,1.86-11.54l2.01-.08c5.78.18,5.4,4.8-.01,6.14,10.94-.39,22.05-1.16,33.35-2.31-2.66-4.37-3.17-8.33-1.53-11.88-2.01-5.2.71-6.13,4.26-1.94.04,3.49,2.51,5.55,3.99,8.29Z"/>
  <path class="cls-66" d="M184.38,481.81c5.43.61,6.87,8.63,1.92,11.13l35.16,1.01c.81.49,1.05,1.13,1.09,1.66l-36.35,1.11c-6.82-.07-5.92-11-5.46-15.67-.68-5.54-.07-9.27,1.84-11.17,7.2-2.31,8.7,9.9,1.82,11.93Z"/>
  <path class="cls-140" d="M182.56,469.88c.39,3.77.84,8.06-1.84,11.17.21-2.14-.78-4.4-1.7-5.91l-12.75-20.88c-2.83-6.39,2.17-11.81,7.27-6.63,2.96,3,11.23,18.14,9.01,22.25Z"/>
  <path class="cls-91" d="M180.68,27.89c1.41,2.95-.17,8.48-4.34,6.27.33,6.01,0,17.4-8.04,14.1l-2.61-.71c-2.49-7.73-7.99-8.07-16.53-1.05l-4.44-2.39c-3.99,2.54-14.81-1.94-16.67-6.09l-1.86-2.12c5.39-.68,10.86-1.22,16.42-1.63.93-3.26,3.65-6.01,8.18-8.26-6.95-2.5-3.97-18.76,3.54-18.38,9.43,5.8,18.86,12.11,26.34,20.26Z"/>
  <path class="cls-24" d="M154.34,7.63c-2.86,5.97-3.61,12.15-3.54,18.38-2.53,4.37-17.57,5.03-23.2,4.75-6.83-.33-10.15-1.25-16.01-4.67-5.56,1.56-11.19,2.29-16.89,2.19-1.87,7.31-11.32,3.07-6.26-3.03.75-.34,1.56-.68,2.09-1.21l56.85-17.15c1.53-.46,2.59-.97,4.01-1.18,1.58-.23,2.03,1.36,2.95,1.93Z"/>
  <path class="cls-117" d="M184.54,74.02l.36,2.09c-.84,4.62-2.24,5.58-4.22,2.86-4.75.68-6.28-1.21-2.42-4.74-3.6-3.71-4.35-7.03-2.23-9.96l1.35-1.99c-1.78-9.44-2.12-18.81-1.03-28.12l4.34-6.27,1.66.07,2.19,46.06Z"/>
  <path class="cls-110" d="M290.45,266.41l-1.56-.12c-3.26-.24-4.87,2.45-5.98,6.14l-16.69,55.45-1.95,3.98c-1.8,3.94-3.13,4.46-4.45.15l7.09-23.52,12.29-38.18,3.8-23.06,2.71-1.63c6.6.45,6.79,16.13,4.73,20.79Z"/>
  <path class="cls-72" d="M264.27,331.87l-10.59,35.39c-3,10.03-5.52,20.03-7.57,30.37-.49,1.58-7.38-.3-7.2-1.96l20.91-63.64,4.45-.15Z"/>
  <path class="cls-26" d="M328.43,125.52c.07,2.65-.66,5.08-2.48,6.8-.26-6.25-6.01-9.88-9.31-14.65-1.42.86-3.39,1.67-4.48.73-4.97-6.62-10.33-10.58-16.09-11.88-2.69-3.66-6.83-6.75-9.43-10.89-6.68,6.66-12.17,8.11-16.47,4.35l-7.71,2.42c-.53-1.22-.22-3.74,1.81-4.55l31.63-12.7,32.54,40.37Z"/>
  <path class="cls-128" d="M326.23,133.81c-.31,2.78-.47,5.77-1.96,8.25l-25.72,84.2c-1.92,6.18-3.5,6.14-4.1-.25l23.9-80.76c-4.25-2.21-6.26-4.2-1.45-7.18-.23-1.84,2.78-5.54,4.62-4.99,1.3.39,2.24,1.83,2.95,1.75.51-.06,1.56-.71,1.75-1.02Z"/>
  <path class="cls-42" d="M316.91,138.07c.22,1.8,2.09,5.03,1.45,7.18-9.07-1.1-18.37-8.71-30.02-8.73l-.33-2.65c.33,1.01,3.97,3.29,5.03-1.05-8.53-3.19-18.36-6.25-22.47-16.63l46.34,21.89Z"/>
  <path class="cls-88" d="M316.64,117.67c1.92,1.97,1.05,7.87-2.2,8.71-7.4-5.33-13.58-13.34-18.37-19.85.25-2.44,1.4-4.34,3.21-4.26.07,0,12.6,8.55,17.36,15.41Z"/>
  <path class="cls-20" d="M286.64,95.63c-.25,6.39-8.51,7.96-8.49,16.6-4.46-3.57-7.18-7.36-7.98-12.25,9.99-3.02,14.36-7.7,16.47-4.35Z"/>
  <path class="cls-18" d="M148.68,205.74l37.95,9.66c1.02.12,1.9.35,2.3.91,1.76,2.48.42,10.55-.2,13.86-.77,4.11-3.34,13.25-6.08,15.64l3.79,2.55c.75,5.49-.63,20.18-5.94,21.62-.12,1.4-.85,3.07-1.72,4.39-.81,3.52-1.41,2.82-2.65-.44-1.77,8.24-14.49-.22-11.73-6.82-11.18-7.97-21.75-16.21-31.71-24.72-4.79,1.38-7.71-2.36-6.57-7.08-.96-6.14,4.1-7.08,8.77-5.78-6.16-4.29,5.8-27.12,13.8-23.79Z"/>
  <path class="cls-43" d="M182.52,359.77l12.95,55.67c.03,3.68-.54,5.47-3.46,2.66-1.34,8.35-5.96,15.85-13.84,22.48-4.46,5.76-8.4,7.03-11.82,3.81-3.35,1.52-7.19-5.8-4.03-8.02l-3.47-10.76,10.61-53.2c.69-8.26,3.6-12.38,8.72-12.36-.34-3.68.85-3.4,2.77-.22.48-.04,1.12.13,1.57-.07Z"/>
  <path class="cls-92" d="M188.6,246.22c1.42-.72,3.19-1.56,4.5-.88,5.03,2.61,17.67,22.9,18.99,28.64,4.35,2.52,5.12,9.65,5.47,14.6,6.06,2.63-1.26,7.74-4.75,3.47-4.83-3.65-9.92-6.81-15.27-9.46l-12.89-8.8-1.06-5.56c-.14-.73-2.45,1.55-3.1,1.75l2.15-24.17c2.09-7.36,3.68-6.35,5.95.41Z"/>
  <path class="cls-118" d="M270.34,262.33c3.09-4.14,6.31-2.59,8.38,1.67,1.92.55,1.26,1.76-.67,2.58-2.28-.47-5.49-.84-8.25.77-16.26,9.5-32.03,19-48.89,27.1-5.09,2.44-7.51-.19-10.63-2.09-.48-2.03.36-2.13,2.54-.31,1,.01,2,.35,2.69-.03,2.71-1.47-1.54-15.84-3.41-18.05-.64-3.7.41-3.22,2.65-.25,3.6-.57,6.45,2.04,8.56,7.83l18.63-15.43,4.7,1.9c6.49-7.96,17.76-18.99,23.72-5.7Z"/>
  <path class="cls-55" d="M180.95,359.84l-2.77.22c-4.48,1.95-5.41.36-3.57-4.07-6.25.36-6.21-7.35,0-7.94l-2.19-5.38c.5-9.55,1.16-19.06,2-28.52-3.66-3.39-6.73-12.67-.07-14.12l-3.9-2.74,2.08-20.27,3.6-3.1c.82-.13,2.03.25,2.65.44l-.45,71.67c-.03,5.34.55,9.89,2.62,13.8Z"/>
  <path class="cls-138" d="M285.72,245.63c-1.03,8.89-3.93,16.66-6.51,24.69l-1.16-3.73.67-2.58c-6.2.05-4.19-16.4,1.81-16.96-5.5-1.89-3.09-7.51.31-11.36,10.49-11.85,23.71,9.05,4.87,9.95Z"/>
  <path class="cls-90" d="M212.82,292.05l-2.54.31c-4.7-2.88-8.16-6.66-12.73-9.78,6.33.13,11.78,4.59,15.27,9.46Z"/>
  <path class="cls-38" d="M336.41,457.88c-.77-3.69.82-3.96,2.66-.59,3.62-2.14,7.78-1.63,12.48,1.54,3.99-1.37,7.62-1.57,10.88-.6l1.54-7.42c-2.25-1.06-1.49-2.73,2.29-5.02-5.26-1.75-5.17-3.28.21-4.53.48.05,1.22.12,1.62-.08,1.8,6.28,4.42,12.9.08,19.37-2.51,3.73-6.97,9.94-13.65,10.27-8.8.43-15.81-5.96-18.12-12.94Z"/>
  <path class="cls-51" d="M366.48,441.26c-.08,1.39-.47,3.23-.21,4.53-3.36,4.82-14.85,1.22-19.72-2.98-3.78,1.57-4.92,5.43-3.41,11.57l-4.06,2.9c-.78.51-1.92.56-2.66.59-1.53-4.61-.58-9.13-.09-13.83,2.65-2.6,4.66-7.01,8.3-8.42,7.73-3,17.07-1.07,21.86,5.63Z"/>
  <path class="cls-123" d="M298.55,226.26c-.67.4-1.12,4.64.3,5,4.16,1.05,8.63.44,11.7,2.4l-.6,12.38c-.31,6.67-3.11,15.44-8.87,20.34-2.81,2.39-8.12.22-10.65.03-4.6-5.93-3.52-13.52-4.73-20.79.37-3.19,4.74-5.12,6.94-7.32-1.32-3.26-7.39-1.75-8.87,0-2.01,2.36-2.93,5.77-3.25,8.74-3.68,5.6-10.05,2.13-8.73-4.47l.36-4.88,6.52-9.08,13.68-2.46c.55-.1,1.5-.25,2.09-.13,1.01,1.32,2.85,1.41,4.1.25Z"/>
  <path class="cls-106" d="M80.91,66.48l4.64,1.59c8.29,27.61,15.78,55.69,22.46,84.24l-2.01,5.97,4.41,1.23,5.29,22.06c18.96-1.48,38.02-3.23,57.16-5.24l4.1,2.17-26.08,9.46c-4.92,5.23-10.44,6.19-16.56,2.89-5.91,3.47-13.11,4.12-21.6,1.95-5.36,1.83-9.47,1.57-12.34-.78-7.26,7.19-18.02-3.26-21.81-10.66-4.66-.31-9.85-13.35-8.03-17.45-2.57-4.66-1.01-14.26,2.33-18.06-.55-1.8-.1-3.27,1.38-4.43,3.35-3.36,4.97-6.63,4.88-9.82l-17.19-45.25,1.99-2.56c-2.09-8.04,7.51-20.57,16.07-19.16,1.68-.13,1.97.49.91,1.84Z"/>
  <path class="cls-12" d="M190.85,174.4c-3.3,3.52-9.69,2.58-13.89,4.1-21.17,2.6-42.31,7.14-64.21,7.91l-6.75-28.13c-1.95-9.59,12.73-16.49,18.36-10.2,5.07,5.88,18.78,14.08,27.11,13.73,1.91-.08,6.55-2.36,4.68-4.37,1.51-2.42,5.09-3.95,10.72-4.58-1.9-1.93-3.87-3.64-5.93-5.13-3.85-2.99-5.39-6.37-4.63-10.15-.13-4.98,4.31-7.48,8.38-9.47l-2.53-23.79c3.43.83,6.92.59,10.46-.74-4.77-4.5.52-9.14,5.5-6.41,3.71-5,5.45-2.67,6,3,2.22,24.88,4.46,49.62,6.71,74.22Z"/>
  <path class="cls-74" d="M150.88,187.96c-3.27,1.67-5.24,4.45-5.16,8.04.06,2.61-.66,5.29-1.33,7.75-3.67,6.16-8.04,12.16-13.11,18.02l-4.22-1.82c-.05,3.74-1.5,4-3.02.57l-12.57-8.9c-4.27-3.87-14.31-14.8-11.1-19.61,14.69-8.75,30.06,4.35,32.14-6.49,6.24,3.45,12.63,4.51,18.36,2.43Z"/>
  <path class="cls-40" d="M185.13,86.07c.27,11.5,1.86,25.87,3.73,38.02-3.27,10.76,7.37,44.57,1.99,50.31-1.87-.36-3.37.29-6.94-1.04,6.27-3.02,4.26-7.28,3.79-12.57l-5.15-58.86c-.3-3.44-1.93-4.29-4.41-4.74-4.6,3.38-6.22,1.98-3.59-3.06-7.79.07-10.39-1.71-7.81-5.34.59-.9,18.16-8.5,18.4-2.72Z"/>
  <path class="cls-32" d="M207.76,467.95c1.72.04,2.2,1.65,2.84,2.06.07,5.4-2.46,5.54-6.13,2.03-1.54.23-3.32.28-4.3-.84-1.57-1.8-10.74-44.13-10.55-46.64l2.4-6.46,3.46-2.66,12.29,52.51Z"/>
  <path class="cls-87" d="M210.6,470.01c4.24,2.75,8.8,6.05,13.65,7.8,3.3,5.54,9.36,8.51,14.29,13.33-2.42,1.4-4.42.82-5.92.82-17.63,1.64-28.9-3.11-33.79-14.24l3.44-3.96c-2.29-3.11-1.06-3.99,2.21-1.72,1.7-1.33,3.98-1.76,6.13-2.03Z"/>
  <path class="cls-127" d="M202.26,473.76c-.62,5.28,2.52,8.46,6.81,11.57,11.57,8.4,18.99,2.1,23.54,6.62l-46.32.98c-1.03-3.98-2.03-7.74-1.92-11.13,1.33-4.75,13.66-11.21,17.89-8.04Z"/>
  <path class="cls-130" d="M220.42,257.87c5.57.39,11.2-.49,16.39-2.07l21.78-6.61c4.12-1.77,5.79.12,4.45,4.32l-16.41,14.52c-7.46,3.82-12.8,10.8-20.01,16.06l-7.99,5.83c1.01-7.04-1.56-11.12-3.88-16.2-5.04-4.77-13.51-15.45-11.11-22.92.41-1.28,3.26-1.34,5.15-1.29l2.16-.75,9.48,9.11Z"/>
  <path class="cls-139" d="M191.01,215.91c1.07,3.15,3.46,5.34,5.28,7.95.4,2.2.28,4.12-.35,5.74-1.7,5.96-4.15,11.5-7.34,16.61-1.42-1.68-4.36-1.72-5.95-.41l3.98-30.41c1.42.36,2.91.52,4.38.51Z"/>
  <path class="cls-76" d="M220.42,257.87c-4.36-.3-9.19-4.56-11.64-8.36-6.17,2.17-16.83-14.87-12.84-19.91-.63-.97-1.04-2.06-1.24-2.9-.33-1.39.17-2.75,1.59-2.84l16.59,23.82c2.58,3.7,7.3,5.82,7.53,10.19Z"/>
  <path class="cls-25" d="M144.39,203.75c1.45.17,3.01,1.66,4.29,1.99-3.04-.23-4.74,1.43-6.05,4.66l-7.75,19.13c-6.59,5.77-13.91-4.93-7.82-9.57,9.5-6.65,11.69-16.85,17.33-16.21Z"/>
  <path class="cls-29" d="M185.13,86.07l-17.53,4.71c3.97,1.38,5.46,1.9,6.95,3.35-.1,2.72-1.92,4.49-5.47,5.31l3.56,4.16c-1.09,2.11-5.64,2.31-7.68,3.08-3.5,7.19,3.21,15.65-.25,21.44-.63,1.05-1.36,1.02-2.19.02-1.61-.17-4.02-.47-4.31-1.64-1.11-4.46-6.16-35.66-5.46-37.61,1.84-5.07,13.7-7.27,19.76-7.07,6.44.21-2.13,3.85-.27-2.28,1.31-4.58,5.83-3.7,8.44-.57l4.22-2.86.23,9.96Z"/>
  <path class="cls-78" d="M268.27,246.74c5.44,1.15,6.43,12.69,2.07,15.59-8.15-5.64-13.43.43-23.72,5.7,2.16-6.02,6.31-11.75,12.33-15.89,1.97-.24,1.82-2.74-.36-2.94,3.05-.93,5.95-3.47,9.69-2.45Z"/>
  <path class="cls-61" d="M280.54,247.04l-1.81,16.96c-3.1.6-5.76.14-8.38-1.67-2.05-5-2.05-10.4-2.07-15.59.6-1.85,1.73-3.51,3.54-4.17,2.31,2.38,5.43,3.6,8.73,4.47Z"/>
  <path class="cls-99" d="M128.35,387.93c.66,1.47,1.62,3.68.75,4.55-6.13,6.16-21.23,18.59-28.47,23.32-3.87,4.75-7.63,6.1-11.28,4.06.93,4.05-.19,4.89-3.37,2.54l-9.09-50.62c-7.35-5.19,6.32-18.81,13.1-15.65,2.43-3.5,5.7-3.22,9.81.86l22.3,22.1c5.28,1.16,9.91,3.57,6.26,8.84Z"/>
  <path class="cls-73" d="M125.25,435.77c.96.36,1.83.79,2.4,1.47,1.24,1.48-7.45,34.2-8.49,37.62-.14.48-1.31.64-2.78.72-.57,7.72-2.14,9.14-4.69,4.24-8.44.47-14.84-1.49-19.2-5.89l-2.73-25.51-.17-7.65c10.99-3.46,22.68-6.78,35.08-9.94l.57,4.94Z"/>
  <path class="cls-7" d="M94.94,347.62c1.45.89,1.36,1.67-.23,2.35,1.36,4.49.54,6.87-4.74,6.17-3.82,4.17-12.89,9.32-13.1,15.65-5.77-1.89-11.57-3.32-16.34-8.23,2.57-4.32,4.97-8.07,6.31-12.17.42-1.29.55-3.31.73-4.56-3.81-3.54.29-14.57,5.21-15.47,7.04-7.27,22.3,7.29,22.15,16.25Z"/>
  <path class="cls-37" d="M136.83,395.95c3.98,5.36-2.25,22.57-5.3,29.69-.22.51-1.42.59-2.91.55l-3.79,4.88-33.68,9.77c-2.3-3.23-3.92-6.96-4.87-11.19l-.31-7.25c-.09-2.1,2.53-1.86,3.37-2.54,1.73-.48,3.45.05,5.16,1.59l31.4-13.39c1.75-6.46,4.59-11.85,8.53-16.18,5.12-1.88,5.87.03,2.39,4.06Z"/>
  <path class="cls-80" d="M116.39,475.59c3.49.51,4.32,5.88,1.89,8.29,2.83,4.68,6,9.5,6.28,16.27l-34.36.08c-1.94,0-3.74-.55-3.74-2.16,1.74-3.11,5.19-5.19,10.37-6.24l8.14-7.05c-7.67-.07-11.9-2.33-12.69-6.78.38-1.08.33-2.89.21-4.05,9.81,4.84,23.13,7.21,23.89,1.65Z"/>
  <path class="cls-5" d="M86.46,498.07v-6.14c3-4.07,4.15-9.18,5.83-13.93,6.35,1.98,12.07,2.44,20.25,2.96-6.07,10.15-15.21,18.18-26.07,17.11Z"/>
  <path class="cls-104" d="M125.25,435.77c-3.95-3.71-7.81-.71-11.84.88-16.1,6.37-25.14,3.65-23.65,11.78-.67-6.24-3.21-12.39-3.48-18.78l4.86,8.46c9.56-5.82,24.17-5.7,37.48-11.93,4.05,1.28.86,10.36-3.37,9.58Z"/>
  <path class="cls-125" d="M102.41,42.02c7.79-2.51,15.31.18,22.57,8.06,6.55,1.62,11.19,4.26,13.92,7.92,0,2.47-3.16,3.74-9.49,3.79-.2,4.15-2.07,4.36-5.54,4.03-14.58-1.4-29.04-2.33-43.89-1.19-6.17,5.41-11.56,12.17-16.07,19.16-2.14,4.02-3.08,3.68-5.33-.18-1.76-3.36-2.6-7.81-2.51-13.35l-14-17.38c-1.31-5.72,3.17-7.19,2.27-2.02-.24,1.36-2.55,1.02-4.28-.4l2.15-10.31,2.34.46c18.52-3.9,39.22-2.7,57.87,1.4Z"/>
  <path class="cls-2" d="M58.59,83.62c3.8-.02,3.91,1.54.26,2.71l-.16,4.53c-3.53,3.27-24.15,18-26.6,15.98-.79-.66-1.41-1.52-1.99-2.44.19-8.43.95-17.32,2.28-26.66,1.51-5.13,2.25-10.85,3.11-16.88.66-4.58,3.87-7.13,4.57-10.38,1.7-.63,2.43-1.85,3.63-4.57,3.85,16.39,24.51,18.42,14.9,37.72Z"/>
  <path class="cls-60" d="M42.33,128.01l-10.57-13.23c-2.94-3.68-3.29-6.7-3.9-10.39.65-1.75,1.4-1.72,2.25,0,6.83.11,17.55-13.07,28.75-18.06,1.45-.35,2.62-.55,2.8-.22,5.03,9.28,17.21,34.31,4.5,39.09-5.17-6.36-12.3-4.89-21.4,4.42l-2.43-1.61Z"/>
  <path class="cls-82" d="M63.92,83.8c10.51,34.25,31.44,54.38,10.32,57.63l-4.22,1.05-10.98-14.5c-5.21,4.58-9.51,5.98-12.88,4.22-.7-1.28-2.76-2.84-3.83-4.18,10.9-6.93,18.39-13.1,23.48-5.7,5.28-6.93,2.77-13.05.04-19.49l-6.99-16.48c-.29-.68-.24-2.05-.26-2.71.86-.88,4.91-1.2,5.33.18Z"/>
  <path class="cls-108" d="M74.25,141.43c.53.7,1.55,2.56,1.34,3.4-.18.74-1.92,1.19-2.71,1.03,1.1,6.22-8.08,11.92-12.81,8.05-1.14-3.07-4.04-5.25-5.82-7.9-2.91-4.34-5.65-9.38-8.07-13.81,4.37-2.9,7.55-6.83,12.87-10.86l15.22,20.09Z"/>
  <path class="cls-34" d="M30.1,104.4h-2.25c-1.47-8.88,1.99-18.06,4.52-26.66,2.06,1,2.7,3.33,2.09,6.1l-4.37,20.56Z"/>
  <path class="cls-93" d="M58.49,313.59c4.95.62,16.52,8.74,13.79,15.2,3.93-.95,4.26.75.5,2.57-.07,5.5-2.39,11.05-5.21,15.47-.85,1.22-2.77,2-3.83,1.45-1.12-.58-2.15-3.51-3.4-4.24l-30.28-17.79c-11.89-15.32,18.94-19.13,28.43-12.66Z"/>
  <path class="cls-17" d="M54.71,307.84c3.25-.57,5.77,3.09,3.78,5.75-8.36-1.65-18.6-.46-26.81,3.83-2.48,1.3-.52,6.64,2.67,7.03-.86,2.3-2.69,1.94-4.28,1.8-6.9-4.05-15.53-7.04-19.64-14.26-.64-5.64,2.98-7.64,5.82-2.09.86-5.55,3.65-4.96,4.63.45,2.87-1.54,6.08-1.96,9.63-1.25.99-4.91,11.64-5.04,16.85-4.72,3.48.21,4.67.48,7.36,3.47Z"/>
  <path class="cls-8" d="M32.32,261.81l-.05,9.28c-1.1,6.91-3.87,10.52-8.32,10.82.22,9.42-2.35,18.75-7.72,27.99-1.97-.19-3.98.92-5.82,2.09l-2.19-3.85,24.27-56.17c8.16-1.28,7.58,11.38-.17,9.83Z"/>
  <path class="cls-50" d="M44.47,250.34c6.69,8.92,15.24,26.12,8.44,35.99,2.02,2.96-2.16,10.23-4.49,12.42l-4.53,1.24c-6.41-9.97-13.45-26.63-11.58-38.17,1.81-2.85,2.93-7.87.17-9.83,1.67-3.9,3.21-7.93,3.87-12.1l2.24-1.84c6.37-2.63,11.72,8.89,5.87,12.29Z"/>
  <path class="cls-83" d="M94.02,208.33c.39-.95.84-1.79,1.55-2.25,4.27-2.79,24.13,10.24,28.47,14.45.97-.39,2.14-.52,3.02-.57,1.73,3.85,2.96,9.89,7.82,9.57-1.31,3.23-6.07,4.37-8.77,5.78-10.32,1.15-22.29-4.91-27.71-13.75-6.65,2.13-14.93-3.13-17.96-8.86l.28-13.03c4.53,2.13,8.97,5.02,13.3,8.66Z"/>
  <path class="cls-58" d="M98.4,221.56c1.91,9.51-20.84,9.72-27.52,8.36l-2.35-4.04c-4.36,1.61-6.41,3.94-6.15,6.99l-2.3,1.25c-7.1-.46-7.73-7.99-1.76-11.77l12.38-6.14c2.41-1.19,7.04-3.3,9.75-3.5,6.8-.52,12.26,6.39,17.96,8.86Z"/>
  <path class="cls-9" d="M70.54,163.91c2.49,5.46,4.36,12.45,8.03,17.45,4.68,5.67,8.79,11.76,12.34,18.27,4.71,2.33,8.14,4.65,3.12,8.7-1.97-.8-4.59-1.69-6.97-1.7-1.5,0-2.23,2.88-5.19,4.34,2.69-6.35.05-8.11-1.14-11.3-4.95-13.23-10.12-26.36-16.52-39.01-2.78-9.87,9.71-4.69,6.34,3.25Z"/>
  <path class="cls-45" d="M72.87,145.85c2.74,5.95,1.28,12.56-2.33,18.06-.76-1.46-4.07-2.45-4.38-5.89-1.67.68-1.64,1.77-1.96,2.64-1.14-2.24-3.21-4.23-4.15-6.76l12.81-8.05Z"/>
  <path class="cls-107" d="M60.08,234.12c1.11.01,2.02.12,2.23.56,2.51,5.29,8.21,22.46,1.91,25.56-6.05,8.48-12.63,5.18-19.74-9.9-1.16-4.4-3.01-8.82-5.87-12.29.65-4.44,3.46-7.54,8.1-9.87l11.61-5.83c-1.42,4.38,1.22,8.36,1.76,11.77Z"/>
  <path class="cls-11" d="M82.95,27.75c3.02,1.11,6.05,3.25,9.09,6.41,5.16.55,8.64,2.52,10.42,5.92,1.73.59,1.69,1.24-.05,1.94-19.04,0-39.41,2.27-57.87-1.4,1.55-3.59,4.92-3.77,7.97-4.63,10.16-2.83,20.09-6.2,30.43-8.24Z"/>
  <path class="cls-6" d="M88.44,25.25c-.01,4.32,4.61,2.14,6.26,3.03,14.9.49,29.91,1.14,45.04,1.95l2.88,4.04c-7.72,3.48-13.66,0-14.56,3.75l-4.15,4.59c-6.93.8-14.08-.05-21.45-2.54-8.85-.31-17.99-2.23-19.51-12.33l5.49-2.5Z"/>
  <path class="cls-63" d="M204.47,472.04l-2.21,1.72c-4.99,3.9-11.13,7.7-17.89,8.04.15-4.31.89-8.46-1.82-11.93-5-6.42-9.26-13.21-13.01-21.98-2.02,1.33-2.94,3.76-3.28,6.37l-4.14-7.94c.62-1.71,1.66-2.21,4.23-1.93,6.3-2.76,11.09-8.8,15.91-14.59l9.74-11.7,12.46,53.94Z"/>
  <path class="cls-64" d="M162.33,436.38l4.03,8.02c.2.5.21,2.86-.79,3.13-.75.2-2.51-1.2-3.44-1.2l-22.84-38-17.44,61.28c-1.23,4.34.63,8.33.67,12.33l-4.26,1.94c-1.65-2.73-2.62-5.03-1.89-8.29l8.86-39.81,3.37-9.58,8.21-30.24c-1.51-3.5-.14-4.6,3.05-2.55,4.19,2.69,7.21,7.53,9.06,14.52,6.91,8.8,11.38,18.28,13.39,28.45Z"/>
  <path class="cls-36" d="M168.31,48.27c4.86,1.97,4.98,3.08.48,5.77-5.66,5.69-13.8,8.78-21.71,10.52-5.47,1.2-15.77,3.29-17.65-2.76,3.19-1.23,7.11-1.37,9.49-3.79-3.56-4.04-.21-14.65,5.82-13.88,7.41-2.68,13.37-10.65,20.87-4.53,2.21,1.8,3.04,5.35,2.71,8.68Z"/>
  <path class="cls-75" d="M128.06,38.02c6.15-.82,11.89,1.77,16.67,6.09-2.17,3.68-2.34,10.32-5.82,13.88-10.7-.12-20.9-5.82-27.61-15.01-1.96-1.97-6.77-.97-8.89-.96l.05-1.94c8.67.3,17.02-.91,25.6-2.05Z"/>
  <path class="cls-94" d="M150.8,26.01c.02,1.93-.46,4.24-1.33,5.99-1.39,2.79-5.11,1.49-6.84,2.27-15.85-.21-38.43-.86-47.93-5.99,4.31-2.74,15.02-8.43,20.44-5.22,6.19,3.66,8.19,6.36,16.21,3.46,5.64-2.04,13.9.16,19.46-.51Z"/>
  <path class="cls-23" d="M176.02,64.27c-5.71,2.86-11.7-5.32-7.24-10.23-.55-1.68-.66-3.96-.48-5.77,3.72-3.94,5.01-9.72,8.04-14.1,4.18,9.59,4.84,20.12,3.76,32.28-1.5-1.2-2.36-1.93-4.08-2.17Z"/>
  <path class="cls-144" d="M168.78,54.04c1.35,4.12,4.97,6.88,7.24,10.23,1.7,2.51,4.51,6.59,2.23,9.96-1.93,1.68-4.78,1.91-8.57.7l2.54,4.61c.49,1.61,2.08,1.42,4.73,4.07-5.72.49-17.18.04-20.59,6.25l6.14,38.28c-.87,4.75-5.14,7.33-7.65,2.13-4.78,1.16-7.84-2.23-9.18-10.15-.29-10-2.65-19.37-7.07-28.1-2.06,5.08-11.18,2.41-10.34-3.32-7.29-1.67-15.22-2.27-23.81-1.82-1.37-2.08-.66-4.14,1.24-5.44,13.37-.71,17.65-4.33,12.84-10.87l-34.83-.06-2.8-4c-.16-.55-1.16-1.31-.91-1.84,3.4-2.98,11.27-2.62,16.25-2.65l33.17-.19c10.93-.06,21.61-.31,32.04-7.19,2.49-1.64,5-2.34,7.32-.56Z"/>
  <path class="cls-95" d="M178.25,74.22l2.42,4.74c-2.23,1.56-5.9,1.6-8.44.57-5.14-2.08-8.87,1.08-14.78,3.83-5.24,2.43-2.92-7.03,12.95-13.08,2.82,0,5.89,3.11,7.85,3.94Z"/>
  <path class="cls-10" d="M126.12,235.31c3.02,1.65,5.19,3.45,6.57,7.08,1.65.71,1.49,1.25-.34,1.64,3.63,9.29-6.25,7.76-8.57,1.46l-7.32-2.26-2.66,3.6c-13.26-.73-26.51-.18-39.72,1.66-13.56-.98-16.77-18.86-5.55-22.6,10.21.08,20.94,1.84,29.88-4.32,9.55,4.14,18.62,8.8,27.71,13.75Z"/>
  <path class="cls-145" d="M164.4,267.11c3.34,1.59,6.34,7.65,11.73,6.82,1.83,9.69-1.77,17.4-1.78,26.1-3.16,4.67-8.62,3.29-16.39-4.14-8.14.47-15.69-13.65-19.31-20.95-5.76-8.69-6.62-15.75-2.57-21.19,2.31-3.11,5.76-2.95,10.36.47l17.95,12.9Z"/>
  <path class="cls-57" d="M164.4,267.11l-28.31-13.37-1.23-4.25-4.23-.43c2.21-1.85,2.79-3.53,1.72-5.04l.34-1.64c-.09-1.56-.35-3.1.56-4.23,11.67,9.17,24.19,18.96,31.15,28.96Z"/>
  <path class="cls-48" d="M178.18,360.06c-2.59,4.4-4.04,9.09-5.1,14.7l-7.65,40.39c-1.42,7.48-4.49,14.06-3.1,21.23-5.19-10.73-20.51-25.79-22.45-42.98-.96-1.39-2.02-2.95-1.83-4.58.22-1.87,21.8-25.41,24.83-28.23l5.3-.82c-3.32-4.87,2.46-7.91,6.44-3.79,1.1.9,3.3,1.93,3.57,4.07Z"/>
  <path class="cls-89" d="M195.94,229.6l12.84,19.91c-2.01,2.66-2.45,5.78-.96,9.03l6.93,15.18-2.65.25-23.49-27.76c-1.56-6.91-.52-15.03,7.34-16.61Z"/>
  <path class="cls-41" d="M174.62,348.04c-2.29-1.08-2.89-.2-3.41,1.89-3.47,5.33-7.22,6.64-11.26,3.93-1.8-12.93,5.17-30.62,14.47-39.71,3.59,3.96,1.93,9.95,1.95,15.85.02,6.55,1.3,13.49-1.76,18.04Z"/>
  <path class="cls-30" d="M174.35,300.03l.07,14.12c-1.93,3.72-2.96,3.66-6.06,1.82-1.04-.62-14.49-17.91-10.4-20.08,5.7,1.44,10.85,3.73,16.39,4.14Z"/>
  <path class="cls-77" d="M174.62,348.04c-.59,2.01-.39,5.96,0,7.94l-6.44,3.79c-3.97,4.94-11.4-.6-8.22-5.91,8.47-2.97,12.33-16.67,14.66-5.82Z"/>
  <path class="cls-142" d="M346.54,442.82l6.12,8.12c7.89-8.86,14.53-3.05,9.77,7.29-6.44,6.74-15.8,3.57-23.37-.94.42-6.41-1.56-11.98,4.87-16.5.75-.53,2.45.8,2.6,2.02Z"/>
  <path class="cls-49" d="M366.27,445.79c.99,4.94-.49,8.95-3.83,12.44-1.57-5,.95-9.87-2.85-8.44-2.53.95-4.78,6.56-7.89,5.89-2.29-.49-9.67-10.47-5.16-12.87,7.88-3.09,12.14,3.05,19.72,2.98Z"/>
  <path class="cls-1" d="M128.27,88.68l-1.83,3.95c-9.77-1.27-18.5-.94-26.19.98,5.84-1.42,9.25-.15,10.23,3.81,2.46,2.83,2.39,6.25-.22,10.24,5.75,1.69,12.64,1.65,20.67-.12l1.56,2.48c6.43-7.72,16.68,14.88,17.97,20.95.13.62-.63,1.43-1.64,2.29,4.99-1.08,9.19-1.77,7.49,4.32,3.48,2,7.75,5.49,4.63,10.15-.62,1.09-1.31,2.06-2.25,2.59-4.22,2.38-26.6-2.38-32.59-4.19l-1.75,1.94-12.46,3.68c-1.77.52-2.32,6.12-5.9,6.52-6.65-16.17-7.94-33.49-13.13-51.12l-11.96-40.68,39.23.06c3.93,2.4,6.29,15.19,1.61,15.89l-15.28,2.29c-.03-.12.03.76.98,1.58l17.3-.59c2.13-.07,3.92.57,3.52,2.98Z"/>
  <path class="cls-3" d="M100.38,192.02l23.67,28.51-30.02-12.2c.44-3.49-4.29-4.1-5.88-5.88-5.61-6.26-7.84-14.02-9.57-21.09l10.15,6.17c4.42,2.74,7.8,4.32,11.66,4.49Z"/>
  <path class="cls-131" d="M160.95,147.74c4.49-.43,8.83-2.5,13.51-1.07l-.13,2.81c-2.07.28-7.26-.72-7.44,3.39-11.43,3.75-26.3,3.56-36.06-3.18-2.94,1.83-4.26.94-6.45-1.6-.75-1.18-2.27-2.9-.7-4.42,13.4,3.76,25.44,5.21,37.29,4.07Z"/>
  <path class="cls-21" d="M130.82,149.68c-.37.88-.6,1.81-.33,1.9,7.33,2.49,16.4,3.63,24.11,3.59l1.56,2.28c1.64.26,3.24.47,4.23,1.65-2.93,3.75-5.9,6.24-8.98,6.48-2.38.18-26.41-9.16-27.05-17.5,2.9-.81,4.76,1.1,6.45,1.6Z"/>
  <path class="cls-111" d="M166.88,152.87c-2.02,2.99-7.39,3.73-10.72,4.58-8.46,2.16-17.29-1.89-26.23-5.23-2.85.03-1.84-3.51.89-2.54,11.45,3.38,23.88,2.86,36.06,3.18Z"/>
  <path class="cls-84" d="M174.54,94.12c.92.9,2.26,2.81,3.59,3.06-2.25,1.79-4.21,3.92-5.5,6.41-2.87.2-6.09.46-9.25-.6-.36-6.08,6.13-9.43,11.15-8.86Z"/>
  <path class="cls-122" d="M162.52,128.13c.61-.24,1.64-.16,2.19-.02-2.18,3.65-3.22,9.84-8.38,9.47l-7.49-4.32c-1.75-6.75,1.11-5.72,6.04-3.01,2.57-.65,5.17-1.14,7.65-2.13Z"/>
  <path class="cls-56" d="M159.95,353.86c2.65,2.44,5.09,4.45,8.22,5.91-8.67,14.3-22.23,23.1-28.3,33.63-.63,1.09-2.16,1.85-3.05,2.55-.21-1.68-.99-3.15-2.39-4.06-2.7,5.21-8.09,1.4-6.1-3.96-1.3-2.9-4.52-4.49-8.25-5.45l-21.21-20.92c-2.68-2.64-5.56-4.31-8.91-5.42,1.39-1.52,1.2-5.84,4.74-6.17l1.07-2.53c8.55-.91,14.15-4.53,16.82-10.85-1.49-3.84-1.5-7.11-.03-9.82,1.1-1.16,2.79-2.92,3.87-2.45,6,2.62,42.22,22.25,43.94,25.14l-.43,4.41Z"/>
  <path class="cls-14" d="M134.44,391.89c1.03,6.51-2.58,12.01-5.9,18.97l-28.96,12.54c-2.47,1.07-4.92,2.98-7.31,1.76-1.73-.89-2.96-3.53-2.92-5.29l39-31.94,6.1,3.96Z"/>
  <path class="cls-28" d="M88.79,305.02c4.87-4.3,10.75-.7,11.54,5.3,5.35,3.29,1.93,18.92.39,25.33.36,6.79-1.56,10.78-5.77,11.96-6.85-6.75-12.63-14.37-22.15-16.25,0-.71-.18-1.89-.5-2.57.66-1.94,1.5-2.1,2.52-.39l.86-5.82c-1.57-4.21-1.45-7.16.36-8.86-1.38-9.93,5.14-17.04,12.76-8.7Z"/>
  <path class="cls-101" d="M112.58,326.77c2.11,1.84,4.82,7.39,3.85,10.87-2.73,9.8-13.34,13.71-21.71,12.33-.31-.81.13-1.76.23-2.35l5.38-37.29c8.93-7.8,14.85,9.28,12.25,16.44Z"/>
  <path class="cls-106" d="M64.05,136.19c.8,1.25-3.23,3.65-4.67,3.2-2.21-.69-2.81-3.2-3.33-4.61-.96-2.59.69-7.6,3.82-6.21,1.3.61,2.37,4.93,4.18,7.63Z"/>
  <path class="cls-109" d="M64.76,286.03c-1.99,3.65-4.43,7.25-7.33,10.8,4.22,7.64,9.24,14.68,15.05,21.1,4.45.97,3.82,6.63,2.32,10.47-1,0-1.86.26-2.52.39-2.93-6.19-9.24-10.26-13.79-15.2-1.33-1.44-2.54-4.01-3.78-5.75-5.98-.66-8.86-3.23-6.28-9.1.24-4.21,1.21-9.78,4.49-12.42.53-7.34,3.09-9.39,7.66-6.16,4.55-1.96,7.75,3.09,4.18,5.87Z"/>
  <path class="cls-33" d="M48.43,298.75c2.78,2.33,4.23,6.22,6.28,9.1l-33.84,2.51c-3.71-3.76-1.19-5.71,3.55-6.43.07-7.23-.08-14.56-.47-22.01,2.99-6.6,4.45-13.92,8.37-20.1.7,6.41,5.96,12,7.37,18.61,1.62,7.6,3.09,13.59,8.74,18.32Z"/>
  <path class="cls-134" d="M20.87,310.35l-4.63-.45c-1.83-2.21-2.49-5.44-.99-8.77l8.7-19.22c7.05,7.83,3.04,16.03,6.63,26.69-4.39-1.34-8.36-1.11-9.71,1.75Z"/>
  <path class="cls-81" d="M64.22,260.24c6.3.15,8,15.58,2.36,17.74-.29,4.62-2.29,5.35-6,2.18l-7.66,6.16c-.14-5.27-1.6-10.11-3.06-15.63l-5.38-20.36c4.67,2.74,8.13,6.86,12.08,11.25,3-1.39,5.48-1.78,7.66-1.35Z"/>
  <path class="cls-70" d="M68.52,225.88c-3.95,3.56-6.78,13.25-.89,16.92s14.53.57,20.88-.67c4.3-.84,8.47,1.44,12.25,1.21,5.88-.35,10.58-1.26,15.71-.12,5.41,1.62,10.15,4.1,14.25,7.43l4.15-1.17,1.23,4.25c1.85,16.58,11.9,29.57,21.88,42.15,2.48,3.13,4.97,6.24,8.9,10.12,2.19,2.17,2.61,8.86,7.56,8.14-4.24,13.65-9.51,26.27-14.47,39.71-4-4.09-9.82-6.44-15.57-9.77l-31.8-17.33c-7.39-6.43-.53-13.84-12.25-16.44-4.22-.94-7.81-4.13-11.54-5.3-12.85-2.43-9.12-14.22-.08-21.94,7.51-3.78,14.4-8.4,20.66-13.85-10.7,4.26-21.63,8.07-32.81,11.43.31,7.45-1.83,9.88-6.4,7.28-3.41,1.21-6.57-8.41-3.58-9.98l-2.36-17.74-4.14-26.12c.05-2.16-1.2-7.23,1.29-8.07,2.27-.76,5.26-.18,7.15-.17Z"/>
  <path class="cls-115" d="M154.87,130.26c-2.16.54-4.27,1.89-6.04,3.01l-6.34-11.42c-2.54-4.56-5.27-10.25-9.99-11.82-3.01-.7-5.63-2.57-7.86-5.61-4.51.78-7.65-.67-4.97-4.86l14.01-1.25c-1.05-3.7,1.42-5.67,4.93-6.32,16.38,5.26,6.29,39.19,16.26,38.26Z"/>
  <path class="cls-53" d="M128.27,88.68l10.34,3.32c.09,1.42.05,2.72-.62,4.44-.7,1.81-3.03,1.33-4.31,1.88-6.96,1.05-13.79,2.1-20.47,3.16l-2.73-4.05c-3.37-.16-7.73-.02-12.44.34-1.6.08-2.25-5.08-1.36-6.45s3.51-3.36,6.12-3.3l25.47.66Z"/>
  <path class="cls-102" d="M132.35,244.02c1.8,1.4,1.92,3.43,2.51,5.47.19.5.55,3.5-.2,4.18-5.28,1.23-9.23-.01-14.52-2.62,1.31-.91,2.71-1.3,3.83-3.9-3.74-.96-5.86-1.95-7.51-3.93,4.65,1.03,10.49-.72,15.03,4.73,1.01-1.3.93-2.56.86-3.93Z"/>
  <path class="cls-98" d="M133.68,98.32c-3.08,1.32-6.2,2.61-10.38,2.6-2.46,1.47-1.01,3.96,1.34,3.51,1.91,4.87-12.22,6.87-14.37,3.24-1.08-1.22-3-3.26-2.67-4.65.5-2.1,2.14-4.03,2.89-5.58,7.72.37,15.49-1.3,23.2.89Z"/>
  <path class="cls-114" d="M132.49,110.03l-18.12,2.39c-1.49.2-4.3-.26-4.69-1.49-.28-.89.12-1.95.58-3.27l14.37-3.24c2-.44,3.97-1.28,5.9.2,1.3,1,1.52,3.99,1.95,5.41Z"/>
  <path class="cls-71" d="M88.79,305.02c-6.01-1.89-11.2,2.8-12.76,8.7-5.78-3.7-9.15-19.55-5.87-25.77,3.42-1.88,2.37-6.27.51-10.77,11.78-.48,20.18-4.32,29.26-9.8l14.48-3.45c2.86-.68,4.55-.7,5.68,1.15.69,1.13.34,3.86-2.16,4.42-6.82,1.52-10.02,7.11-15.47,10.36-6.51,3.88-14.9,6.38-17.61,14.45-1.24,3.69,2.28,8.13,3.94,10.71Z"/>
  <path class="cls-136" d="M66.58,277.98l3.58,9.98c2.94,8.19,3.31,17.27,5.87,25.77,1.42,4.73,2.28,11.39-1.23,14.68.19-4.03-.82-7.11-2.32-10.47-8.49-6.06-15.45-24.31-7.72-31.9-.04-2.68-1.8-4.51-4.18-5.87,1.78-1.43,3.65-2.38,6-2.18Z"/>
</svg>