<svg width="257" height="167" viewBox="0 0 257 167" fill="none" xmlns="http://www.w3.org/2000/svg">
<path d="M7.50197 137.926C48.529 121.086 96.4398 107.737 140.446 125.365C147.309 128.114 162.769 137.144 157.553 146.746C152.975 155.172 136.648 161.06 127.847 158.056C104.939 150.237 78.0583 133.114 95.4606 106.246C114.406 76.9967 153.811 54.7265 184.802 40.2265C199.834 33.1933 218.513 25.9316 235.085 23.5642C246.087 21.9927 237.772 26.4151 232.397 30.9246C224.752 37.3381 207.099 52.1478 224.024 37.9485C230.902 32.1789 239.349 26.9797 247.033 23.6082C255.248 20.0036 238.586 20.4442 236.36 19.8008C229.344 17.7724 219.496 13.2357 214.684 7.50018" stroke="#1C1C1C" stroke-width="15" stroke-linecap="round"/>
</svg>
