<?xml version="1.0" encoding="UTF-8"?>
<svg id="_图层_1" data-name="图层_1" xmlns="http://www.w3.org/2000/svg" version="1.1" viewBox="0 0 512 512">
  <!-- Generator: Adobe Illustrator 30.3.0, SVG Export Plug-In . SVG Version: 2.1.3 Build 182)  -->
  <defs>
    <style>
      .st0 {
        fill: #ae8e4b;
      }

      .st1 {
        fill: #91733e;
      }

      .st2 {
        fill: #3a220e;
      }

      .st3 {
        fill: #626361;
      }

      .st4 {
        fill: #331d0d;
      }

      .st5 {
        fill: #f1e9d6;
      }

      .st6 {
        fill: #090803;
      }

      .st7 {
        fill: #8c6a23;
      }

      .st8 {
        fill: #2e190d;
      }

      .st9 {
        fill: #cdb365;
      }

      .st10 {
        fill: #10100c;
      }

      .st11 {
        fill: #aeaeac;
      }

      .st12 {
        fill: #72706b;
      }

      .st13 {
        fill: #5a5a58;
      }

      .st14 {
        fill: #e2c468;
      }

      .st15 {
        fill: #84631d;
      }

      .st16 {
        fill: #999797;
      }

      .st17 {
        fill: #3f3f3d;
      }

      .st18 {
        fill: #ae8f56;
      }

      .st19 {
        fill: #d1d0ce;
      }

      .st20 {
        fill: #95938f;
      }

      .st21 {
        fill: #39220b;
      }

      .st22 {
        fill: #e2b94b;
      }

      .st23 {
        fill: #838382;
      }

      .st24 {
        fill: #f2f2ef;
      }

      .st25 {
        fill: #edcd67;
      }

      .st26 {
        fill: #494845;
      }

      .st27 {
        fill: #e2e2e1;
      }

      .st28 {
        fill: #352211;
      }

      .st29 {
        fill: #bcbcba;
      }

      .st30 {
        fill: #fcfbfb;
      }

      .st31 {
        fill: #2e1b0b;
      }

      .st32 {
        fill: #b6b6b4;
      }

      .st33 {
        fill: #f0ece7;
      }

      .st34 {
        fill: #777674;
      }

      .st35 {
        fill: #80632b;
      }

      .st36 {
        fill: #341d08;
      }

      .st37 {
        fill: #ab8941;
      }

      .st38 {
        fill: #483012;
      }

      .st39 {
        fill: #c5c5c2;
      }

      .st40 {
        fill: #2f1703;
      }

      .st41 {
        fill: #bbb3a9;
      }

      .st42 {
        fill: #d6c06e;
      }

      .st43 {
        fill: #e8c25b;
      }

      .st44 {
        fill: #eac84e;
      }

      .st45 {
        fill: #3a3a39;
      }

      .st46 {
        fill: #3e3f3e;
      }

      .st47 {
        fill: #424240;
      }

      .st48 {
        fill: #cbcbc9;
      }

      .st49 {
        fill: #efd784;
      }

      .st50 {
        fill: #7f6129;
      }

      .st51 {
        fill: #483118;
      }

      .st52 {
        fill: #776851;
      }

      .st53 {
        fill: #fdf9c6;
      }

      .st54 {
        fill: #6b4e1c;
      }

      .st55 {
        fill: #e6c86d;
      }

      .st56 {
        fill: #d0d0ce;
      }

      .st57 {
        fill: #c2973c;
      }

      .st58 {
        fill: #eac959;
      }

      .st59 {
        fill: #ecd37d;
      }

      .st60 {
        fill: #eee6d0;
      }

      .st61 {
        fill: #c29a41;
      }

      .st62 {
        fill: #f5e28e;
      }

      .st63 {
        fill: #9e9e9c;
      }

      .st64 {
        fill: #36200b;
      }

      .st65 {
        fill: #6c5e46;
      }

      .st66 {
        fill: #d3c9be;
      }

      .st67 {
        fill: #6a4d1c;
      }

      .st68 {
        fill: #d5b960;
      }

      .st69 {
        fill: #5d5d5a;
      }

      .st70 {
        fill: #d3d1cb;
      }

      .st71 {
        fill: #383734;
      }

      .st72 {
        fill: #301c0b;
      }

      .st73 {
        fill: #b8903a;
      }

      .st74 {
        fill: #3a2613;
      }

      .st75 {
        fill: #787874;
      }

      .st76 {
        fill: #dcb650;
      }

      .st77 {
        fill: #8c8b89;
      }

      .st78 {
        fill: #d6ca74;
      }

      .st79 {
        fill: #d8b34f;
      }

      .st80 {
        fill: #ead375;
      }

      .st81 {
        fill: #311f0d;
      }

      .st82 {
        fill: #edcc5f;
      }

      .st83 {
        fill: #edd687;
      }

      .st84 {
        fill: #c7a657;
      }

      .st85 {
        fill: #b4b1ab;
      }

      .st86 {
        fill: #242420;
      }

      .st87 {
        fill: #462e13;
      }

      .st88 {
        fill: #7d7d78;
      }

      .st89 {
        fill: #a19e98;
      }

      .st90 {
        fill: #eccc61;
      }

      .st91 {
        fill: #797975;
      }

      .st92 {
        fill: #f4e1a4;
      }

      .st93 {
        fill: #6a4f1f;
      }

      .st94 {
        fill: #151513;
      }

      .st95 {
        fill: #b68c3c;
      }

      .st96 {
        fill: #e8e8e6;
      }

      .st97 {
        fill: #37210e;
      }

      .st98 {
        fill: #2f2f2b;
      }

      .st99 {
        fill: #c4993e;
      }

      .st100 {
        fill: #73624f;
      }

      .st101 {
        fill: #e9c951;
      }

      .st102 {
        fill: #947636;
      }

      .st103 {
        fill: #f2e6a1;
      }

      .st104 {
        fill: #6a4e1e;
      }

      .st105 {
        fill: #929b48;
      }

      .st106 {
        fill: #94938f;
      }

      .st107 {
        fill: #614b2f;
      }

      .st108 {
        fill: #3d2815;
      }

      .st109 {
        fill: #c3993d;
      }

      .st110 {
        fill: #c0c0be;
      }

      .st111 {
        fill: #9f9f9d;
      }

      .st112 {
        fill: #a58037;
      }

      .st113 {
        fill: #281307;
      }

      .st114 {
        fill: #393935;
      }

      .st115 {
        fill: #daae59;
      }

      .st116 {
        fill: #272623;
      }

      .st117 {
        fill: #b5b2ab;
      }

      .st118 {
        fill: #76571b;
      }

      .st119 {
        fill: #b9b8b8;
      }

      .st120 {
        fill: #d4cbc2;
      }

      .st121 {
        fill: #292926;
      }

      .st122 {
        fill: #383836;
      }

      .st123 {
        fill: #301a0b;
      }

      .st124 {
        fill: #1b1a16;
      }

      .st125 {
        fill: #4a3315;
      }

      .st126 {
        fill: #76561e;
      }

      .st127 {
        fill: #82683a;
      }

      .st128 {
        fill: #e5cd81;
      }

      .st129 {
        fill: #f1dd97;
      }

      .st130 {
        fill: #684f2c;
      }

      .st131 {
        fill: #755519;
      }
    </style>
  </defs>
  <path class="st120" d="M301.35,470.11c19.66-2.08,36.63,4.7,54.74,6.06,1.76,1.09,2.66,3.36,2.71,6.8,3.44.69,5.15,1.98,5.14,3.86l-121.86,13.61c-13.55,1.51-24.87,2.07-38.26-.03l-105.66-16.55-22.3-2.9c14.89-1.52,28.95-4.92,44.23-8.25,1.09-.24,3.8,1.15,4.66.76.92-.41,1.54-2.41,1.24-3.46.62-1.73,1.27-1.68,1.96.07l2.11.47c-1.01,15.57,35.62,15.44,27.29-2.12l1.88-2.24c-1.33-5.18,2.65-5.92,7.37-6.19l77.63-.49,3.81,2.7,2.66.98c2.97,18.78,34.17,18.62,47.29,12.26.24-1.07,1.36-2.84,3.36-5.33Z"/>
  <path class="st36" d="M226.13,50.63c2.61,5.39-6.91,17.46-11.19,22.17-10.38,11.44-24.43,16.27-39.51,14.27-2.27,8.7-16.68,18.3-25.57,18.45-40.55,48.01-56.19,113.07-43.46,175.09l-2.17,3.14c3.58,8.01.08,11.61-10.5,10.8-7.01,1.88-21.71-2.69-25.74-8.89-5.3,3.43-8.59.2-9.85-9.7-5.22,2.5-5.96-1.19-5.72-6.04-4.91,2.6-6.44.51-4.89-4.28-5-2.91-3.45-4.26,2.04-3.67-1.49-.86-1.39-1.55.26-2.06.67-1.73,1.39-1.68,2.15.07l1.99,4.04c6.24,2.43,15.91,28.9,44.48,23.21l-3.92-37.31c1.48-12.2,1.3-25.41.17-37.66,5.26-35.96,18.61-69.36,40.07-99.42,6.06-8.5,14.66-13.16,22.2-19.76,12.44-10.89,26.32-15.05,42.4-18.14,10.11-7.44,17.59-21.11,24.54-30.83,4.81-2.14,3.98,3.05,2.22,6.55Z"/>
  <path class="st40" d="M209.89,229.98c-1.32,7.32-1.49,14.71-.48,22.16l4.73,25.55c3.75,20.28,10.44,40.41,24.94,55.52l35.06,36.54,18.14,26.45c.29,2.16-1.08,2.1-4.12-.18-1.81,3.33-6.36-1.09-5.77-4.38l-21.86-23.9-.2-5.47c-9.29-4.4-20.26-15.13-24.41-24.51-2.48-.3-5.01-.91-6.86-2.66-11.62-10.94-27.04-59.59-28.3-76.3l2.91-6.61c-.03-15.32-.05-22.97-.05-22.97-5.06-3.79-2.61-8.09,2.51-11.16-2.05-5.13-1.78-16.65,3.59-17.99,1.46-2.9,2.01-6.17,1.66-9.82-2.77-7.19-1.92-14.08,2.55-20.67l-3.4-3.1c6.9-21.36,9.77-42.6,8.6-63.73l2.82-4.42c-.92-4.37-1.66-8.21-2.22-11.52l21.51-23.66,4.86.6-.29-4.61c2.75-.24,4.73-1.95,5.96-5.1-2.54-3.3-2.33-6.76,1.88-4.23,1.75,3.36,4.35,11.93.92,14.12-6.24,3.99-8.65,8.45-13.5,13.23l-9.74,9.6c-6.43,6.33-3.26,10.73-3.18,17.56.08,7.19,1.6,15.97.24,22.32l-10.5,49.01c-3.22,15.03-2.5,31.61-4.61,35.96-2.85,5.86-3.45,12.43-3.42,18.36Z"/>
  <path class="st64" d="M40.24,299.56c3.16-4.85,8.41-4.25,11.61.21,3.46-3.05,4.9-2.97,4.31,1.88,20.46,10.89,30.69,16.34,30.69,16.34,4.48-2,8.76-2.7,12.85-2.12-1.86-4.22-.03-5.07,3.59-6.26,5.89-1.93,12.67,0,10.5,6.74l4.51.51c3.03,6.2,4.18,12.7,3.43,19.5,4.91,1.86,8.56,6.03,10.95,12.53,5.92,6.3,8.96,12.75,9.1,19.35l6.12,1.28c6.76,5.87,16.98,18.61,20.32,26.72,2.45-2.16,4.44-.71,5.98,4.36,7.81,1.37,5.15,14.69,2.87,20.66s-8.37,16.81-15.15,12.49c2.1,6.15-5.77,7.87-8.05,1.93l-1.99,4.03c-6.06.22-11.96.32-17.69.29-1.75,5.9-4.5,13.73-6.07,4.02,1.58-3.88,2.14-8.54,5.61-12.5,11.54,1.74,23.87.66,31.35-8.42,3.78-4.59,4.72-12.18,4.25-17.94-28.71-23.87-48.3-53.8-62.15-88.91-8.33,6.89-15.78,13.88-24.08,10.9-12.97-4.65-23.52-13.16-33.12-21.54-5.83.01-11.36-.25-16.6-.79-3.45-4.7-1.16-6.46,6.85-5.26Z"/>
  <path class="st21" d="M190.04,408.07l6.01-1.54c13.83,6.73,27.95,13.38,43.3,15.76l4.15,4.51,11.97,1.17c.66,2.8.15,4.69-1.54,5.66,2.53,9,1.09,21.66-1.71,30.69-.68,2.2-4.04-3.31-4.05-6.29l-3.07-3.45c1.28-6.13,1.57-12.05.87-17.78-18.11-1.33-35.29-8.53-51.86-15.63-6.81,19.49-15.93,27.94-34.45,36.53,1.66,3.56,1.52,6.38-.43,8.46,2.02,3.42,2.89,13-1.48,15.38-6.23,3.39-16.2,2.9-22.77,1.4s-7.03-8.47-7.02-12.89c-1.71-6.22-1.64-15.37.06-22.08,0-1.15-.33-2.83.13-3.96.79,1.29,3.13,2.27,3.52.64.48-2.02,1.62-3.05,2.55-4.65l3.59,3.13c-2.01,9.98-3.44,19.93-1.42,30.02,5.1,3.17,22.33,8.26,18-3.63-5.63,1.82-8.24-3.87-3.84-7.65-5.96-1.36-4.46-13.51,1.43-14.2,1.5-4.89,10.08-9.46,14.24-5.42l.87-4.83c9.87-5.3,14.44-15.77,14.97-26.64l4.07-2.84c.89-5.39,2.2-4.89,3.94.11Z"/>
  <path class="st87" d="M292.28,396.21c6.35.9,11.85,8.91,13.19,16-6.33,19.05-13.68,17.84-32.51,22.93-2.2,4.96.52,16.02,4.96,18.46,11.53,1.19,20.11,6.76,23.44,16.51.77,2.24,1.74,8.18-2,9.03-24.61,5.63-51.93,1.92-51.31-16.95-5.59.02-5.16-2.92.14-4.16.88.63,1.5,1.72,3.12,4.09,2.85-9.15,3.25-18.85,2.64-28.48l5.32.89c-1.08,4.58-2.15,9.06-3.22,13.45,2.8,5.76,3.54,9.96,1.75,17.16,10.4,9.17,25.41,11.94,38.93,8.83-5.71-3.96-11.51-9.48-16.06-14.69-10.35,7.26-12.58-7.09-12.16-15.51-5.83,1.61-6.84-7.79-1.49-9.65-3.99.03-4.93-.5-2.82-1.59-9.49,4.04-14.92-6.14-2.97-5.74,3.28-4.23,19.55-6.44,22.41-.29.07-1.66.44-3.56,1.85-4.17,10.13-4.43,15.34-9.75,4.77-18.14-1.78-3.26-2.47-5.98-2.08-8.14l4.12.18Z"/>
  <path class="st111" d="M100.62,50.79c.17,3.49,1.69,6.61,4.56,9.36-.28,8.35-.33,15.37-.13,21.03l-3.08.78c-3.65.51-6.31-.02-8-1.6l-11.2.89c-22.37-1.7-1.56-9.36,10.63-8.13.64-1.99-1.74-1.98-7.16.02-7.49-8.63-11.35-7.59-20.95-3.76-7.35-3.9-13.18,2.74-16.6,8.59-.77,1.33-3.17,1.05-4.96.54-2.37.8-2.4-4.58-2.02-7.18-1.47-1.54-1.59-2.8-.32-4.12,10.8-11.17,36.39-33.93,51.95-25.2,3.3,1.85,8.72,5.31,7.27,8.78Z"/>
  <path class="st98" d="M108.37,58.05c-3.74,7.6-7.2-2.02-7.75-7.26-3.04-5.95-16.76-10.87-18.98-9.48-13.38,8.37-31.9,16.68-39.92,30.02,1.46,11.89,1.8,23.76,1.02,35.62-3.49,5.37-4.79,12.44-3.89,21.2-1.51,7.01-3.15,7.62-4.9,1.84l.05-29.96c.97-7.22,1.41-14.63,1.32-22.22,1.57-6.05,1.92-11.68,8.14-16.62,20.17-16,39.96-33.37,55.16-17.7,4.15,4.28,9.45,8.8,9.75,14.55Z"/>
  <path class="st86" d="M24.07,226.02c2.96-2.99,12.48-3.19,10.15,1.84-3.59.76-6.85,2.55-9.77,5.37l-4.77-1.66c-1.71,8.6-1.82,17.42-.33,26.44l-1.32,2.11c2.46,2.03,2.22,4.7-.75,8.03l2.6,17.08-4.06,2.69c3.41,9.69,2.63,13.02-2.33,9.98-1.56-9.65-5.06-20.73-4.52-31.71.22-4.43,3.99-9.45,2.49-13.96-.72-2.15-.3-21.71,4.62-25.18,2.34-1.65,5.48-1.07,7.98-1.02Z"/>
  <path class="st122" d="M350.55,188.61c-3.27,8.39-11.92,11.13-21.02,8.98-6.66-1.58-13.34-9.87-13.21-18.3.12-7.66,6.66-17,15.2-17.52,8.2-.5,14.71,1.17,18.7,8.37,2.59,4.67,3.37,10.65.32,18.47Z"/>
  <path class="st31" d="M372.04,380.01c-3.24-1.07-1.2-6.48,2.06-6.15-.21-2.5-1.04-3.87-2.49-4.12-.57,4.69-1.06,9.48-1.47,14.37l-.2,6.9c-.04,1.52-5.15,1.64-5.43.44-2.09-8.94,2.47-17.47,4.59-26.24,3.18-13.11,15.06-21.7,28.01-18.71,1.42,2.2,2.83,6.63,2.42,9l-27.49,24.51Z"/>
  <path class="st72" d="M439.94,363.42c-2.75,1.47-3.79,5.5-5.69,6.21-2.17.82-7.66.98-8.08-.95-1.88-8.68,2.98-14.12,5.61-20.83,1.57-4.01,1.77-8.43,4.26-10.85,3.35-3.24,8.73-2.28,13.08-3.89,5.29-1.95,9.87-5.92,15.36-.22-12.69,11.45-6.98,21.12-24.55,30.53Z"/>
  <path class="st28" d="M453.99,391.78c-4.09,4.04-4.1,3.13-3.77-2.27l-3.68-4.63c-7.62,7.29-15.81,13.65-24.59,19.1l.78,1.62c6.07-1.37,7.6-.56,4.6,2.42l-24.52,8.03c-7.8-4.52,8.94-7.42,27.88-27.64,4.64-4.95,11.92-13.25,18.21-13.88,7.14,2.58,5.13,12.47,5.09,17.24Z"/>
  <path class="st116" d="M101.97,81.96c-8.23,4.32-18.12,3.92-27.98,4.31-6.98.28-12.89,2.19-20.35,2.1-5.08-.06.91,16-7.15,21.84-5.28-4.92-5.08-17.41.43-22.01-1.97-1.49-1.71-4.6.93-4.93,7.55-.03,14.94-.46,22.16-1.28-.18-4.21,2.41-4.55,7.77-1.04l16.2-.6c2.55-1.16,6.65-.8,8,1.6Z"/>
  <path class="st3" d="M361.91,453.36c10.92-.49,13.65,1.75,8.19,6.72-.8.34-1.53,1.33-2.03,1.92-3.79.55-7.26-.1-2.01,0,1.44.03,2.31,2.26,2.72,4.07l-.94,13.99c5.56,2.52,4.14,5.58-1.94,5.58-.72-.5-2.2-.31-1.96,1.19-2.26-.68-5.8-1.01-6.81-2.89-1.34-2.5-1.12-5.42-1.04-7.77.3-8.85-4.17-16.66-8.16-24.3-2.81-2.29-2.1-2.85,2.13-1.69,1.62-5.79,12.33-2.6,11.86,3.18Z"/>
  <path class="st124" d="M35.96,151.93c-.76,13.97-.66,28.09.31,42.36-2.91,3.56-3.96,8.9-3.13,16.02,1.77,5.82.84,9.62-2.79,11.4,2.82,3.69-4.02,4.17-4.47.26l2.14-15.75c-.91-9.39.93-17.32,1.61-26.2,1.11-14.42,1.24-29.96,4.21-42.08,4.68.39,3.78,10.1,2.12,13.99Z"/>
  <path class="st121" d="M43.76,198.01c-.39,1.76-.98,1.71-1.76,0-.81.72-1.41.07-1.8-1.96-5.78-.31-5.11-8.81.13-10.08-1.59-5.63-1.92-15.28,1.53-19.99-1.02-.15-1.97-.39-2.65-.96-1.62-1.35,3.2-36.34,4.27-41.6l2.85.54c0,1.76,2.64,3.21.43,7.05-3.16,5.49,2.05,14.79.62,20.08-2.96,10.92-3.62,18.15-2.01,28.91.8,5.38-1.72,12.6-1.62,18.01Z"/>
  <path class="st97" d="M483.65,235.57c1.13,3.46-4,8.89-6.6,8.6s-6.74-3.77-7.76-7.48l-7.67-27.74c11.11,6.11,18.48,15.74,22.04,26.62Z"/>
  <path class="st56" d="M388.62,427.68l-.58,4.28-7.28,14.8c-3.68,4.95-6.6,6.22-8.75,3.82-3.43,1.55-5.94-.43-7.53-5.94-.75-2.93-1.93-6.3-3.56-10.14,4.49-3.42,9.41-5.3,14.76-5.64,1.94-4.28,4.47-6.01,8.66-3.09,1.81-1.2,3.44-.1,4.29,1.9Z"/>
  <path class="st114" d="M41.95,221.84c8.18,3.06,5.88,6.92,11.59,11.68-.37,9.12-.89,17.93-1.55,26.44l-2.15-.07c-1.62-.25-3.49-.89-3.56-2.15-.39-6.39-.43-12.98-.37-19.34-2.7-2.3-4.2-3.62-1.62-7.2l-4.48-1.5c-3.39,3.72-4.59,3.31-5.58-1.85-2.34-3-6.78-1.78-10.15-1.84.42-1.01,1.66-2.9,1.81-4.04.59.39,1.2.76,2.07.99.73.2,1.85-.75,2.39-1.25,1.93-2.59,4.74-4.29,7.66-5.67-.81-1.48-1.44-3.05-.1-4.15.79-1.67,1.49-1.57,2.1.23.53,2.86,1.18,6.1,1.94,9.71Z"/>
  <path class="st39" d="M46.49,110.2l-.16,13.76c-1.34,2.06-3.78,5.04-3.84,8.3l-.63,33.71c-1.23,4.36-2.54,5.07-3.95,2.14-3.04,1.66-3.6-1.57-1.9-4.12.71-4.14,1.37-8.12,1.99-11.93.73-7.33,1.39-14.68,1.97-22.07-1.96-3.59-.53-22.98,1.2-25.11,2.08-2.56,4.86,2.5,5.32,5.32Z"/>
  <path class="st113" d="M492.56,284.05c-2.36,3.97-2.77,5.24,2.24,5.94l1.45,11.78c.88,6.67-1.7,9.19-6.33,11.19-2.9,1.25-9.82.63-9.32-5.31.68-8.05,4.13-16.47,4.04-24.8-.04-4.08,4.01-4.26,5.22-2.14.55.96,2.21,1.53,2.69,3.34Z"/>
  <path class="st51" d="M253.69,49.82c-1.35.32-2.43,2.69-1.88,4.23.11,1.71-.36,1.66-1.33.05-3.34-.24-6.43-2.31-9.26-6.21-4.85-.9-7.8-2.89-8.85-5.99-1.16,2.68-2.43,4.76-3.8,6.21,1.24,3.43.68,4.72-2.43,2.52.11-2.58-.1-5.33-2.22-6.55,1.82-2.55,2.44-5.84,4.12-7.3,2.48-2.16,6.71.46,8.57.28,9.47-.92,14.02,6.88,17.07,12.75Z"/>
  <path class="st38" d="M396.03,174.06c1.74.48,1.67,1.09-.09,1.81.33,1.51,3,2.86,8.03,4.05,3.87-.97,13.37-2.19,14.45,1.49.85,1.76-.64,2.68-4.46,2.75-21.74-3.7-36.48.5-43.13-6.58,8.76-4.51,16.87-3.76,25.19-3.53Z"/>
  <path class="st9" d="M492.56,284.05c.54,1.99.91,4.21,2.24,5.94-6.02,2.91,1.85,8.87-2.78,16.99-1.03,1.8-4.84,4.03-7.63,2.22l3.11-21.44c.26-1.79,1.01-3.28,1.75-3.69.79-.44,2.77-.38,3.32-.03Z"/>
  <path class="st46" d="M388.04,431.96c-1.19,8.78-4.24,16.8-12.29,21.95-2.29,1.46-3.51,5.25-5.65,6.17.26-.36.36-3.14-.62-3.53-4.46-1.78-8.67-.95-13.75.36.78-5.19,4.58-3.04,6.19-3.55.68-4.74,7.04-6.92,10.1-2.77,14.16-5.57,10.69-20.36,16.03-18.63Z"/>
  <path class="st68" d="M424.03,175.33c4.63,2.35,9.69,4.63,15.18,6.86,2.78,3.78,4.25,7.43-1.32,7.83-.5,6.6-4.79,5.4-12.89-3.62-3.64-1.21-5.82-2.87-6.56-4.98-4.7-1.45-9.22-1.5-14.45-1.49-3.89.14-3.79-1.44.14-2.37,4.63-1.33,9.89-1.99,15.78-1.98.8-.79,3.05-.41,4.12-.24Z"/>
  <path class="st71" d="M40.24,299.56c-1.37.26-3.96-.45-6.38,1.39l16.14,4.66c-3.04.17-7.29-.31-10.1,1.37-4.8,2.87,2.1,15.42-6.07,19.5-2,1-5.09.31-7.87-.37-3.28-5.42-4.25-12.51-2.91-21.25l-1.01-2.91c-.58,1.75-1.28,1.73-2.08.01-1.93.01-6.03-1.42-6.46-4.09,3.79-2.26,2.11-6.75,2.33-9.98,4.9-2.79,5.77.56,6.63,5.1l15.63,2.21,2.16,4.35Z"/>
  <path class="st17" d="M370.16,405.48c3.11,1.71,3.49,2.56-.2,2.95-3.4,3.85-13.41,4.41-17.88,1.41.37,4.89.36,6.86-4.64,4,.02,4.99-1.77,9.69-7.24,10.15-2.78,2.64-2.89,1.49-2.68-2.14,2.09-6.34,6.05-11.76,10.85-14.96,7.24-4.82,15.14-3.22,21.77-1.41Z"/>
  <path class="st29" d="M108.37,58.05c.4,7.68.56,16.76-3.32,23.13-1.06-.66-4.16-3.05-4.25-4.66,5.48-15.9-3.94-23.22-.18-25.73,1.83,3.58,3.75,7.65,7.75,7.26Z"/>
  <path class="st81" d="M452.13,275.67l.52,6.4c-3.19,7.72-2.79,11.01,1.2,9.89,1.26-5.19,2.99-4.76,3.83.47,0,2.13-2.49,6.2-4.53,6.99-3.1,1.12-12.36-4.19-10.8-7.72l9.17-20.76c4.14.69,4.46,3.23.61,4.72Z"/>
  <path class="st108" d="M418.43,181.41c15.13,4.67,11.57,12.73,19.45,8.6,3.62-3.06,6.23-.33,6.1,3.99-2.31,2.75-6.92,4.13-10.06,3.12-7.87-2.52-4.68-10.36-19.95-12.96.84-1.73,2.59-2.38,4.46-2.75Z"/>
  <path class="st32" d="M368.06,462l.71,4.07c-.78-.44-3.01-.54-3.93.29l-1.54,15.63h-2.86s-1.35-19.21-1.35-19.21c-.07-.95-5.31-5.87-1.84-4.67,3.77,1.31,8.36-1.05,10.62.88.6.51.06,2.27.19,3.01Z"/>
  <path class="st125" d="M457.68,292.43l-3.83-.47c-3.48-.73-3.92-4.2-1.32-10.38l-.41-5.91c-.32-.94-.2-2.64-.61-4.72,1.37-3.1,2.02-7.93,6.24-6.69l-.08,28.17Z"/>
  <path class="st2" d="M377.57,165.47c-6.03.45-11.2.7-18.08,2.76,1.65-8.4,13.84-13.5,18.25-9.37.63.6.61,5.48-.17,6.61Z"/>
  <path class="st123" d="M407.03,313.85c2.64.1,7.19,7.23,6.85,8.97-.24,1.23-7.9,7.01-10.11,6.25-2.79-.96-5.25-2.76-5.68-4.5-1.06-4.36,5.84-10.83,8.94-10.72Z"/>
  <path class="st4" d="M443.99,194c-2.56-.33-4.45-2.1-6.1-3.99.73-2.46.93-5.92-.79-8.04-3.09-3.8-14.79,1.46-13.07-6.65,6.01.95,12.86,1.84,17.54,6.97,3.37,3.7,5.44,8.11,2.42,11.71Z"/>
  <path class="st47" d="M388.62,427.68c-1.49.53-4.07-.05-4.29-1.9-3.29-.56-5.91-3.13-7.88-7.72-4.76-2.92-6.92-6.13-6.48-9.63l.2-2.95c10.23,2.8,16.59,11.86,18.46,22.2Z"/>
  <path class="st23" d="M43.74,78.51l4.07,2.07c-1.84,2.32-2.14,4.86-.88,7.62.16,6.82-.52,14.81-.43,22.01l-3.79-3.19c-2.42,7.33-2.79,15.21-2.73,22.98-.7,7.33-1.36,14.69-1.97,22.07.02,3.98,1.29,9-1.99,11.93-2.06-2.34-1.4-8.69-.05-12.06-.02-4.64,1.28-10.25-2.12-13.99.89-1.81.1-5.88.11-7.95.87.21,2.2.21,2.92-.09,1.56-.64.55-2.99.63-4.05l4.22-54.52c-1.38,2.91,1.71,5.34,2.02,7.18Z"/>
  <path class="st107" d="M419.9,175.57c-3.77,3.72-10.61,3.23-15.78,1.98-2.55,1.53-6.98,1.2-8.17-1.68l.09-1.81c7.9.22,16.17-1.15,23.87,1.51Z"/>
  <path class="st74" d="M443.27,402.13l-15.94,5.89c-.2-1.63-2.05-2.24-4.6-2.42,1.88-5.13,14.28-12.65,18.74-6.81,5.04-1.79,5.47-.63,1.8,3.34Z"/>
  <path class="st52" d="M94.53,249.91l.17-37.66c.64-.03,1.41,1.47,1.41,3.61v30.28c0,2.15-.78,3.65-1.58,3.77Z"/>
  <path class="st45" d="M350.05,450.18l-2.13,1.69c-5.88-.56-8.46-6.66-9.92-11.76-1.16-3.34-1.56-5.56,2.14-4.08,4.7,1.87,9.42,9.16,9.91,14.15Z"/>
  <path class="st8" d="M453.99,391.78c-.05,6.49-4.54,8.07-10.72,10.35l-1.8-3.34c-1.24-4.66,4.79-7.89,8.75-9.29l3.77,2.27Z"/>
  <path class="st6" d="M54,262l-.03,2.01c-1.62-.63-2.14-2.36-1.99-4.04.78-8.63-1.91-17.74,1.55-26.44,2.39,9.23,1.66,19.13.47,28.48Z"/>
  <path class="st13" d="M340.21,423.99c4.82-.1,5.64,11.58-.07,12.03-1.69.65-2.3,2.35-2.14,4.08-3.96-5.46-2.34-12.57-.47-18.25l2.68,2.14Z"/>
  <path class="st10" d="M25.96,326.13c-1.21-.3-3.92.15-3.92-2.14-1.78-6.67-1.75-15.73,0-22.02,4.62-.03-.59,11.61,3.92,24.16Z"/>
  <path class="st106" d="M54,262l-.47-28.48c3.51,3.04,3.75,19.85.47,28.48Z"/>
  <path class="st66" d="M365.89,485.64c.81-1.57,1.81-3.65,1.94-5.58l12.52,2.92c-4.66,4.92-9.96,3.02-14.45,2.66Z"/>
  <path class="st94" d="M42,198c1.54,5.73,1.67,13.89,0,20l-.05,3.84c-3.49-1.3-1.98-6.97-1.94-9.71-1.31-4.15-1.51-12.44.2-16.09.8.47,1.41,1.15,1.8,1.96Z"/>
  <path class="st1" d="M374.1,373.87c-1.24,1.78-1.26,4.42-2.06,6.15l-1.9,4.1c-5.02-4.53.14-10.05,1.47-14.37,4.16-.45,4.35.61,2.49,4.12Z"/>
  <path class="st91" d="M22.04,323.99c-1.38-.2-2.16-1.69-2.15-3.82l.07-18.19h2.08s0,22.01,0,22.01Z"/>
  <path class="st77" d="M34,100.03c.01-7.65-.6-14.81,1.32-22.22l.79,18.35c0,2.13-.78,3.62-2.11,3.87Z"/>
  <path class="st41" d="M209.41,252.14c-1.3-7.02-2.85-15.44.48-22.16l-.48,22.16Z"/>
  <path class="st100" d="M127.95,470.07l-1.96-.07-.09-18.17c-.01-2.13.76-3.61,2.11-3.85l-.06,22.08Z"/>
  <path class="st110" d="M42,218v-20s1.76,0,1.76,0l.29,16.09c.04,2.26-.7,3.66-2.04,3.9Z"/>
  <path class="st57" d="M175.43,87.08c5.78-1.05,14.16.35,14.65,6.94l-2.15,7.12c-41.07,37.27-61.53,96.05-51.37,150.3l-3.2,4.95,5.26,6.36c1.42,11.21,4.57,21.22,9.45,30.01-.58,1.24-1.2,2.23-1.95,2.33-11.75,1.71-27.7,1.78-39.19-1.16-.79-.2-1.32-1.47-1.76-3.03l2.38-5.12c-14.87-62.67,1.59-133.58,42.3-180.26,7.76-7.15,16.87-12.71,25.57-18.45Z"/>
  <path class="st43" d="M105.18,290.9c-.37-1.91-.69-4.29-.96-7.15-2.03-22.15-6.12-44.4-3.72-67.46,3.97-38.28,22.67-86.19,49.36-110.76,2.3.35,2.31,2.01,1.03,2.98-9.91,7.55-14.9,17.32-20.57,28.19-14.61,28.01-24.15,58.94-26.11,91.2-1.41,23.2,5.99,62.95,6.97,61.26-.86,1.48-4.58,1.07-6.01,1.75Z"/>
  <path class="st89" d="M36.01,260.03c-2.13.84-5.07,1.32-8.83,1.42l2.85,3.41c-2.51,2.47-1.13,19.2-.27,20.09,1.13,1.16,12.77,1.43,15.62,1.32-.56-9.45,1.78-14.91,7.03-16.37,2.33,1.9,4.21,3.33,5.72,6.04-1.5,7.09-2.65,13.88-3.45,20.4,3.24,4.15,2.1,4.73-2.82,3.43-3.86,1.42-7.55.36-11.61-.21l-21.07-2.98c-1.12-2.32-.81-7.56-3.35-8.67.45-6.62-1.44-12.71-2.47-19.97,0-2.94,3.78-5.97,4.67-7.83,1.24-5.38,1.64-4.68,4.04-.08-2.05-8.3,15.4-5.87,13.94,0Z"/>
  <path class="st105" d="M236.11,60.13l-.76,4.26c-7.45,6.44-13.39,14.25-17.84,23.43l-4.54-.04c-6.2,2.5-12.45,5.36-18.77,8.59l-4.13-2.35c-5.11-1.28-9.93-3.42-14.65-6.94,7.97-5.25,18.78-3.95,27.56-8.84,10.15-5.66,15.62-19.8,23.15-27.6l2.43-2.52c3.62,2.51,9.59,7.87,7.55,12.02Z"/>
  <path class="st30" d="M47.52,265.63c2.43.68,3.37,3.04,4.89,4.28-2.29,5.92-2.5,12.22-3.4,20.05-7.75,1.19-15.43-.22-23.3-1.68l-1.37-20.51,2.86-6.32c7.09-.76,15.94-1.64,20.34,4.18Z"/>
  <path class="st118" d="M170.46,290.23c-18.53,11.1-54.26,12.35-74.91,6.6-.76-.21-1.33-1.14-1.83-2.28,2.41-2.25,5.19-3.12,8.41-4.53,2.62-1.16,2.66-4.52,2.09-6.27.15,1.66,2.8,3.85.96,7.15,14,2.6,28.96,4.39,42.9,1.86l3.69-4.86c2.51-1.36,26.89-11.15,28.42-11.24,13.83-.84.17,19.53-9.72,13.56Z"/>
  <path class="st62" d="M93.72,294.55c23.39,5.74,54.41,5.88,76.74-4.32,4.22,7.67-10.98,11.94-17.37,13.14-4.04.76-11.99,1.69-13.79-1.89l-25.46-.53c-12.59,5.66-31.96-1.3-44.86-6.83-1.85-.79-2.47-3.45-2.91-5.62-3.1-2.99-2.13-4.38,1.9-2.84,7.66,5.34,17.1,6.77,25.74,8.89Z"/>
  <path class="st85" d="M44.28,231.21c.78,1.87,5.44,3.61,5.46,6.88l.09,21.81c0,.65.04,1.52-.26,2.06-2.03,2.73-7.58,1.46-6.77-2.04-2.13-7.43-4.89-14.66-8.28-21.69-.13-5.56,6.2-12.56,9.76-7.03Z"/>
  <path class="st84" d="M67.98,285.66c-.91.67-1.86,1.85-1.9,2.84,5.68,3.49,4.64,6.29-1.77,7.43-3.9,3.65-5.15,3.22-5.71-2.09-1.15-.34-2.19-.78-2.85-1.55-1.22-1.42,1.12-13.52,2.39-16.34,2.21,3.96,6.14,7.12,9.85,9.7Z"/>
  <path class="st88" d="M42.8,259.92c2.07,1.22,4.41,1.86,6.77,2.04l-2.04,3.67c-6.4-1.79-12.96-3.07-20.34-4.18,2.11-3.38,6.45-1.25,8.83-1.42-1.74-2.31-1.09-3.84,1.69-4.46,2.05-1.88,3.75-.43,5.09,4.35Z"/>
  <path class="st92" d="M203.68,252.21c5.11,30.48,13.14,60.42,32.24,85.56,2.45,7.9,15.85,21.05,24.41,24.51,9.58,7.75,16.04,18.56,22.06,29.37-.87,1.63-1.56,1.49-2.06-.34-1.16,1.06-3.08,2.5-3.99,1.83-9.45-6.86-25.62-20.8-33.65-29.15-5.44-3.09-7.51-6.64-6.19-10.65-11.58-1.51-21.66-19.87-25.43-30.35l1.81-5.33c-6.81-3.9-11.3-10.82-13.47-20.78-6.17-25.88-9.25-38.83-9.25-38.83,2.41-3.09,3.52-7.3,3.33-12.61-3.59-.92-2.48-8.38,2.01-7.32.34-8.01,3.13-11.54,8.36-10.59,0,0-.06,8.22-.17,24.67Z"/>
  <path class="st129" d="M221.97,98.34c3.76,10.7,3.11,22.22.46,33.89l-8.48,37.36c.35,9.62-9.31,14.79-16.08,8.82-1.43-.61-3.52-1.67-3.36-2.78.43-2.96,8.13-30.69,9.2-31.96s2.95-1.45,4.62-1.58l-2.47-5.66,3.83-17.78c-.55-9.04.81-16.69,4.09-22.96.13-3.37.63-4.1,1.49-2.21-.51-7.42,7.07-10.65,5.61-1.3l1.09,6.15Z"/>
  <path class="st78" d="M236.11,60.13c2.74-4.55,12.27-2.49,10.02,3.63l-23.16,25.39c-2.11,2.32-1.1,7.1-1,9.18-.85-2.43-2.5-4.28-1.81-8.99-3.78,1.36-2.83,3.35-3.06,4.94-.17,1.2-1.8,2.19-3.32,1.4-5.92-.95-6.61-5.98-.81-7.92,6.03-11.17,16.33-27.42,23.14-27.65Z"/>
  <path class="st65" d="M288.16,396.03l10.48,11.35c3.95,4.27-.41,10.17-2.59,13.42-3.25,4.85-7.38,5.31-12.43,5.7-6.45-1.04-7.7-12.15-1.32-14.21-.89-2.64-.34-5.36,1.63-8.18-6.82-5.19-8.02-9.45-3.6-12.79l2.06.34c.96,2.04,4.49,3,5.77,4.38Z"/>
  <path class="st83" d="M206.15,218.07c-2.23,11.19-2.65,22.55-2.46,34.14-1.17-6.96-3.23-13.2-.78-23.56l-7.41,9.48c-3.77,1.02-4.02-.55-.41-2.37-6.72-2.07-5.88-17.51.19-20.04.33-5.62,2.39-6.96,7.17-3.79,2.38-.83,3.62,1.22,3.7,6.15Z"/>
  <path class="st93" d="M209.73,200.08c-2.4-1.09-2.63-4.16-.67-9.19l-.36-7.18c-1.66,5.83-10.02,7.95-14.7,4.5-.16,3.58-1.36,4.83-4.44,2.95-7.03-4.29,1.88-19.43,8.3-12.75l13.02-3.47c2.04-.54,2.34-4.24,3.06-5.35l-1.89,24.58c-.21,2.73.12,5.2-2.32,5.91Z"/>
  <path class="st130" d="M250.47,54.1c.3-.19.9-.16,1.33-.05.54,1.53,2.07,4.2.79,5.77-1.44,1.76-5.05,2.39-6.47,3.94-2.31-2.32-6.6-3.75-10.02-3.63-2.76-3.92-5.42-7.8-7.55-12.02-.46-2.84.86-6.1,3.8-6.21,2.36,1.92,4.42,4.61,6.16,8.05,4.38,1.03,8.36,2.42,11.95,4.15Z"/>
  <path class="st103" d="M209.73,200.08l-3.59,17.99c-1.36-1.31-3.77-4.11-3.7-6.15-5.85-1.9-4.26-12.55,1.34-13.84-2.88-4.16-.01-12.44,4.91-14.37,2.49,5.04,2.07,11.19,1.03,16.37Z"/>
  <path class="st53" d="M260.33,362.28c-.03,1.6-2.5,2.48-3.65,1.33l-22.28-22.28c-1.21-1.21-.34-3.62,1.52-3.56,6.79,8.94,15.57,17.36,24.41,24.51Z"/>
  <path class="st95" d="M204.42,381.38c.7,7.6-15.76,17.79-18.42,6.66l-1.66.33c-1.56-5.92-2.35-6.67-2.37-2.25-1.3,2.56-4.08,3.36-8.34,2.41l-2.46,1.07c.97,4.57,0,6.79-2.92,6.65-10.44-7.8-18.47-17.92-26.44-27.99-1.03-3.45-1.43-6.51-1.2-9.2,8.93-3.66,14.72-9.48,17.36-17.46l3.76-3.47c8.2,3.88,15.43,10.15,21.68,18.8,9.65,7.14,16.66,15.29,21.03,24.46Z"/>
  <path class="st109" d="M152.52,313.58c7.3,2.57,10.39,14.56,9.71,22.02,4.02.43,3.67,2.14-.52,2.52,2.07,10.6-8.77,19.89-18.38,23.2-.73,1.44,1.57,6.43-1.53,6.93-7.85-9.94-15.38-20.09-20.05-31.88-1.76-5.02-1.61-8.84.45-11.48,9.56-7.07,19.67-10.84,30.33-11.31Z"/>
  <path class="st126" d="M64.3,295.93c6.7-.81,13.99.62,21.87,4.27l21.51,3.81,2.36,2.75c15.12-1.02,30.15-2.03,45.08-3.04l31.69-9.75c10.48,4.58,4.02,8.37-3.43,12.66-7.08,4.08-21.22,11.32-27.2,4.87-14.12,4.39-27.48,7.73-42.37,4.86-1.03-2.6-3.95-4.38-6.59-4.13-2.95.28-4.84,2.4-7.5,3.65-15.67,3.83-30.75-5.66-43.55-14.22l-4.31-1.88,2.82-3.43c-1.17-4.21.84-5.95,3.91-2.51,1.82.29,4.04,1.22,5.71,2.09Z"/>
  <path class="st50" d="M153.89,435.69c4.81,3.03,3.79,10.67-1.93,12l-1.43,14.2-.91,4.78c-7.74,3.21-.88,5.03,4.75,2.87.95,1.9,2.08,3.58,1.84,5.5-.62,4.99-20.22,5.3-22.69-.46-4.73-11.04-.7-23.78.69-34.56,1.06-1.82,2.27-4.06,5.79-4.11l13.89-.21Z"/>
  <path class="st25" d="M181.96,386.11c4.12,4.52,6.96,16.55,4.15,21.85.07,14.88-6.07,28.52-19.91,34.31-5.29.7-8.13-4.73-4.27-8.52,11.67-7.49,15.26-20.18,12.28-33.15-3.52-2.9-4.81-10.41-.6-12.09-.09-1.68,1.12-3.89,2.95-3.98,1.57-.08,3.49.98,5.4,1.57Z"/>
  <path class="st112" d="M156.17,311.5c3.03,5.31-.31,7.19-3.65,2.08-3.65,0-7.47,1.31-10.4,4.57l-17.89,10.16c-2.66,1.51-2.59,5.87-2.49,8.06l-7.94-20.01.34-3.54c14.02.8,28.04.49,42.03-1.32Z"/>
  <path class="st61" d="M99.71,315.88c-3.27,1.53-8.98,6.86-13.72,5.98-11.77-3.62-22.66-11.37-29.83-20.2l31.52,11.1c4,1.41,9.9-.65,12.03,3.12Z"/>
  <path class="st115" d="M161.94,433.76c1.94,2.7,3.3,5.18,4.27,8.52-4.32,1.81-8.57,5.91-14.24,5.42.4-3.99.77-8,1.93-12,2.48-.04,6.2-.75,8.05-1.93Z"/>
  <path class="st7" d="M173.62,388.52l.6,12.09c-2.81-.44-4.15-2.99-5.98-4.36,1.4-4.02-1.1-7.51,2.24-13.1l3.14,5.37Z"/>
  <path class="st99" d="M214.16,385.99c5.55-2.14,6.15.47.68,2.86,10.83,9.81,24.88,14.48,38.62,18.7,1.65,3.22,1.36,7.16-.88,11.83,8.37-.47,11.83,1.95,10.38,7.27-4.57-.5-7.31.59-8.22,3.26,0,0-3.74-1.03-11.23-3.1-19.09-1.65-36.4-10.51-53.46-18.74-3.52-3.47-5.42-15.09-4.05-20.04,6.57,4.34,9.59-2.18,18.42-6.66,4.37-3.91,10.41-1.65,9.74,4.61Z"/>
  <path class="st73" d="M282.3,412.28c-.31,4.95.48,9.37,1.32,14.21l-27.69,2.1c3.25,2.63,6.32,1.13,8.86,1.43,1.99.23,1.96,2.45,2.21,4.1.26,2.97-1.33,5.07-4.75,6.3.48,4.24-.9,6.75-4.12,7.53-.58,1.75-1.28,1.74-2.1.03.63-4.76,1.65-10.37-2.1-14.33-.31-4.84-6.01-6.45-10.42-6.83l18.84-1.53c-4.38-2.38-8.9-1.58-14.41-.9.17-6.41,2.32-10.95,3.88-15.81-14.14-4.93-28.45-9.2-36.98-19.73,5.78-.79,11.69,1.04,17.74,5.48l27.04,9.24c9.73.67,17.29,3.57,22.68,8.72Z"/>
  <path class="st37" d="M154.37,469.54l-.83,6.81c-4.91-2.09-8.95-3.26-14.66-3.61,2.37-6.89,6.95-8.82,11.66-10.86l3.84,7.65Z"/>
  <path class="st15" d="M185.99,388.04l4.05,20.04-3.94-.11c-.03-7.42-2.04-14.61-4.15-21.85-.54-1.13-1-1.75-1.39-2.26-.81-1.05.06-1.81.69-1.96,1.05-.24,2.48.44,3.05,1.87l1.69,4.27Z"/>
  <path class="st35" d="M258.07,452.25l10.95,1.38c3.13,8.88,7.59,14.27,13.39,16.18l1.68,4.06c.86-6.09,10.95-5.45,12.62.09-13.69,4.67-32.47,4.42-43.24-6.76l2.56-19.24,2.1-.03c5.6-.13,5.21,2.91-.06,4.3Z"/>
  <path class="st102" d="M280.64,459.28c9.64,7.97,10.79,12.83,3.44,14.6-11.58-.08-13.4-6.34-17.08-20.67-3.95,1.51-8.42.9-8.93-.95l.19-2.66c3.81-.9,7.22-2.84,10.22-5.82,1.55,10.05,2.7,12.75,12.16,15.51Z"/>
  <path class="st76" d="M268.49,443.77l-.67,8.68-9.74-.19.06-4.3c.03-2.69-.74-6.81.9-9.78,1.14-2.07,5.1-3.21,7.98-4.06l1.49,9.65Z"/>
  <path class="st0" d="M296.71,473.97l-12.62-.09c4.48-8.5-10.78-12.59-3.44-14.6,7.59,1.3,15.78,6.29,16.06,14.69Z"/>
  <path class="st75" d="M93.98,80.36c-7.64,3.48-15.95,1.07-23.97,1.64-7.23.76-14.61,1.19-22.16,1.28.57,1.84-.78,3.81-.93,4.93-4.7-1.08-2.7-6.73-3.19-9.68,1.27-1.22,2.17-2.8.98-5.37,14.52-10.07,28.58-19.94,46.3-24.34-7.83,8.98-18.49,9.3-25.98,15.21-1.56-.22-2.02,1.28-1.49,1.98l29.3-10.26c-.08-.18.2.55,1.18,1.35-5.13,2.22-10.09,4.16-14.6,8.31l11.08-1.09-6.08,4.86c4.48.44,8.14-2.13,10.78-5.56,2.44,4.93,2.51,8.93,1.78,13.31l-23.21,1.93c6.76,2.37,13.53.81,20.19,1.51Z"/>
  <path class="st117" d="M34.22,227.86l.14,1.73c-4.51,2.59-5.16,5-4.43,11.5.68,5.98,1.83,10.61,7.81,8.63,3.55.33,3.21,5.11-.04,5.85.8,1.57.56,4.3-1.69,4.46-3.81-3.55-9.47-1.63-13.94,0l-2.32-.78c-2.02-9.1-2.05-18.33-.07-27.69,3.74-3.26,9.35-3.73,14.54-3.71Z"/>
  <path class="st70" d="M22.07,260.03c-1.14.41-3.15.01-4.04.08-3.81-9.76.01-27.12,1.65-28.55.73-.22,1.54.24,1.57.79-1.72,9.46-2.55,19.18.82,27.68Z"/>
  <path class="st48" d="M332.01,165.69c6.35,2.27,11.21,4.25,14.59,5.96,3.44,5.02,3.33,11.66-.27,16.56-14.53,3.43-24.8,1.13-23.3-16.65,2.12-3.05,5.34-5.15,8.98-5.87Z"/>
  <path class="st63" d="M346.33,188.21c-4.64,6.32-13.5,7.74-19.87,3.18-6.38-4.56-7.91-13.4-3.43-19.83,4.25,9.46,6.88,16.76,14.55,13.87,4.13-1.55,6.64-.81,8.75,2.78Z"/>
  <path class="st96" d="M346.6,171.64c-.27,2.66-2.16,2.41-2.76,1.37-4.07-7.14-10.6-.64-11.83-7.32,5.62-1.11,11.35,1.23,14.59,5.96Z"/>
  <path class="st14" d="M374.1,373.87c-1.62-.57-2.32-2.36-2.49-4.12,3.03-9.9,7.92-19.55,20.55-20.32,2.55-.16,3.96,1.47,4.16,3.42.18,1.73-14.66,10.12-22.23,21.02Z"/>
  <path class="st79" d="M447.84,352.25c-3.39,6.29-11.31,8.96-17.44,13.86-1.04-5.3.34-9.47,3.38-12.13,2.13-1.57,3.51-4.61,4.13-9.11,5.38-9.67,20.89-9.85,10.17,3.31l-.24,4.07Z"/>
  <path class="st80" d="M447.84,352.25c-2.08-.68-2.11-3.2-1.38-4.69.91-1.86,1.68-3.22,4.19-6.25-2.43-1.95-5.67-1.37-8.13.17-5.22,3.28-3.33,16.83-8.74,12.51,1.67-4.03,1.61-14.06,6.66-15.35l17.1-4.38-9.71,18Z"/>
  <path class="st55" d="M450.22,389.5c-.1,5.16-3.72,7.46-8.75,9.29l-18.74,6.81c-2.74,1-5.43,2.68-8.94,1.7,15.02-8.66,23.25-23.82,37.03-29.17,1.08,5.02-.53,8.23-.6,11.38Z"/>
  <path class="st26" d="M70,82c-.23,1.35-1.71,2.12-3.84,2.1l-18.32-.83c7.18-2.85,14.76-.76,22.16-1.28Z"/>
  <path class="st11" d="M349.64,423.66c3.22,2.91.92,5.62-1.66,8.33,5.33,2.53,9.87,5.87,13.61,10.03,2.2-1.38,3.5.26,2.88,2.63l12.07.05c-2.31,1.71-3.89,2.23-5.49,3.09-.82.44-1.62,2.22.96,2.8-2.92,1.15-6.5,3.74-10.1,2.77l-11.86-3.18c-5.4-1.45-9.95-8.42-9.91-14.15l.07-12.03c.03-4.52,4.06-7.55,7.24-10.15,4.35-1.03,6.53,8.19,2.2,9.82Z"/>
  <path class="st34" d="M36.01,163.99c0,1.43,1.41,3.03,1.9,4.12l1.86.86c-.79,6.04-.6,11.71.56,16.99l-.13,10.08-.2,16.09-2.1-.23c-1.73-10.42-1.47-1.69.1,4.15.04,1.78.85,4.99-1.2,6.31-1.51.97-4.79-.02-6.46-.64-1.51-12.25,3.04-28.78,3.21-41.95l.3-23.85c.03-2.3.79-3.66,2.1-4l.05,12.06Z"/>
  <path class="st16" d="M40.33,185.96c-.86.29-2.27-.33-2.28-2.06l-.14-15.78,3.95-2.14-1.53,19.99Z"/>
  <path class="st128" d="M480.36,233.75c1.82,2.53-2.22,7.2-4.67,6.82-3.43-5.5-4.77-11.83-5.63-19.09,4.4,3.16,6.36,6.8,10.3,12.27Z"/>
  <path class="st27" d="M369.96,408.43c7.08,3.27,13.45,9.62,14.37,17.35-1.46.99-3,1.9-4.31,3.28s-1.07,3.87-.16,6.71c-4.42-1.91-7.8-3.24-11.73-2.91,2.79,1.82,3.93,3.85,2.83,5.81l-4.28-2.55c-1.17-.7-4.04.63-3.55,1.35l2.7,3.99c.56.83.43,2.71-1.35,3.19-1.01,0-2.25-1.92-2.88-2.63-3.9-3.33-8.43-6.68-13.61-10.03-.24-1.21-1.96-2.66-1.4-4.44.5-1.61,2.14-2.96,3.06-3.89l2.31-4.02c-1.93-3.92-1.88-7.18.13-9.79,5.21-2.6,12.22-4.03,17.88-1.41Z"/>
  <path class="st69" d="M44.28,231.21c-3.92-.01-5.68,2.58-6.4,5.92-.84,3.9,2.13,5.66,4.38,9.22l.54,13.57c-2.15-.87-3.93-2.4-5.09-4.35-.81-1.6.25-4.45.04-5.85-8.4,5.4-11.63-18.71-3.38-20.13l-.14-1.73c3.32,2.74,5.04-3.3,8.52-1.46,1.25.66,1.29,3.05,1.54,4.8Z"/>
  <path class="st19" d="M37.91,211.9l.1,4.15c-3.11-1.34-1.73-10.59-2.76-21.32,5.56,5.8,2.53,12.04,2.66,17.17Z"/>
  <path class="st119" d="M38,152.07l-.1-18.24c-.01-2.12.76-3.61,2.07-3.83l.13,18.17c.02,2.12-.76,3.61-2.1,3.9Z"/>
  <path class="st127" d="M250.47,54.1c-3.74,2.39-9.39,1.96-13.12-.16-4.29-2.44-6.59-7.53-4.99-12.04,8.38-.32,15.86,3.87,18.11,12.2Z"/>
  <path class="st18" d="M395.95,175.87c3.34-.1,5.43,1.01,8.17,1.68l-.14,2.37-16.2.02c-1.58,0-3.46-2-3.78-3.73l11.94-.34Z"/>
  <path class="st12" d="M32.99,301.9c1.46,7.97.29,14.92-3.53,20.85-4.96,1.97-3.09-7.89-3.73-21.23,2.89-.61,4.57-.14,7.25.38Z"/>
  <path class="st20" d="M29.46,322.75c2.73-7,2.96-13.96,3.53-20.85,2.2,9.63,2.33,18.52-3.53,20.85Z"/>
  <path class="st56" d="M349.64,423.66l-2.2-9.82c1.6-1.31,2.51-2.93,4.64-4,1.85,4.75,2.4,9.56,5.85,14.84-4.7,1.32-5.99-.71-8.3-1.02Z"/>
  <path class="st59" d="M453.85,291.96c-.42,2.55-2.51,3.92-3.94,3.07-8.16-4.85,1.78-8.78,2.21-19.36,3.62,4.27,1.92,10.88,1.72,16.29Z"/>
  <rect class="st42" x="401.86" y="318.56" width="7.84" height="6.4" transform="translate(-111.92 335.08) rotate(-39.89)"/>
  <path class="st101" d="M212.97,87.78c-.2,2.06.51,5.69.81,7.92,2.14,15.94-.66,31.23-5.46,46.39-3.77,2.2-8.38,2.71-13.82,1.54-9.91,2.64-18.31,9.64-25.2,20.99l-4.8-.6-7.54,3.14c7.4,2.55,10.91,6.59,10.54,12.13,4.35,3.33,2.03,11.03-3.78,10.6,2,3.45,1.81,7.65-.56,12.6.96,4.47.64,8.05-.99,10.75,14.4-.16,6.64,19.1-4.37,16.78l-2.96.95c-4.86-4.78-7.93-3.61-9.21,3.49,6.01-2.43,8.85,5.34,2.23,7.48,1.67.8,1.58,1.18-.27,1.14,2.43,7.86.58,12.8-5.55,14.81-3.85-1.43-6.73-1.92-8.66-1.49-2.18-12.7-4.87-26.38-3.6-40.44,1.73-19.12,7.29-36.45,11.24-55.16,12.22-25.59,27.72-49.26,49.07-66.78l11.78-6.17c3.79-1.99,7.81-1.61,11.11-.07Z"/>
  <path class="st82" d="M154.23,251.75c7.68-2.86,23.91-.69,32.26,3.13,1.44-5.29,3.78-8.43,7.01-9.43.16,25.76,7.98,49.47,19.39,72.21,4.34,9.34-11.69,15.26-19.63,15.86-7.76-2.64-16.06-3.32-24.91-2.03-1.14,3.26-2.07,4.76-6.11,4.11-3.95-7.04-8.18-14.16-9.71-22.02,1.55,0,2.9-.12,3.65-2.08,11.51-1.49,23.79-6.07,34.48-14.52l-34.99,10.67h-25.51c-7.71,0-13.74-.73-20.12-.89l-1.73-2.23c2.13-1.21,3.98-2.41,5.54-3.58l32.43-.96c8.76-.01,19.04-3.62,24.19-9.76,3.69-4.39,10.93-3.53,13.51-11.08-12.5,6.53-23.42,11.35-35.9,13.61l-6.52-.57c-3.13-12.18-6.14-23.83-8.2-35.8-.58-2.43.89-4.57,3.22-3.79l5.65,1.9c3.15-3.55,3.52-8,5.35-11.42,5.28.88,7.32,3.88,6.65,8.67Z"/>
  <path class="st33" d="M58.59,293.84c-1.2-.02-3.15,1.57-3.91,2.51-3.07.12-1.48-15.32,3.45-20.4-.09,5.96-.45,11.89.46,17.89Z"/>
  <path class="st22" d="M113.84,300.94l26.36,1.88c-13.06,3.57-27.47-2-30.17,3.94-15.82-.4-31.56-3.48-45.73-10.84,1.29-2.37,1.66-4.88,1.77-7.43,14.78,8.13,31.39,11.28,47.77,12.45Z"/>
  <path class="st44" d="M236.5,353.35c-1.25,3.22-3,4.65-6.25,4.21-.81,7.36-4.38,24.63-10.54,28.93-1.45,1.02-3.73.22-5.55-.5-2.86-2.09-7.31-2.58-9.74-4.61-15.67-13.07-30.38-26.86-42.7-43.26.27-.65.6-1.99.52-2.52,1.24-2.05,1.62-3.51,2.18-8l22.49-.62c6.45,2.13,7.98,4.97,14.73.13,3.4-2.44,10.01-3.55,11.25-9.45,6.51,12.98,12.53,26.09,23.62,35.68Z"/>
  <path class="st58" d="M236.5,353.35l43.83,37.96c.07,4.08,3.48,7.03,6.51,10.3s-1.63,9.34-4.54,10.68c-23.65-4-47.9-9.85-67.46-23.44,1.44-1.65,0-2.37-.68-2.86,7.21-4.47,12.02-20.04,12.1-31.87,3.97-.91,6.72-.5,10.24-.77Z"/>
  <path class="st131" d="M157.79,230.02c4.75-1.39,10.42-.81,17.03,1.73l17.08.18,3.19,3.83.41,2.37c-1.34,1.42-1.04,5.59-2.01,7.32-1.93,3.47-2,7.61-1.43,11.72-2.96.35-4.26-2.07-5.57-2.29-9.44-3.44-19.62-4.98-30.53-4.62,2.37-.05,1.79.45-1.73,1.49-3.61-.35-5.76-5.67-6.65-8.67.18-.34.24-.75.27-1.14l10.73-1.91-12.95-5.57c-2.15-1.99-2.43-4.17-1.71-7.04.45-1.79,1.89-6.15,5.26-4.28,3.15,1.76,5.97,5.15,8.63,6.88Z"/>
  <path class="st90" d="M208.32,142.09l-10.46,36.32c-3.08.82-9.29,6.97-6.53,9.57.5.47,2.2.1,2.67.23,5.47-1.41,9,.33,6.02,5.9-4.67,6.24-5.6,12.14-2.79,17.7l-1.95,3.9c.13,6.63-1.08,13.24-.19,20.04-12.91.71-26.15,1.52-37.29-5.74,1.47-3.03,5.94-5.07,7.71-8.16,2.21-3.85-1.86-6.8-3.34-8.62,6.03-8.05,11-15.15,1.55-23.35,1.28-2.66,1.6-7.61,3.78-10.6l2.41-3.17c-6.85-4.24-8.66-8.27-5.41-12.09l16.61-18.88c6.75-7.24,19.28-6.44,27.22-3.06Z"/>
  <path class="st54" d="M200.02,194.12c3.88-4.29,6.38-.72,3.77,3.97.17,4.65-1.18,9.23-1.34,13.84-2.26,1.48-4.24,2.93-7.17,3.79-3.13-3.32-4.39-7.59-3.61-12.66.68-4.46,2.73-9.13,8.35-8.93Z"/>
  <path class="st49" d="M208.7,183.71c-.45,5.3-1.07,10.69-4.91,14.37l-3.77-3.97-6.02-5.9c4.29-2.32,9.26-3.88,14.7-4.5Z"/>
  <path class="st24" d="M34.36,229.58c-1.54,2.83-4.53,9.25-2.37,12.23l5.75,7.91c-.92,2.08-2.06,3.12-3.35,3.84-1.77.99-6.31.46-6.26-1.01.23-8.25.12-14.83-.07-22.4,2.65-.92,4.5-.79,6.3-.56Z"/>
  <path class="st56" d="M361.59,442.02c-1.26,4.07-12.5-4.41-13.61-10.03,4.32-.03,9.82,1.11,13.18,4.33,1.02,1.47.55,4.77.44,5.7Z"/>
  <path class="st5" d="M147.84,241.94c.19-2.46-.35-5.74-2.23-7.48,4.19-5.05,9.34-.37,14.12,1.61,9.27,3.84,19.52,2.8,29.2,2.81,1.04,2.81-.95,8.18-3.08,8.93-13.13-1.06-26.04-3.28-38.01-5.87Z"/>
  <path class="st67" d="M164.49,164.03c2.85,8.34,16.52,10.46,12.58,21.96l-9.58-6.7c-6.38-4.47-10.3-10.55-20.03-9.15,7.45-8.44,15.35-11.02,17.03-6.11Z"/>
  <path class="st104" d="M162.17,213.24c-5.88-7.22-2.39-16.19,1.55-23.35,2.68-.45,5.18-.07,6.4,1.03,2.35,2.1,2.87,5.64,2.81,9.07-.14,7.3-4.08,13.83-10.75,13.25Z"/>
  <path class="st60" d="M186.48,254.88l-32.26-3.13c-.31-.6-.49-2.11-.03-2.65.48-.57,2.32-1.11,3.77-.96l22,2.15c3.71.36,5.83,1.42,6.52,4.59Z"/>
</svg>