<?xml version="1.0" encoding="UTF-8"?>
<svg id="_图层_1" data-name="图层 1" xmlns="http://www.w3.org/2000/svg" xmlns:xlink="http://www.w3.org/1999/xlink" viewBox="0 0 248.52 249.85">
  <defs>
    <style>
      .cls-1 {
        fill: #816243;
      }

      .cls-2 {
        fill: #897e76;
      }

      .cls-3 {
        fill: #3e2c23;
      }

      .cls-4 {
        fill: #b6b5b0;
      }

      .cls-5 {
        fill: #745e4d;
      }

      .cls-6 {
        fill: #805f52;
      }

      .cls-7 {
        fill: #a08567;
      }

      .cls-8 {
        fill: #6e6d70;
      }

      .cls-9 {
        fill: #624934;
      }

      .cls-10 {
        fill: #937b6a;
      }

      .cls-11 {
        fill: #928982;
      }

      .cls-12 {
        fill: #7c614d;
      }

      .cls-13 {
        fill: #98806d;
      }

      .cls-14 {
        fill: #606061;
      }

      .cls-15 {
        fill: #31251e;
      }

      .cls-16 {
        fill: url(#_未命名的渐变_5);
      }

      .cls-17 {
        fill: #675343;
      }

      .cls-18 {
        fill: #8d6f52;
      }

      .cls-19 {
        fill: #6e5342;
      }

      .cls-20 {
        fill: #48362a;
      }

      .cls-21 {
        fill: #a88661;
      }

      .cls-22 {
        fill: #6a5547;
      }

      .cls-23 {
        fill: #6e5848;
      }

      .cls-24 {
        fill: #49403a;
      }

      .cls-25 {
        fill: #5e483a;
      }

      .cls-26 {
        fill: #7c5e4a;
      }

      .cls-27 {
        fill: #937e67;
      }

      .cls-28 {
        fill: #17110e;
      }

      .cls-29 {
        fill: #6a696a;
      }

      .cls-30 {
        fill: #575450;
      }

      .cls-31 {
        fill: #281c16;
      }

      .cls-32 {
        fill: #524237;
      }

      .cls-33 {
        fill: #cbcbc6;
      }

      .cls-34 {
        fill: #93928f;
      }

      .cls-35 {
        fill: #564336;
      }

      .cls-36 {
        fill: #5f4a3c;
      }

      .cls-37 {
        fill: #544133;
      }

      .cls-38 {
        fill: #9a7c59;
      }

      .cls-39 {
        fill: #614b39;
      }

      .cls-40 {
        fill: #c5a48f;
      }

      .cls-41 {
        fill: #90714e;
      }

      .cls-42 {
        fill: #5c493b;
      }

      .cls-43 {
        fill: #a38975;
      }

      .cls-44 {
        fill: #5d4739;
      }

      .cls-45 {
        fill: #7f654f;
      }

      .cls-46 {
        fill: #7a5e4b;
      }

      .cls-47 {
        fill: #34261f;
      }

      .cls-48 {
        fill: #564233;
      }

      .cls-49 {
        fill: #694d3b;
      }

      .cls-50 {
        fill: #8b745f;
      }

      .cls-51 {
        fill: #544134;
      }

      .cls-52 {
        fill: #180f0c;
      }

      .cls-53 {
        fill: #866854;
      }

      .cls-54 {
        fill: #c1ac8d;
      }

      .cls-55 {
        fill: #a4a29e;
      }

      .cls-56 {
        fill: #b79b88;
      }

      .cls-57 {
        fill: #bdaa8d;
      }

      .cls-58 {
        fill: #7c7b7a;
      }

      .cls-59 {
        fill: #bf9e79;
      }

      .cls-60 {
        fill: #302a26;
      }

      .cls-61 {
        fill: #271f1c;
      }

      .cls-62 {
        fill: #7b624f;
      }

      .cls-63 {
        fill: #baa08e;
      }

      .cls-64 {
        fill: #cfc8c2;
      }

      .cls-65 {
        fill: #160c07;
      }

      .cls-66 {
        fill: #767576;
      }

      .cls-67 {
        fill: #c7c4be;
      }

      .cls-68 {
        fill: #a09d99;
      }

      .cls-69 {
        fill: #2b1d15;
      }

      .cls-70 {
        fill: #cac9c2;
      }

      .cls-71 {
        fill: #907861;
      }

      .cls-72 {
        fill: #947250;
      }

      .cls-73 {
        fill: #777779;
      }

      .cls-74 {
        fill: #9f9e98;
      }

      .cls-75 {
        fill: #af9f8e;
      }

      .cls-76 {
        fill: #957b65;
      }

      .cls-77 {
        fill: #c4a580;
      }

      .cls-78 {
        fill: #d3cac1;
      }

      .cls-79 {
        fill: #17110f;
      }

      .cls-80 {
        fill: #452f20;
      }

      .cls-81 {
        fill: #98836c;
      }

      .cls-82 {
        fill: #747575;
      }

      .cls-83 {
        fill: #584537;
      }

      .cls-84 {
        fill: #d4ccc5;
      }

      .cls-85 {
        fill: #836856;
      }

      .cls-86 {
        fill: #1c1714;
      }

      .cls-87 {
        fill: #9a8166;
      }

      .cls-88 {
        fill: #5f473a;
      }

      .cls-89 {
        fill: #e2cbb0;
      }

      .cls-90 {
        fill: #d4cbc2;
      }

      .cls-91 {
        fill: #5a4335;
      }

      .cls-92 {
        fill: #795f47;
      }

      .cls-93 {
        fill: #ac917f;
      }

      .cls-94 {
        fill: #d8cfc7;
      }

      .cls-95 {
        fill: #8d7156;
      }

      .cls-96 {
        fill: #806b57;
      }

      .cls-97 {
        fill: #3f2b1f;
      }

      .cls-98 {
        fill: #3e3027;
      }

      .cls-99 {
        fill: #42342b;
      }
    </style>
    <linearGradient id="_未命名的渐变_5" data-name="未命名的渐变 5" x1="130.76" y1="179.09" x2="134.07" y2="226.98" gradientUnits="userSpaceOnUse">
      <stop offset="0" stop-color="#785f4a"/>
      <stop offset="1" stop-color="#57453a"/>
    </linearGradient>
  </defs>
  <g>
    <path class="cls-94" d="M105.08,224.1c1.35-1.32,3.42-1.49,6.22-.53,4.33-.33,8.43-.03,12.29.89-.92,3.81-.41,6.71,1.54,8.72,8.32,1.3,17.53,1.9,26.07,2.3,1.47-1.96.44-4.82-1.68-7,7.08.15,13.3.92,20.59-.62-.37,3-1.92,6.13-.12,8.16l5.16,5.8c-5.88-1.02-11.5-1.3-17.65-.24l-46.7,8.02c-6.36,1.09-13.62-1.83-19.63-2.98-1.28-.42-1.95-1.64-2.02-3.66l-11.39-1.57c-4.44-2.13-3.08-6.19.57-3.57,3.26,1.96,7.02.89,10.62,1.09,3.24.48,6.61.8,10.09.97,1.85-.01,6.26-1.01,5.36-3.84-1.37-4.28-6.32-6.96-9.88-9.83l3.43-4.24c2.28.16,5.56.45,7.14,2.13Z"/>
    <path class="cls-78" d="M77.03,224c-.12,3.86.1,7.78-1.14,11.89l2.44,1.93c-6.21,1.87,3.25,1.53,13.69,3.64l-.85,5.16-34.29-6.57c-.93-.18-2.27.22-2.84-.63-.24-.35-.21-1.24-.16-1.77l-.48-1.27c3.91-2.04,5.29-5.72,4.15-11.03l.98-1.14,18.49-.22Z"/>
    <path class="cls-84" d="M20.88,227.29c.63,2.7,2.78,4.98,3.08,7.87-5.59-1.21-10.05-2.79-16.1-4.67l13.03-3.2Z"/>
    <path class="cls-78" d="M99.04,239.88l-9.03.06c-.8,0-1.1-.57-1.06-1.03,3.38.18,6.85-.45,10.09.97Z"/>
    <g>
      <path class="cls-86" d="M58.53,224.22c1.34,2.82.26,6.96.02,10.43l-4.66,3.02c-2.42,1.57-5.32,2.24-8.12,4.72-4.57-3.02-9.46-3.07-14.5-1.36-2.23-2.64-4.37-5.23-7.31-5.86-2.84-1.59-5.64-5.08-3.08-7.87-.49-2.1,2.52-4.55,2.94-6.29-.61-3.84-.07-8.42,3.9-8.65,2.18-1.54,2.65-.73,1.13,1.45.44,3.28-.23,6-1.98,8.16.15,1.81-.2,3.54-1.04,5.19,1.75,5.58,6.49,10.08,12.66,8.46,8.01,3.18,13.73-1.01,17.74-7.55-2.73.17-2.96-1.31-1.11-3.14-1.54-.5-2.08-1.29-1.6-2.38,1.4,0,2.29-1.24,2.7-3.7-5.61-2.28-10-5.51-13.16-9.71-1.23,1.44-2.61,2.07-4.14,1.91-.27,1.83-.77,2.74-2.08,1.1-2.21.39-3.25-.16-1.66-1.96l6.14-5.75c1.58-1.48,4.87-.49,5.64.91l2.77,5.06c3.54.57,9.01,1.94,9.03,6.68.01,2.6-1.42,4.68-.23,7.17Z"/>
      <path class="cls-60" d="M35.18,210.15c.26.8.86,1.48,1.66,1.96.34,2.56-1.41,3.68-2.83,1.39l-4.23.24c-.19.85-.5.85-.91.05l-1.13-1.45c1.6-2.41,4.7-2.76,7.45-2.19Z"/>
      <path class="cls-70" d="M29.77,213.75l5.71-.53c-.87,3.81,3.1,11.44,7.66,10.64,2.77-1.54,5-1.8,6.68-.78.79-2.91,4.92-.25,5.3,1.82.52.81.96,2.08,1.11,3.14-3.83,6.29-12.92,10.39-18.83,3.59-5.59,1.76-13.35-3.82-10.52-9.69-.61-3.04-.88-6.56,1.98-8.16.22-.04.69-.08.91-.05Z"/>
      <path class="cls-68" d="M56.23,228.04c.54,3.74-.5,6.25-4.79,7.74-1.61.56-4.01,3.79-6.4,3.13-4.4-1.21-8.25-2.05-12.91-.67l-6.17-6.16c-1.56-1.56-2.57-4.06-1.91-6.2.38-1.24,1.76-2.77,2.83-3.94.67,3.34,3.19,7.1,7.14,8.13l4.51-.61c1.38,2.18,3.34,3.37,5.09,3.73,5.13,1.04,7.72-4.49,12.62-5.15Z"/>
      <path class="cls-33" d="M56.22,218.81c-.47,2.31-1.22,3.77-2.23,4.37-2.2-2.13-4.28-3.2-6.23-3.2,1.49,1.95-.72,2.85-2.72,3.3-7.68,1.73-10.66-7.5-6.12-12.26.34-1.8,3.91-5.08,5.68-3.95,2.96,9.31,12.68,5.87,11.62,11.75Z"/>
      <path class="cls-55" d="M47.76,219.98c2.69-1.4,5.94,2.06,2.07,3.1-2.62,1.32-7.84,4.57-10.81,1.97s-4.16-7.11-8.2-8.39c2.24-.79,2.9-1.05,3.83-2.57-2.66-.24-3.53-.14-4.87-.34,2.26-.9,4.76-.42,7.06-1.63l2.08-1.1c.45,2.44-.57,5.96.68,8.74,1.14,2.52,6.48,1.91,8.15.23Z"/>
      <path class="cls-4" d="M56.22,218.81l-1.1,6.09c-1.86-.43-3.37-1.78-5.3-1.82.19-.83.21-1.63-.06-2.37-.25-.67-1.18-.99-2.01-.73.7-.7,1.48-1.59,2.85-.78,1.61.95,2.89,1.84,4.19,3.22.35-2.15.6-2.79,1.42-3.61Z"/>
    </g>
    <g>
      <path class="cls-79" d="M239.96,228.18c-3.49,3.02-11.7,6.22-15.8,4.07-3.32.98-4.38.58-3.17-1.2l2.22-2.83c5.28-1.49,10.46-3.08,15.55-4.76l-7.85-6.98.29-2.42c-2.53,1.55-3.69.45-2.18-2.13-3.09-.06-4.41-1.02-3.96-2.86-2.58.89-2.74.34-2.36-2.04-3.53-2.86-6.67-6.08-9.42-9.68-1.32-1.66-1.32-2.95.44-4.29,1.17-1.83,3.09-3.06,5.78-3.71,7.19-2.47,5.91-3.74-3.83-3.81l-5.66-4.01-1.7,8.7-3.32,1.32c-.6,3.12-5.48,6.36-8.09,3.8-1.74.27-3.31-.65-4.7-2.77-4.6-3-8.29-6.54-11.09-10.61l-.09-.77c-.21-.35,1.19-2.4,1.69-2l15.79,12.67c1.66-1.29,3.58-2.52,6.14-3.52l.76-13.21c4.97.34,8.57,3.3,12.33,6.14,3.02,2.29,11.74-2.21,13.09,5.53-3.05,3.87-8.6,6.14-13.37,7.97,5.54,10.42,17.04,17.34,24.74,25.06l6.35,6.36c-3.06,1.77-5.81,1.67-8.56,1.98Z"/>
      <path class="cls-90" d="M239.96,228.18c.08,2.37-1.58,3.96-4.23,4.65-11.62,3.02-23.1,11.17-37.66,10,2.63-3.22,5.84-6.39,6.01-10.69,3.58-1,7.46-.69,11.65.95,2.87-.35,5.68-.63,8.42-.83,5.3-1.53,10.35-3.45,15.8-4.07Z"/>
      <path class="cls-14" d="M196.88,195.35c3.14-.63,5.35-3.44,8.09-3.8,2.11-3.3,9.4-2.93,8.73,1.52.38,4.35,6.24,7.58,8.98,13.97-1.31,1.86-2.88,1.61-4.71-.73-4.68-.9-9-.37-12.98,1.58-2.1,2.88-4.04,3.93-5.82,3.13l-.18,4.32-2.11.9c-6.79-.71-7.08-5.47-13.34-4.56-2.15.31-3.79,2.26-5.96,3.92-3.66,2.81-6.83,5.18-7.32,9.8-3.99-.88-9.29-.35-13.18.99-6.2-.43-12.45-.54-19.47-2.57,2.53-7.49,6.77-13.81,9.89-21.26,2.21-5.26,5.81-10.84,10.38-13.46,4.35.7,1.45,10.73-2.79,9.7l.76,2.19c-2.04,4.19-4.52,7.98-7.46,11.36,1.05.48,13.54,1.82,14.21,1.57,4.7-1.77,3.67-7.08.66-10.25l-.11-2.49c-.96-1.72.33-3.33,3.87-4.85,1-2.43,2.66-4.62,5-6.57,1.97-1.94,5.19-4.54,7.95-5.7,3.01-.55,4.38,2.25,4.1,8.4,2.69,5.88,5.91,4.62,10.67,1.54l2.14,1.37Z"/>
      <path class="cls-7" d="M229.01,211.93c-1.15,1.15-.42,1.86,2.18,2.13l12.15,10.8c-8.28,1.81-15.28,3.84-22.36,6.19-1.62,3.92-11.28,1.54-13.13-1.18-1.37-.32-3.13-.37-4.24-1.08-2.45-1.58.15-11.83-6.73-12.55.19-1.86.45-4.45,2.29-5.22.84.55,2.1.4,3.76-.46l3.86-2.78c5.76,1.54,11.44,1.7,17.04.48l1.21.82c1.24.75,3.11,1.39,3.96,2.86Z"/>
      <path class="cls-82" d="M196.88,195.35c-2.61.52-5.49,3.78-9.08,3.27-2.63-.37-6-4.59-6.01-7.41-.02-3.2.17-5.39-1.82-7.18.87-.37,1.23-1.22,1.12-2.08,2.81.29,4.68,2.97,7.04,4.89,3.33,2.7,6.91,4.72,8.75,8.5Z"/>
      <path class="cls-8" d="M172.03,189.74l-3.38,7.91-5.49,3.52c-1.96,2.01-7.68.51-8.06-2.38,2.25-2.45,3.38-6.49,2.79-9.7l1.04-1.74c.28-.47,1.57-.23,2.37.26l6.86,4.17c1.07.65,3.09-1.29,3.86-2.04Z"/>
      <path class="cls-15" d="M220.99,231.05c.44,1.2,1.95,1.45,3.17,1.2-2.49.72-6,2.82-8.96,2.26-3.87-.74-7.3-3.17-11.12-2.37.63-1.67,2.81-1.23,3.78-2.27l5.92,1.37c2.84.66,4.93.57,7.21-.19Z"/>
      <path class="cls-58" d="M213.7,193.06c-1.61-1.71-6.12-1.85-8.73-1.52.45-.64,1.3-1.1,1.44-1.94l1.76-10.53c4,.46,5.75,2.5,8.27,4.7l9.15.58c1.51.1,2.5.79,2.39,2.07,0,0-8.37,6.54-14.27,6.63Z"/>
      <path class="cls-57" d="M222.68,207.03c1.41-.17,1.67,1.62,2.36,2.04-5.46,3.35-11.88,2.2-17.79.46-2.13,2.18-4.95,4.68-8.31,2.96-.16-.17.02-1.17.23-1.47,2.46-1.03,2.83-9.01,19.46-6.56,1.21.44,2.54,2.76,4.06,2.58Z"/>
      <path class="cls-54" d="M229.01,211.93c.45.78,1.51,1.53,2.18,2.13l-3.5,2.66c-3.99,2.93-7.44,6.84-11.98,7.3-1.09-2.76-3.26-7.54-1-9.21,4.3-2.32,9.92-1.67,14.3-2.89Z"/>
      <path class="cls-73" d="M163.16,201.17c3.84,2.1,3.34,5.57,5.96,9.09l-6.05,6.01-18.04-2.35c1.11-3.19,4.31-4.74,5.49-7.24,1.47-3.11,2.39-5.51,4.57-7.89,2.77.52,5.68,1.07,8.06,2.38Z"/>
    </g>
    <g>
      <path class="cls-61" d="M125.1,229.18c-.05-1.15.48-2.61-.57-4.37-1.37,2.73-.63,5.86.6,8.38-.82-.13-1.73-.07-2.03-.82-.82-2.07.49-5.39-.71-6.44-1.58-1.39-10.87,1.24-17.31-1.83-2.95-4.22,6.99-11.61,10.77-13.56l2.34.83c1.2.47,2.04.65,2.07.13.02-.34-.44-1.74-.25-1.78l5.88,15.4c.59,1.55.14,3.27-.78,4.06Z"/>
      <path class="cls-29" d="M122.81,223.05l-14.08-.14c2.96-3.26,5.88-6.34,9.99-8.03,2.48,2.48,2.88,5.15,4.09,8.17Z"/>
    </g>
  </g>
  <g>
    <path class="cls-28" d="M181.01,181.19c.89,0,.89.26.09.77,2.72,1.46,1.84,3.02-1.12,2.08.56,2.58-5.72,7.34-7.95,5.7-1.54,3.17-3.27,4.36-5.18,3.57-2.87-2.31-5.86-3.71-8.95-4.22-6.67,10.54-13.23,21.53-17.5,33.38l14.75,1.78,1.94,2.13c1.37-.46,11.5-2.31,12.05-2.03.44.22.8.61,1.13,1.04.38-1.8.07-3.16-.92-4.06,4.38-5.97,11.34-13.57,19.39-11.01,1.88.6,7.98,4.09,8.14,5.92,5.51-4.56,7.37,6.29,7.85,10.93,1.9.14,2.94,1.04,3.13,2.7.16,1.05-1.1,1.8-3.78,2.27,4.28,2.45-1.8,10.54-6.01,10.69-1.12,1.36-3.02,2.46-4.87,3.52-8.45-3.94-11.24,3.14-18.05-4.52-5.14-1.87-9.37-5.29-7.59-11.38l-13.96.18c.68,4.05.32,6.22-4.15,6.75-3.67.43-20.48-.95-22.7-2.61-.6-.45-1.12-1-1.62-1.59-1.59-.29-2.62-8.05-2.46-8.49,1.16-3.17,4.3,1.99,2.43,4.48l19.13,1.31-2.92-1.15c-8.41-.91-9.54-1.76-7.3-10.07,4.39-8.03,8.05-16.33,10.98-24.9.35-5.92-.52-11.82-2.61-17.71.62-1.6.94-3.19.97-4.76-3.2-3.81-4.36-8.87-3.49-15.16-2.47-1.41-2.6-4.96-.24-6.55-1.23-5.01,3.5-4.88,5.28-1.33,7.99.25,11.99.37,11.99.37l13.7-5.25c11.87-2.81,9.52-4.4-7.02-4.78-5.6-.5-8.57-2.66-12.36-6.27-1.76-1.68-13.16-14.33-13.3-15.34-.06-.44.05-.9.21-1.36-2.74-.92-3.02-1.35-.3-2.71l1.04-1.93,13.29-5.51c-2.09-2.03-.99-3.51,1.71-2.92l-.61-3.51c3.83-3.33,6.72-6.99,8.67-11l-.52-2.16c1.51-.82,2.11-2.31,1.8-4.47-4.39-3.22-8.02-7.49-10.87-12.81l.9-2.26c-4.56-4.18.63-6.17,4.93-5.91.3-.9.94-1.23,1.9-1.05.6.84,1.49,1.53,1.87,2.98-2.49.49-4.73.97-6.35,3.06,6.26,12.66,18.92,20.67,9.67,23.05l.65,4.79c-11.6,5.7-7.42,18.35-23.83,21.7l9.42,10.89c10.61,12.27,13.33,6.59,29.18,9.68,2.73-3.42,5.29-5.56,8.74-7.8l36.98-69.67c-9.08-5.64-17.15-11.92-25.51-18.47-2.26-1.77-4.1-3.93-3.89-7.02,2.8-8.96,15.89-16.6,21.11-15,1.89.58,4.27,2.62,5.62,5.32,4.35,8.74,11.24,17.04,13.79,26.69,1.97,7.46-4.67,15.22-7.86,21.18l-15.53,28.98-11.11,20.84c-3.95,7.41-8.12,12.22-4.31,15.26l-7.35,14.11c-5.81.69-5.76,5.43-10.03,12.8-2.82,4.86-4.2,10.64-8.82,14.31-2.08,1.65-8.76-1.93-8.23-4.45l12.9-25.06c-8.14.07-16,7.6-26.06,6.67-2.55-.24-5.1-2.74-8.34-1.61l4.26,22.77c1,5.35,1.79,10.39,3.49,15.63l7.97-7.29c1.31-1.2,4.14.92,5.15,1.83,6.22,5.62,9.61-3.5,17.4-4.95Z"/>
    <g>
      <g>
        <path class="cls-36" d="M144.89,148.86c1.65-2.98,3.46-6.04,5.45-9.17l-9.14-4.77c.21,2.9-.56,4.65-2.32,5.23-2.23-4.69.45-11.74-1.63-18.31-3.01.04-3.04-5.61-.21-6.25.27-.33.62-.12,1.05.62,7.18,4.91,14.32,17.45,20,19.53,7.29,2.68,14.9,1.88,22.82,2.63.27,3.34-2.11,5.41-5.45,6.22-12.29,2.98-19.83,11.41-30.58,4.26Z"/>
        <path class="cls-75" d="M143.34,171.9c.46,1.98-1.72,3.2-2.57,4.26-5.39,2.53-8.69-10.04-2.94-12.06,1.2-2.47,1.41-4.1,2.02-7.36,1.68,5.05,2.77,9.91,3.49,15.16Z"/>
      </g>
      <g>
        <g>
          <path class="cls-67" d="M201.11,233.31c-3.56,3.36-7.09,5.13-10.59,5.31l-3.14-2.53c-4.66,7.21-17.16-1.82-13.04-8.54l-1.44-.88c-.61-3.27.13-5.1,3-7.04,2.33-1.57,5.52-6.26,8.95-5.64,4.96,1.54,9.03,5.16,14.29,5.48l1.45,8.03c.41,2.27,1.02,3.55.52,5.79Z"/>
          <path class="cls-74" d="M201.11,233.31c-.7,3.13-5.79,9.36-6.87,9.57-1.48.28-5.73-1.74-14.04.2l-8.6-9.13c.38-2.48,1.71-4.99,1.28-7.27,1.42-.35,1.96-1.38,3.08-3.17.94,1.4,2.15,2.83,3.31,2.55s2.17-1.98,3.33-3.12c.55,2.06.99,3.38,1.76,4.26,1.33,1.53,3.44,1.45,4.54.22,1.21-1.35,1.18-3.07,1.13-5.92l6.54,5.87c-3.23.75-4.99,1.25-7.34,3.09-4.01,3.14-8.27-7.36-15.37-.77,1.98,3.2,5.08,6.22,9,7.86l5.34-4.95c.97,1.48,2.19,4.35,3.95,4.52,4.51-1.29,5.96-7.25,8.94-3.79Z"/>
        </g>
        <path class="cls-66" d="M170.27,225.39c-4.37,1.51-8.93,1.28-13.18.99.18-3.59,6.17-.47,12.7-4.34.35,1.4.23,2.26.48,3.34Z"/>
      </g>
      <g>
        <path class="cls-6" d="M221.73,34.01l2.14-.44c4.42,6.18,8.76,12.59,11.38,19.75-3.1,9.09-8.5,17.46-13.12,25.93-1.58.46-1.92-.71-2.22-2.27l8.72-18.99-8.66-6.76.4-1.92c-5.66-5.81-10.87-11.98-15.61-18.51,4.55-10.58,15.21-7.27,16.98,3.2Z"/>
        <path class="cls-11" d="M214.7,20.66c3.04-1.01,9.57,10.08,9.71,11.48.29,2.9-.35,4.1-2.68,1.86-1.62-2.31-3.23-6.09-6.31-7.42s-7.74,1.59-9,3.91l16.9,19.49c-1.05,1.27-2.24,1.05-3.37,1.25-7.59-5.93-21.71-14-19.58-18.92,2.63-6.06,8.36-10.28,14.32-11.66Z"/>
        <path class="cls-30" d="M183.7,146.78c-.71,1.34.74,2.57,2.05,3.44-3.5,7.53-8.13,14.74-12.72,21.74-.79,1.2-1.03,2.6-1.67,3.13-.69.57-3.72-.11-3.56-.93,1.2-5.99,4.92-10.56,7.46-15.61l6.72-13.38c2.52-3.26,5.13-.39,1.72,1.61Z"/>
        <path class="cls-55" d="M222.13,79.26l-25.99,47.7c-2.29,1.13-2.23-.09-1.22-2.19l24.99-47.78c.46.02,1.01.09,1.45.33.6.32.84,1.17.77,1.94Z"/>
        <path class="cls-2" d="M235.25,53.32c-1.55-.72-1.74-2.54-2.69-3.89l-10.82-15.43c.56.05,1.31-.17,1.49-.78l-6.14-10.46c-.67-1.14-1.27-1.83-2.39-2.11,2.21-.51,4.11-.36,5.7,2.02,5.46,8.17,16.14,26.87,14.85,30.64Z"/>
        <path class="cls-24" d="M194.83,131.03c-.28.87-.82,2.8-1.73,3.42-.64.44-2.16-1.69-3.58.86l6.62,2.1.02,1.25-4.13-.62c-1.58-.24-3.39,1.81-2.96,3.23.25.84,1.99,1.1,2.98,2.48l-4.45-.19c1.19,1.95,2.11,2.65,2.24,4.6-2.45-.4-4.12-1.26-6.14-1.38.17-.32.17-.91.05-1.22-.25-.66-1.27-.73-1.77-.39,1.57-3.13,2.75-6.93,5.3-9.84,1.89-2.15,3.13-4.01,4.58-6.12,2.16-.76,2.71-.51,2.97,1.82Z"/>
        <path class="cls-34" d="M196.14,126.95l-1.31,4.08c-1.3.08-2.59-.55-2.97-1.82l3.05-4.44c-.01.95.34,1.88,1.22,2.19Z"/>
      </g>
    </g>
  </g>
  <g>
    <path class="cls-52" d="M73.95,81.89c2.45.87,2.07,1.68-.49,1.88l1.47,1.75c-1.16,5.3-3.36,9.18-6.62,11.65,2.86-.26,5.69-.44,8.5-.54l1.62,2.14c-1.2,2.78-1.71,5.2-1.54,7.27,2.21.35,4.22.69,6.03,1.02,1.84.86,2.09,1.53.74,2,.56.54,1.35,1.4,1.08,1.9-2.02,3.74-8.22,12.15-12.08,12.99l.93,2.06c-2.99,2.46-4.02,4.49-3.07,6.1-.14,3.36-1.08,17.06-2.47,19.45-.54.93-1.08,1.36-2.3,1.67,4.43-.19,8.61.74,4.69,5.2,1.94,1.95-3.23,18.05-4.07,18.83-.64.6-1.5.74-2.34.73-1.47,2.59-6.19-.23-5.21-2.99-.73.23-1.51.27-2.17-.19-.91-.64-4.04-11.88-2.53-14.01-.74.17-1.68.36-2.17-.13-.76-.76-5.42-12.86-2.77-13.77l-2.24-.39-5.21-14.42.31-2.42c-4.61.36-12.88-3.53-14.85-7.77-1.1-.29-2.24-.09-3.4.62l-14.44-6.44-3.66,20.6-2.79,4.28c2.37.95,3.75,5.52,1.65,7.3,5.58,6.39,8.15,17.4,8.01,25.88,1.22-1.22,2.98-.85,4.51-.28,2.25.83,15.47,10.11,17.84,12.02l.06,2.44,2.17-1.11c4.64,1.17,9.39,2.01,14.24,2.53l1.5,2.33c.74-2.73,10.02-.47,11.98.48,1.29.62,1.68.99,2.25,2.52,2.02-2.44,4.09-.58,1.87,1.85,1.02.14,2.19.61,2.83,1.41,3.7,4.66,8.45,19.75,10.14,25.68l-.16,9.14c.65.44,13.9,1.44,15.66,1.31.17-.01-2.23-2.03-2.64-2.23-6.18-2.22-8.58-8.63-1.77-10.43,1.12-5.02,5.09-10.33,10-11.77-.63-.6-1.12-1.54-.64-2,1.87-1.8,12.7-5.86,14.42-3.13,3.8-1.01,6.28,2.39,3.18,4.79,1.61,4-.8,6.01-1.82,1.65-7.97-1.45-14.29,3.88-18.03,10.99l-2.22-.39c1.18,1.15,1.03,2.48-.44,4,4.59,3.25,12.86,9.27,6.48,14.65-1.49,1.26-4.32,1.6-4.94-.74-3.45-.21-6.82-.53-10.09-.97-2.45,1.39-9.18,1.19-10.62-1.09-2.07,1.05-3.45.56-4.16-1.45-.34-1.19.57-12.32,2.85-12.37.17-5.46-6.61-18.79-10.88-25.71l-29.85-5.89-25.81-16.88-7.81-24.09c-3.4-3.94-2.93-8.72-1.98-13.51l5.69-28.56,31.56,14.7c2.48,1.15,4.42,3.17,7.42,3.53l16.14,45.88c3.04-5.64,3.93-10.8,5.59-16.29l-5.17-2.34,3.2-15.87c.26-1.27-.07-3.09-.86-3.57-.51-.31-1.75-.42-2.76-1.63l17.98-24.45c-4.02-.42-6.8-.14-9.95-2.23,1.48-1.36,3.27-4.45,2.14-5.67l-7.71-2.47,8.15-17.02c-.48-2.84,1.32-2.91,1.84-.04Z"/>
    <path class="cls-65" d="M160.03,59.97c.08.32-.21,1.6-.54,1.49l-1.36-.44c-1.24.62-1.29.18-1.15-1.03-2.82.03-3.81-1.83-2.12-4.08-1.32-2.3-1.26-3.66.2-4.08.16-3.37.53-6.66,1.11-9.87-1.62-1.28-3.37-1.16-5.25.35l-2.05-1.21c.81,2.56-.11,2.84-1.88.86-.49.19-.96.31-1.39.22-1.24-.26-7.31-10.16-4.56-11.7-2.77.11-3.89-2.03-1.77-3.59.29-5.68.22-11.33-.19-16.96-1.65-.61-2.32-2.19-2-4.77-15.36,2.48-30.93,3.56-46.72,3.21l-2.34-1.35c-4.29.56-8.66.72-13.11.48-1.34,1.45-2.67,2.3-3.99,2.55.71,1,.49,2.37-.66,4.1l-12.34,15.98c2.73,1.34,4.35,3.76,4.84,7.26l7.15,11.73.31,3.97c.88.25.67.89-.63,1.92,1.99,1.23,2.38,3.86,1.17,7.9.34,4.17-.62,6.82-2.86,7.96l1.28,4.09c-.8,2.83-1.17,4.83-1.1,6,1.9-.97,2.61-.73,2.11.74-1.68,1.21-3.64,2.54-5.97,2.26-1.07-4.49.1-8.58.73-12.9l2.38-16.17-13.32-26.43,18.63-24.07c6.83,1.26,13.39,0,20.33-.18l18.75-.49,29.37-3.73c1.34,8.79.42,17.14,1.1,26.1.35,4.59,4.17,8.62,5.78,12.99,3.34-1.49,5.36-3.3,9.67-4.42l.34,20.34c.03,1.97,1.15,3.73,2.02,4.96Z"/>
    <path class="cls-69" d="M73.95,81.89c-.65-.5-1.17-.15-1.84.04-.47.13-1.46-.03-1.91-.22-.59-.24-1.49-.74-2.11-.74-1.98-2.98,5.96-6.79,8.24-5.97,4.67.31,1.37,8.29-2.38,6.89Z"/>
    <path class="cls-27" d="M138.89,140.15c1.86,1.37,2.6,3.87,2.21,7.47-1.6.34-1.75,1.2-1.49,2.56.54,1.87.61,4.6.24,6.55,1.07,4.47.4,6.93-2.02,7.36-1.93,2.59-5.09,4-9.47,4.24-.41,3.86-1.61,6.2-3.88,9.35-1.82,2.53-7.49,8.87-10.35,7.55l-1.5-1.94,4.1-8.74c3.61-1.72,3.19-7.01,2.29-10.56-2.74,1.15-4.52-3.32-2.15-4.94-5.36-2.51-10.59-5.34-15.68-8.5l-.21-2.42c-.7-.36-1.71-1-1.56-1.53,1-3.49,6.44-18.83,8.04-21.21,1.14-1.69,1.58-1.54,3.44-.58l1.96-1.21,13.98,7.65c2.85-2.94,5.52-6.12,7.99-9.57l2.42.16c3.68.14,3.97,9.2,1.23,10.21l.39,8.1Z"/>
    <path class="cls-16" d="M125.1,229.18c.68-1.71,1.28-4.72-1.35-4.18l-4.88-12.65c1.61-.54,1.66-1.31,1.14-2.62-.68-1.77-.8-4.12-3.18-4.79l.81-2.35,7.06-2.61c2.6-2.43,5.37-4.35,8.31-5.74-.42-3.15.57-6.51,2.99-10.09.75-3.84,2.34-6.49,4.78-7.97-1.31-2.3.36-3.89,2.57-4.26.91,6.64,4.91,14.71,3.7,22.28-2.01,12.6-18.38,32.15-9.86,32.58,4.84.24,9.8,1.54,12.33,6.14l-21.63-1.7c-.96-.08-2.24-.11-2.65-.66-.23-.31-.12-.95-.14-1.36Z"/>
    <path class="cls-40" d="M140.07,98.85l1.85,1.31c-1.79,5.63,1.02,7.05,8.44,4.26l1.77,1.65c-.98,3.97-11.23,8.11-14.33,7.44-1.22,1.47-3.91,1.49-4.68-.4-8.39-.48-15.87-2.88-22.44-7.2l.15-2.57c-1.17-2.89-.71-2.87,2.01-2.1-.79-2.24.83-3.79,3.13-3.26-.74-3.24,5.05-8.33,8.19-8,.59-2.66,1.35-4.33,3.68-1.98,1.7-.6,2.88-.71,4.57.05,1.17.52,9.46,9.1,7.65,10.82Z"/>
    <path class="cls-91" d="M133.12,113.11c1.44-.17,3.28.1,4.68.4l.3,2.71c-.26.23-1.14.32-1.05-.62l-.99,2.08-22.62,1.5c-.62,2.82-1.76,4.46-3.44,4.92l-1.75,1.31c-8.17-4.71-16.31-9.35-24.42-13.92l-.17-2.41-.74-2,2.67-1.39c15.89,2.07,31.73,4.55,47.53,7.43Z"/>
    <path class="cls-43" d="M140.66,87.22c3.84,1.65,6.93,4.8,10.56,7.71,4.77-2.27,7.44-7.17,10.67-6.3,3.9,5.7-6.01,7.24-8.06,14.51l-2.6-.61c-1.11-3.42-4.39-4.04-9.85-1.85l-1.32-1.84c-5.17-4.43-9.19-11.28-12.23-10.86-.31-5.57,10.7-4.77,12.82-.76Z"/>
    <path class="cls-37" d="M144.89,148.86c-1.46.09-2.84,0-4.88-.86-.35.99-.2,1.59-.4,2.19-.94-3.24-.77-6.61-.72-10.04l.11-8.64,13.52,7.05c1.22,1.34-1.52,3.73-2.12,4.89-1.26,2.41-2.43,5.23-5.5,5.41Z"/>
    <path class="cls-3" d="M153.84,103.15c-.3,1.05-1.42,2.07-1.71,2.92-3.76.81-7.43,1.98-11.74,1.49-1.14-2.93-.69-5.9-.32-8.71,4.58-.5,8.53-2.63,11.29-.15,1.01.91,1.36,2.7,2.48,4.45Z"/>
    <path class="cls-39" d="M156.98,59.99c.31-.3,1.49.14,1.15,1.03-2.02.81-6.77,3.13-4.93,5.91l-1.28.15c-2.78-.63-7.23-4.33-5.06-6.96-.79-.32-1.63-1.04-1.35-1.68,1.9-4.34,8.71-.24,11.47,1.55Z"/>
    <path class="cls-48" d="M49.19,146.92l.19,2.22c-.87,1.36-24.2,19.04-25.76,19.46-.98.27-1.8.24-2.64-.52,1.22,3.4-6.53,8.41-7.71,3.96-.85-4.16-1.34-8.56-1.46-13.19l1.43-1.9c.82-4.6,2.27-9.13,4.36-13.59l2.35-.57,1.03-2.24c6.51-2.83,12.68-6.41,18.51-10.73l2.57-.14c1.98,1.4,2.51,3.46,3.35,5.94l3.8,11.29Z"/>
    <path class="cls-25" d="M93.05,135.27c1.89.27,2.47,1.97,1.74,5.1.21,2.72,2.1,4.48,5.69,5.29l.5,2.46,12,6.86c2,1.15,3.12,2.31,3.88,4.06-.89,1.83-2.95,2.67-6.17,2.52-2.4,1.24-4.37,1.34-5.9.31-3.42.73-5.68.04-6.8-2.06l-2.62,1.93c-1.44.58-13.55,3.14-15.79,3.48-6.76,1.01-9.28,1.27-9.16-6.78-.82-.62-.18-3.39-1.2-4.04-.9-.57-2.4-.38-3.49-1.16l.91-2,12.34-4.59,11.17-12.67c1.32-1.02,2.33-.31,2.88,1.29Z"/>
    <path class="cls-5" d="M93.05,135.27c-1.46-.3-2.08.52-3.1,1.7l-9.21,10.8c-1.4,1.64-10.6,5.25-14.99,5.48l3.03-18.54c.11-.67.4-2.01-.11-2.16-.44-.13-1.71.17-2.03-.42,1.3-3.41,4.3-5.77,6.02-8.17l18.53-8.12c1.27-.43,3.06.53,3.97,1.56.85.96.22,14.18-.16,16.28l-1.95,1.59Z"/>
    <path class="cls-83" d="M92.09,205.92c.84.39.79.74-.11,1.05,3.51,3.55,3.49,10.5,1.07,14.85l-2.62,5.49c4.52,2.68,8.96,4.56,11,9.87l-21.9-2.24c0-5.9,1.49-11.32-.86-16.54l-9.68-21.46c.61-2.36,2.54-2.77,5.8-1.24,5.37,2.98,10.85,5.7,16.44,8.15l.86,2.08Z"/>
    <path class="cls-19" d="M89.08,176.09c.89.5.83.87-.18,1.1.43-.02.8,0,.98.2,1.81,2.11,3.36,18.25,3.49,22,1,3.22.57,5.4-1.29,6.54-8.62-1.28-16.7-10.39-23.1-8.98-.38-.85-.95-1.65-1.87-1.85-3.18-1.03-4.99-8.99-2.1-10.84l.04-2.23,21.22-9.32c1.86-.86,2.8.27,2.81,3.4Z"/>
    <path class="cls-53" d="M110,124.09c1.06-1.63,1.66-1.15.91.72-.5.21-1.37.67-1.68,1.48l-8.25,21.84c-2.15-1.23-5.95-1.95-7.44-4.53-1.41-2.44-.39-6-.5-8.32-.48-9.98,2.23-17.76-.49-17.91.15,0-10.73,5.45-18.54,7.55-.53.03-1.04-.33-1.36-.95l11-14.88,10.35,5.98,15.99,9.03Z"/>
    <path class="cls-45" d="M54.13,160.82c.64,5.3-3.98,13.4-9.13,14.29-.8.88-1.63,1.37-2.48,1.47l-20.75-4.89c-2.62-.87-2.91-1.75-.79-3.6l28.21-21.16,4.94,13.9Z"/>
    <path class="cls-26" d="M98.01,159.82l1.08,2.16c-3.28,4.91-6.62,9.61-10.02,14.11-.45-.51-1.09-1.57-1.68-1.76-.05-.02-15.25,6.48-22.39,9.92-3.37-.15-4.56-5.4-.99-6.24l6.41-19.56c1.38,1.05,2,3.55,2.82,5.42,8.11.35,14.98-4.82,24.75-4.04Z"/>
    <path class="cls-85" d="M102.89,101c1.76-2.53,6.37.24,7.95,2.33,6.67,6.67,16.14,5.86,22.29,9.78-9.49,1.14-18.62-.93-28.25-2.88-7.55-1.53-14.88-1.15-21.94-3.16-1.56-.44-4.68.69-6.03-1.02l.29-1.32c4.44.28,6.08-2.56,4.93-8.51l2-1.92,1.75-1.5,16.36,5.84.67,2.36Z"/>
    <path class="cls-93" d="M113.9,68.91c1.93,1.53.64,2.88-.91,4.13-9.31,5.9-18.31,12.57-27.01,20l-2.39-.67c.06.77.12,1.89-.41,2.13-3.14,1.44-11.45,3.03-14.88,2.66l5.15-13.4c5.95-3.9,12.17-6.66,18.64-8.28l7.32-5.43,2.68,1.14c2.23-1.37,7.45-3.87,9.91-3.62.76.08,1.36.74,1.9,1.32Z"/>
    <path class="cls-98" d="M58.82,175.03c1.05,1.41.87,3.25-.53,5.52l-3,10.85-2.4.69c-7.86-1.66-14.41-1.44-17.91-3.75v-2.85s7.19-9.82,7.19-9.82l2.83-.55c3.27-4.54,6.86-9.02,9.13-14.29l4.69,14.2Z"/>
    <path class="cls-62" d="M27.19,121.92c5.05,2.36,10.32,4.56,14.85,7.77-1.55,2.84-4.89,3.88-7.65,5.7-4.78,3.16-9.09,6.61-14.46,7.4-1.57,2.44-2.27,2.97-4.49.91-2.35-2.18-2.18-9.71.49-11.88-.42-1.92.56-3.65,2.93-5.21,2.44-4.34,5.22-5.9,8.34-4.7Z"/>
    <path class="cls-42" d="M45,175.11c-3.2,4.44-5.95,9.35-10.02,13.22l-14.65-9.69c-2.57-1.7-4.56-3.84-7.77-4.49-.24-1.28,0-1.98.7-2.11.36.49,1.2.87,1.98.3l5.74-4.26c-.11.47,0,.96.22,1.21.32.38,1.1.46,1.7.59l22.11,5.22Z"/>
    <path class="cls-35" d="M27.19,121.92c-3.16-.62-3.79,4.47-11.27,9.9-2.02,4.08-5.59,7.41-10.72,9.97l-2.31-.82,4.99-28.06,19.3,9.01Z"/>
    <path class="cls-50" d="M133.01,194.21c-4.5,7.09-7.14,7.89-16.18,10.71l-11.49,3.57c-1.05.33-1.86.95-2.29,1.56-1.39,1.31-2.04,1.27-1.94-.1-3.43-.56-2-3.86-.8-6.46,1.06-2.3,6.04-9.15,8.64-8.76.21-.58.5-.39.88.59.18-.79.43-1.92,1.07-2.05,2.54-.53,18.14-1.31,20.56-.98l1.55,1.93Z"/>
    <path class="cls-12" d="M106.89,65.08c3.95,1.51,2.35,3.55-4.79,6.13-3.62.77-6.41,4.66-9.38,6.16-12.05,1.32-16.36,11.3-19.26,6.41.18-.46.2-1.47.49-1.88,1.42-2,3.71-4.49,2.38-6.89-.43-1.93.93-3.08,4.09-3.47,1.8-2.64,5.49-6.31,6.48-1.71l3.09-.37c2.72-2.93,5.68-5.57,8.88-7.93,3.95-.06,6.62,1.12,8.02,3.56Z"/>
    <path class="cls-23" d="M19.93,142.8l-4.37,11.71c-.58,1.55-1.01,2.68-2.33,2.46l-2.28-.06-6.39-8.63c-.78-2.53-2.19-4.31-1.65-7.3l13.02-9.15v8.04c0,1.28.87,2.65,1.69,3.12.65.37,1.73-.09,2.31-.18Z"/>
    <path class="cls-32" d="M64.03,178.01c-.71,2.28.58,4.2.99,6.24l2.1,10.84-14.23-3c2.53-6.23,2.92-13.71,5.93-17.06l5.21,2.99Z"/>
    <path class="cls-10" d="M84.11,94.29c-.17,3.34.8,7.38-1.21,10.9-.89,1.55-4.63.91-6.01.85-.66,0-2.8.23-3.34-1.02.92-2.38,2.89-3.77,3.15-6.54-2.89-.39-5.87.05-8.4-1.31,1.03-.2,3.54.06,3.92-.59l1.14-1.99,10.23-2.21c2.8-.22,3.03.64.52,1.92Z"/>
    <path class="cls-99" d="M13.23,156.96c1.82,3.63.88,13.51.04,15.09-.28.52-.22,1.48-.7,2.11l-8.01-25.88c4.46,1.34,6.83,5.02,8.67,8.69Z"/>
    <path class="cls-22" d="M101.11,209.95l1.94.1c-2.98,4.24-6.45,8.05-10,11.77l-1.07-14.85c2.14-1.3,8.5.41,9.14,2.98Z"/>
    <path class="cls-77" d="M139.08,9.93c.48,2.1.62,17.68-.27,17.86-.98.2-1.93-.76-2.56-1.61,1.17-5.7-3.32-7.73-8.29-6.16-3.27,1.03-9.24,13.69-10.06,17.57-1.81,1.1-2.32,1.06-2.87-1.25-.57.73-.91.61-1.03-.34-1.76-3.87-4.41-5.39-7.98-4.56-1.74-.58-5.9,2.93-8.77,5.54-1.09.99-1.64,1.57-.11,1.97,1.27-.82,2.01.17,2.21,2.97,1.67-1,2.14-.37.88,1.14,2.41.9,5.37,1.21,8.88.94l1.21,2.05c2.09,2.23-.38,3.91-2.75,5.11-6.88,3.48-14.08.37-15.07-7.19-3.49.12-6.16.03-5.6-4.07-.71.3-1.85.61-2.1.17-4.79-8.29-9-20.69-10.78-30.08-1.7-.14-1.54-.69-.51-1.85,4.78-.47,9.61-.83,14.5-1.09,9.36.1,18.83-.18,28.56-1.37l22.3-2.73c.52,2.73.28,4.87.21,7Z"/>
    <path class="cls-59" d="M141.04,30.48c-.48,1.66-1.49,2.88-3.04,3.64-2.75.19-5.28-2.57-3.65-5.08-1.27-1.11-4.22-3.07-4.38-.85-2,1.35-3.26,3.15-3.76,5.38.12,1.84-.31,3.34-1.29,4.48,3.37,1.4,6.27,1.96,10.04,2.27-.54-2.03.35-5.06,2.82-5.12,5.37-1.9,5.07,5.78,4.33,9.83-.59,3.25-2.63,11.38-5.79,11.66,1.77,2.78-2.44,6.37-5.26,6.43.92,1.1.39,1.57-.95.83l-.69,1.18c-3.67-.35-7.38-1.32-11.14-2.91-3.46,4.57-7.1,6.27-10.92,5.11l-.47-2.25c-2.58-.29-5-1-7.64-1.78l-8.65,8.35c-1.05.72-2.99-1.11-3.69-1.83-.79-.15-1.98-.39-2.09-.98-.56-3.28-2.08-18.89-1.69-21.19.34-1.97.71-3.62,2.77-4.55-2.34-1.29-1.42-2.85,1-3.21,1.16,2.33,4.19,2.29,7.06,1.92l1.94,6.23c4.26,4.25,11.86,2.5,14.41-2l-.66-2.63c1.64-2.61,3.43-4.96,5.37-7.06,3.08,2.01.43-4.27,5.94-10.52,1.87-2.12,3.17-6.66,6.41-7.7,1.83-.59,6.23.3,8.17.44,3.2.87,1.97,5.78,2.95,8.45l.57-17.08c2.47,5.82-.71,15.39,1.97,20.55Z"/>
    <path class="cls-1" d="M88.01,7.03c-.22.61-.88,1.04-1.97,1.04l-11.08-.03c-1.34,0-.89,1.37-.95,1.93,2.05,9.35,3.17,18.8,3.35,28.35,6.23,1.19,8.14,3.12,5.75,5.8,1.45,2.55-1.17,5.62-3.81,5.86-1.21,2.78-7.29,7.59-9.72,5.03.07-.67.4-1.3.63-1.92-.55-3.88-.61-7.93-.2-12.17-6.91,1.13-11.55-8.07-5.36-10.85.19-1.66.87-2.12,2.3-1.51l3.19-14.77c1.16-1.31,1.41-2.56.76-3.74,1.3-1.68,1.99-3.19,5.09-3.16l12.01.13Z"/>
    <path class="cls-21" d="M85.9,43.1c-1.12,2.05-.78,4.86-.55,7.46l1.56,19.25c-.81-.83-3.03.07-3.6,1.23-1.83,3.73-4.74,2.4-6.98,3.95l-8.24,5.97c-.35,0-1.1.1-1.43-.17-.27-.22-.38-1.1-.25-1.78l1.49-8.15c1.68-2.08,2.75-.53,3.81,1.36,2.52-6.24,4.28-12.92,5.29-20.03l2.32-2.22c.25-2.23,2.46-4.14,3.81-5.86-.84-2.94,1.11-3.55,2.77-1.03Z"/>
    <path class="cls-77" d="M141.04,30.48l5.95,11.48,1.37.22,4.9,10.05c1.13.24,1.67,1.47,1.6,3.69.99,1.02,1.41,2.72,2.12,4.08-2.37,2.35-5.55-1.51-8.51-1.68-.95-.05-1.19,1.27-1.61,1.8.28,5.52-11.23.19-10.54-3.43l3.7-11.62c1.29-4.06.88-7.44-2.23-9.87-.79-.49-.7-.85.22-1.08.16-.76.08-2.6.76-3.59.36-.53,1.37-.5,2.28-.05Z"/>
    <path class="cls-41" d="M67.9,70.87l1.7-15.86c3.28-1.5,5.91-4.19,9.72-5.03-.71,6.37-2.57,12.41-4.07,19.18-.49,2.19-1.48,5.59-4.05,5.69-1.05-.92-2.06-3.55-3.3-3.98Z"/>
    <path class="cls-38" d="M64.67,30.07c-.84,2.57-5.02,1.61-6.74.07-.2-.51-.85-1.1-.94-1.63-.12-.72.79-1.54,1.29-2.18l12.64-16.27c.74-.36,1.75-.03,1.71.47-1.09,7.27-2.38,13.8-4.27,20.41l-3.7-.87Z"/>
    <path class="cls-18" d="M64.67,30.07c-.09,1.76-1.47,4.49-.51,6.6,1.22,2.67,4.76,2.23,7.41,1.47,1.31,5.44.33,10.53-1.33,14.95-5.07-7.05-9.23-14.97-12.3-22.96,2.23-1.35,4.65-.56,6.74-.07Z"/>
    <path class="cls-87" d="M156.17,41.96c-.55,3.68-1.05,7.44-1.48,11.28-2.78-2.86-5.52-8.44-5.82-12.14l7.42-3.69c.63,1.77-.11,3.18-.12,4.56Z"/>
    <path class="cls-92" d="M156.17,41.96c-.05,4.65-.11,9.27-1.31,13.95-3.73-3.83-5.42-9.24-7.87-13.96l1.88-.86c2.79,3.22,3.71,7.05,5.48,11.14,1.53-4.94-.61-9.57,1.81-10.28Z"/>
    <path class="cls-81" d="M137.83,164.1c-1.83,3.78-1.24,9.85,2.94,12.06-1.5,6.08-4.34,12.67-7.77,18.06l-23.17,1.1c-3.31-2.91.2-11.67,4.3-10.09l7.09-7.01c3.1-3.07,5.37-5.9,4.76-11.39l11.85-2.73Z"/>
    <path class="cls-71" d="M104.81,161.88c2.81,1.27,4.43,4,4.88,8.2l7.07-.24c-.16-2.75.59-4.7,2.27-5.85,3.97,9.12-2.1,11.21-4.89,21.24-2.62,2.59-4.35,6.7-4.3,10.09-.45.49-1.3-.05-.88-.59l-2.04.8c-6.4-5.85-12.4-11.97-18.01-18.35.11-.27.26-.85.18-1.1-1.44-4.15,5.24-9.25,8.93-16.27,2.15.17,5.63-.72,6.8,2.06Z"/>
    <path class="cls-17" d="M137.05,115.59l.21,6.25-9.56,12.15-16.79-9.18-.91-.72c.22-1.58.75-6.44,2.89-6.76l24.16-1.73Z"/>
    <path class="cls-20" d="M116.88,159.05l2.15,4.94c.31,3.61.2,7.58-2.61,10.16-.1-1.71-.19-2.64-1.22-3.48-.42,2.4-.51,3.43-2.12,4.57-.08-2.11.12-3.14-.86-4.55-1.32,2.26-1.16,3.98-3.15,5.43-1.1-5.28-2.46-9.94-4.25-14.24,3.51-2.42,7.94-2.85,12.07-2.83Z"/>
    <path class="cls-46" d="M131.82,65.8c-1.15,2.25,2.54,6.95,5.98,9.51-.15,4.13,1.3,7.98,2.86,11.91-1.72-.74-4.49-.61-6.74-1.03-2.62-.48-4.34.85-6.08,1.79l-3.68,1.98c-3.52-.98-2.04-8.77-1.2-11.78-.19-1.56.49-2.61,2.06-3.13l.5-5.74c-2.88-2.15,2.14-4.55,4.59-5.35.24-.17.85-.52.95-.83,2.75-2.5,4.48,2.07.76,2.68Z"/>
    <path class="cls-88" d="M122.96,78.18c2.38,2.01.78,6.76,1.2,11.78-2.21,3.16-5.34,5.47-8.19,8-3.13.59-4.17,1.68-3.13,3.26-.65.49-1.16,1.53-2.01,2.1-1.99,1.29-4.07-.94-7.95-2.33-1.86-3.7.68-6.11,7.6-7.24-1.05-2.86-.92-4.82.41-5.91.56-.98,1.66-1.93,3.28-2.82l.63-4.05c-3.08-2.44-.71-6.47,2.96-5.06,1.69-2.73,5.62-1.05,5.19,2.27Z"/>
    <path class="cls-51" d="M115.97,97.96c-1.09.97-1.9,2.34-3.13,3.26-.51.24-1.11.34-1.44.06-.57-.5-.4-1.11-.13-1.94.45-1.41.79-2.31,2.14-2.27.75.02,1.87.08,2.56.89Z"/>
    <g>
      <path class="cls-44" d="M163.17,82.01c.62.93,3.27,1.91,2.26,3.72l-3.53,2.91c-1.41,2.48-8.57,8.44-10.95,7.93-2.05-.44-10.42-6.8-10.28-9.34-3.83-1.31-6.7-9.75-2.86-11.91-1.17-4.62,6.34-7.41,10.79-5.58,5.96,4.51,10.82,8.6,14.58,12.27Z"/>
      <path class="cls-63" d="M151.92,67.08c-.14-1.93.62-2.01,1.28-.15l9.97,15.07c.06.6-.37,1.16-.85.79l-14.8-11.38c-2.91-2.24-7.52,2.13-9.72,3.89-3.6,2.39-11.09-7.91-5.98-9.51l1.09-2.03c4.35,1.33,8.05,1.29,11.1-.13,3.04.56,5.68,1.71,7.92,3.44Z"/>
      <path class="cls-47" d="M147.71,84.75c-2.15.14-4.41-1.12-5.06-2.26-1.22-2.12.42-3.92,1.68-4.71,2.15-1.36,4.19-.21,5.18,1.35,1.2,1.9.83,5.45-1.79,5.62Z"/>
    </g>
    <path class="cls-13" d="M136.32,56.69l6.64,3.49c1.28.68,3.18.84,3.9-.06,1.72,2.41,4.04,4.26,5.06,6.96-2.69.36-5.23.01-7.67-1.76-2.58,3.44-6.33.09-12.44.48.44-.85.24-2.42-.76-2.68.85-2.67,4.13-4.58,5.26-6.43Z"/>
    <path class="cls-96" d="M108.95,194.73c-3.21,6.61-8.82,8.67-7.84,15.22-3.31-.22-6.54-.87-9.14-2.98l.11-1.05-3.18-28.73c2.24-.59,3.02.95,4.54,2.43l15.51,15.11Z"/>
    <path class="cls-51" d="M112.99,73.04c1.98-2.04,5.43.25,4.79,2.87-1.95,1.26-2.82,2.89-2.96,5.06.56,1.79.37,4.11-1.92,3.04-1.34-.53-2.21-1.87-1.92-3.29-1.79.84-2.34,2.35-1.63,4.53,1.17.85,1.69,1.71,1.56,2.59.44,2.99,2.68,4.5,1.34,6.82-1.75,3.03-7.85.19-9.35,6.33l-18.78-6.71c.03-.66-.21-1.38-.52-1.92l23.37-18.39c1.99-1.57,3.9-2.41,6.03-.95Z"/>
    <path class="cls-76" d="M130.11,63.95c.72,2.54-2.86,3.15-3.71,4.4-1.37,2.02.29,5.49-1.38,6.7l-1.99-.82c.96-3.77-1.55-5.02-7.54-3.76l-1.59-1.56c-3.68,1.56-7.94,1.48-11.81,2.29,2.62-4.23,7.43-3.56,4.79-6.13,1.19.14,2.91,1.69,4.9.53s4.42-6.13,7.14-5.25l11.19,3.6Z"/>
    <path class="cls-56" d="M125.02,75.05c0,.73.13,1.46-.15,2.35-.21.67-1.05,1.05-1.9.78-1.47-1.24-3.47-1.63-5.19-2.27s-3.36-1.89-4.79-2.87c-1.19-1.43-.16-2.92.91-4.13,3.28-1.38,6.94-.54,11.19.02l-.07,6.12Z"/>
    <path class="cls-72" d="M86.9,39.89c.37.87-.6,2.47-1,3.21-.76.21-2.25.36-2.77,1.03.06-1.03-.4-2.09-1.72-2.49l-6.11-1.85-.5-10.86c-.28-6.17-1.41-13.61-.77-18.95l12.88,29.92Z"/>
    <path class="cls-49" d="M114,36.01l1.03.34c.62,4.17-2.82,6.37-4.71,9.69l-8.25-.33c-1.31-.04-1.81-1.83-1.84-2.66,1.88-4.69,7.26-6.65,11.59-8.02.69-2.09,1.42-.6,2.18.97Z"/>
    <path class="cls-97" d="M111.81,35.03c-.94,3.2-3.99,3.71-6.99,5.14-1.32.63-2.26,3.95-4.6,2.88l-.88-1.14c-1.21-2.3-1.19-3.98.69-5.91-.31-1.66,3.18-4.38,4.85-4,3.34-1.95,8.22-.9,6.93,3.03Z"/>
    <path class="cls-89" d="M106.02,31.44l-1.14.56-4.85,4c-.64,2.17-1.61,3.15-2.9,2.94-.94.81-2.38,1.78-3.64.02l9.73-7.89c.69-.56,1.29-1.11,1.93-.77.35.19.71.75.87,1.14Z"/>
    <path class="cls-95" d="M114,36.01l-2.18-.97c-1.69-2.13-4.16-3.24-6.93-3.03.32-.27.6-.62,1.14-.56,1.06-.99,2.14-2.14,3.17-2.11,2.98.09,4.44,2.83,4.81,6.68Z"/>
    <path class="cls-59" d="M99.35,41.92c-.74-.95-1.63-1.78-2.21-2.97.18-1.61,1.76-2,2.9-2.94l-.69,5.91Z"/>
    <path class="cls-80" d="M129.97,28.19c.45-1.86,3.49-.6,4.38.85.98,1.31,3.05,3.13,3.65,5.08l-.22,1.08c-.44,2.11-.57,4.44-2.82,5.12-3.67.12-7.02-.63-10.04-2.27-2.43-2.66.72-9.06,1.19-9.43,1.12-.89,2.62-.69,3.86-.43Z"/>
    <path class="cls-9" d="M134.96,40.32c-1.69.51-3.46,1.44-5.53,1.46-2.31.02-3.15-2.25-4.51-3.74,3.44-1.15,7.4-.18,10.04,2.27Z"/>
    <path class="cls-77" d="M134.35,29.04l-4.38-.85c-.55-1.36-2.23-1.22-4.05-1.54,4.19-1.39,8.75-.36,8.43,2.39Z"/>
    <path class="cls-31" d="M110.98,80.72l.84,1.04c-.67,1.81-.31,2.56,1.08,2.25.64-.74,1.86-2.05,1.92-3.04,1,1.31,1.59,3.41.6,4.98-.79,1.25-3.01,1.68-4.51,1.89-1.82-.62-3.05-1.93-3.1-4.29-.03-1.45.78-4.06,3.18-2.83Z"/>
    <path class="cls-64" d="M112.9,84.01c-.09.62-.24.8-.55,1.03-.93.71-2.15.25-2.24-1.12-.08-1.28.42-2.23.87-3.2.51.26,1.59.44,1.84,1.07.3.77.24,1.56.08,2.22Z"/>
    <path class="cls-64" d="M147.51,81.93c-.09.62-.24.8-.55,1.03-.93.71-2.15.25-2.24-1.12-.08-1.28.42-2.23.87-3.2.51.26,1.59.44,1.84,1.07.3.77.24,1.56.08,2.22Z"/>
  </g>
</svg>