<?xml version="1.0" encoding="UTF-8"?>
<svg id="_图层_1" data-name="图层_1" xmlns="http://www.w3.org/2000/svg" version="1.1" viewBox="0 0 256 256">
  <!-- Generator: Adobe Illustrator 30.3.0, SVG Export Plug-In . SVG Version: 2.1.3 Build 182)  -->
  <defs>
    <style>
      .st0 {
        fill: #da9882;
      }

      .st1 {
        fill: #c2c1bf;
      }

      .st2 {
        fill: #834835;
      }

      .st3 {
        fill: #705a43;
      }

      .st4 {
        fill: #4d4d4d;
      }

      .st5 {
        fill: #a7a5a1;
      }

      .st6 {
        fill: #bb3127;
      }

      .st7 {
        fill: #543e26;
      }

      .st8 {
        fill: #636f79;
      }

      .st9 {
        fill: #915866;
      }

      .st10 {
        fill: #231f1a;
      }

      .st11 {
        fill: #de5a45;
      }

      .st12 {
        fill: #724751;
      }

      .st13 {
        fill: #6f8d50;
      }

      .st14 {
        fill: #444f5d;
      }

      .st15 {
        fill: #5f784b;
      }

      .st16 {
        fill: #d64c3b;
      }
    </style>
  </defs>
  <path class="st3" d="M225.82,227.03c1.04.81,1.27,1.32,1.26,2.85l-.48,26.11h-24.01c1.08-2.68-.55-3.49-3.08-3.39-2.02.08-3.51,1.05-4,3.38h-102.51c.04-.65.53-1.48.75-2.03,4.3.34,8.65-.17,13.34-.69,6.25-.69,12.21-.27,18.01-.38l10.84-.19c2.35-.04,4.27-3.36,6.5-3.83,6.09-1.29,18.93,1.94,35.57,1.19,10.13-.46,24.49.82,25.83-3.81.64-2.22-1.69-5.57-3.57-10.14-1.89-.85-3.26-1.18-3.27-2.9,2-.1,4.44.37,6.75-.53,1.79-.69,1.67-3.53,1.21-4.81,3.27-.44,6.57-.05,9.85-.12l3.42-.08c1.04-.02,2.91.12,3.41-.69.72-1.17.61-3.13,1.18-4.65,2.92.72,1.85,3.82,2.99,4.72ZM221.29,245.22c-.41-.25-1.5-.14-1.96.02-1.86.64-2.6,1.69-2.73,3.81-.11,1.78,1.32,2.64,2.89,2.37,2.09-.36,2.26-5.92,1.79-6.2Z"/>
  <path class="st13" d="M12,227.92c-1.71,2.63-3.95,4.43-7.33,4.66-1.05,1.13-1.03,4-.36,5.46,1.05,2.28,14.87,10.05,23.72,9.6l25.51-1.3,11.38-.23c-.76-1.98-.45-3.65.3-4.46.97-1.06,3.15-.86,3.53.22,1.61,4.55,5.27,4.45,9.24,4.66,9.78.53,19.05,1.67,28.69,1.53.32,0,.56.73.35.95l-10.84,1.18c-2.19.24-2.78,2.28-2.42,3.76-.23.55-.71,1.38-.75,2.04H3v-28.31c1.34.41,4.08,1.16,5.45-.29l1.87-4.85c1.75,1.16,2.38,3.49,1.68,5.38Z"/>
  <path class="st13" d="M202.59,256h-7.08c.49-2.34,1.98-3.31,4-3.39,2.53-.1,4.16.71,3.08,3.39Z"/>
  <path class="st13" d="M214.98,182.08c-4.51-.56-8.87-.47-13.43-.04.01,1.93-.6,3.08-1.3,3.66-.77.64-2.93.45-3.84.74-2.97,2.07-3.79,6.22-5.73,8.46-.77.88-2.56,1.96-3.25,3.81-5.26-.05-9.68,2.94-14.05,5.74-2.29,1.46-6.59,0-8.99,2.01-.93.24-1.07.98-.32,1.32l-1.87.37c-1.5-.34-4.72-.75-5.69,1.14-4,7.73-9.97,6.8-8.65,14.31-3.27,1.52-7.86,1.64-8.6,6.36-.5.27-1.33.58-1.7.32-.5-.36-.66-.89-1.4-1.56-.22,2.23-.08,2.9-.89,5.18-4.75-1.86-9.63-.34-14.15-1.11-2.09-.82-4.79-2.52-6.44-4.3,2.53-.26,5.35.07,7.24-.71,2.55-1.05,3.43-6.66,5.45-5.88.61.23,1.29,1.01,2.1,2.15.85-.92,1.02-2.21,1.07-3.78,2.67-1.25,4.47-2.36,6.95-4.43-.95-1.72-2.14-2.55-2.1-5.4,5.01,1.66,7.49,0,9.83-3.39.52-.75,2.75-1.35,3.15-2.09.74-1.4-1.79-5.25.23-5.83.54-.15,1.52-.21,2.74.1,2.02.14,2.4-2.33-.29-2.69,3.14-2.41,4.12-7.02,6.3-4.59.49.55-.05,3.41,2.56,5.6.71.6,3.08.37,3.31-.99.38-2.16.24-4.22,1.79-5.58.21-.57.8-.44.83-.13.04.44.94,1.34,1.33,1.09.39-1.43.58-3.03,1.68-3.35,4.61,4.74-.1-6.82,8.81-9.22-1.65-1.33-3.13-3.19-2.39-4.45.42-.72,3.13,0,3.48-.77.29-.64.15-2.06.52-3.3,1.38,1.16,2.58,2.32,3.61,2.74,2,.8,3.13-.77,3.64-1.79,1.5-3.02-1.94-5.7-1.15-11.61,2.02-.58,3.25-.57,3.93.26,1.57,1.94-1.8,5.54-.02,6.76,2,1.37,6.51.15,7.17-.57,1.15-1.27.74-3.7,1.64-4.83,1.09-1.38,4.61-1.48,5.46-3.06,1.26-2.34,2.47-2.86,4.49-2.64.92.1,2.21-.7,3.06-1.13l.15,6.44c2.72,0,3.51,1.17,3.96,3.69.21,1.15,3.59,1.26,4.89.2.64,2.24-1.28,1.89-1.47,2.41-.26.73-.08,2.11.68,3.53l-4.08,1.44c.88,3.67,1.17,6.66-.22,9.39Z"/>
  <path class="st10" d="M195.98,218.95l.02,1.06c-1.59-.24-3.15,1.52-4.31,1.87-3.82.74-8.55-1.19-12.72,2.27,3.96,1.61,9.84,2.11,12.89-.76,1.15-1.08,4.18-.37,4.13-3.38.35-.12.83-.67,1.08-.97,1.2-.46,3.87-1.76,5.13-.33s.84,4.19.72,6.17c3.65.5,6.37.52,9.86.02.66-1.56,1.17-3.69,2.48-4.57,1.87-1.26,3.66.75,4.28,2.25,1.22-1.66,2.1-2.36,2.98-2.63,1.08-.33,2.68.02,3.13,1.36.68,2.06.39,4.12.16,5.72-1.15-.89-.07-4-2.99-4.72-.58,1.53-.47,3.49-1.18,4.65-.5.81-2.37.67-3.41.69-.02-1.02.11-4.32-1.23-4.95-2.41-.03-2.4,3.52-2.18,5.02-3.28.07-6.58-.32-9.85.12-.92.12-1.98-.23-2.55-.78-1.8-1.76-.26-4.48-1.88-5.09-1.95-.74-2.22,2.98-3.37,3.66-.76.45-3.02-.85-3.84-.45-1.4.69-2.12,2.54-3.36,2.57l-14.09-.35c-.47-.01-1.89.25-2.28.5-.32.21-.22.91,0,1.87,2.3,1.28,6.04.63,8.38,1.68l.96,3.01-15.81-.09c-1.4,1.26-2.85,4.79-6.34,3.11.6-1.65-.26-4.74-.58-6.61l6.47-4.13,7.16-1.55c1.39-.3,2.4-1.33,3.66-2.77,4.71-5.39,15.37-.12,15.77-4.51l.73-7.96,4.1-.51c.72-.09,1.39-.49,1.59-.88.14-.29.02-.69-.3-1,.5-2.18.7-4.38.66-6.69,2.95-1.19,13.59-1.16,11.28-6.92-.29-.73-.11-2.31.14-3.09.22-.69,2.1-.78,2.82-1.71,1.33-1.7-.19-5.42.67-7.1,1.4-2.73,1.1-5.72.22-9.39l4.08-1.44c-.76-1.42-.94-2.8-.68-3.53.19-.52,2.11-.18,1.47-2.41-1.3,1.06-4.68.95-4.89-.2-.45-2.52-1.24-3.7-3.96-3.69l-.15-6.44c-.47-1.63.15-2.78,1.44-3.07,1.21-.28,3.94-.15,4.1,1.54.18,1.87-2.36,4.1-2.76,6.33,4.45.57,8.83,2,10.3,6.41-1.23,1.14-2.55,1.84-2.93,2.73-.54,1.26-.55,3.4.3,4.14,1.77-2.02,5.18-2.75,6.23-1.38.69,3.92,2.03,8.34.78,11.68-2.51.94-4.84.85-7.52.48l-.32-9.67c-.03-.82-3.07-.42-2.84.71.77,3.77-.92,7.77-.7,10.92.3,4.46-2.17,4.52-3.81,7.49-1.17,2.11.35,5.44-2.58,7.19-2.03,1.21-3.49,2.05-7.07,1.4-3.27-.6-.57,5.89-2.85,8.52-.83.95-3.42.59-4.53.82-1.1,2.23-.36,5.69-.33,7.74ZM225.47,173.89c-.5-.4-2.66.1-2.7.87-.15,2.49.09,4.9-.25,7.14,1.93.37,3.9.12,4.51-.57.87-1,.16-6.07-1.56-7.44Z"/>
  <path class="st1" d="M183.87,17.23c.32-.02.85.1,1.16.2,3.7-.9,7.18-.04,9.71,2.53,2.34,2.39,4.03,6.35,1.9,9.65l-3.19,4.93c-1.45,2.23-5.42,3.11-7.75,2.78-3.23-.45-3.51-3.91-5.38-5.48-2.13-1.78-6.4-1.02-8.54-3.4-.37-.41-1.72.34-1.94.52-2.39-2.25-2.22-6.76,0-9.59,2.04-2.61,4.64-5.18,8.65-3.9,1.85.59,3.62,1.9,5.39,1.77Z"/>
  <path class="st10" d="M62.58,47.24c-3.29,1.93-5.04-.77-7.14-1.62-6.22-2.53-11.77-4.79-17.22-8.79-3.55,5.87-9.47,7.27-15.43,5.44-3.86-1.19-5.7-3.71-7.11-6.64-1.83-3.8.31-7.49,2.46-10.84-3.56-5.61-3.42-12.69,1.38-16.95,5.16-4.58,12.15-5.72,17.47-.64l7.8-1.63c4.59.52,7.58,4.95,8.2,8.18.96,4.99-.21,9.41-3.64,12.71-1.69,1.62,1.49,3.72,2.29,4.99,3.21,5.07,6.35,10.73,10.94,15.78ZM19.71,21.23c1.01,1.34,1.26,3.84-.03,5.4-3.37,4.08-2.26,9.81,2.21,12.41,5.85,3.41,12.59,1.66,15.92-4.54,6.12,2.89,10.92,6.33,16.62,7.65.2-.38.56-.67.9-.82-3.84-3.9-6.13-9.1-9.33-14.63,3.04-1.78,3.54-4.34,4.57-6.44,1.25-2.57,2.03-4.53-.18-7.75-1.41-2.06-2.86-3.91-5.18-4.58-2.5-.73-5.29,1.66-7.37,2.76-2.79-1.65-5.34-4.62-8.56-4.59-3.59.03-6.34,1.53-8.82,4.38-2.87,3.31-3.24,7.43-.75,10.75ZM55.66,41.67l-.66.83c.05.31.18.66.34.82l.86-.93-.54-.72ZM55.85,43.89l1.19-.66-1.19.66Z"/>
  <path class="st10" d="M183.87,17.23c-1.77.13-3.54-1.18-5.39-1.77-4.01-1.28-6.6,1.3-8.65,3.9-2.22,2.83-2.4,7.34,0,9.59.68.64,2.07,2.76,1.58,3.63-2.22,3.68-5.43,6.4-6.51,10.34-.99.75-2.63,1.34-2.87,3.61l17.02-5.27c.53,2.8,4.25,5.38,7.94,5.44,3.4.05,5.67-1.42,7.09-4.15,1.19-2.29.91-5.22-.65-8.02l3.19-4.93c2.14-3.3.44-7.27-1.9-9.65-2.52-2.57-6-3.43-9.71-2.53,1.4-3.03,5.82-3.02,8.75-1.2,6.65,4.15,6.41,12.06,2.59,18.37-.93,3.31,1.25,9.2-2.67,12.18-5.06,3.85-12.74,2.08-16.66-3.32-7.36,2.45-13.21,5.95-20.7,7.14l12.94-18.69c-4.5-4.17-4.08-9.83-.84-14.39,2.22-3.12,4.4-4.74,8.66-4.71,3.29.02,5.85,1.42,6.76,4.41Z"/>
  <path class="st13" d="M182.13,107.84l.65,6.2,5.02,1.59c0,.49-.19,1.49-1.26,1.4-2.89-.26-.43,3.81-1.63,9.03l-6.68.19-1.33,5.05.08,1.28c-1.81-.38-3.74.01-5.38-.34-1.17-4.63-.62-7.61.91-11.39l.49-5.85c1.69.64,4.35.59,4.89-1.02.71-2.15.32-4.28,1.2-5.86.96.2,2.12-.07,3.04-.27Z"/>
  <path class="st13" d="M247.48,150.9c.13-.79-.25-2.68-1.46-2.91-4.53-.85-8.49.86-11.68,3.15l-1.81-.15c-.36.15-1.76-.37-1.59-1.05l.92-3.74c.97-1.84,3.09-2.55,5.52-2.65.65-1.72.37-3.02.17-4.14l4.33-3.49c3.68-.58.95,4.8,3.07,6.66.48.42,8.23-.71,5.72,1.06l-2.1,1.48c-1.23.87,2.07,6.87-1.09,5.79Z"/>
  <path class="st10" d="M208.02,156.12c-2.02-.22-3.23.3-4.49,2.64-.85,1.58-4.37,1.68-5.46,3.06-.89,1.13-.49,3.56-1.64,4.83-.65.72-5.16,1.95-7.17.57-1.78-1.22,1.59-4.82.02-6.76-.67-.84-1.91-.85-3.93-.26-.79,5.91,2.65,8.59,1.15,11.61-.5,1.01-1.64,2.59-3.64,1.79-1.03-.41-2.23-1.58-3.61-2.74-.37,1.24-.23,2.65-.52,3.3-.35.76-3.06.06-3.48.77-.74,1.26.74,3.12,2.39,4.45-8.91,2.41-4.19,13.96-8.81,9.22,1.17-2.4.6-5.66,2.68-8.06.63-.66,2.17-1.35,2.35-2.13.12-.52-.97-2.15-.81-2.71,1.23-4.28,6.2-6.96,10.76-5.49l.12-8.23c.03-2.1,1.46-3.35,2.8-3.82,4.35-1.54,3.86,3.65,7.45,6.23l3.42-5.4c5.18-1.32,3.97-9.67,8.77-7.01,1.37.76,1.94,2.52,1.63,4.13Z"/>
  <path class="st10" d="M232.99,153.02l-.45-2.03,1.81.15-.06,4.77c3.68-.33,6.88-.74,10.54.11-.02-1.79.01-3.19.33-4.21.2-.65,1.71-1.11,2.33-.9,3.16,1.09-.15-4.91,1.09-5.79l2.1-1.48c2.51-1.77-5.24-.64-5.72-1.06-2.12-1.87.61-7.24-3.07-6.66.83-.67,1.61-1.38,2.66-.82,1.23.67-.41,5.1,1.01,5.84,1.74.91,6.12-1.4,6.63,1.45.18,1.01-1.53,2.44-1.93,3.98-.35,1.37,2.07,4.37-.11,5.99-.93.69-3.52.39-3.99,1.31-.43.86-.32,2.8-.25,4.25l-13.57-.38.65-4.53Z"/>
  <path class="st10" d="M179.09,108.11c-.88,1.58-.48,3.7-1.2,5.86-.53,1.61-3.2,1.66-4.89,1.02l-.49,5.85c-1.53,3.78-2.08,6.77-.91,11.39,1.64.35,3.57-.04,5.38.34.12,1.78-4.25,3.41-6.04,2.34-3.47-4.32-1.89-10.01-.2-14.92.56-1.62-1.58-5.84,1.45-6.81.97-.31,3.02-.18,3.82-.6.88-.47.95-2.32,1.06-3.4.17-1.57,1.47-1.18,2.01-1.07Z"/>
  <path class="st10" d="M227.93,208.72c-2.65.44-5.75-.82-8.24-1.35-1.56-2.09-1.1-7.22,1.45-7.6,2.94-.44,6.31.34,9.38.71,1.21,2.64-.13,7.12-2.58,8.24ZM228.53,202.51c-1.8-1.5-5.11-.71-6.46-.65-.99,3.62,1.2,3.88,3.42,4.29,2.35.44,4.96-2.03,3.04-3.64Z"/>
  <path class="st10" d="M141.58,185.29c1.2,1.75-.5,4.08-1.57,5.13-2.13,2.08-8.55.69-8.89-1.11-.23-1.22-.43-3.43.72-5.08,1.72-2.46,7.89-1.64,9.74,1.06ZM139.44,186.29c-.82-1.49-6.18-1.19-6.44.49-.43,2.72,2.57,2.8,4.44,2.56,1.12-.15,3.09-1.07,2-3.05Z"/>
  <path class="st10" d="M215.01,78.22c1.84.58,1.42,5.99-.45,7.26-1.56,1.06-5.17.77-6.51-.52-2.03-1.96-2.2-5.06-1.88-8.11,2.45,1.34,5.12.98,8.84,1.37ZM213.83,80.24c-1.03-1.06-4.46-.72-5.4-.47-.79,3.54,1.78,3.59,3.18,3.97,2.53.68,3.94-1.74,2.22-3.5Z"/>
  <path class="st10" d="M247.01,108.99l-.14,12.73c-2.43,1.31-4.67,1.39-6.87,1.29l-.05-8c0-.69-.5-1.05-.96-1.01l-.02-3h2s.18,9.79.18,9.79c1.39.45,3.71-.37,3.72-1.72l.11-10.07c.59.16,1.42.01,2.03-.01Z"/>
  <path class="st10" d="M164.7,170.4c-1.43.46-3.15-1.1-3.89-2.04-.94-1.19-1.65-4.99-.3-5.75l6.06-3.45c2.68,3.53,2.57,9.83-1.87,11.24ZM166.26,167.12c1.16-1.22.21-5.19-1.05-4.74-1.87.67-2.66,1.63-2.92,2.35s-.24,2.58.45,2.9c.87.4,2.62.43,3.52-.51Z"/>
  <path class="st10" d="M186.54,117.03v10.55c-2.06.46-4.84-.08-6.47,1.55-.92,1.04-1.7,2.68-3.17,2.15l1.33-5.05,6.68-.19c1.2-5.22-1.26-9.28,1.63-9.03Z"/>
  <path class="st10" d="M231.13,85.57c2.44-1.22,5.65.25,5.92,1.87.45,2.65-.14,4.7-2.26,5.89s-4.25.72-5.28-1.43c-.94-1.95-1.03-5.01,1.61-6.33ZM235.53,89.24c0-1.36-1.1-2.47-2.47-2.47s-2.47,1.1-2.47,2.47,1.1,2.47,2.47,2.47,2.47-1.1,2.47-2.47Z"/>
  <path class="st10" d="M237.55,139.4c.21,1.12.49,2.42-.17,4.14-2.43.09-4.55.8-5.52,2.65l-1.11-.09c.38-.98-.7-3.69,1.2-3.85,2.9-.23,3.77-1.38,5.59-2.85Z"/>
  <path class="st10" d="M187.81,115.63l-5.02-1.59-.65-6.2c2.84-.63.43,4.8,4.84,5.28,1.35.14,1.94,1.49.84,2.52Z"/>
  <path class="st7" d="M231.87,146.19l-.92,3.74c-.17.68,1.23,1.2,1.59,1.05l.45,2.03c-1.76.49-4.26.08-4.58-2.24-.26-1.92,1.88-3.46,2.35-4.67l1.11.09Z"/>
  <path class="st7" d="M247.01,108.99c-.6.03-1.44.17-2.03.01-1.81-.5-3.8-.07-4.01,2h-2c0-1.23-.16-2.55,1.25-3.3,1.04-.55,5.16-.1,6.79,1.29Z"/>
  <path class="st7" d="M240,123.01c-.37-.02-1-.12-1-.99v-8.03c.45-.03.95.32.95,1.01l.05,8Z"/>
  <path class="st5" d="M173.04,98.01c-.07.53-.48,1.22-1.05,1.56-1.06.63-1.17-.41-1.11-1.06.08-.95.2-1.61,1.42-1.52.58.04.8.62.74,1.03Z"/>
  <path class="st14" d="M173.04,98.01c.05-.41-.16-.99-.74-1.03-.43-.56-.08-.88.27-1,.6-.2,1.24.11,1.45.53.37.74-.16,1.61-.97,1.5Z"/>
  <path class="st8" d="M196,220.01c.04,3.01-2.98,2.3-4.13,3.38l-.17-1.51c1.15-.35,2.72-2.11,4.31-1.87Z"/>
  <path class="st8" d="M196,220.01l-.02-1.06,1.1.08c-.25.31-.73.85-1.08.97Z"/>
  <path class="st7" d="M173.85,225.21l-7.16,1.55-6.47,4.13c.32,1.86,1.17,4.96.58,6.61,3.49,1.68,4.94-1.85,6.34-3.11l15.81.09-.96-3.01c4.06,1.83,8.38,4.08,12.87,1.72.52-.28,1.55.05,2.15.02.02,1.72,1.38,2.05,3.27,2.9,1.88,4.57,4.21,7.92,3.57,10.14-1.35,4.64-15.7,3.35-25.83,3.81-16.64.76-29.48-2.48-35.57-1.19-2.23.47-4.15,3.79-6.5,3.83l-10.84.19c.74-2.7,1.32-5.36.74-8.64l-5.66-.61c-2.02-.22-3.43-2.38-5.24-2.82.53-.25,1.06-1.29,1.44-1.85,1.94,0,4.2-.14,4.84-2.2l.87.14-.27,1.47,6.55,2.28c.81.28,2.17,1.37,2.95,1.17.66-.17,1.22-1.29,1.82-1.7,4.14-2.83,9.26-4.5,14.55-5.4,2.72-5.88,7.82-4.86,14.32-9.94,3.21-2.51,8.6-1.26,11.84.42Z"/>
  <path class="st10" d="M125.1,252.9c-5.8.1-11.76-.31-18.01.38-4.69.52-9.04,1.03-13.34.69-.36-1.48.23-3.52,2.42-3.76l10.84-1.18c1.98-.22,5.4-.35,5.95-3.21.39-2.03.09-4.1,1.97-4.99,1.81.44,3.22,2.6,5.24,2.82l5.66.61c.58,3.28,0,5.94-.74,8.64Z"/>
  <path class="st13" d="M204.96,227.86c.46,1.28.57,4.12-1.21,4.81-2.31.89-4.76.43-6.75.53-.59.03-1.62-.29-2.15-.02-1.44-2.07-4.43-2.53-4.89-5.41,1.24-.03,1.96-1.88,3.36-2.57.81-.4,3.08.9,3.84.45,1.14-.68,1.42-4.4,3.37-3.66,1.62.61.08,3.33,1.88,5.09.57.55,1.63.9,2.55.78Z"/>
  <path class="st13" d="M221.29,245.22c.46.28.29,5.85-1.79,6.2-1.57.27-3-.59-2.89-2.37.13-2.12.86-3.17,2.73-3.81.46-.16,1.55-.27,1.96-.02Z"/>
  <path class="st8" d="M218.23,227.67l-3.42.08c-.22-1.5-.22-5.05,2.18-5.02,1.35.63,1.22,3.93,1.23,4.95Z"/>
  <path class="st15" d="M39.92,228.05c3.25-.05,6.39-.21,9.56.23-.25,3.22,10.33,2.35,17.28-.49,7.74,8.77,14.86,1.34,16.56,2.33.56.32.77,1.77,1.07,2.94.97-1.28.7-2.81.71-4.16l1.93.37-.04,3.74c-1.03-.51-2.47.41-2.05,1.36l.71,1.61c.24.53-.16,2.26.61,2.79,10.25.7,20.2.26,30.12.22-.39.57-.91,1.6-1.44,1.85-1.88.89-1.58,2.96-1.97,4.99-.55,2.86-3.97,3-5.95,3.21.21-.22-.03-.95-.35-.95-9.64.14-18.92-1.01-28.69-1.53-3.98-.21-7.64-.12-9.24-4.66-.38-1.07-2.55-1.28-3.53-.22-.75.82-1.06,2.48-.3,4.46l-11.38.23-25.51,1.3c-8.85.45-22.67-7.32-23.72-9.6-.67-1.46-.69-4.33.36-5.46,3.38-.23,5.62-2.03,7.33-4.66l6.19.34.21,9.69c4.47.22,8.34,2.85,12.66,2.8l16.84-.2c-1.37-5.24-4.78-8.91-7.98-12.5Z"/>
  <path class="st3" d="M214.98,182.08c-.86,1.67.66,5.39-.67,7.1-.72.93-2.6,1.02-2.82,1.71-.25.77-.43,2.36-.14,3.09-3.04-.71-6.58-1.58-9.98-.39-2.17.76-4.34,3.93-4.09,6.09.11.99,2.16,1.46,2.79,1.21.04,2.31-.15,4.52-.66,6.69-2.24-.66-5.39-.97-7.77.16.02,1.33,1.66,2.23,2.37,2.22l-.73,7.96c-.41,4.39-11.06-.88-15.77,4.51-1.26,1.44-2.27,2.47-3.66,2.77-3.23-1.69-8.63-2.93-11.84-.42-6.49,5.08-11.6,4.07-14.32,9.94-5.29.9-10.41,2.57-14.55,5.4.05-6.66,5.15-4.03,6.11-10.17.74-4.72,5.32-4.83,8.6-6.36,2-.93,1.58-3.45,3.46-4.47l6.96-3.79,3.92-7.19,1.87-.37c1.74,1.98,4.52.81,6.96.76,3.93-.08,6.44-.61,8.79-3.91,1.54-2.15,5.66-4.83,8.04-2.65.92.84,1.14,2.3,2.56,1.84,1.67-.54,3.32-6.75.25-8.92,1.94-2.24,2.76-6.39,5.73-8.46.91-.29,3.07-.1,3.84-.74.7-.59,1.31-1.74,1.3-3.66,4.56-.43,8.92-.52,13.43.04Z"/>
  <path class="st15" d="M190.67,194.9c3.08,2.17,1.42,8.38-.25,8.92-1.42.46-1.65-1.01-2.56-1.84-2.39-2.18-6.51.5-8.04,2.65-2.36,3.3-4.87,3.83-8.79,3.91-2.44.05-5.22,1.22-6.96-.76-.75-.34-.61-1.08.32-1.32,2.4-2,6.7-.55,8.99-2.01,4.37-2.8,8.8-5.79,14.05-5.74.69-1.85,2.48-2.93,3.25-3.81Z"/>
  <path class="st15" d="M139.26,229.96c-.96,6.13-6.06,3.51-6.11,10.17-.6.41-1.17,1.53-1.82,1.7-.78.2-2.14-.89-2.95-1.17l-6.55-2.28c1.27-.03,1.46-1.45.27-1.47l-.87-.14-.1-3.99c4.52.77,9.4-.75,14.15,1.11.8-2.28.67-2.95.89-5.18.74.67.9,1.2,1.4,1.56.37.27,1.21-.05,1.7-.32Z"/>
  <path class="st15" d="M162.19,208.15l-3.92,7.19-6.96,3.79c-1.88,1.03-1.45,3.54-3.46,4.47-1.32-7.51,4.64-6.57,8.65-14.31.98-1.89,4.19-1.48,5.69-1.14Z"/>
  <path class="st13" d="M85.11,228.89c0,1.35.26,2.88-.71,4.16-.29-1.17-.51-2.62-1.07-2.94-1.7-.99-8.82,6.44-16.56-2.33-6.96,2.84-17.53,3.72-17.28.49.75-.02,1.88-.03,2.49-.78.47-.58-.08-1.68-1.02-1.57l1.93-.76c2.75,3.21,7.4,3.37,11.7,2.04-1.65-1.87-1.23-5.53.08-5.56,2.84-.06,2.05,3.83,2.79,4.86,1.64,2.27,6.64,1.16,9.64-4.47l1.51,6.27,6.5.59Z"/>
  <path class="st14" d="M42.9,225.95l8.07-.03c.94-.11,1.49,1,1.02,1.57-.61.75-1.74.76-2.49.78-3.17-.44-6.32-.28-9.56-.23.3-1.37,1.66-2.09,2.97-2.1Z"/>
  <path class="st7" d="M211.35,193.97c2.31,5.76-8.32,5.73-11.28,6.92-.64.26-2.68-.21-2.79-1.21-.25-2.17,1.92-5.33,4.09-6.09,3.4-1.19,6.94-.32,9.98.39Z"/>
  <path class="st3" d="M189.97,227.77c.46,2.88,3.45,3.34,4.89,5.41-4.49,2.36-8.8.11-12.87-1.72-2.34-1.05-6.08-.4-8.38-1.68-.23-.96-.33-1.66,0-1.87.39-.25,1.8-.51,2.28-.5l14.09.35Z"/>
  <path class="st1" d="M191.69,221.87l.17,1.51c-3.05,2.87-8.93,2.37-12.89.76,4.17-3.46,8.9-1.53,12.72-2.27Z"/>
  <path class="st13" d="M225.47,173.89c1.72,1.37,2.44,6.44,1.56,7.44-.61.7-2.59.94-4.51.57.34-2.24.1-4.65.25-7.14.05-.77,2.21-1.27,2.7-.87Z"/>
  <path class="st7" d="M199.41,207.58c.32.31.44.71.3,1-.2.4-.87.79-1.59.88l-4.1.51c-.71,0-2.36-.89-2.37-2.22,2.38-1.14,5.53-.82,7.77-.16Z"/>
  <path class="st5" d="M193.44,34.54c1.56,2.8,1.84,5.72.65,8.02-1.42,2.74-3.69,4.21-7.09,4.15-3.69-.06-7.42-2.64-7.94-5.44-.11-.57.31-1.93-.6-2.22-1.6-.52-7.98,4.36-13.55,3.88,1.08-3.94,4.29-6.66,6.51-10.34.49-.87-.9-2.99-1.58-3.63.22-.18,1.58-.93,1.94-.52,2.14,2.38,6.41,1.62,8.54,3.4,1.87,1.57,2.15,5.02,5.38,5.48,2.33.33,6.3-.54,7.75-2.78Z"/>
  <path class="st1" d="M50.57,20.26c-4.05.03-6.64,2.68-9.06,5.1-2.95,2.94-7.3-1.25-10.17-1.3-1.98,0-4.16,2.89-6.22.67-1.44-1.55-3.15-3.55-5.4-3.5-2.49-3.32-2.13-7.45.75-10.75,2.49-2.86,5.23-4.35,8.82-4.38,3.21-.03,5.77,2.93,8.56,4.59,2.08-1.1,4.87-3.49,7.37-2.76,2.32.68,3.77,2.53,5.18,4.58,2.21,3.22,1.43,5.18.18,7.75Z"/>
  <path class="st5" d="M50.57,20.26c-1.02,2.1-1.52,4.67-4.57,6.44,3.2,5.53,5.49,10.73,9.33,14.63l.33.33.54.72.84.83-1.19.66-.51-.56c-.15-.17-.28-.52-.34-.82l-.57-.34c-5.7-1.32-10.5-4.76-16.62-7.65-3.33,6.2-10.07,7.95-15.92,4.54-4.47-2.61-5.58-8.34-2.21-12.41,1.29-1.56,1.04-4.06.03-5.4,2.25-.06,3.96,1.95,5.4,3.5,2.06,2.22,4.24-.68,6.22-.67,2.87.06,7.23,4.24,10.17,1.3,2.43-2.42,5.02-5.07,9.06-5.1Z"/>
  <path class="st1" d="M179.06,41.26l-17.02,5.27c.23-2.27,1.87-2.86,2.87-3.61,5.57.48,11.95-4.39,13.55-3.88.92.3.5,1.65.6,2.22Z"/>
  <path class="st15" d="M247.48,150.9c-.62-.21-2.12.26-2.33.9-.32,1.02-.35,2.42-.33,4.21-3.66-.85-6.85-.43-10.54-.11l.06-4.77c3.19-2.29,7.15-4,11.68-3.15,1.21.23,1.59,2.12,1.46,2.91Z"/>
  <path class="st5" d="M228.53,202.51c1.92,1.61-.69,4.08-3.04,3.64-2.22-.41-4.41-.67-3.42-4.29,1.35-.05,4.66-.85,6.46.65Z"/>
  <path class="st13" d="M139.44,186.29c1.09,1.98-.88,2.9-2,3.05-1.87.25-4.87.17-4.44-2.56.27-1.68,5.63-1.98,6.44-.49Z"/>
  <path class="st13" d="M213.83,80.24c1.72,1.76.31,4.17-2.22,3.5-1.4-.37-3.97-.42-3.18-3.97.93-.25,4.37-.59,5.4.47Z"/>
  <path class="st13" d="M244.98,109l-.11,10.07c-.01,1.35-2.34,2.17-3.72,1.72l-.18-9.78c.21-2.07,2.2-2.51,4.01-2Z"/>
  <path class="st13" d="M166.26,167.12c-.9.94-2.65.91-3.52.51-.69-.32-.72-2.16-.45-2.9s1.05-1.68,2.92-2.35c1.26-.45,2.22,3.51,1.05,4.74Z"/>
  <circle class="st13" cx="233.06" cy="89.24" r="2.47"/>
  <path class="st13" d="M121.82,238.38l.27-1.47c1.2.02,1,1.43-.27,1.47Z"/>
  <g>
    <path class="st10" d="M149.86,49.1c-.82-1.05-1.47-2.12-.88-4.08l5.04-16.79c.32-1.06.27-2.36-.64-3.49l-13.7-16.94-52.63,3.95-6.82,5.53c-3.61,2.93-8.29,6.06-10.92,10.21-2.06,7.84.24,16.49.84,24.44-4.29,2.23-6.03,5.63-4.56,10.55l.87,9.99c2.25.72,4.17.45,6.64.53-1.81,8.9-.17,18.25-4.41,20.13-2.56-.3-4.94-.13-7.31-.06l-5.38.17c-7.01.22-20.72,8.12-27.98,13.78-2.12,1.65-1.8,5.02-.97,6.77-2.17.21-3.19,1.96-4.68,3.58l-8.01,8.69c3.21,9.4,8.14,17.46,12.21,26.33l2.34,9.03c-3.75,1.63-7.9,1.32-12.58,2.22-1.62.31-1.81,6.23-.26,6.16l13.06-.54c3.76,1.74,7.68,1.61,11.81,1.14-.11.69.16,2.07-.18,2.64-2.34,3.75-1.2,8.84-2.24,12.82l-3.29,12.61c-.79,3.03-2.81,5.43-4.17,8.49-3.15,7.09-6.69,13.61-11.23,20.02l.9,5.04c.19,1.06-.7,3.73.4,4.47,8.19,1.22,14.55,4.29,23.7,2.03l-7.78-11.35,10.37-10.77c2.75-2.86,6.4-4.75,7.71-8.27,2.88-1.44,4.72-4.47,6.75-7.36,2.83-4.04,6.33-7.41,8.22-11.6,2.27-.23,4.45.7,6.33,2.49l13.76,13.1-1.35,21.17c-.1,1.58-.77,2.67-1.78,3.33l-1.93-.37-6.5-.59-1.51-6.27c-3,5.63-8,6.74-9.64,4.47-.74-1.03.05-4.92-2.79-4.86-1.31.03-1.73,3.69-.08,5.56-4.31,1.33-8.95,1.17-11.7-2.04,2.66-1.04,5.57-.05,9.31-.23-1.34-2.43-.53-4.38,1.07-5.26,4.53-2.49,3.88,5.49,9.92,3.19,1.14-.43,2.2-2,2.92-3.8,2.51.77,2.45,3.5,3.64,5.13,1.11,1.51,4.47,1.13,6.15.66l.21-7.9c.08-3.17,2.05-7.56.54-10.88-2.08-4.57-13.11-12.93-13.35-12.99-1.57-.41-2.54.33-3.56,1.65l-12.62,16.36c-2.65,3.43-11.08,9.67-14.22,14.85-1.31,0-2.67.73-2.97,2.1,3.2,3.59,6.6,7.26,7.98,12.5l-16.84.2c-4.32.05-8.19-2.58-12.66-2.8l-.21-9.69-6.19-.34c.7-1.89.07-4.22-1.68-5.38l-1.87,4.85c-1.37,1.46-4.11.7-5.44.29,0-.61-.3-1.54.16-2.01.56-.59,1.81-.67,2.76-.77l4.05-5.24c2.22,1.2,3.2,4.11,4.72,5.2,2.52,1.81,4.09-1.15,5.04-3.16,3.91-8.25,11.07-15.06,12.69-23.92l4.34-23.76c-6.86,1.03-9.7-3.85-16.27-1.41-2.14.8-5.28.93-6.75-1.55-1.25-2.11-1.52-7.86.69-9.29,2.9-1.88,7.21-1.38,10.34-1.83,1.28-3.44-.83-5.86-2.07-8.58l-7.27-15.95c-1.2-2.63-4.52-7.16-3.14-10.13,2.61-5.58,8.02-9.14,11.52-13.79-.82-1.6-1.11-3.33-.62-4.67.34-.92,1.87-1.75,3.17-2.46l16.75-9.27c8.11-4.49,16.35-5.94,25.98-4.79-.3-4.94-.02-8.86,1.38-13.58l-7.46-2.79c1.3-12.85-4.39-20.81,2.6-22.24,2.08-9.33-3.06-22.25.53-25.55l16.09-14.79c2.07-1.9,3.03-2.29,5.76-2.48l14.03-1,14.01-1.03,13.99-.99c3.9-.28,7.69-1.72,11.69-.63l15.11,19.97-3.07,11.64c-1.14,4.34-3.14,8.07-3.93,12.27Z"/>
    <path class="st8" d="M97.15,171.94l13.55,21.33c1.57,2.47,1.87,4.35,1.46,6.85-4.84-3.16-13.04,7.83-21.36-.85-3.73-3.89-6.87-6.9-11.8-10.25,1.35-1.96,3.03-2.75,3.41-5.27-5.4.86-11.11,2.72-12.32,5.41-1.89,4.18-5.39,7.55-8.22,11.6-2.03,2.9-3.86,5.93-6.75,7.36-8.53-2.01-13.64-8.76-19.9-9.66l3.29-12.61,26.34-6.14c8.7-2.19,19.5-5.86,26.17-5.73,1.38.03,2.59-1,3.03-1.79l3.1-.27ZM83.5,183l-.5.5.5.5.5-.5-.5-.5Z"/>
    <path class="st2" d="M154.01,28.24c-3.24-.59-6.56.76-8.02,3.85l-18.79,2.46c-3.83.5-7.41-3.69-11.2-3.48.36-.88-.07-1.79-.64-1.95-1.09-.3-1.92.04-2.65.03-2.16-.02-3.99-.88-5.75-1.8-2.14-6.09-15.77-7.72-19.92-15.6l52.63-3.95,13.7,16.94c.91,1.13.96,2.43.64,3.49Z"/>
    <path class="st7" d="M106.96,27.35c-1.74-.91-4.08-1.17-6.01-1.45-1.8-.27-3.35.99-5.17,1.96l-9.09,4.85,2.27,9.28-5.88,6.94c-1.82,4.89-.39,10.96-2.14,14.45-.46.91-2.91,1.26-3.46.39-2.05-3.28-3.41-6.41-4.43-9.65-.39-1.23-1.69-2.8-2.91-2.17-.6-7.94-2.9-16.6-.84-24.44,2.63-4.16,7.31-7.29,10.92-10.21l6.82-5.53c4.15,7.87,17.78,9.5,19.92,15.6Z"/>
    <path class="st14" d="M112.16,200.12c-1.54,9.3-4.18,17.33-5.08,25.98-3.64,4.61-11.32-.04-16.93,4.06-1.48,1.08-1.45,3.43-1.3,4.73l-1.93-.25.08-1.64.04-3.74c1.02-.66,1.68-1.75,1.78-3.33l1.35-21.17-13.76-13.1c-1.88-1.79-4.07-2.73-6.33-2.49,1.22-2.69,6.93-4.55,12.32-5.41-.38,2.52-2.06,3.31-3.41,5.27,4.93,3.34,8.07,6.36,11.8,10.25,8.32,8.68,16.52-2.31,21.36.85Z"/>
    <path class="st14" d="M55.12,208.12c-1.31,3.52-4.96,5.41-7.71,8.27l-10.37,10.77c-3.97.62-9.54-.5-13.66,1.32-.51,1.21-.6,4.04-2.66,3.53l-.9-5.04c4.54-6.41,8.08-12.93,11.23-20.02,1.36-3.06,3.38-5.46,4.17-8.49,6.26.9,11.36,7.65,19.9,9.66Z"/>
    <path class="st14" d="M89.02,171.04c1.42,1.11,3.28,1.24,5.03,1.16-.45.78-1.66,1.81-3.03,1.79-6.67-.13-17.46,3.54-26.17,5.73l-26.34,6.14c1.04-3.98-.1-9.07,2.24-12.82,4.01-.78,8.11,1.45,12.05,1.28l31.26-1.33c.82-.03,1.58-.22,1.85-.54.24-.29.3-.98.2-1.38l2.92-.03Z"/>
    <path class="st12" d="M70.26,164l-1.34,3.1,5.01,4.5,12.18-.53c.1.4.04,1.09-.2,1.38-.27.32-1.02.51-1.85.54l-31.26,1.33c-3.94.17-8.04-2.07-12.05-1.28.33-.57.07-1.95.18-2.64l4.94-.56c.47-.05,1.48-.4,1.9-.18,1.91,1.03,3.6-2.29,5.03-2.75l17.45-2.91Z"/>
    <path class="st12" d="M37.04,227.16l7.78,11.35c-9.15,2.26-15.51-.81-23.7-2.03-1.1-.73-.22-3.41-.4-4.47,2.07.51,2.16-2.32,2.66-3.53,4.12-1.83,9.69-.7,13.66-1.32Z"/>
    <path class="st9" d="M100.61,160.2c-.71,3.43-1.67,6.81-3.24,9.86h-7.34c-.7,0-1.15.36-1,.98l-2.92.03-12.18.53-5.01-4.5,1.34-3.1c2.69-.45,5.24-.6,7.67-1.58l22.68-2.22Z"/>
    <path class="st12" d="M88.85,234.89c-.14-1.31-.17-3.66,1.3-4.73,5.62-4.09,13.3.55,16.93-4.06,3.71,4.49,10.81,5,11.42,10.54-9.31-.91-18.15-.55-27.54-.4-1.03.02-1.84-.84-2.11-1.35Z"/>
    <path class="st12" d="M97.36,170.06c-.25.48-.21,1.29-.21,1.88l-3.1.27c-1.75.08-3.6-.05-5.03-1.16-.15-.63.29-.98,1-.98h7.34Z"/>
    <path class="st12" d="M87,233l-.08,1.64c-.04.72-.4,1.34-1.26,1.32l-.71-1.61c-.42-.95,1.03-1.87,2.05-1.36Z"/>
    <rect class="st14" x="83.15" y="183.15" width=".71" height=".71" transform="translate(-105.3 112.79) rotate(-45)"/>
    <g>
      <path class="st10" d="M165.01,190.99c-1.55,1.35-1.41,3.42-1.79,5.58-.24,1.36-2.6,1.59-3.31.99-2.61-2.19-2.07-5.05-2.56-5.6-2.18-2.43-3.16,2.18-6.3,4.59,2.69.36,2.31,2.83.29,2.69-1.22-.31-2.2-.26-2.74-.1-2.02.58.51,4.43-.23,5.83-.4.75-2.63,1.34-3.15,2.09-2.34,3.39-4.82,5.05-9.83,3.39-.04,2.85,1.15,3.67,2.1,5.4-2.48,2.06-4.29,3.18-6.95,4.43-.06,1.57-.22,2.86-1.07,3.78-.81-1.14-1.49-1.92-2.1-2.15-2.03-.78-2.91,4.83-5.45,5.88-1.89.78-4.71.45-7.24.71,1.65,1.78,4.35,3.47,6.44,4.3l.1,3.99c-.64,2.05-2.9,2.19-4.84,2.2-9.92.04-19.87.48-30.12-.22-.76-.54-.37-2.26-.61-2.79.86.02,1.23-.6,1.26-1.32l1.93.25c.27.5,1.08,1.36,2.11,1.35,9.39-.15,18.23-.51,27.54.4-.61-5.54-7.7-6.04-11.42-10.54.9-8.65,3.53-16.68,5.08-25.98.41-2.5.11-4.38-1.46-6.85l-13.55-21.33c0-.6-.04-1.4.21-1.88,1.57-3.05,2.54-6.43,3.24-9.86,1.56-3.26,5.61-2.61,8.71-2.06-.21,1.84,1.08,4,3.62,4.02l20.93.11c-.17.93.29,1.46.84,1.65.92.31,2.26-.38,2.92-.37,3.75.05,9.33-3.2,13.14-5.63,3.05-1.95,5.15-4.45,4.04-7.88l1.52-.14,25.59-3.69c1.72-.25,3.83.94,6.45.38l13.49-2.88c1.35-.29,1.69-1.54,1.43-2.39l2.87-.13c.68,1.38,2.12,1.54,3.26,1.14,1.65-.59,2.84-1.55,3.71-3.61,3.93-9.32,11.58-18.78,12.7-28.59-2.79-8.39-14.67-12.01-23.31-11.73l-4.36,36.63c-.3,2.51-1.95,4.18-4.14,3.96-1.02-.14-2.56-.08-3.03.94-.52.06-1.43.25-1.88.07-1.58-.64-3.06.6-4.17.7-1.87.17-3.37,1.45-5.42,1.77l-23.42,3.65-2.43-.04c-.92-2.16-3.54-3.78-5.88-5.66-5.29,4.17-10.9,4.13-12.18,7.27-1.51-.05-3.43-.13-4.56,1.25l-3.03.05c-.32-1.16-1.46-1.12-2.51-1.11-1.28,0-1.88.69-1.5,2.08-.57-.08-1.41.05-1.99.15l.14-2.07c-.62-2.19-1.89-4.16-2.44-6.86,1.39-.94,2.45-3.71,4.98-4.23,1.73-.59,2.71.71,1.33,1.71-1.59.62-3.03,1.81-3.06,2.8-.02.93.69,3.29,1.86,3.85,7.09,3.42,16.73-5.86,23.24-7.96,3.62-1.17,5.08,5.48,7.25,6.07,9.34,1.24,15.44-2.92,19.68-2.27,2.54.39,3.84-1.99,5.63-2.32l15.14-2.83,2.45-24.02c.44-4.35.7-9.63,2.43-13.48,2.45-5.47,24.81.28,28.12,12.29l-14.41,30.64c-2.48,5.27-25.58,6.56-36.09,7.99l-20.03,2.72-1.99,5.24-14.72,8.03c-8.89,2.33-21.82-1.28-27.6-.38-6.92,1.08-8.86-10.04-11.37-2.51l-2.77,8.32,16.21,26.01c-2.44,6.2-3.05,12.36-4.47,18.75-.79,3.58-2.73,6.79-1.73,10.33,14.94,1.95,13.06-4.4,14.81-5.39l9.52-5.42c-1.57-1.71-.99-5.48.91-5.95,1.48-.37,5.27.85,5.87-1.09.77-2.45,2.57-3.91,5.07-4.5-.72-3.39-.51-6.77,3.12-8.58,2.99-1.49.76-7.39,5.45-8.07,4.38-.63,4.98,8.96,8.15,2.87.76-1.47.86-.59,2.31,1.19Z"/>
      <path class="st0" d="M27.03,113.79l7.69,16.24c2.07,4.36-.48,16.44,4.78,20.75,3.91,3.19,7.17,1.16,8.62,3.38.59.91.28,2.62-.13,4-.58-.28-2.19-.11-2.66.52-.41.55.22,1.79.59,2.31l.17,2.08c.18,2.17,1.69,4.3,1.68,6.59-.42-.22-1.43.12-1.9.18.2-.45.37-1.96-.12-2.68l-16.68-1.14-.16-4.59-2.34-9.03c-4.07-8.88-9-16.93-12.21-26.33l8.01-8.69c1.49-1.62,2.51-3.37,4.68-3.58Z"/>
      <path class="st14" d="M28.9,161.42l.16,4.59.05,3.25-13.06.54c-1.56.06-1.36-5.85.26-6.16,4.68-.89,8.83-.59,12.58-2.22Z"/>
      <path class="st9" d="M45.87,169.84l-4.94.56c-4.13.47-8.05.6-11.81-1.14l-.05-3.25,16.68,1.14c.49.72.33,2.23.12,2.68Z"/>
      <path class="st5" d="M225.84,110.14c-.23-.47-1.66-.68-2.16-.21-.39.37-3.56,10.11-8.43,16.57-.8-3.27,1.65-4.81,1.92-6.83-.47-.55-.68-1.26-.73-1.41-1.96,1.92-2.63,4.62-4.24,7.3-.78,1.3.6,2.78,1.98,3.48-.41,2.64-2.88,2.25-2.51-.68-2.33,1.64-.93,4.21-1.04,6.51-.13,2.8-3.52,4.39-4.47,6.35l-2.87.13-18.46,2.22c-1.05.13-2.24.36-2.73.95-.26.31-.31,1.02-.18,1.71l-25.59,3.69-.21-3.77,23.42-3.65c2.05-.32,3.56-1.6,5.42-1.77.3,1.46,1.45,1.44,2.52,1.4,1.28-.04,1.87-.78,1.65-2.11.45.18,1.35-.02,1.88-.07.35.89,1.43,1.39,2.23.93.6-.35.85-1.22.8-1.86,2.19.22,3.84-1.45,4.14-3.96l4.36-36.63c8.64-.27,20.52,3.34,23.31,11.73ZM204.57,136.82l11.1-29.31c.95-2.51-5.92-5.11-6.74-3.1l-7.94,30.65c-.31,1.19-1.13,2.64-.04,3.34.7.45,3.05-.06,3.62-1.58Z"/>
      <path class="st0" d="M153.69,146.09c.47,1.09.78,2.87,1.13,3.95,1.11,3.42-.99,5.93-4.04,7.88-3.81,2.44-9.39,5.68-13.14,5.63-.38-.81-.84-1.26-1.34-1.44-1-.37-1.84.16-2.42.16l-20.93-.11c-2.53-.01-3.83-2.17-3.62-4.02,4.53-.79,8.98-1.36,13.43-2.02l8.35-1.25.8.04,1.26.14c-.16.75-.98,1.53-2.19,2.35l3.72,2.96c1.74,1.38,4.47.67,5.12-1.03.68-1.79-.9-2.86-1.58-4.71l-2.6-6.91c1.28-3.14,6.89-3.1,12.18-7.27,2.34,1.88,4.96,3.5,5.88,5.66Z"/>
      <path class="st8" d="M225.84,110.14c-1.11,9.82-8.77,19.27-12.7,28.59-.87,2.07-2.06,3.03-3.71,3.61-1.14.41-2.58.24-3.26-1.14.95-1.96,4.34-3.56,4.47-6.35.11-2.3-1.3-4.87,1.04-6.51-.37,2.93,2.1,3.33,2.51.68-1.39-.7-2.76-2.18-1.98-3.48,1.6-2.68,2.28-5.38,4.24-7.3.05.15.26.86.73,1.41-.27,2.02-2.72,3.56-1.92,6.83,4.87-6.46,8.04-16.2,8.43-16.57.49-.47,1.92-.26,2.16.21Z"/>
      <path class="st12" d="M123.1,153.9l-.35,2.22c-4.45.67-8.9,1.24-13.43,2.02-3.11-.56-7.15-1.2-8.71,2.06l-22.68,2.22c0-1.29-.24-2.39-1.06-3.29.77-.58,2.01-1.83,3.1-1.1,1.97,1.3,3.83.82,6.53.49l24.18-2.91,1.53.05c.44.01.84-.84,1.01-1.34,3.16-.23,6.68-.48,9.88-.41Z"/>
      <path class="st1" d="M131.06,148.95c.59.97.71,2.18-.03,3.08-2.68.09-6.23-.6-7.94,1.87-3.2-.07-6.71.18-9.88.41-.26-.14-1.1-.26-1.57-.15-.49.12-.93.79-.97,1.44l-24.18,2.91c-2.7.32-4.56.81-6.53-.49l.07-1.2c2.48,1.14,5.34-.54,8.06-1l33.92-5.71c.58-.1,1.42-.23,1.99-.15,1.46.21,2.92.11,4.01-.97l3.03-.05Z"/>
      <path class="st9" d="M135.62,147.7l2.6,6.91c.69,1.85,2.27,2.93,1.58,4.71s-3.38,2.41-5.12,1.03l-3.72-2.96c1.21-.82,2.04-1.59,2.19-2.35.18-.87-1.04-1.51-1.26-.14l-.8-.04-.06-2.84c.74-.91.62-2.11.03-3.08,1.13-1.38,3.05-1.3,4.56-1.25Z"/>
      <path class="st14" d="M203.3,141.34c.25.84-.08,2.1-1.43,2.39l-13.49,2.88c-2.62.56-4.73-.63-6.45-.38-.12-.69-.07-1.39.18-1.71.49-.6,1.68-.83,2.73-.95l18.46-2.22Z"/>
      <path class="st9" d="M156.12,146.14l.21,3.77-1.52.14c-.35-1.09-.66-2.86-1.13-3.95l2.43.04Z"/>
      <path class="st12" d="M128.04,149c-1.1,1.07-2.55,1.18-4.01.97-.38-1.38.23-2.07,1.5-2.08,1.05,0,2.19-.05,2.51,1.11Z"/>
      <path class="st8" d="M189.13,140.01c.21,1.32-.37,2.07-1.65,2.11-1.07.03-2.22.05-2.52-1.4,1.11-.1,2.59-1.34,4.17-.7Z"/>
      <path class="st7" d="M137.63,163.56c-.66,0-2,.69-2.92.37-.55-.19-1.01-.72-.84-1.65.58,0,1.41-.53,2.42-.16.5.18.96.63,1.34,1.44Z"/>
      <path class="st8" d="M194.04,139c.05.64-.2,1.51-.8,1.86-.79.47-1.87-.04-2.23-.93.47-1.02,2.01-1.08,3.03-.94Z"/>
      <path class="st7" d="M77.05,154.53l.03,1.89-31.16,4.56c-.38-.52-1.01-1.77-.59-2.31.47-.63,2.08-.8,2.66-.52,1.5.73,3.26.06,4.82-.16l24.24-3.46Z"/>
      <path class="st3" d="M80.05,156.82l-.07,1.2c-1.09-.72-2.33.53-3.1,1.1-10.01,1.28-20.9,2.06-30.78,3.94l-.17-2.08,31.16-4.56c1.36-.21,1.85-.12,2.97.4Z"/>
      <path class="st7" d="M76.87,159.13c.82.9,1.06,2,1.06,3.29-2.43.98-4.98,1.13-7.67,1.58l-17.45,2.91c-1.44.46-3.13,3.77-5.03,2.75,0-2.29-1.5-4.42-1.68-6.59,9.88-1.88,20.77-2.66,30.78-3.94Z"/>
      <path class="st8" d="M204.57,136.82c-.57,1.51-2.92,2.03-3.62,1.58-1.09-.7-.27-2.15.04-3.34l7.94-30.65c.82-2.01,7.69.6,6.74,3.1l-11.1,29.31Z"/>
      <path class="st3" d="M131.04,152.03l.06,2.84-8.35,1.25.35-2.22c1.7-2.47,5.25-1.78,7.94-1.87Z"/>
      <path class="st3" d="M133.16,155.05l-1.26-.14c.23-1.37,1.45-.73,1.26.14Z"/>
      <path class="st5" d="M113.23,154.31c-.17.5-.57,1.36-1.01,1.34l-1.53-.05c.04-.66.48-1.33.97-1.44.47-.11,1.31,0,1.57.15Z"/>
    </g>
    <g>
      <path class="st12" d="M124.56,136.36c-.06.15,0,.41.14.6-2.53.52-3.58,3.29-4.98,4.23-6.16,4.13-13.07,3.44-13.67,9.61,5.18-1.4,10.57-2.06,16.11-2.75l-.14,2.07-33.92,5.71c-2.73.46-5.58,2.14-8.06,1-1.12-.52-1.6-.61-2.97-.4l-.03-1.89,26.18-3.73,11.05-33.84-13.34-1.67c1.15-3.34,5.47-2.59,7.2-5.34,2.93,2.68,7.11,5.21,8.69,9.28l5.33,13.71c.59,1.51,1.16,2.8,2.41,3.41Z"/>
      <path class="st10" d="M150.3,52.99l-2.14,13.83c1.33,7.82.24,13.8-2.09,21.3l-5.51,17.73-21.36,6.22c-.83.24-2.53-.7-3.27.46-.5.78.45,1.63,1.99,2.65l6.03,15.94c.74,1.95,1.27,3.57.62,5.25-1.25-.61-1.83-1.9-2.41-3.41l-5.33-13.71c-1.58-4.07-5.76-6.6-8.69-9.28,1.83-2.9,7.65,3.11,19.01-2.77,2.63-1.36,8.28-.34,10.58-3.42l4.63-13.69,4.43-12.37c1.12-3.13-1.82-7.46-1.52-10.33.51-4.92,2.22-9.34,2.31-14.28l2.73-.11Z"/>
      <path class="st7" d="M154.01,28.24l-5.04,16.79c-.59,1.96.07,3.03.88,4.08.7.91.62,2.75.44,3.88l-2.73.11c.05-2.75,0-5-.36-7.83-.53-4.15.63-8.93-1.22-13.18,1.46-3.09,4.78-4.45,8.02-3.85Z"/>
      <path class="st9" d="M61.37,93.07c-.7,2.79,2.33,3.52,3.45,4.93,3.4,4.3,7.45,7.66,11.88,11.32,3.71,3.06,6.56,7.11,11.15,9.1l4.54-2.91c2.3-1.48,6.05-.53,8.55-.22l13.34,1.67-11.05,33.84-26.18,3.73-24.24,3.46c3.06-2.3,1.48-5.91,1.78-9.2.77-8.37,1.8-16.38-1.03-24.61l4.55-7.22-2.12-23.72,5.38-.17Z"/>
      <path class="st12" d="M55.99,93.24l2.12,23.72-4.55,7.22c2.83,8.23,1.8,16.24,1.03,24.61-.3,3.29,1.28,6.9-1.78,9.2-1.55.22-3.32.89-4.82.16.42-1.38.73-3.09.13-4-1.45-2.22-4.71-.18-8.62-3.38,2.43-4.76,3.23-9.96,4.79-15.27l3.42-11.61c-5.7.59-8.78,5.65-13,6.13l-7.69-16.24c-.83-1.75-1.14-5.12.97-6.77,7.26-5.66,20.97-13.57,27.98-13.78Z"/>
      <path class="st2" d="M73.06,54.1c-.46-.04-1.11-.51-2.59.07.79,3.3,1.94,5.89,1.9,9.16-1.68-1.89-1.99-3.33-4.66-3.36,1.92,4.57.07,8.79,3.23,10.56,1.05.59,2.89.41,4.7-.1l-2.17,17.28c-.29,2.3,1.77,4.67,1.09,7.22,4.01,3.61,9.03,5.76,14.24,5.99.02.38.21.84.34,1.19-1.07,6.04,6.52,1.39,9.97,6.38,2.61-1.57,4.92-1.43,7.91-1.28l10.89.55c2.99.15,5.63-1.74,8.26-1.76l.96,1.18c-11.36,5.88-17.18-.12-19.01,2.77-1.73,2.74-6.04,1.99-7.2,5.34-2.5-.31-6.25-1.26-8.55.22l-4.54,2.91c-4.59-1.99-7.44-6.04-11.15-9.1-4.43-3.66-8.48-7.02-11.88-11.32,2.16-1.05,3.04-3.21,3.87-4.87,4.24-1.89,2.6-11.24,4.41-20.13-2.46-.07-4.39.2-6.64-.53l-.87-9.99c-1.47-4.92.27-8.32,4.56-10.55,1.22-.63,2.52.93,2.91,2.17Z"/>
      <path class="st12" d="M68.68,93.13c-.83,1.66-1.71,3.82-3.87,4.87-1.12-1.41-4.14-2.14-3.45-4.93,2.38-.07,4.75-.24,7.31.06Z"/>
      <path class="st0" d="M119.73,141.19c.55,2.7,1.82,4.67,2.44,6.86-5.54.69-10.93,1.35-16.11,2.75.6-6.17,7.51-5.48,13.67-9.61Z"/>
      <path class="st16" d="M106.96,27.35c1.76.92,3.59,1.79,5.75,1.8.64,1.05,1.99,1.99,3.29,1.92,3.79-.21,7.36,3.99,11.2,3.48l18.79-2.46c1.85,4.25.7,9.03,1.22,13.18-.4-.49-1.2-2.12-2.12-1.85-1.35.4-3.24.95-4.05,1.59-1.33-1.98-1.1-4.79-2.07-7.05-1.18-2.75-4.71-1.74-7-1.32-6.98,1.28-13.16-1.78-19.39-4.03l-11.98-2.14c1.48,3.69,2.99,5.8,2.09,8.68-2.05,1.14-4.77,4.34-6.66,6.58,6.06,1.07,10.95,2.83,9.24,5.16-2.33.68-5.49,2.2-7.48,4.27-1.92,3.03-.44,8.23-.13,11.65,1.82.16,2.3-.65,2.92-1.11.89-.66,1.96-.51,3-.47.03.62.33,1.34,1.03,1.63s1.16-.68,1.51-.91c1.68-.09,4.53.5,6.4-.13.52-.56.14-1.5.16-1.83.23-.97.68-2.07,1.43-3.23,3.68.51,5.94-2.51,8.02-5.79,1.67,1.81-.77,4.12-2.42,13.84-.31,1.85-2.16,3.55-1.8,5.16-.42.01-.78.14-1.26.23s-.96.98-.4,1.42l5.66,4.47,6.87-3.34c.82-.4,1.07-1.41.88-2.07-.13-.46-1.18-.62-1.58-.71-.47-1.81-.16-4.38,1.24-5.87.12.22.39.45.67.67.69,5.6,5.39,7.69,5.28,13.17-3.49-.69-7.63,1.37-11.23.46l-20.32-5.15c-1.31-.33-2.3-.14-2.98.78-3.99,5.33-9.1,15.56-6.63,17.38.82.61,2.96.19,3.79.62,3.59,1.88,6.37-.51,15.03.37l10.61,1.08c2.68.27,5.68,2.92,8,2.5.86-.15,2.71.31,3.53-.89,1.89-2.74,2.09-6.25,1.8-9.19,1.74-.71,3.66-1.05,5.51.15l-4.63,13.69c-2.29,3.08-7.95,2.06-10.58,3.42l-.96-1.18c-.11-.94-.79-1.81-2.22-1.97-11.88-1.36-23.38-1.75-34.81-1.92-.13-.35-.33-.81-.34-1.19-.42-8.45,1.14-16.94,1.3-25.93l.47-26.75c.08-4.76,1.2-9.21.48-14.17,4.3-4.77,10.17-4.51,9.89-8.18,1.93.29,4.27.55,6.01,1.45Z"/>
      <path class="st11" d="M142.68,66.11l2.59,1.27c-.3,2.86,2.64,7.2,1.52,10.33l-4.43,12.37c-1.85-1.2-3.77-.87-5.51-.15l-.26-2.54c-.06-.57.05-1.2-.54-1.44l-.02-1.68c0-.77-.63-1.7-.79-2.31.11-5.48-4.59-7.57-5.28-13.17,3.14-.24,6.48.39,10.5,1.29,2.11.47,2.23-2.63-.13-2.11-1.18.26-1.98.02-2.65-.14-.55-.14-1.01-.92-.65-1.78,1.62-.71,3.97-.3,5.63.08Z"/>
      <path class="st9" d="M147.57,53.1c-.08,4.94-1.79,9.36-2.31,14.28l-2.59-1.27c.43-3.08.51-6.14-1.84-8.3.21-3.2,3.28-4.57,6.74-4.71Z"/>
      <path class="st2" d="M147.21,45.27c.36,2.82.41,5.08.36,7.83-3.46.15-6.53,1.52-6.74,4.71-3.73.86-6.59,3.48-9.89,5.19-.53-.23-1.08-.35-1.81-.44l-.99-7.35,12.9-10.2c.81-.64,2.69-1.19,4.05-1.59.92-.27,1.72,1.36,2.12,1.85Z"/>
      <path class="st10" d="M39.51,150.78c-5.26-4.3-2.72-16.39-4.78-20.75,4.22-.48,7.3-5.54,13-6.13l-3.42,11.61c-1.57,5.31-2.36,10.51-4.79,15.27ZM40.65,130.05c-3.4,1.52-3.32,6.87-1.99,12.67,3.9-6.87,5.72-14.34,1.99-12.67Z"/>
      <path class="st6" d="M116.01,31.07c-1.3.07-2.65-.87-3.29-1.92.72,0,1.56-.34,2.65-.03.58.16,1,1.08.64,1.95Z"/>
      <path class="st6" d="M100.95,25.89c.27,3.67-5.59,3.4-9.89,8.18.72,4.96-.39,9.41-.48,14.17l-.47,26.75c-.16,8.99-1.72,17.48-1.3,25.93-5.21-.24-10.23-2.39-14.24-5.99.67-2.54-1.38-4.92-1.09-7.22l2.17-17.28c-1.81.51-3.65.69-4.7.1-3.16-1.77-1.31-6-3.23-10.56,2.67.03,2.98,1.47,4.66,3.36.04-3.28-1.11-5.87-1.9-9.16,1.48-.58,2.13-.11,2.59-.07,1.02,3.25,2.39,6.38,4.43,9.65.55.88,3,.52,3.46-.39,1.74-3.49.32-9.55,2.14-14.45l5.88-6.94-2.27-9.28,9.09-4.85c1.81-.97,3.37-2.22,5.17-1.96Z"/>
      <path class="st6" d="M126.19,106c-2.63.02-5.27,1.91-8.26,1.76l-10.89-.55c-2.98-.15-5.29-.29-7.91,1.28-3.45-4.99-11.04-.33-9.97-6.38,11.44.17,22.93.56,34.81,1.92,1.43.16,2.11,1.04,2.22,1.97Z"/>
      <path class="st11" d="M141.04,45.02l-12.9,10.2.99,7.35c-.86,1.78-.94,3.52.16,5.54-1.41,1.49-1.72,4.07-1.24,5.87-2.16,2.31-5.77-.4-10.16,0-.36-1.61,1.49-3.31,1.8-5.16,1.65-9.73,4.09-12.04,2.42-13.84l-15.44-16.74c-.87-.71-3.18.47-3.99.92.91-2.88-.61-5-2.09-8.68l11.98,2.14c6.23,2.26,12.41,5.31,19.39,4.03,2.29-.42,5.82-1.43,7,1.32.97,2.25.74,5.07,2.07,7.05Z"/>
      <path class="st2" d="M122.12,54.98c-2.08,3.28-4.33,6.3-8.02,5.79-1.85-3.22-5.52-6.43-9.1-7.87l.27-2c1.7-2.33-3.19-4.08-9.24-5.16,1.89-2.24,4.61-5.44,6.66-6.58.81-.45,3.12-1.63,3.99-.92l15.44,16.74Z"/>
      <path class="st1" d="M105,52.89c3.58,1.44,7.25,4.66,9.1,7.87-.75,1.16-1.2,2.25-1.43,3.23l-12.6-1.22c-.35-2.04-.45-4.11.04-6.8.31-1.72,3.3-3.72,4.89-3.08Z"/>
      <path class="st2" d="M135.24,81.94c.16.61.78,1.54.79,2.31l-2.2-.27-9.81,1.01-17.14-4.94c-2.09-.6-3.91-1.52-5.82-.82l-.35-1.2c.69-.92,1.67-1.11,2.98-.78l20.32,5.15c3.6.91,7.74-1.15,11.23-.46Z"/>
      <path class="st7" d="M101.06,79.23l-.2,6.06.08,2.85-2.68,6.83-.4,1.07c-.83-.44-2.97-.02-3.79-.62-2.47-1.82,2.64-12.05,6.63-17.38l.35,1.2Z"/>
      <path class="st7" d="M136.03,84.25l.02,1.68.54,1.44.26,2.54c.3,2.93.09,6.45-1.8,9.19-.83,1.2-2.67.74-3.53.89l.59-1.94.24-6.19c.43-.73.58-1.58.52-2.42l.97-5.46,2.2.27Z"/>
      <path class="st6" d="M117.89,73.98c4.39-.4,8,2.31,10.16,0,.41.09,1.45.25,1.58.71.19.66-.06,1.67-.88,2.07l-6.87,3.34-5.66-4.47c-.56-.44-.08-1.33.4-1.42s.84-.22,1.26-.23Z"/>
      <path class="st2" d="M124.02,95c.3.38.72.76,1.22.91,2.3.73,4.47,1.88,6.87,2.15l-.59,1.94c-2.32.41-5.33-2.23-8-2.5l-10.61-1.08.17-2.39c3.67.1,7.34.08,10.94.98Z"/>
      <path class="st6" d="M105.26,50.9l-.27,2c-1.59-.64-4.58,1.36-4.89,3.08-.48,2.68-.39,4.76-.04,6.8l.49,2.93c-.62.46-1.1,1.27-2.92,1.11-.3-3.43-1.79-8.62.13-11.65,2-2.06,5.15-3.59,7.48-4.27Z"/>
      <path class="st6" d="M130.95,63c-.26,1.59.29,3.04,2.22,3.34,1.1.17,2.57.26,3.88-.31-.36.86.1,1.64.65,1.78.66.16,1.46.4,2.65.14,2.36-.52,2.24,2.59.13,2.11-4.02-.9-7.36-1.53-10.5-1.29-.28-.22-.55-.44-.67-.67-1.1-2.02-1.02-3.76-.16-5.54.73.09,1.28.21,1.81.44Z"/>
      <path class="st9" d="M113.07,94.02l-.17,2.39c-8.66-.88-11.44,1.51-15.03-.37l.4-1.07c4.82.51,8.94-1.11,14.81-.95Z"/>
      <path class="st2" d="M112.67,63.99c-.02.33.36,1.27-.16,1.83-1.88.63-4.72.04-6.4.13-.47-1.04-1.77-.69-2.55-.72-1.04-.04-2.1-.19-3,.47l-.49-2.93,12.6,1.22Z"/>
      <path class="st6" d="M106.11,65.96c-.35.24-.84,1.2-1.51.91s-1-1.01-1.03-1.63c.78.03,2.07-.32,2.55.72Z"/>
      <path class="st1" d="M140.83,57.81c2.35,2.15,2.27,5.22,1.84,8.3-1.66-.39-4.01-.8-5.63-.08-1.31.57-2.77.48-3.88.31-1.93-.3-2.47-1.74-2.22-3.34,3.3-1.71,6.16-4.33,9.89-5.19Z"/>
      <path class="st16" d="M136.59,87.37l-.54-1.44c.59.24.48.87.54,1.44Z"/>
      <path class="st1" d="M133.83,83.98l-.97,5.46-32-4.15.2-6.06c1.91-.7,3.74.22,5.82.82l17.14,4.94,9.81-1.01Z"/>
      <path class="st1" d="M132.35,91.86l-.24,6.19c-2.4-.27-4.57-1.42-6.87-2.15-.3-.35-.76-.8-1.22-.91-3.6-.9-7.28-.88-10.94-.98-5.86-.16-9.99,1.46-14.81.95l2.68-6.83,31.4,3.72Z"/>
      <path class="st9" d="M132.87,89.44c.06.85-.08,1.69-.52,2.42l-31.4-3.72-.08-2.85,32,4.15Z"/>
      <path class="st9" d="M125.24,95.91c-.5-.16-.92-.54-1.22-.91.46.11.92.57,1.22.91Z"/>
    </g>
  </g>
  <circle class="st4" cx="107.88" cy="60.28" r=".94"/>
  <circle class="st4" cx="136.59" cy="63" r=".94"/>
</svg>